G04 #@! TF.GenerationSoftware,KiCad,Pcbnew,(5.0.2)-1*
G04 #@! TF.CreationDate,2019-03-19T19:21:29-04:00*
G04 #@! TF.ProjectId,Keithley_17X_USB,4b656974-686c-4657-995f-3137585f5553,rev?*
G04 #@! TF.SameCoordinates,Original*
G04 #@! TF.FileFunction,Legend,Bot*
G04 #@! TF.FilePolarity,Positive*
%FSLAX46Y46*%
G04 Gerber Fmt 4.6, Leading zero omitted, Abs format (unit mm)*
G04 Created by KiCad (PCBNEW (5.0.2)-1) date 3/19/2019 7:21:29 PM*
%MOMM*%
%LPD*%
G01*
G04 APERTURE LIST*
%ADD10C,0.300000*%
%ADD11C,0.170000*%
%ADD12C,0.120000*%
%ADD13C,0.150000*%
G04 APERTURE END LIST*
D10*
X81871428Y-91707142D02*
X81657142Y-91778571D01*
X81300000Y-91778571D01*
X81157142Y-91707142D01*
X81085714Y-91635714D01*
X81014285Y-91492857D01*
X81014285Y-91350000D01*
X81085714Y-91207142D01*
X81157142Y-91135714D01*
X81300000Y-91064285D01*
X81585714Y-90992857D01*
X81728571Y-90921428D01*
X81800000Y-90850000D01*
X81871428Y-90707142D01*
X81871428Y-90564285D01*
X81800000Y-90421428D01*
X81728571Y-90350000D01*
X81585714Y-90278571D01*
X81228571Y-90278571D01*
X81014285Y-90350000D01*
X79728571Y-91778571D02*
X79728571Y-90992857D01*
X79800000Y-90850000D01*
X79942857Y-90778571D01*
X80228571Y-90778571D01*
X80371428Y-90850000D01*
X79728571Y-91707142D02*
X79871428Y-91778571D01*
X80228571Y-91778571D01*
X80371428Y-91707142D01*
X80442857Y-91564285D01*
X80442857Y-91421428D01*
X80371428Y-91278571D01*
X80228571Y-91207142D01*
X79871428Y-91207142D01*
X79728571Y-91135714D01*
X79014285Y-91778571D02*
X79014285Y-90778571D01*
X79014285Y-90921428D02*
X78942857Y-90850000D01*
X78800000Y-90778571D01*
X78585714Y-90778571D01*
X78442857Y-90850000D01*
X78371428Y-90992857D01*
X78371428Y-91778571D01*
X78371428Y-90992857D02*
X78300000Y-90850000D01*
X78157142Y-90778571D01*
X77942857Y-90778571D01*
X77800000Y-90850000D01*
X77728571Y-90992857D01*
X77728571Y-91778571D01*
X75871428Y-91778571D02*
X75871428Y-90278571D01*
X75300000Y-90278571D01*
X75157142Y-90350000D01*
X75085714Y-90421428D01*
X75014285Y-90564285D01*
X75014285Y-90778571D01*
X75085714Y-90921428D01*
X75157142Y-90992857D01*
X75300000Y-91064285D01*
X75871428Y-91064285D01*
X73800000Y-91707142D02*
X73942857Y-91778571D01*
X74228571Y-91778571D01*
X74371428Y-91707142D01*
X74442857Y-91564285D01*
X74442857Y-90992857D01*
X74371428Y-90850000D01*
X74228571Y-90778571D01*
X73942857Y-90778571D01*
X73800000Y-90850000D01*
X73728571Y-90992857D01*
X73728571Y-91135714D01*
X74442857Y-91278571D01*
X73085714Y-91778571D02*
X73085714Y-90778571D01*
X73085714Y-91064285D02*
X73014285Y-90921428D01*
X72942857Y-90850000D01*
X72800000Y-90778571D01*
X72657142Y-90778571D01*
X72157142Y-91778571D02*
X72157142Y-90778571D01*
X72157142Y-91064285D02*
X72085714Y-90921428D01*
X72014285Y-90850000D01*
X71871428Y-90778571D01*
X71728571Y-90778571D01*
X71371428Y-90778571D02*
X71014285Y-91778571D01*
X70657142Y-90778571D02*
X71014285Y-91778571D01*
X71157142Y-92135714D01*
X71228571Y-92207142D01*
X71371428Y-92278571D01*
X124178571Y-71928571D02*
X124178571Y-70428571D01*
X123321428Y-71928571D02*
X123964285Y-71071428D01*
X123321428Y-70428571D02*
X124178571Y-71285714D01*
X122107142Y-71857142D02*
X122250000Y-71928571D01*
X122535714Y-71928571D01*
X122678571Y-71857142D01*
X122750000Y-71714285D01*
X122750000Y-71142857D01*
X122678571Y-71000000D01*
X122535714Y-70928571D01*
X122250000Y-70928571D01*
X122107142Y-71000000D01*
X122035714Y-71142857D01*
X122035714Y-71285714D01*
X122750000Y-71428571D01*
X121392857Y-71928571D02*
X121392857Y-70928571D01*
X121392857Y-70428571D02*
X121464285Y-70500000D01*
X121392857Y-70571428D01*
X121321428Y-70500000D01*
X121392857Y-70428571D01*
X121392857Y-70571428D01*
X120892857Y-70928571D02*
X120321428Y-70928571D01*
X120678571Y-70428571D02*
X120678571Y-71714285D01*
X120607142Y-71857142D01*
X120464285Y-71928571D01*
X120321428Y-71928571D01*
X119821428Y-71928571D02*
X119821428Y-70428571D01*
X119178571Y-71928571D02*
X119178571Y-71142857D01*
X119250000Y-71000000D01*
X119392857Y-70928571D01*
X119607142Y-70928571D01*
X119750000Y-71000000D01*
X119821428Y-71071428D01*
X118250000Y-71928571D02*
X118392857Y-71857142D01*
X118464285Y-71714285D01*
X118464285Y-70428571D01*
X117107142Y-71857142D02*
X117250000Y-71928571D01*
X117535714Y-71928571D01*
X117678571Y-71857142D01*
X117750000Y-71714285D01*
X117750000Y-71142857D01*
X117678571Y-71000000D01*
X117535714Y-70928571D01*
X117250000Y-70928571D01*
X117107142Y-71000000D01*
X117035714Y-71142857D01*
X117035714Y-71285714D01*
X117750000Y-71428571D01*
X116535714Y-70928571D02*
X116178571Y-71928571D01*
X115821428Y-70928571D02*
X116178571Y-71928571D01*
X116321428Y-72285714D01*
X116392857Y-72357142D01*
X116535714Y-72428571D01*
X113321428Y-71928571D02*
X114178571Y-71928571D01*
X113750000Y-71928571D02*
X113750000Y-70428571D01*
X113892857Y-70642857D01*
X114035714Y-70785714D01*
X114178571Y-70857142D01*
X112821428Y-70428571D02*
X111821428Y-70428571D01*
X112464285Y-71928571D01*
X111392857Y-70428571D02*
X110392857Y-71928571D01*
X110392857Y-70428571D02*
X111392857Y-71928571D01*
X108678571Y-70428571D02*
X108678571Y-71642857D01*
X108607142Y-71785714D01*
X108535714Y-71857142D01*
X108392857Y-71928571D01*
X108107142Y-71928571D01*
X107964285Y-71857142D01*
X107892857Y-71785714D01*
X107821428Y-71642857D01*
X107821428Y-70428571D01*
X107178571Y-71857142D02*
X106964285Y-71928571D01*
X106607142Y-71928571D01*
X106464285Y-71857142D01*
X106392857Y-71785714D01*
X106321428Y-71642857D01*
X106321428Y-71500000D01*
X106392857Y-71357142D01*
X106464285Y-71285714D01*
X106607142Y-71214285D01*
X106892857Y-71142857D01*
X107035714Y-71071428D01*
X107107142Y-71000000D01*
X107178571Y-70857142D01*
X107178571Y-70714285D01*
X107107142Y-70571428D01*
X107035714Y-70500000D01*
X106892857Y-70428571D01*
X106535714Y-70428571D01*
X106321428Y-70500000D01*
X105178571Y-71142857D02*
X104964285Y-71214285D01*
X104892857Y-71285714D01*
X104821428Y-71428571D01*
X104821428Y-71642857D01*
X104892857Y-71785714D01*
X104964285Y-71857142D01*
X105107142Y-71928571D01*
X105678571Y-71928571D01*
X105678571Y-70428571D01*
X105178571Y-70428571D01*
X105035714Y-70500000D01*
X104964285Y-70571428D01*
X104892857Y-70714285D01*
X104892857Y-70857142D01*
X104964285Y-71000000D01*
X105035714Y-71071428D01*
X105178571Y-71142857D01*
X105678571Y-71142857D01*
X103107142Y-71500000D02*
X102392857Y-71500000D01*
X103250000Y-71928571D02*
X102750000Y-70428571D01*
X102250000Y-71928571D01*
X101107142Y-71928571D02*
X101107142Y-70428571D01*
X101107142Y-71857142D02*
X101250000Y-71928571D01*
X101535714Y-71928571D01*
X101678571Y-71857142D01*
X101750000Y-71785714D01*
X101821428Y-71642857D01*
X101821428Y-71214285D01*
X101750000Y-71071428D01*
X101678571Y-71000000D01*
X101535714Y-70928571D01*
X101250000Y-70928571D01*
X101107142Y-71000000D01*
X99750000Y-71928571D02*
X99750000Y-71142857D01*
X99821428Y-71000000D01*
X99964285Y-70928571D01*
X100250000Y-70928571D01*
X100392857Y-71000000D01*
X99750000Y-71857142D02*
X99892857Y-71928571D01*
X100250000Y-71928571D01*
X100392857Y-71857142D01*
X100464285Y-71714285D01*
X100464285Y-71571428D01*
X100392857Y-71428571D01*
X100250000Y-71357142D01*
X99892857Y-71357142D01*
X99750000Y-71285714D01*
X99035714Y-70928571D02*
X99035714Y-72428571D01*
X99035714Y-71000000D02*
X98892857Y-70928571D01*
X98607142Y-70928571D01*
X98464285Y-71000000D01*
X98392857Y-71071428D01*
X98321428Y-71214285D01*
X98321428Y-71642857D01*
X98392857Y-71785714D01*
X98464285Y-71857142D01*
X98607142Y-71928571D01*
X98892857Y-71928571D01*
X99035714Y-71857142D01*
X97892857Y-70928571D02*
X97321428Y-70928571D01*
X97678571Y-70428571D02*
X97678571Y-71714285D01*
X97607142Y-71857142D01*
X97464285Y-71928571D01*
X97321428Y-71928571D01*
X96250000Y-71857142D02*
X96392857Y-71928571D01*
X96678571Y-71928571D01*
X96821428Y-71857142D01*
X96892857Y-71714285D01*
X96892857Y-71142857D01*
X96821428Y-71000000D01*
X96678571Y-70928571D01*
X96392857Y-70928571D01*
X96250000Y-71000000D01*
X96178571Y-71142857D01*
X96178571Y-71285714D01*
X96892857Y-71428571D01*
X95535714Y-71928571D02*
X95535714Y-70928571D01*
X95535714Y-71214285D02*
X95464285Y-71071428D01*
X95392857Y-71000000D01*
X95250000Y-70928571D01*
X95107142Y-70928571D01*
D11*
X127257142Y-73842857D02*
X127257142Y-74814285D01*
X127314285Y-74928571D01*
X127371428Y-74985714D01*
X127485714Y-75042857D01*
X127657142Y-75042857D01*
X127771428Y-74985714D01*
X127257142Y-74585714D02*
X127371428Y-74642857D01*
X127600000Y-74642857D01*
X127714285Y-74585714D01*
X127771428Y-74528571D01*
X127828571Y-74414285D01*
X127828571Y-74071428D01*
X127771428Y-73957142D01*
X127714285Y-73900000D01*
X127600000Y-73842857D01*
X127371428Y-73842857D01*
X127257142Y-73900000D01*
X126685714Y-74642857D02*
X126685714Y-73842857D01*
X126685714Y-73442857D02*
X126742857Y-73500000D01*
X126685714Y-73557142D01*
X126628571Y-73500000D01*
X126685714Y-73442857D01*
X126685714Y-73557142D01*
X126285714Y-73842857D02*
X125828571Y-73842857D01*
X126114285Y-73442857D02*
X126114285Y-74471428D01*
X126057142Y-74585714D01*
X125942857Y-74642857D01*
X125828571Y-74642857D01*
X125428571Y-74642857D02*
X125428571Y-73442857D01*
X124914285Y-74642857D02*
X124914285Y-74014285D01*
X124971428Y-73900000D01*
X125085714Y-73842857D01*
X125257142Y-73842857D01*
X125371428Y-73900000D01*
X125428571Y-73957142D01*
X123828571Y-73842857D02*
X123828571Y-74642857D01*
X124342857Y-73842857D02*
X124342857Y-74471428D01*
X124285714Y-74585714D01*
X124171428Y-74642857D01*
X124000000Y-74642857D01*
X123885714Y-74585714D01*
X123828571Y-74528571D01*
X123257142Y-74642857D02*
X123257142Y-73442857D01*
X123257142Y-73900000D02*
X123142857Y-73842857D01*
X122914285Y-73842857D01*
X122800000Y-73900000D01*
X122742857Y-73957142D01*
X122685714Y-74071428D01*
X122685714Y-74414285D01*
X122742857Y-74528571D01*
X122800000Y-74585714D01*
X122914285Y-74642857D01*
X123142857Y-74642857D01*
X123257142Y-74585714D01*
X122171428Y-74528571D02*
X122114285Y-74585714D01*
X122171428Y-74642857D01*
X122228571Y-74585714D01*
X122171428Y-74528571D01*
X122171428Y-74642857D01*
X121085714Y-74585714D02*
X121199999Y-74642857D01*
X121428571Y-74642857D01*
X121542857Y-74585714D01*
X121599999Y-74528571D01*
X121657142Y-74414285D01*
X121657142Y-74071428D01*
X121599999Y-73957142D01*
X121542857Y-73900000D01*
X121428571Y-73842857D01*
X121199999Y-73842857D01*
X121085714Y-73900000D01*
X120399999Y-74642857D02*
X120514285Y-74585714D01*
X120571428Y-74528571D01*
X120628571Y-74414285D01*
X120628571Y-74071428D01*
X120571428Y-73957142D01*
X120514285Y-73900000D01*
X120399999Y-73842857D01*
X120228571Y-73842857D01*
X120114285Y-73900000D01*
X120057142Y-73957142D01*
X119999999Y-74071428D01*
X119999999Y-74414285D01*
X120057142Y-74528571D01*
X120114285Y-74585714D01*
X120228571Y-74642857D01*
X120399999Y-74642857D01*
X119485714Y-74642857D02*
X119485714Y-73842857D01*
X119485714Y-73957142D02*
X119428571Y-73900000D01*
X119314285Y-73842857D01*
X119142857Y-73842857D01*
X119028571Y-73900000D01*
X118971428Y-74014285D01*
X118971428Y-74642857D01*
X118971428Y-74014285D02*
X118914285Y-73900000D01*
X118799999Y-73842857D01*
X118628571Y-73842857D01*
X118514285Y-73900000D01*
X118457142Y-74014285D01*
X118457142Y-74642857D01*
X117028571Y-73385714D02*
X118057142Y-74928571D01*
X116685714Y-74585714D02*
X116571428Y-74642857D01*
X116342857Y-74642857D01*
X116228571Y-74585714D01*
X116171428Y-74471428D01*
X116171428Y-74414285D01*
X116228571Y-74300000D01*
X116342857Y-74242857D01*
X116514285Y-74242857D01*
X116628571Y-74185714D01*
X116685714Y-74071428D01*
X116685714Y-74014285D01*
X116628571Y-73900000D01*
X116514285Y-73842857D01*
X116342857Y-73842857D01*
X116228571Y-73900000D01*
X115142857Y-74642857D02*
X115142857Y-73442857D01*
X115142857Y-74585714D02*
X115257142Y-74642857D01*
X115485714Y-74642857D01*
X115599999Y-74585714D01*
X115657142Y-74528571D01*
X115714285Y-74414285D01*
X115714285Y-74071428D01*
X115657142Y-73957142D01*
X115599999Y-73900000D01*
X115485714Y-73842857D01*
X115257142Y-73842857D01*
X115142857Y-73900000D01*
X114571428Y-73842857D02*
X114571428Y-75042857D01*
X114571428Y-73900000D02*
X114457142Y-73842857D01*
X114228571Y-73842857D01*
X114114285Y-73900000D01*
X114057142Y-73957142D01*
X113999999Y-74071428D01*
X113999999Y-74414285D01*
X114057142Y-74528571D01*
X114114285Y-74585714D01*
X114228571Y-74642857D01*
X114457142Y-74642857D01*
X114571428Y-74585714D01*
X113314285Y-73957142D02*
X113428571Y-73900000D01*
X113485714Y-73842857D01*
X113542857Y-73728571D01*
X113542857Y-73671428D01*
X113485714Y-73557142D01*
X113428571Y-73500000D01*
X113314285Y-73442857D01*
X113085714Y-73442857D01*
X112971428Y-73500000D01*
X112914285Y-73557142D01*
X112857142Y-73671428D01*
X112857142Y-73728571D01*
X112914285Y-73842857D01*
X112971428Y-73900000D01*
X113085714Y-73957142D01*
X113314285Y-73957142D01*
X113428571Y-74014285D01*
X113485714Y-74071428D01*
X113542857Y-74185714D01*
X113542857Y-74414285D01*
X113485714Y-74528571D01*
X113428571Y-74585714D01*
X113314285Y-74642857D01*
X113085714Y-74642857D01*
X112971428Y-74585714D01*
X112914285Y-74528571D01*
X112857142Y-74414285D01*
X112857142Y-74185714D01*
X112914285Y-74071428D01*
X112971428Y-74014285D01*
X113085714Y-73957142D01*
X111828571Y-73842857D02*
X111828571Y-74642857D01*
X112114285Y-73385714D02*
X112399999Y-74242857D01*
X111657142Y-74242857D01*
X111028571Y-73957142D02*
X111142857Y-73900000D01*
X111199999Y-73842857D01*
X111257142Y-73728571D01*
X111257142Y-73671428D01*
X111199999Y-73557142D01*
X111142857Y-73500000D01*
X111028571Y-73442857D01*
X110799999Y-73442857D01*
X110685714Y-73500000D01*
X110628571Y-73557142D01*
X110571428Y-73671428D01*
X110571428Y-73728571D01*
X110628571Y-73842857D01*
X110685714Y-73900000D01*
X110799999Y-73957142D01*
X111028571Y-73957142D01*
X111142857Y-74014285D01*
X111199999Y-74071428D01*
X111257142Y-74185714D01*
X111257142Y-74414285D01*
X111199999Y-74528571D01*
X111142857Y-74585714D01*
X111028571Y-74642857D01*
X110799999Y-74642857D01*
X110685714Y-74585714D01*
X110628571Y-74528571D01*
X110571428Y-74414285D01*
X110571428Y-74185714D01*
X110628571Y-74071428D01*
X110685714Y-74014285D01*
X110799999Y-73957142D01*
X110171428Y-73442857D02*
X109428571Y-73442857D01*
X109828571Y-73900000D01*
X109657142Y-73900000D01*
X109542857Y-73957142D01*
X109485714Y-74014285D01*
X109428571Y-74128571D01*
X109428571Y-74414285D01*
X109485714Y-74528571D01*
X109542857Y-74585714D01*
X109657142Y-74642857D01*
X109999999Y-74642857D01*
X110114285Y-74585714D01*
X110171428Y-74528571D01*
X108057142Y-73385714D02*
X109085714Y-74928571D01*
X107657142Y-74642857D02*
X107657142Y-73442857D01*
X106971428Y-74642857D02*
X107485714Y-73957142D01*
X106971428Y-73442857D02*
X107657142Y-74128571D01*
X105999999Y-74585714D02*
X106114285Y-74642857D01*
X106342857Y-74642857D01*
X106457142Y-74585714D01*
X106514285Y-74471428D01*
X106514285Y-74014285D01*
X106457142Y-73900000D01*
X106342857Y-73842857D01*
X106114285Y-73842857D01*
X105999999Y-73900000D01*
X105942857Y-74014285D01*
X105942857Y-74128571D01*
X106514285Y-74242857D01*
X105428571Y-74642857D02*
X105428571Y-73842857D01*
X105428571Y-73442857D02*
X105485714Y-73500000D01*
X105428571Y-73557142D01*
X105371428Y-73500000D01*
X105428571Y-73442857D01*
X105428571Y-73557142D01*
X105028571Y-73842857D02*
X104571428Y-73842857D01*
X104857142Y-73442857D02*
X104857142Y-74471428D01*
X104799999Y-74585714D01*
X104685714Y-74642857D01*
X104571428Y-74642857D01*
X104171428Y-74642857D02*
X104171428Y-73442857D01*
X103657142Y-74642857D02*
X103657142Y-74014285D01*
X103714285Y-73900000D01*
X103828571Y-73842857D01*
X103999999Y-73842857D01*
X104114285Y-73900000D01*
X104171428Y-73957142D01*
X102914285Y-74642857D02*
X103028571Y-74585714D01*
X103085714Y-74471428D01*
X103085714Y-73442857D01*
X101999999Y-74585714D02*
X102114285Y-74642857D01*
X102342857Y-74642857D01*
X102457142Y-74585714D01*
X102514285Y-74471428D01*
X102514285Y-74014285D01*
X102457142Y-73900000D01*
X102342857Y-73842857D01*
X102114285Y-73842857D01*
X101999999Y-73900000D01*
X101942857Y-74014285D01*
X101942857Y-74128571D01*
X102514285Y-74242857D01*
X101542857Y-73842857D02*
X101257142Y-74642857D01*
X100971428Y-73842857D02*
X101257142Y-74642857D01*
X101371428Y-74928571D01*
X101428571Y-74985714D01*
X101542857Y-75042857D01*
X100799999Y-74757142D02*
X99885714Y-74757142D01*
X98971428Y-74642857D02*
X99657142Y-74642857D01*
X99314285Y-74642857D02*
X99314285Y-73442857D01*
X99428571Y-73614285D01*
X99542857Y-73728571D01*
X99657142Y-73785714D01*
X98571428Y-73442857D02*
X97771428Y-73442857D01*
X98285714Y-74642857D01*
X97428571Y-73442857D02*
X96628571Y-74642857D01*
X96628571Y-73442857D02*
X97428571Y-74642857D01*
X96457142Y-74757142D02*
X95542857Y-74757142D01*
X95257142Y-73442857D02*
X95257142Y-74414285D01*
X95199999Y-74528571D01*
X95142857Y-74585714D01*
X95028571Y-74642857D01*
X94799999Y-74642857D01*
X94685714Y-74585714D01*
X94628571Y-74528571D01*
X94571428Y-74414285D01*
X94571428Y-73442857D01*
X94057142Y-74585714D02*
X93885714Y-74642857D01*
X93599999Y-74642857D01*
X93485714Y-74585714D01*
X93428571Y-74528571D01*
X93371428Y-74414285D01*
X93371428Y-74300000D01*
X93428571Y-74185714D01*
X93485714Y-74128571D01*
X93599999Y-74071428D01*
X93828571Y-74014285D01*
X93942857Y-73957142D01*
X93999999Y-73900000D01*
X94057142Y-73785714D01*
X94057142Y-73671428D01*
X93999999Y-73557142D01*
X93942857Y-73500000D01*
X93828571Y-73442857D01*
X93542857Y-73442857D01*
X93371428Y-73500000D01*
X92457142Y-74014285D02*
X92285714Y-74071428D01*
X92228571Y-74128571D01*
X92171428Y-74242857D01*
X92171428Y-74414285D01*
X92228571Y-74528571D01*
X92285714Y-74585714D01*
X92399999Y-74642857D01*
X92857142Y-74642857D01*
X92857142Y-73442857D01*
X92457142Y-73442857D01*
X92342857Y-73500000D01*
X92285714Y-73557142D01*
X92228571Y-73671428D01*
X92228571Y-73785714D01*
X92285714Y-73900000D01*
X92342857Y-73957142D01*
X92457142Y-74014285D01*
X92857142Y-74014285D01*
D12*
G04 #@! TO.C,J2*
X79270000Y-62360000D02*
X78000000Y-62360000D01*
X79270000Y-63630000D02*
X79270000Y-62360000D01*
D13*
X72678333Y-60812380D02*
X72678333Y-61526666D01*
X72725952Y-61669523D01*
X72821190Y-61764761D01*
X72964047Y-61812380D01*
X73059285Y-61812380D01*
X72249761Y-60907619D02*
X72202142Y-60860000D01*
X72106904Y-60812380D01*
X71868809Y-60812380D01*
X71773571Y-60860000D01*
X71725952Y-60907619D01*
X71678333Y-61002857D01*
X71678333Y-61098095D01*
X71725952Y-61240952D01*
X72297380Y-61812380D01*
X71678333Y-61812380D01*
G04 #@! TD*
M02*
