G04 #@! TF.GenerationSoftware,KiCad,Pcbnew,(5.0.2)-1*
G04 #@! TF.CreationDate,2019-03-19T19:21:29-04:00*
G04 #@! TF.ProjectId,Keithley_17X_USB,4b656974-686c-4657-995f-3137585f5553,rev?*
G04 #@! TF.SameCoordinates,Original*
G04 #@! TF.FileFunction,Copper,L2,Bot*
G04 #@! TF.FilePolarity,Positive*
%FSLAX46Y46*%
G04 Gerber Fmt 4.6, Leading zero omitted, Abs format (unit mm)*
G04 Created by KiCad (PCBNEW (5.0.2)-1) date 3/19/2019 7:21:29 PM*
%MOMM*%
%LPD*%
G01*
G04 APERTURE LIST*
G04 #@! TA.AperFunction,ComponentPad*
%ADD10R,1.700000X1.700000*%
G04 #@! TD*
G04 #@! TA.AperFunction,ComponentPad*
%ADD11C,1.700000*%
G04 #@! TD*
G04 #@! TA.AperFunction,ComponentPad*
%ADD12C,3.500000*%
G04 #@! TD*
G04 #@! TA.AperFunction,ComponentPad*
%ADD13O,1.700000X1.700000*%
G04 #@! TD*
G04 #@! TA.AperFunction,ComponentPad*
%ADD14C,5.600000*%
G04 #@! TD*
G04 #@! TA.AperFunction,ViaPad*
%ADD15C,0.800000*%
G04 #@! TD*
G04 #@! TA.AperFunction,Conductor*
%ADD16C,0.250000*%
G04 #@! TD*
G04 #@! TA.AperFunction,Conductor*
%ADD17C,0.254000*%
G04 #@! TD*
G04 APERTURE END LIST*
D10*
G04 #@! TO.P,J1,1*
G04 #@! TO.N,Net-(D1-Pad1)*
X132000000Y-70000000D03*
D11*
G04 #@! TO.P,J1,2*
G04 #@! TO.N,/D-*
X132000000Y-72500000D03*
G04 #@! TO.P,J1,3*
G04 #@! TO.N,/D+*
X134000000Y-72500000D03*
G04 #@! TO.P,J1,4*
G04 #@! TO.N,GND*
X134000000Y-70000000D03*
D12*
G04 #@! TO.P,J1,5*
X136710000Y-65230000D03*
X136710000Y-77270000D03*
G04 #@! TD*
D13*
G04 #@! TO.P,J2,14*
G04 #@! TO.N,N/C*
X75460000Y-78870000D03*
G04 #@! TO.P,J2,13*
G04 #@! TO.N,/D5_IN*
X78000000Y-78870000D03*
G04 #@! TO.P,J2,12*
G04 #@! TO.N,/OVERRANGE_IN*
X75460000Y-76330000D03*
G04 #@! TO.P,J2,11*
G04 #@! TO.N,GNDA*
X78000000Y-76330000D03*
G04 #@! TO.P,J2,10*
G04 #@! TO.N,N/C*
X75460000Y-73790000D03*
G04 #@! TO.P,J2,9*
G04 #@! TO.N,/B1_IN*
X78000000Y-73790000D03*
G04 #@! TO.P,J2,8*
G04 #@! TO.N,N/C*
X75460000Y-71250000D03*
G04 #@! TO.P,J2,7*
G04 #@! TO.N,/B2_IN*
X78000000Y-71250000D03*
G04 #@! TO.P,J2,6*
G04 #@! TO.N,/SIGN_IN*
X75460000Y-68710000D03*
G04 #@! TO.P,J2,5*
G04 #@! TO.N,/B4_IN*
X78000000Y-68710000D03*
G04 #@! TO.P,J2,4*
G04 #@! TO.N,N/C*
X75460000Y-66170000D03*
G04 #@! TO.P,J2,3*
G04 #@! TO.N,/B8_IN*
X78000000Y-66170000D03*
G04 #@! TO.P,J2,2*
G04 #@! TO.N,N/C*
X75460000Y-63630000D03*
D10*
G04 #@! TO.P,J2,1*
G04 #@! TO.N,/CLK_IN*
X78000000Y-63630000D03*
G04 #@! TD*
D14*
G04 #@! TO.P,H1,1*
G04 #@! TO.N,GND*
X95600000Y-52700000D03*
G04 #@! TD*
G04 #@! TO.P,H2,1*
G04 #@! TO.N,GND*
X95600000Y-89800000D03*
G04 #@! TD*
G04 #@! TO.P,H3,1*
G04 #@! TO.N,GND*
X121500000Y-89800000D03*
G04 #@! TD*
G04 #@! TO.P,H4,1*
G04 #@! TO.N,GND*
X121500000Y-52700000D03*
G04 #@! TD*
D12*
G04 #@! TO.P,H5,1*
G04 #@! TO.N,GND*
X131500000Y-52250000D03*
X136500000Y-52250000D03*
X136500000Y-59750000D03*
X131500000Y-59750000D03*
G04 #@! TD*
G04 #@! TO.P,H6,1*
G04 #@! TO.N,GND*
X131500000Y-90250000D03*
X136500000Y-90250000D03*
X136500000Y-82750000D03*
X131500000Y-82750000D03*
G04 #@! TD*
D10*
G04 #@! TO.P,J3,1*
G04 #@! TO.N,+3V3*
X112340000Y-58250000D03*
D13*
G04 #@! TO.P,J3,2*
G04 #@! TO.N,/SBWTDIO*
X109800000Y-58250000D03*
G04 #@! TO.P,J3,3*
G04 #@! TO.N,/SBWTCK*
X107260000Y-58250000D03*
G04 #@! TO.P,J3,4*
G04 #@! TO.N,GND*
X104720000Y-58250000D03*
G04 #@! TD*
D10*
G04 #@! TO.P,JP1,1*
G04 #@! TO.N,Net-(JP1-Pad1)*
X111065000Y-86250000D03*
D13*
G04 #@! TO.P,JP1,2*
G04 #@! TO.N,/RATE*
X108525000Y-86250000D03*
G04 #@! TO.P,JP1,3*
G04 #@! TO.N,Net-(JP1-Pad3)*
X105985000Y-86250000D03*
G04 #@! TD*
D15*
G04 #@! TO.N,GND*
X128700000Y-64500000D03*
X127700000Y-77450000D03*
X115400000Y-76200000D03*
X119350000Y-71750000D03*
X112050000Y-69800000D03*
X112050000Y-71750000D03*
X92860000Y-60570000D03*
X92860000Y-63120000D03*
X92860000Y-65660000D03*
X92860000Y-68200000D03*
X127350000Y-61300000D03*
X127350000Y-58250000D03*
X104350000Y-65150000D03*
X116450000Y-78650000D03*
X113700000Y-67150000D03*
X110500000Y-65125000D03*
X112900000Y-62700000D03*
X107240000Y-80450000D03*
X98350000Y-72900000D03*
X92860000Y-75580000D03*
X92860000Y-78120000D03*
X92860000Y-80650000D03*
X92860000Y-83190000D03*
X103020000Y-65150000D03*
G04 #@! TO.N,+3V3*
X102600000Y-72300000D03*
X107010000Y-76570000D03*
G04 #@! TO.N,/RXLED*
X114575000Y-73450000D03*
X117475000Y-73300000D03*
G04 #@! TO.N,GNDA*
X75040000Y-84335000D03*
X75040000Y-85605000D03*
X75040000Y-86875000D03*
X75040000Y-88145000D03*
X74940000Y-54590000D03*
X74940000Y-55860000D03*
X74940000Y-57130000D03*
X74940000Y-58400000D03*
G04 #@! TO.N,/RATE*
X104250000Y-73100000D03*
X104250000Y-75350000D03*
G04 #@! TO.N,Net-(RN1-Pad6)*
X83210000Y-80900000D03*
X83210000Y-86870000D03*
G04 #@! TO.N,Net-(RN1-Pad7)*
X82480000Y-85600000D03*
X83260000Y-78365000D03*
G04 #@! TO.N,Net-(RN1-Pad8)*
X81750000Y-84340000D03*
X83260000Y-75825000D03*
G04 #@! TO.N,Net-(RN2-Pad8)*
X83360000Y-60570000D03*
X83360000Y-54600000D03*
G04 #@! TO.N,Net-(RN2-Pad7)*
X82630000Y-63100000D03*
X82630000Y-55870000D03*
G04 #@! TO.N,Net-(RN2-Pad6)*
X81900000Y-65700000D03*
X81900000Y-57100000D03*
G04 #@! TO.N,Net-(RN2-Pad5)*
X81600000Y-68200000D03*
X81100000Y-58400000D03*
G04 #@! TO.N,/B1*
X96350000Y-66900000D03*
X98750000Y-66900000D03*
G04 #@! TO.N,/B2*
X96350000Y-64400000D03*
X98750000Y-64400000D03*
G04 #@! TO.N,/B4*
X104000000Y-69950000D03*
X96400000Y-61850000D03*
G04 #@! TO.N,/B8*
X96400000Y-59300000D03*
X104670000Y-71010000D03*
G04 #@! TO.N,/RXD*
X115500000Y-78200000D03*
X109210000Y-77670000D03*
G04 #@! TD*
D16*
G04 #@! TO.N,+3V3*
X104360000Y-76570000D02*
X102600000Y-74810000D01*
X102600000Y-74810000D02*
X102600000Y-72300000D01*
X107010000Y-76570000D02*
X104360000Y-76570000D01*
G04 #@! TO.N,/RXLED*
X114575000Y-73450000D02*
X114725000Y-73300000D01*
X114725000Y-73300000D02*
X117475000Y-73300000D01*
G04 #@! TO.N,/SIGN_IN*
X75460000Y-68830000D02*
X75460000Y-68840000D01*
G04 #@! TO.N,/RATE*
X104250000Y-73100000D02*
X104250000Y-75350000D01*
G04 #@! TO.N,Net-(RN1-Pad6)*
X83210000Y-80900000D02*
X83210000Y-86870000D01*
G04 #@! TO.N,Net-(RN1-Pad7)*
X82480000Y-79145000D02*
X83260000Y-78365000D01*
X82480000Y-85600000D02*
X82480000Y-79145000D01*
G04 #@! TO.N,Net-(RN1-Pad8)*
X82030000Y-77055000D02*
X83260000Y-75825000D01*
X81750000Y-84340000D02*
X82030000Y-84060000D01*
X82030000Y-84060000D02*
X82030000Y-77055000D01*
G04 #@! TO.N,Net-(RN2-Pad8)*
X83360000Y-60570000D02*
X83360000Y-54600000D01*
G04 #@! TO.N,Net-(RN2-Pad7)*
X82630000Y-55870000D02*
X82630000Y-63100000D01*
G04 #@! TO.N,Net-(RN2-Pad6)*
X81900000Y-57100000D02*
X81900000Y-65700000D01*
G04 #@! TO.N,Net-(RN2-Pad5)*
X81600000Y-68200000D02*
X81100000Y-67700000D01*
X81100000Y-67700000D02*
X81100000Y-58400000D01*
G04 #@! TO.N,/B1*
X96350000Y-66900000D02*
X98750000Y-66900000D01*
G04 #@! TO.N,/B2*
X96350000Y-64400000D02*
X98750000Y-64400000D01*
G04 #@! TO.N,/B4*
X96400000Y-61850000D02*
X100060000Y-61850000D01*
X104000000Y-69950000D02*
X101630000Y-69950000D01*
X101630000Y-69950000D02*
X101050000Y-69370000D01*
X101050000Y-69370000D02*
X101050000Y-62840000D01*
X101050000Y-62840000D02*
X100060000Y-61850000D01*
G04 #@! TO.N,/B8*
X104670000Y-71010000D02*
X104820000Y-70860000D01*
X104820000Y-70860000D02*
X104820000Y-69440000D01*
X104820000Y-69440000D02*
X104570000Y-69190000D01*
X104570000Y-69190000D02*
X102010000Y-69190000D01*
X102010000Y-69190000D02*
X101600000Y-68780000D01*
X101600000Y-68780000D02*
X101600000Y-62470000D01*
X98430000Y-59300000D02*
X96400000Y-59300000D01*
X101600000Y-62470000D02*
X98430000Y-59300000D01*
G04 #@! TO.N,/RXD*
X115500000Y-78200000D02*
X109740000Y-78200000D01*
X109740000Y-78200000D02*
X109210000Y-77670000D01*
G04 #@! TD*
D17*
G04 #@! TO.N,GNDA*
G36*
X86373000Y-92540000D02*
X70210000Y-92540000D01*
X70210000Y-84134126D01*
X80715000Y-84134126D01*
X80715000Y-84545874D01*
X80872569Y-84926280D01*
X81163720Y-85217431D01*
X81466279Y-85342755D01*
X81445000Y-85394126D01*
X81445000Y-85805874D01*
X81602569Y-86186280D01*
X81893720Y-86477431D01*
X82199814Y-86604219D01*
X82175000Y-86664126D01*
X82175000Y-87075874D01*
X82332569Y-87456280D01*
X82623720Y-87747431D01*
X83004126Y-87905000D01*
X83415874Y-87905000D01*
X83796280Y-87747431D01*
X84087431Y-87456280D01*
X84245000Y-87075874D01*
X84245000Y-86664126D01*
X84087431Y-86283720D01*
X83970000Y-86166289D01*
X83970000Y-81603711D01*
X84087431Y-81486280D01*
X84245000Y-81105874D01*
X84245000Y-80694126D01*
X84087431Y-80313720D01*
X83796280Y-80022569D01*
X83415874Y-79865000D01*
X83240000Y-79865000D01*
X83240000Y-79459801D01*
X83299801Y-79400000D01*
X83465874Y-79400000D01*
X83846280Y-79242431D01*
X84137431Y-78951280D01*
X84295000Y-78570874D01*
X84295000Y-78159126D01*
X84137431Y-77778720D01*
X83846280Y-77487569D01*
X83465874Y-77330000D01*
X83054126Y-77330000D01*
X82790000Y-77439404D01*
X82790000Y-77369801D01*
X83299802Y-76860000D01*
X83465874Y-76860000D01*
X83846280Y-76702431D01*
X84137431Y-76411280D01*
X84295000Y-76030874D01*
X84295000Y-75619126D01*
X84137431Y-75238720D01*
X83846280Y-74947569D01*
X83465874Y-74790000D01*
X83054126Y-74790000D01*
X82673720Y-74947569D01*
X82382569Y-75238720D01*
X82225000Y-75619126D01*
X82225000Y-75785198D01*
X81545528Y-76464671D01*
X81482072Y-76507071D01*
X81439672Y-76570527D01*
X81439671Y-76570528D01*
X81314097Y-76758463D01*
X81255112Y-77055000D01*
X81270001Y-77129852D01*
X81270000Y-83418546D01*
X81163720Y-83462569D01*
X80872569Y-83753720D01*
X80715000Y-84134126D01*
X70210000Y-84134126D01*
X70210000Y-63630000D01*
X73945908Y-63630000D01*
X74061161Y-64209418D01*
X74389375Y-64700625D01*
X74687761Y-64900000D01*
X74389375Y-65099375D01*
X74061161Y-65590582D01*
X73945908Y-66170000D01*
X74061161Y-66749418D01*
X74389375Y-67240625D01*
X74687761Y-67440000D01*
X74389375Y-67639375D01*
X74061161Y-68130582D01*
X73945908Y-68710000D01*
X74061161Y-69289418D01*
X74389375Y-69780625D01*
X74687761Y-69980000D01*
X74389375Y-70179375D01*
X74061161Y-70670582D01*
X73945908Y-71250000D01*
X74061161Y-71829418D01*
X74389375Y-72320625D01*
X74687761Y-72520000D01*
X74389375Y-72719375D01*
X74061161Y-73210582D01*
X73945908Y-73790000D01*
X74061161Y-74369418D01*
X74389375Y-74860625D01*
X74687761Y-75060000D01*
X74389375Y-75259375D01*
X74061161Y-75750582D01*
X73945908Y-76330000D01*
X74061161Y-76909418D01*
X74389375Y-77400625D01*
X74687761Y-77600000D01*
X74389375Y-77799375D01*
X74061161Y-78290582D01*
X73945908Y-78870000D01*
X74061161Y-79449418D01*
X74389375Y-79940625D01*
X74880582Y-80268839D01*
X75313744Y-80355000D01*
X75606256Y-80355000D01*
X76039418Y-80268839D01*
X76530625Y-79940625D01*
X76730000Y-79642239D01*
X76929375Y-79940625D01*
X77420582Y-80268839D01*
X77853744Y-80355000D01*
X78146256Y-80355000D01*
X78579418Y-80268839D01*
X79070625Y-79940625D01*
X79398839Y-79449418D01*
X79514092Y-78870000D01*
X79398839Y-78290582D01*
X79070625Y-77799375D01*
X78744788Y-77581658D01*
X78995468Y-77431966D01*
X79341397Y-76967135D01*
X79399012Y-76827985D01*
X79297848Y-76603000D01*
X78273000Y-76603000D01*
X78273000Y-76623000D01*
X77727000Y-76623000D01*
X77727000Y-76603000D01*
X77707000Y-76603000D01*
X77707000Y-76057000D01*
X77727000Y-76057000D01*
X77727000Y-76037000D01*
X78273000Y-76037000D01*
X78273000Y-76057000D01*
X79297848Y-76057000D01*
X79399012Y-75832015D01*
X79341397Y-75692865D01*
X78995468Y-75228034D01*
X78744788Y-75078342D01*
X79070625Y-74860625D01*
X79398839Y-74369418D01*
X79514092Y-73790000D01*
X79398839Y-73210582D01*
X79070625Y-72719375D01*
X78772239Y-72520000D01*
X79070625Y-72320625D01*
X79398839Y-71829418D01*
X79514092Y-71250000D01*
X79398839Y-70670582D01*
X79070625Y-70179375D01*
X78772239Y-69980000D01*
X79070625Y-69780625D01*
X79398839Y-69289418D01*
X79514092Y-68710000D01*
X79398839Y-68130582D01*
X79070625Y-67639375D01*
X78772239Y-67440000D01*
X79070625Y-67240625D01*
X79398839Y-66749418D01*
X79514092Y-66170000D01*
X79398839Y-65590582D01*
X79070625Y-65099375D01*
X79052381Y-65087184D01*
X79097765Y-65078157D01*
X79307809Y-64937809D01*
X79448157Y-64727765D01*
X79497440Y-64480000D01*
X79497440Y-62780000D01*
X79448157Y-62532235D01*
X79307809Y-62322191D01*
X79097765Y-62181843D01*
X78850000Y-62132560D01*
X77150000Y-62132560D01*
X76902235Y-62181843D01*
X76692191Y-62322191D01*
X76551843Y-62532235D01*
X76542816Y-62577619D01*
X76530625Y-62559375D01*
X76039418Y-62231161D01*
X75606256Y-62145000D01*
X75313744Y-62145000D01*
X74880582Y-62231161D01*
X74389375Y-62559375D01*
X74061161Y-63050582D01*
X73945908Y-63630000D01*
X70210000Y-63630000D01*
X70210000Y-58194126D01*
X80065000Y-58194126D01*
X80065000Y-58605874D01*
X80222569Y-58986280D01*
X80340001Y-59103712D01*
X80340000Y-67625153D01*
X80325112Y-67700000D01*
X80340000Y-67774847D01*
X80340000Y-67774851D01*
X80384096Y-67996536D01*
X80552071Y-68247929D01*
X80565000Y-68256568D01*
X80565000Y-68405874D01*
X80722569Y-68786280D01*
X81013720Y-69077431D01*
X81394126Y-69235000D01*
X81805874Y-69235000D01*
X82186280Y-69077431D01*
X82477431Y-68786280D01*
X82635000Y-68405874D01*
X82635000Y-67994126D01*
X82477431Y-67613720D01*
X82186280Y-67322569D01*
X81860000Y-67187420D01*
X81860000Y-66735000D01*
X82105874Y-66735000D01*
X82486280Y-66577431D01*
X82777431Y-66286280D01*
X82935000Y-65905874D01*
X82935000Y-65494126D01*
X82777431Y-65113720D01*
X82660000Y-64996289D01*
X82660000Y-64135000D01*
X82835874Y-64135000D01*
X83216280Y-63977431D01*
X83507431Y-63686280D01*
X83665000Y-63305874D01*
X83665000Y-62894126D01*
X83507431Y-62513720D01*
X83390000Y-62396289D01*
X83390000Y-61605000D01*
X83565874Y-61605000D01*
X83946280Y-61447431D01*
X84237431Y-61156280D01*
X84395000Y-60775874D01*
X84395000Y-60364126D01*
X84237431Y-59983720D01*
X84120000Y-59866289D01*
X84120000Y-55303711D01*
X84237431Y-55186280D01*
X84395000Y-54805874D01*
X84395000Y-54394126D01*
X84237431Y-54013720D01*
X83946280Y-53722569D01*
X83565874Y-53565000D01*
X83154126Y-53565000D01*
X82773720Y-53722569D01*
X82482569Y-54013720D01*
X82325000Y-54394126D01*
X82325000Y-54805874D01*
X82349814Y-54865781D01*
X82043720Y-54992569D01*
X81752569Y-55283720D01*
X81595000Y-55664126D01*
X81595000Y-56075874D01*
X81605672Y-56101639D01*
X81313720Y-56222569D01*
X81022569Y-56513720D01*
X80865000Y-56894126D01*
X80865000Y-57305874D01*
X80890170Y-57366639D01*
X80513720Y-57522569D01*
X80222569Y-57813720D01*
X80065000Y-58194126D01*
X70210000Y-58194126D01*
X70210000Y-49960000D01*
X86373000Y-49960000D01*
X86373000Y-92540000D01*
X86373000Y-92540000D01*
G37*
X86373000Y-92540000D02*
X70210000Y-92540000D01*
X70210000Y-84134126D01*
X80715000Y-84134126D01*
X80715000Y-84545874D01*
X80872569Y-84926280D01*
X81163720Y-85217431D01*
X81466279Y-85342755D01*
X81445000Y-85394126D01*
X81445000Y-85805874D01*
X81602569Y-86186280D01*
X81893720Y-86477431D01*
X82199814Y-86604219D01*
X82175000Y-86664126D01*
X82175000Y-87075874D01*
X82332569Y-87456280D01*
X82623720Y-87747431D01*
X83004126Y-87905000D01*
X83415874Y-87905000D01*
X83796280Y-87747431D01*
X84087431Y-87456280D01*
X84245000Y-87075874D01*
X84245000Y-86664126D01*
X84087431Y-86283720D01*
X83970000Y-86166289D01*
X83970000Y-81603711D01*
X84087431Y-81486280D01*
X84245000Y-81105874D01*
X84245000Y-80694126D01*
X84087431Y-80313720D01*
X83796280Y-80022569D01*
X83415874Y-79865000D01*
X83240000Y-79865000D01*
X83240000Y-79459801D01*
X83299801Y-79400000D01*
X83465874Y-79400000D01*
X83846280Y-79242431D01*
X84137431Y-78951280D01*
X84295000Y-78570874D01*
X84295000Y-78159126D01*
X84137431Y-77778720D01*
X83846280Y-77487569D01*
X83465874Y-77330000D01*
X83054126Y-77330000D01*
X82790000Y-77439404D01*
X82790000Y-77369801D01*
X83299802Y-76860000D01*
X83465874Y-76860000D01*
X83846280Y-76702431D01*
X84137431Y-76411280D01*
X84295000Y-76030874D01*
X84295000Y-75619126D01*
X84137431Y-75238720D01*
X83846280Y-74947569D01*
X83465874Y-74790000D01*
X83054126Y-74790000D01*
X82673720Y-74947569D01*
X82382569Y-75238720D01*
X82225000Y-75619126D01*
X82225000Y-75785198D01*
X81545528Y-76464671D01*
X81482072Y-76507071D01*
X81439672Y-76570527D01*
X81439671Y-76570528D01*
X81314097Y-76758463D01*
X81255112Y-77055000D01*
X81270001Y-77129852D01*
X81270000Y-83418546D01*
X81163720Y-83462569D01*
X80872569Y-83753720D01*
X80715000Y-84134126D01*
X70210000Y-84134126D01*
X70210000Y-63630000D01*
X73945908Y-63630000D01*
X74061161Y-64209418D01*
X74389375Y-64700625D01*
X74687761Y-64900000D01*
X74389375Y-65099375D01*
X74061161Y-65590582D01*
X73945908Y-66170000D01*
X74061161Y-66749418D01*
X74389375Y-67240625D01*
X74687761Y-67440000D01*
X74389375Y-67639375D01*
X74061161Y-68130582D01*
X73945908Y-68710000D01*
X74061161Y-69289418D01*
X74389375Y-69780625D01*
X74687761Y-69980000D01*
X74389375Y-70179375D01*
X74061161Y-70670582D01*
X73945908Y-71250000D01*
X74061161Y-71829418D01*
X74389375Y-72320625D01*
X74687761Y-72520000D01*
X74389375Y-72719375D01*
X74061161Y-73210582D01*
X73945908Y-73790000D01*
X74061161Y-74369418D01*
X74389375Y-74860625D01*
X74687761Y-75060000D01*
X74389375Y-75259375D01*
X74061161Y-75750582D01*
X73945908Y-76330000D01*
X74061161Y-76909418D01*
X74389375Y-77400625D01*
X74687761Y-77600000D01*
X74389375Y-77799375D01*
X74061161Y-78290582D01*
X73945908Y-78870000D01*
X74061161Y-79449418D01*
X74389375Y-79940625D01*
X74880582Y-80268839D01*
X75313744Y-80355000D01*
X75606256Y-80355000D01*
X76039418Y-80268839D01*
X76530625Y-79940625D01*
X76730000Y-79642239D01*
X76929375Y-79940625D01*
X77420582Y-80268839D01*
X77853744Y-80355000D01*
X78146256Y-80355000D01*
X78579418Y-80268839D01*
X79070625Y-79940625D01*
X79398839Y-79449418D01*
X79514092Y-78870000D01*
X79398839Y-78290582D01*
X79070625Y-77799375D01*
X78744788Y-77581658D01*
X78995468Y-77431966D01*
X79341397Y-76967135D01*
X79399012Y-76827985D01*
X79297848Y-76603000D01*
X78273000Y-76603000D01*
X78273000Y-76623000D01*
X77727000Y-76623000D01*
X77727000Y-76603000D01*
X77707000Y-76603000D01*
X77707000Y-76057000D01*
X77727000Y-76057000D01*
X77727000Y-76037000D01*
X78273000Y-76037000D01*
X78273000Y-76057000D01*
X79297848Y-76057000D01*
X79399012Y-75832015D01*
X79341397Y-75692865D01*
X78995468Y-75228034D01*
X78744788Y-75078342D01*
X79070625Y-74860625D01*
X79398839Y-74369418D01*
X79514092Y-73790000D01*
X79398839Y-73210582D01*
X79070625Y-72719375D01*
X78772239Y-72520000D01*
X79070625Y-72320625D01*
X79398839Y-71829418D01*
X79514092Y-71250000D01*
X79398839Y-70670582D01*
X79070625Y-70179375D01*
X78772239Y-69980000D01*
X79070625Y-69780625D01*
X79398839Y-69289418D01*
X79514092Y-68710000D01*
X79398839Y-68130582D01*
X79070625Y-67639375D01*
X78772239Y-67440000D01*
X79070625Y-67240625D01*
X79398839Y-66749418D01*
X79514092Y-66170000D01*
X79398839Y-65590582D01*
X79070625Y-65099375D01*
X79052381Y-65087184D01*
X79097765Y-65078157D01*
X79307809Y-64937809D01*
X79448157Y-64727765D01*
X79497440Y-64480000D01*
X79497440Y-62780000D01*
X79448157Y-62532235D01*
X79307809Y-62322191D01*
X79097765Y-62181843D01*
X78850000Y-62132560D01*
X77150000Y-62132560D01*
X76902235Y-62181843D01*
X76692191Y-62322191D01*
X76551843Y-62532235D01*
X76542816Y-62577619D01*
X76530625Y-62559375D01*
X76039418Y-62231161D01*
X75606256Y-62145000D01*
X75313744Y-62145000D01*
X74880582Y-62231161D01*
X74389375Y-62559375D01*
X74061161Y-63050582D01*
X73945908Y-63630000D01*
X70210000Y-63630000D01*
X70210000Y-58194126D01*
X80065000Y-58194126D01*
X80065000Y-58605874D01*
X80222569Y-58986280D01*
X80340001Y-59103712D01*
X80340000Y-67625153D01*
X80325112Y-67700000D01*
X80340000Y-67774847D01*
X80340000Y-67774851D01*
X80384096Y-67996536D01*
X80552071Y-68247929D01*
X80565000Y-68256568D01*
X80565000Y-68405874D01*
X80722569Y-68786280D01*
X81013720Y-69077431D01*
X81394126Y-69235000D01*
X81805874Y-69235000D01*
X82186280Y-69077431D01*
X82477431Y-68786280D01*
X82635000Y-68405874D01*
X82635000Y-67994126D01*
X82477431Y-67613720D01*
X82186280Y-67322569D01*
X81860000Y-67187420D01*
X81860000Y-66735000D01*
X82105874Y-66735000D01*
X82486280Y-66577431D01*
X82777431Y-66286280D01*
X82935000Y-65905874D01*
X82935000Y-65494126D01*
X82777431Y-65113720D01*
X82660000Y-64996289D01*
X82660000Y-64135000D01*
X82835874Y-64135000D01*
X83216280Y-63977431D01*
X83507431Y-63686280D01*
X83665000Y-63305874D01*
X83665000Y-62894126D01*
X83507431Y-62513720D01*
X83390000Y-62396289D01*
X83390000Y-61605000D01*
X83565874Y-61605000D01*
X83946280Y-61447431D01*
X84237431Y-61156280D01*
X84395000Y-60775874D01*
X84395000Y-60364126D01*
X84237431Y-59983720D01*
X84120000Y-59866289D01*
X84120000Y-55303711D01*
X84237431Y-55186280D01*
X84395000Y-54805874D01*
X84395000Y-54394126D01*
X84237431Y-54013720D01*
X83946280Y-53722569D01*
X83565874Y-53565000D01*
X83154126Y-53565000D01*
X82773720Y-53722569D01*
X82482569Y-54013720D01*
X82325000Y-54394126D01*
X82325000Y-54805874D01*
X82349814Y-54865781D01*
X82043720Y-54992569D01*
X81752569Y-55283720D01*
X81595000Y-55664126D01*
X81595000Y-56075874D01*
X81605672Y-56101639D01*
X81313720Y-56222569D01*
X81022569Y-56513720D01*
X80865000Y-56894126D01*
X80865000Y-57305874D01*
X80890170Y-57366639D01*
X80513720Y-57522569D01*
X80222569Y-57813720D01*
X80065000Y-58194126D01*
X70210000Y-58194126D01*
X70210000Y-49960000D01*
X86373000Y-49960000D01*
X86373000Y-92540000D01*
G04 #@! TO.N,GND*
G36*
X130300566Y-50134665D02*
X130097439Y-50461359D01*
X131500000Y-51863920D01*
X132902561Y-50461359D01*
X132699434Y-50134665D01*
X132171421Y-49960000D01*
X135722243Y-49960000D01*
X135300566Y-50134665D01*
X135097439Y-50461359D01*
X136500000Y-51863920D01*
X137902561Y-50461359D01*
X137699434Y-50134665D01*
X137171421Y-49960000D01*
X139290001Y-49960000D01*
X139290000Y-92540000D01*
X137277757Y-92540000D01*
X137699434Y-92365335D01*
X137902561Y-92038641D01*
X136500000Y-90636080D01*
X135097439Y-92038641D01*
X135300566Y-92365335D01*
X135828579Y-92540000D01*
X132277757Y-92540000D01*
X132699434Y-92365335D01*
X132902561Y-92038641D01*
X131500000Y-90636080D01*
X130097439Y-92038641D01*
X130300566Y-92365335D01*
X130828579Y-92540000D01*
X89627000Y-92540000D01*
X89627000Y-89951372D01*
X129086681Y-89951372D01*
X129156104Y-90897641D01*
X129384665Y-91449434D01*
X129711359Y-91652561D01*
X131113920Y-90250000D01*
X131886080Y-90250000D01*
X133288641Y-91652561D01*
X133615335Y-91449434D01*
X133913319Y-90548628D01*
X133869502Y-89951372D01*
X134086681Y-89951372D01*
X134156104Y-90897641D01*
X134384665Y-91449434D01*
X134711359Y-91652561D01*
X136113920Y-90250000D01*
X136886080Y-90250000D01*
X138288641Y-91652561D01*
X138615335Y-91449434D01*
X138913319Y-90548628D01*
X138843896Y-89602359D01*
X138615335Y-89050566D01*
X138288641Y-88847439D01*
X136886080Y-90250000D01*
X136113920Y-90250000D01*
X134711359Y-88847439D01*
X134384665Y-89050566D01*
X134086681Y-89951372D01*
X133869502Y-89951372D01*
X133843896Y-89602359D01*
X133615335Y-89050566D01*
X133288641Y-88847439D01*
X131886080Y-90250000D01*
X131113920Y-90250000D01*
X129711359Y-88847439D01*
X129384665Y-89050566D01*
X129086681Y-89951372D01*
X89627000Y-89951372D01*
X89627000Y-88461359D01*
X130097439Y-88461359D01*
X131500000Y-89863920D01*
X132902561Y-88461359D01*
X135097439Y-88461359D01*
X136500000Y-89863920D01*
X137902561Y-88461359D01*
X137699434Y-88134665D01*
X136798628Y-87836681D01*
X135852359Y-87906104D01*
X135300566Y-88134665D01*
X135097439Y-88461359D01*
X132902561Y-88461359D01*
X132699434Y-88134665D01*
X131798628Y-87836681D01*
X130852359Y-87906104D01*
X130300566Y-88134665D01*
X130097439Y-88461359D01*
X89627000Y-88461359D01*
X89627000Y-86250000D01*
X104470908Y-86250000D01*
X104586161Y-86829418D01*
X104914375Y-87320625D01*
X105405582Y-87648839D01*
X105838744Y-87735000D01*
X106131256Y-87735000D01*
X106564418Y-87648839D01*
X107055625Y-87320625D01*
X107255000Y-87022239D01*
X107454375Y-87320625D01*
X107945582Y-87648839D01*
X108378744Y-87735000D01*
X108671256Y-87735000D01*
X109104418Y-87648839D01*
X109595625Y-87320625D01*
X109607816Y-87302381D01*
X109616843Y-87347765D01*
X109757191Y-87557809D01*
X109967235Y-87698157D01*
X110215000Y-87747440D01*
X111915000Y-87747440D01*
X112162765Y-87698157D01*
X112372809Y-87557809D01*
X112513157Y-87347765D01*
X112562440Y-87100000D01*
X112562440Y-85400000D01*
X112513157Y-85152235D01*
X112372809Y-84942191D01*
X112162765Y-84801843D01*
X111915000Y-84752560D01*
X110215000Y-84752560D01*
X109967235Y-84801843D01*
X109757191Y-84942191D01*
X109616843Y-85152235D01*
X109607816Y-85197619D01*
X109595625Y-85179375D01*
X109104418Y-84851161D01*
X108671256Y-84765000D01*
X108378744Y-84765000D01*
X107945582Y-84851161D01*
X107454375Y-85179375D01*
X107255000Y-85477761D01*
X107055625Y-85179375D01*
X106564418Y-84851161D01*
X106131256Y-84765000D01*
X105838744Y-84765000D01*
X105405582Y-84851161D01*
X104914375Y-85179375D01*
X104586161Y-85670582D01*
X104470908Y-86250000D01*
X89627000Y-86250000D01*
X89627000Y-84538641D01*
X130097439Y-84538641D01*
X130300566Y-84865335D01*
X131201372Y-85163319D01*
X132147641Y-85093896D01*
X132699434Y-84865335D01*
X132902561Y-84538641D01*
X135097439Y-84538641D01*
X135300566Y-84865335D01*
X136201372Y-85163319D01*
X137147641Y-85093896D01*
X137699434Y-84865335D01*
X137902561Y-84538641D01*
X136500000Y-83136080D01*
X135097439Y-84538641D01*
X132902561Y-84538641D01*
X131500000Y-83136080D01*
X130097439Y-84538641D01*
X89627000Y-84538641D01*
X89627000Y-82451372D01*
X129086681Y-82451372D01*
X129156104Y-83397641D01*
X129384665Y-83949434D01*
X129711359Y-84152561D01*
X131113920Y-82750000D01*
X131886080Y-82750000D01*
X133288641Y-84152561D01*
X133615335Y-83949434D01*
X133913319Y-83048628D01*
X133869502Y-82451372D01*
X134086681Y-82451372D01*
X134156104Y-83397641D01*
X134384665Y-83949434D01*
X134711359Y-84152561D01*
X136113920Y-82750000D01*
X136886080Y-82750000D01*
X138288641Y-84152561D01*
X138615335Y-83949434D01*
X138913319Y-83048628D01*
X138843896Y-82102359D01*
X138615335Y-81550566D01*
X138288641Y-81347439D01*
X136886080Y-82750000D01*
X136113920Y-82750000D01*
X134711359Y-81347439D01*
X134384665Y-81550566D01*
X134086681Y-82451372D01*
X133869502Y-82451372D01*
X133843896Y-82102359D01*
X133615335Y-81550566D01*
X133288641Y-81347439D01*
X131886080Y-82750000D01*
X131113920Y-82750000D01*
X129711359Y-81347439D01*
X129384665Y-81550566D01*
X129086681Y-82451372D01*
X89627000Y-82451372D01*
X89627000Y-80961359D01*
X130097439Y-80961359D01*
X131500000Y-82363920D01*
X132902561Y-80961359D01*
X135097439Y-80961359D01*
X136500000Y-82363920D01*
X137902561Y-80961359D01*
X137699434Y-80634665D01*
X136798628Y-80336681D01*
X135852359Y-80406104D01*
X135300566Y-80634665D01*
X135097439Y-80961359D01*
X132902561Y-80961359D01*
X132699434Y-80634665D01*
X131798628Y-80336681D01*
X130852359Y-80406104D01*
X130300566Y-80634665D01*
X130097439Y-80961359D01*
X89627000Y-80961359D01*
X89627000Y-72094126D01*
X101565000Y-72094126D01*
X101565000Y-72505874D01*
X101722569Y-72886280D01*
X101840001Y-73003712D01*
X101840000Y-74735153D01*
X101825112Y-74810000D01*
X101840000Y-74884847D01*
X101840000Y-74884851D01*
X101884096Y-75106536D01*
X102052071Y-75357929D01*
X102115530Y-75400331D01*
X103769671Y-77054473D01*
X103812071Y-77117929D01*
X104063463Y-77285904D01*
X104285148Y-77330000D01*
X104285153Y-77330000D01*
X104360000Y-77344888D01*
X104434847Y-77330000D01*
X106306289Y-77330000D01*
X106423720Y-77447431D01*
X106804126Y-77605000D01*
X107215874Y-77605000D01*
X107555974Y-77464126D01*
X108175000Y-77464126D01*
X108175000Y-77875874D01*
X108332569Y-78256280D01*
X108623720Y-78547431D01*
X109004126Y-78705000D01*
X109163387Y-78705000D01*
X109192071Y-78747929D01*
X109443463Y-78915904D01*
X109665148Y-78960000D01*
X109665152Y-78960000D01*
X109739999Y-78974888D01*
X109814846Y-78960000D01*
X114796289Y-78960000D01*
X114913720Y-79077431D01*
X115294126Y-79235000D01*
X115705874Y-79235000D01*
X116086280Y-79077431D01*
X116105070Y-79058641D01*
X135307439Y-79058641D01*
X135510566Y-79385335D01*
X136411372Y-79683319D01*
X137357641Y-79613896D01*
X137909434Y-79385335D01*
X138112561Y-79058641D01*
X136710000Y-77656080D01*
X135307439Y-79058641D01*
X116105070Y-79058641D01*
X116377431Y-78786280D01*
X116535000Y-78405874D01*
X116535000Y-77994126D01*
X116377431Y-77613720D01*
X116086280Y-77322569D01*
X115705874Y-77165000D01*
X115294126Y-77165000D01*
X114913720Y-77322569D01*
X114796289Y-77440000D01*
X110235007Y-77440000D01*
X110087431Y-77083720D01*
X109975083Y-76971372D01*
X134296681Y-76971372D01*
X134366104Y-77917641D01*
X134594665Y-78469434D01*
X134921359Y-78672561D01*
X136323920Y-77270000D01*
X137096080Y-77270000D01*
X138498641Y-78672561D01*
X138825335Y-78469434D01*
X139123319Y-77568628D01*
X139053896Y-76622359D01*
X138825335Y-76070566D01*
X138498641Y-75867439D01*
X137096080Y-77270000D01*
X136323920Y-77270000D01*
X134921359Y-75867439D01*
X134594665Y-76070566D01*
X134296681Y-76971372D01*
X109975083Y-76971372D01*
X109796280Y-76792569D01*
X109415874Y-76635000D01*
X109004126Y-76635000D01*
X108623720Y-76792569D01*
X108332569Y-77083720D01*
X108175000Y-77464126D01*
X107555974Y-77464126D01*
X107596280Y-77447431D01*
X107887431Y-77156280D01*
X108045000Y-76775874D01*
X108045000Y-76364126D01*
X107887431Y-75983720D01*
X107596280Y-75692569D01*
X107215874Y-75535000D01*
X106804126Y-75535000D01*
X106423720Y-75692569D01*
X106306289Y-75810000D01*
X105179738Y-75810000D01*
X105285000Y-75555874D01*
X105285000Y-75481359D01*
X135307439Y-75481359D01*
X136710000Y-76883920D01*
X138112561Y-75481359D01*
X137909434Y-75154665D01*
X137008628Y-74856681D01*
X136062359Y-74926104D01*
X135510566Y-75154665D01*
X135307439Y-75481359D01*
X105285000Y-75481359D01*
X105285000Y-75144126D01*
X105127431Y-74763720D01*
X105010000Y-74646289D01*
X105010000Y-73803711D01*
X105127431Y-73686280D01*
X105285000Y-73305874D01*
X105285000Y-73244126D01*
X113540000Y-73244126D01*
X113540000Y-73655874D01*
X113697569Y-74036280D01*
X113988720Y-74327431D01*
X114369126Y-74485000D01*
X114780874Y-74485000D01*
X115161280Y-74327431D01*
X115428711Y-74060000D01*
X116771289Y-74060000D01*
X116888720Y-74177431D01*
X117269126Y-74335000D01*
X117680874Y-74335000D01*
X118061280Y-74177431D01*
X118352431Y-73886280D01*
X118510000Y-73505874D01*
X118510000Y-73094126D01*
X118352431Y-72713720D01*
X118061280Y-72422569D01*
X117680874Y-72265000D01*
X117269126Y-72265000D01*
X116888720Y-72422569D01*
X116771289Y-72540000D01*
X115082651Y-72540000D01*
X114780874Y-72415000D01*
X114369126Y-72415000D01*
X113988720Y-72572569D01*
X113697569Y-72863720D01*
X113540000Y-73244126D01*
X105285000Y-73244126D01*
X105285000Y-72894126D01*
X105127431Y-72513720D01*
X104836280Y-72222569D01*
X104455874Y-72065000D01*
X104044126Y-72065000D01*
X103663720Y-72222569D01*
X103635000Y-72251289D01*
X103635000Y-72094126D01*
X103477431Y-71713720D01*
X103186280Y-71422569D01*
X102805874Y-71265000D01*
X102394126Y-71265000D01*
X102013720Y-71422569D01*
X101722569Y-71713720D01*
X101565000Y-72094126D01*
X89627000Y-72094126D01*
X89627000Y-66694126D01*
X95315000Y-66694126D01*
X95315000Y-67105874D01*
X95472569Y-67486280D01*
X95763720Y-67777431D01*
X96144126Y-67935000D01*
X96555874Y-67935000D01*
X96936280Y-67777431D01*
X97053711Y-67660000D01*
X98046289Y-67660000D01*
X98163720Y-67777431D01*
X98544126Y-67935000D01*
X98955874Y-67935000D01*
X99336280Y-67777431D01*
X99627431Y-67486280D01*
X99785000Y-67105874D01*
X99785000Y-66694126D01*
X99627431Y-66313720D01*
X99336280Y-66022569D01*
X98955874Y-65865000D01*
X98544126Y-65865000D01*
X98163720Y-66022569D01*
X98046289Y-66140000D01*
X97053711Y-66140000D01*
X96936280Y-66022569D01*
X96555874Y-65865000D01*
X96144126Y-65865000D01*
X95763720Y-66022569D01*
X95472569Y-66313720D01*
X95315000Y-66694126D01*
X89627000Y-66694126D01*
X89627000Y-64194126D01*
X95315000Y-64194126D01*
X95315000Y-64605874D01*
X95472569Y-64986280D01*
X95763720Y-65277431D01*
X96144126Y-65435000D01*
X96555874Y-65435000D01*
X96936280Y-65277431D01*
X97053711Y-65160000D01*
X98046289Y-65160000D01*
X98163720Y-65277431D01*
X98544126Y-65435000D01*
X98955874Y-65435000D01*
X99336280Y-65277431D01*
X99627431Y-64986280D01*
X99785000Y-64605874D01*
X99785000Y-64194126D01*
X99627431Y-63813720D01*
X99336280Y-63522569D01*
X98955874Y-63365000D01*
X98544126Y-63365000D01*
X98163720Y-63522569D01*
X98046289Y-63640000D01*
X97053711Y-63640000D01*
X96936280Y-63522569D01*
X96555874Y-63365000D01*
X96144126Y-63365000D01*
X95763720Y-63522569D01*
X95472569Y-63813720D01*
X95315000Y-64194126D01*
X89627000Y-64194126D01*
X89627000Y-59094126D01*
X95365000Y-59094126D01*
X95365000Y-59505874D01*
X95522569Y-59886280D01*
X95813720Y-60177431D01*
X96194126Y-60335000D01*
X96605874Y-60335000D01*
X96986280Y-60177431D01*
X97103711Y-60060000D01*
X98115199Y-60060000D01*
X99145199Y-61090000D01*
X97103711Y-61090000D01*
X96986280Y-60972569D01*
X96605874Y-60815000D01*
X96194126Y-60815000D01*
X95813720Y-60972569D01*
X95522569Y-61263720D01*
X95365000Y-61644126D01*
X95365000Y-62055874D01*
X95522569Y-62436280D01*
X95813720Y-62727431D01*
X96194126Y-62885000D01*
X96605874Y-62885000D01*
X96986280Y-62727431D01*
X97103711Y-62610000D01*
X99745198Y-62610000D01*
X100290001Y-63154803D01*
X100290000Y-69295153D01*
X100275112Y-69370000D01*
X100290000Y-69444847D01*
X100290000Y-69444851D01*
X100334096Y-69666536D01*
X100502071Y-69917929D01*
X100565530Y-69960331D01*
X101039671Y-70434473D01*
X101082071Y-70497929D01*
X101333463Y-70665904D01*
X101555148Y-70710000D01*
X101555153Y-70710000D01*
X101630000Y-70724888D01*
X101704847Y-70710000D01*
X103296289Y-70710000D01*
X103413720Y-70827431D01*
X103635000Y-70919088D01*
X103635000Y-71215874D01*
X103792569Y-71596280D01*
X104083720Y-71887431D01*
X104464126Y-72045000D01*
X104875874Y-72045000D01*
X105256280Y-71887431D01*
X105547431Y-71596280D01*
X105705000Y-71215874D01*
X105705000Y-70804126D01*
X105580000Y-70502349D01*
X105580000Y-69514846D01*
X105594888Y-69439999D01*
X105580000Y-69365152D01*
X105580000Y-69365148D01*
X105537205Y-69150000D01*
X130502560Y-69150000D01*
X130502560Y-70850000D01*
X130551843Y-71097765D01*
X130692191Y-71307809D01*
X130902235Y-71448157D01*
X130943523Y-71456370D01*
X130741078Y-71658815D01*
X130515000Y-72204615D01*
X130515000Y-72795385D01*
X130741078Y-73341185D01*
X131158815Y-73758922D01*
X131704615Y-73985000D01*
X132295385Y-73985000D01*
X132841185Y-73758922D01*
X133000000Y-73600107D01*
X133158815Y-73758922D01*
X133704615Y-73985000D01*
X134295385Y-73985000D01*
X134841185Y-73758922D01*
X135258922Y-73341185D01*
X135485000Y-72795385D01*
X135485000Y-72204615D01*
X135258922Y-71658815D01*
X134841185Y-71241078D01*
X134722249Y-71191813D01*
X134745689Y-71131770D01*
X134000000Y-70386080D01*
X133985858Y-70400223D01*
X133599778Y-70014143D01*
X133613920Y-70000000D01*
X134386080Y-70000000D01*
X135131770Y-70745689D01*
X135365316Y-70654514D01*
X135511859Y-70082208D01*
X135428235Y-69497387D01*
X135365316Y-69345486D01*
X135131770Y-69254311D01*
X134386080Y-70000000D01*
X133613920Y-70000000D01*
X133599778Y-69985858D01*
X133985858Y-69599777D01*
X134000000Y-69613920D01*
X134745689Y-68868230D01*
X134654514Y-68634684D01*
X134082208Y-68488141D01*
X133497387Y-68571765D01*
X133345486Y-68634684D01*
X133317420Y-68706575D01*
X133307809Y-68692191D01*
X133097765Y-68551843D01*
X132850000Y-68502560D01*
X131150000Y-68502560D01*
X130902235Y-68551843D01*
X130692191Y-68692191D01*
X130551843Y-68902235D01*
X130502560Y-69150000D01*
X105537205Y-69150000D01*
X105535904Y-69143463D01*
X105367929Y-68892071D01*
X105304472Y-68849670D01*
X105160330Y-68705529D01*
X105117929Y-68642071D01*
X104866537Y-68474096D01*
X104644852Y-68430000D01*
X104644847Y-68430000D01*
X104570000Y-68415112D01*
X104495153Y-68430000D01*
X102360000Y-68430000D01*
X102360000Y-67018641D01*
X135307439Y-67018641D01*
X135510566Y-67345335D01*
X136411372Y-67643319D01*
X137357641Y-67573896D01*
X137909434Y-67345335D01*
X138112561Y-67018641D01*
X136710000Y-65616080D01*
X135307439Y-67018641D01*
X102360000Y-67018641D01*
X102360000Y-64931372D01*
X134296681Y-64931372D01*
X134366104Y-65877641D01*
X134594665Y-66429434D01*
X134921359Y-66632561D01*
X136323920Y-65230000D01*
X137096080Y-65230000D01*
X138498641Y-66632561D01*
X138825335Y-66429434D01*
X139123319Y-65528628D01*
X139053896Y-64582359D01*
X138825335Y-64030566D01*
X138498641Y-63827439D01*
X137096080Y-65230000D01*
X136323920Y-65230000D01*
X134921359Y-63827439D01*
X134594665Y-64030566D01*
X134296681Y-64931372D01*
X102360000Y-64931372D01*
X102360000Y-63441359D01*
X135307439Y-63441359D01*
X136710000Y-64843920D01*
X138112561Y-63441359D01*
X137909434Y-63114665D01*
X137008628Y-62816681D01*
X136062359Y-62886104D01*
X135510566Y-63114665D01*
X135307439Y-63441359D01*
X102360000Y-63441359D01*
X102360000Y-62544847D01*
X102374888Y-62470000D01*
X102360000Y-62395153D01*
X102360000Y-62395148D01*
X102315904Y-62173463D01*
X102147929Y-61922071D01*
X102084473Y-61879671D01*
X101743443Y-61538641D01*
X130097439Y-61538641D01*
X130300566Y-61865335D01*
X131201372Y-62163319D01*
X132147641Y-62093896D01*
X132699434Y-61865335D01*
X132902561Y-61538641D01*
X135097439Y-61538641D01*
X135300566Y-61865335D01*
X136201372Y-62163319D01*
X137147641Y-62093896D01*
X137699434Y-61865335D01*
X137902561Y-61538641D01*
X136500000Y-60136080D01*
X135097439Y-61538641D01*
X132902561Y-61538641D01*
X131500000Y-60136080D01*
X130097439Y-61538641D01*
X101743443Y-61538641D01*
X99020331Y-58815530D01*
X98977929Y-58752071D01*
X98971819Y-58747988D01*
X103320967Y-58747988D01*
X103618034Y-59245468D01*
X104082865Y-59591397D01*
X104222015Y-59649012D01*
X104447000Y-59547848D01*
X104447000Y-58523000D01*
X103419039Y-58523000D01*
X103320967Y-58747988D01*
X98971819Y-58747988D01*
X98726537Y-58584096D01*
X98504852Y-58540000D01*
X98504847Y-58540000D01*
X98430000Y-58525112D01*
X98355153Y-58540000D01*
X97103711Y-58540000D01*
X96986280Y-58422569D01*
X96605874Y-58265000D01*
X96194126Y-58265000D01*
X95813720Y-58422569D01*
X95522569Y-58713720D01*
X95365000Y-59094126D01*
X89627000Y-59094126D01*
X89627000Y-57752012D01*
X103320967Y-57752012D01*
X103419039Y-57977000D01*
X104447000Y-57977000D01*
X104447000Y-56952152D01*
X104993000Y-56952152D01*
X104993000Y-57977000D01*
X105013000Y-57977000D01*
X105013000Y-58523000D01*
X104993000Y-58523000D01*
X104993000Y-59547848D01*
X105217985Y-59649012D01*
X105357135Y-59591397D01*
X105821966Y-59245468D01*
X105971658Y-58994788D01*
X106189375Y-59320625D01*
X106680582Y-59648839D01*
X107113744Y-59735000D01*
X107406256Y-59735000D01*
X107839418Y-59648839D01*
X108330625Y-59320625D01*
X108530000Y-59022239D01*
X108729375Y-59320625D01*
X109220582Y-59648839D01*
X109653744Y-59735000D01*
X109946256Y-59735000D01*
X110379418Y-59648839D01*
X110870625Y-59320625D01*
X110882816Y-59302381D01*
X110891843Y-59347765D01*
X111032191Y-59557809D01*
X111242235Y-59698157D01*
X111490000Y-59747440D01*
X113190000Y-59747440D01*
X113437765Y-59698157D01*
X113647809Y-59557809D01*
X113718928Y-59451372D01*
X129086681Y-59451372D01*
X129156104Y-60397641D01*
X129384665Y-60949434D01*
X129711359Y-61152561D01*
X131113920Y-59750000D01*
X131886080Y-59750000D01*
X133288641Y-61152561D01*
X133615335Y-60949434D01*
X133913319Y-60048628D01*
X133869502Y-59451372D01*
X134086681Y-59451372D01*
X134156104Y-60397641D01*
X134384665Y-60949434D01*
X134711359Y-61152561D01*
X136113920Y-59750000D01*
X136886080Y-59750000D01*
X138288641Y-61152561D01*
X138615335Y-60949434D01*
X138913319Y-60048628D01*
X138843896Y-59102359D01*
X138615335Y-58550566D01*
X138288641Y-58347439D01*
X136886080Y-59750000D01*
X136113920Y-59750000D01*
X134711359Y-58347439D01*
X134384665Y-58550566D01*
X134086681Y-59451372D01*
X133869502Y-59451372D01*
X133843896Y-59102359D01*
X133615335Y-58550566D01*
X133288641Y-58347439D01*
X131886080Y-59750000D01*
X131113920Y-59750000D01*
X129711359Y-58347439D01*
X129384665Y-58550566D01*
X129086681Y-59451372D01*
X113718928Y-59451372D01*
X113788157Y-59347765D01*
X113837440Y-59100000D01*
X113837440Y-57961359D01*
X130097439Y-57961359D01*
X131500000Y-59363920D01*
X132902561Y-57961359D01*
X135097439Y-57961359D01*
X136500000Y-59363920D01*
X137902561Y-57961359D01*
X137699434Y-57634665D01*
X136798628Y-57336681D01*
X135852359Y-57406104D01*
X135300566Y-57634665D01*
X135097439Y-57961359D01*
X132902561Y-57961359D01*
X132699434Y-57634665D01*
X131798628Y-57336681D01*
X130852359Y-57406104D01*
X130300566Y-57634665D01*
X130097439Y-57961359D01*
X113837440Y-57961359D01*
X113837440Y-57400000D01*
X113788157Y-57152235D01*
X113647809Y-56942191D01*
X113437765Y-56801843D01*
X113190000Y-56752560D01*
X111490000Y-56752560D01*
X111242235Y-56801843D01*
X111032191Y-56942191D01*
X110891843Y-57152235D01*
X110882816Y-57197619D01*
X110870625Y-57179375D01*
X110379418Y-56851161D01*
X109946256Y-56765000D01*
X109653744Y-56765000D01*
X109220582Y-56851161D01*
X108729375Y-57179375D01*
X108530000Y-57477761D01*
X108330625Y-57179375D01*
X107839418Y-56851161D01*
X107406256Y-56765000D01*
X107113744Y-56765000D01*
X106680582Y-56851161D01*
X106189375Y-57179375D01*
X105971658Y-57505212D01*
X105821966Y-57254532D01*
X105357135Y-56908603D01*
X105217985Y-56850988D01*
X104993000Y-56952152D01*
X104447000Y-56952152D01*
X104222015Y-56850988D01*
X104082865Y-56908603D01*
X103618034Y-57254532D01*
X103320967Y-57752012D01*
X89627000Y-57752012D01*
X89627000Y-54038641D01*
X130097439Y-54038641D01*
X130300566Y-54365335D01*
X131201372Y-54663319D01*
X132147641Y-54593896D01*
X132699434Y-54365335D01*
X132902561Y-54038641D01*
X135097439Y-54038641D01*
X135300566Y-54365335D01*
X136201372Y-54663319D01*
X137147641Y-54593896D01*
X137699434Y-54365335D01*
X137902561Y-54038641D01*
X136500000Y-52636080D01*
X135097439Y-54038641D01*
X132902561Y-54038641D01*
X131500000Y-52636080D01*
X130097439Y-54038641D01*
X89627000Y-54038641D01*
X89627000Y-51951372D01*
X129086681Y-51951372D01*
X129156104Y-52897641D01*
X129384665Y-53449434D01*
X129711359Y-53652561D01*
X131113920Y-52250000D01*
X131886080Y-52250000D01*
X133288641Y-53652561D01*
X133615335Y-53449434D01*
X133913319Y-52548628D01*
X133869502Y-51951372D01*
X134086681Y-51951372D01*
X134156104Y-52897641D01*
X134384665Y-53449434D01*
X134711359Y-53652561D01*
X136113920Y-52250000D01*
X136886080Y-52250000D01*
X138288641Y-53652561D01*
X138615335Y-53449434D01*
X138913319Y-52548628D01*
X138843896Y-51602359D01*
X138615335Y-51050566D01*
X138288641Y-50847439D01*
X136886080Y-52250000D01*
X136113920Y-52250000D01*
X134711359Y-50847439D01*
X134384665Y-51050566D01*
X134086681Y-51951372D01*
X133869502Y-51951372D01*
X133843896Y-51602359D01*
X133615335Y-51050566D01*
X133288641Y-50847439D01*
X131886080Y-52250000D01*
X131113920Y-52250000D01*
X129711359Y-50847439D01*
X129384665Y-51050566D01*
X129086681Y-51951372D01*
X89627000Y-51951372D01*
X89627000Y-49960000D01*
X130722243Y-49960000D01*
X130300566Y-50134665D01*
X130300566Y-50134665D01*
G37*
X130300566Y-50134665D02*
X130097439Y-50461359D01*
X131500000Y-51863920D01*
X132902561Y-50461359D01*
X132699434Y-50134665D01*
X132171421Y-49960000D01*
X135722243Y-49960000D01*
X135300566Y-50134665D01*
X135097439Y-50461359D01*
X136500000Y-51863920D01*
X137902561Y-50461359D01*
X137699434Y-50134665D01*
X137171421Y-49960000D01*
X139290001Y-49960000D01*
X139290000Y-92540000D01*
X137277757Y-92540000D01*
X137699434Y-92365335D01*
X137902561Y-92038641D01*
X136500000Y-90636080D01*
X135097439Y-92038641D01*
X135300566Y-92365335D01*
X135828579Y-92540000D01*
X132277757Y-92540000D01*
X132699434Y-92365335D01*
X132902561Y-92038641D01*
X131500000Y-90636080D01*
X130097439Y-92038641D01*
X130300566Y-92365335D01*
X130828579Y-92540000D01*
X89627000Y-92540000D01*
X89627000Y-89951372D01*
X129086681Y-89951372D01*
X129156104Y-90897641D01*
X129384665Y-91449434D01*
X129711359Y-91652561D01*
X131113920Y-90250000D01*
X131886080Y-90250000D01*
X133288641Y-91652561D01*
X133615335Y-91449434D01*
X133913319Y-90548628D01*
X133869502Y-89951372D01*
X134086681Y-89951372D01*
X134156104Y-90897641D01*
X134384665Y-91449434D01*
X134711359Y-91652561D01*
X136113920Y-90250000D01*
X136886080Y-90250000D01*
X138288641Y-91652561D01*
X138615335Y-91449434D01*
X138913319Y-90548628D01*
X138843896Y-89602359D01*
X138615335Y-89050566D01*
X138288641Y-88847439D01*
X136886080Y-90250000D01*
X136113920Y-90250000D01*
X134711359Y-88847439D01*
X134384665Y-89050566D01*
X134086681Y-89951372D01*
X133869502Y-89951372D01*
X133843896Y-89602359D01*
X133615335Y-89050566D01*
X133288641Y-88847439D01*
X131886080Y-90250000D01*
X131113920Y-90250000D01*
X129711359Y-88847439D01*
X129384665Y-89050566D01*
X129086681Y-89951372D01*
X89627000Y-89951372D01*
X89627000Y-88461359D01*
X130097439Y-88461359D01*
X131500000Y-89863920D01*
X132902561Y-88461359D01*
X135097439Y-88461359D01*
X136500000Y-89863920D01*
X137902561Y-88461359D01*
X137699434Y-88134665D01*
X136798628Y-87836681D01*
X135852359Y-87906104D01*
X135300566Y-88134665D01*
X135097439Y-88461359D01*
X132902561Y-88461359D01*
X132699434Y-88134665D01*
X131798628Y-87836681D01*
X130852359Y-87906104D01*
X130300566Y-88134665D01*
X130097439Y-88461359D01*
X89627000Y-88461359D01*
X89627000Y-86250000D01*
X104470908Y-86250000D01*
X104586161Y-86829418D01*
X104914375Y-87320625D01*
X105405582Y-87648839D01*
X105838744Y-87735000D01*
X106131256Y-87735000D01*
X106564418Y-87648839D01*
X107055625Y-87320625D01*
X107255000Y-87022239D01*
X107454375Y-87320625D01*
X107945582Y-87648839D01*
X108378744Y-87735000D01*
X108671256Y-87735000D01*
X109104418Y-87648839D01*
X109595625Y-87320625D01*
X109607816Y-87302381D01*
X109616843Y-87347765D01*
X109757191Y-87557809D01*
X109967235Y-87698157D01*
X110215000Y-87747440D01*
X111915000Y-87747440D01*
X112162765Y-87698157D01*
X112372809Y-87557809D01*
X112513157Y-87347765D01*
X112562440Y-87100000D01*
X112562440Y-85400000D01*
X112513157Y-85152235D01*
X112372809Y-84942191D01*
X112162765Y-84801843D01*
X111915000Y-84752560D01*
X110215000Y-84752560D01*
X109967235Y-84801843D01*
X109757191Y-84942191D01*
X109616843Y-85152235D01*
X109607816Y-85197619D01*
X109595625Y-85179375D01*
X109104418Y-84851161D01*
X108671256Y-84765000D01*
X108378744Y-84765000D01*
X107945582Y-84851161D01*
X107454375Y-85179375D01*
X107255000Y-85477761D01*
X107055625Y-85179375D01*
X106564418Y-84851161D01*
X106131256Y-84765000D01*
X105838744Y-84765000D01*
X105405582Y-84851161D01*
X104914375Y-85179375D01*
X104586161Y-85670582D01*
X104470908Y-86250000D01*
X89627000Y-86250000D01*
X89627000Y-84538641D01*
X130097439Y-84538641D01*
X130300566Y-84865335D01*
X131201372Y-85163319D01*
X132147641Y-85093896D01*
X132699434Y-84865335D01*
X132902561Y-84538641D01*
X135097439Y-84538641D01*
X135300566Y-84865335D01*
X136201372Y-85163319D01*
X137147641Y-85093896D01*
X137699434Y-84865335D01*
X137902561Y-84538641D01*
X136500000Y-83136080D01*
X135097439Y-84538641D01*
X132902561Y-84538641D01*
X131500000Y-83136080D01*
X130097439Y-84538641D01*
X89627000Y-84538641D01*
X89627000Y-82451372D01*
X129086681Y-82451372D01*
X129156104Y-83397641D01*
X129384665Y-83949434D01*
X129711359Y-84152561D01*
X131113920Y-82750000D01*
X131886080Y-82750000D01*
X133288641Y-84152561D01*
X133615335Y-83949434D01*
X133913319Y-83048628D01*
X133869502Y-82451372D01*
X134086681Y-82451372D01*
X134156104Y-83397641D01*
X134384665Y-83949434D01*
X134711359Y-84152561D01*
X136113920Y-82750000D01*
X136886080Y-82750000D01*
X138288641Y-84152561D01*
X138615335Y-83949434D01*
X138913319Y-83048628D01*
X138843896Y-82102359D01*
X138615335Y-81550566D01*
X138288641Y-81347439D01*
X136886080Y-82750000D01*
X136113920Y-82750000D01*
X134711359Y-81347439D01*
X134384665Y-81550566D01*
X134086681Y-82451372D01*
X133869502Y-82451372D01*
X133843896Y-82102359D01*
X133615335Y-81550566D01*
X133288641Y-81347439D01*
X131886080Y-82750000D01*
X131113920Y-82750000D01*
X129711359Y-81347439D01*
X129384665Y-81550566D01*
X129086681Y-82451372D01*
X89627000Y-82451372D01*
X89627000Y-80961359D01*
X130097439Y-80961359D01*
X131500000Y-82363920D01*
X132902561Y-80961359D01*
X135097439Y-80961359D01*
X136500000Y-82363920D01*
X137902561Y-80961359D01*
X137699434Y-80634665D01*
X136798628Y-80336681D01*
X135852359Y-80406104D01*
X135300566Y-80634665D01*
X135097439Y-80961359D01*
X132902561Y-80961359D01*
X132699434Y-80634665D01*
X131798628Y-80336681D01*
X130852359Y-80406104D01*
X130300566Y-80634665D01*
X130097439Y-80961359D01*
X89627000Y-80961359D01*
X89627000Y-72094126D01*
X101565000Y-72094126D01*
X101565000Y-72505874D01*
X101722569Y-72886280D01*
X101840001Y-73003712D01*
X101840000Y-74735153D01*
X101825112Y-74810000D01*
X101840000Y-74884847D01*
X101840000Y-74884851D01*
X101884096Y-75106536D01*
X102052071Y-75357929D01*
X102115530Y-75400331D01*
X103769671Y-77054473D01*
X103812071Y-77117929D01*
X104063463Y-77285904D01*
X104285148Y-77330000D01*
X104285153Y-77330000D01*
X104360000Y-77344888D01*
X104434847Y-77330000D01*
X106306289Y-77330000D01*
X106423720Y-77447431D01*
X106804126Y-77605000D01*
X107215874Y-77605000D01*
X107555974Y-77464126D01*
X108175000Y-77464126D01*
X108175000Y-77875874D01*
X108332569Y-78256280D01*
X108623720Y-78547431D01*
X109004126Y-78705000D01*
X109163387Y-78705000D01*
X109192071Y-78747929D01*
X109443463Y-78915904D01*
X109665148Y-78960000D01*
X109665152Y-78960000D01*
X109739999Y-78974888D01*
X109814846Y-78960000D01*
X114796289Y-78960000D01*
X114913720Y-79077431D01*
X115294126Y-79235000D01*
X115705874Y-79235000D01*
X116086280Y-79077431D01*
X116105070Y-79058641D01*
X135307439Y-79058641D01*
X135510566Y-79385335D01*
X136411372Y-79683319D01*
X137357641Y-79613896D01*
X137909434Y-79385335D01*
X138112561Y-79058641D01*
X136710000Y-77656080D01*
X135307439Y-79058641D01*
X116105070Y-79058641D01*
X116377431Y-78786280D01*
X116535000Y-78405874D01*
X116535000Y-77994126D01*
X116377431Y-77613720D01*
X116086280Y-77322569D01*
X115705874Y-77165000D01*
X115294126Y-77165000D01*
X114913720Y-77322569D01*
X114796289Y-77440000D01*
X110235007Y-77440000D01*
X110087431Y-77083720D01*
X109975083Y-76971372D01*
X134296681Y-76971372D01*
X134366104Y-77917641D01*
X134594665Y-78469434D01*
X134921359Y-78672561D01*
X136323920Y-77270000D01*
X137096080Y-77270000D01*
X138498641Y-78672561D01*
X138825335Y-78469434D01*
X139123319Y-77568628D01*
X139053896Y-76622359D01*
X138825335Y-76070566D01*
X138498641Y-75867439D01*
X137096080Y-77270000D01*
X136323920Y-77270000D01*
X134921359Y-75867439D01*
X134594665Y-76070566D01*
X134296681Y-76971372D01*
X109975083Y-76971372D01*
X109796280Y-76792569D01*
X109415874Y-76635000D01*
X109004126Y-76635000D01*
X108623720Y-76792569D01*
X108332569Y-77083720D01*
X108175000Y-77464126D01*
X107555974Y-77464126D01*
X107596280Y-77447431D01*
X107887431Y-77156280D01*
X108045000Y-76775874D01*
X108045000Y-76364126D01*
X107887431Y-75983720D01*
X107596280Y-75692569D01*
X107215874Y-75535000D01*
X106804126Y-75535000D01*
X106423720Y-75692569D01*
X106306289Y-75810000D01*
X105179738Y-75810000D01*
X105285000Y-75555874D01*
X105285000Y-75481359D01*
X135307439Y-75481359D01*
X136710000Y-76883920D01*
X138112561Y-75481359D01*
X137909434Y-75154665D01*
X137008628Y-74856681D01*
X136062359Y-74926104D01*
X135510566Y-75154665D01*
X135307439Y-75481359D01*
X105285000Y-75481359D01*
X105285000Y-75144126D01*
X105127431Y-74763720D01*
X105010000Y-74646289D01*
X105010000Y-73803711D01*
X105127431Y-73686280D01*
X105285000Y-73305874D01*
X105285000Y-73244126D01*
X113540000Y-73244126D01*
X113540000Y-73655874D01*
X113697569Y-74036280D01*
X113988720Y-74327431D01*
X114369126Y-74485000D01*
X114780874Y-74485000D01*
X115161280Y-74327431D01*
X115428711Y-74060000D01*
X116771289Y-74060000D01*
X116888720Y-74177431D01*
X117269126Y-74335000D01*
X117680874Y-74335000D01*
X118061280Y-74177431D01*
X118352431Y-73886280D01*
X118510000Y-73505874D01*
X118510000Y-73094126D01*
X118352431Y-72713720D01*
X118061280Y-72422569D01*
X117680874Y-72265000D01*
X117269126Y-72265000D01*
X116888720Y-72422569D01*
X116771289Y-72540000D01*
X115082651Y-72540000D01*
X114780874Y-72415000D01*
X114369126Y-72415000D01*
X113988720Y-72572569D01*
X113697569Y-72863720D01*
X113540000Y-73244126D01*
X105285000Y-73244126D01*
X105285000Y-72894126D01*
X105127431Y-72513720D01*
X104836280Y-72222569D01*
X104455874Y-72065000D01*
X104044126Y-72065000D01*
X103663720Y-72222569D01*
X103635000Y-72251289D01*
X103635000Y-72094126D01*
X103477431Y-71713720D01*
X103186280Y-71422569D01*
X102805874Y-71265000D01*
X102394126Y-71265000D01*
X102013720Y-71422569D01*
X101722569Y-71713720D01*
X101565000Y-72094126D01*
X89627000Y-72094126D01*
X89627000Y-66694126D01*
X95315000Y-66694126D01*
X95315000Y-67105874D01*
X95472569Y-67486280D01*
X95763720Y-67777431D01*
X96144126Y-67935000D01*
X96555874Y-67935000D01*
X96936280Y-67777431D01*
X97053711Y-67660000D01*
X98046289Y-67660000D01*
X98163720Y-67777431D01*
X98544126Y-67935000D01*
X98955874Y-67935000D01*
X99336280Y-67777431D01*
X99627431Y-67486280D01*
X99785000Y-67105874D01*
X99785000Y-66694126D01*
X99627431Y-66313720D01*
X99336280Y-66022569D01*
X98955874Y-65865000D01*
X98544126Y-65865000D01*
X98163720Y-66022569D01*
X98046289Y-66140000D01*
X97053711Y-66140000D01*
X96936280Y-66022569D01*
X96555874Y-65865000D01*
X96144126Y-65865000D01*
X95763720Y-66022569D01*
X95472569Y-66313720D01*
X95315000Y-66694126D01*
X89627000Y-66694126D01*
X89627000Y-64194126D01*
X95315000Y-64194126D01*
X95315000Y-64605874D01*
X95472569Y-64986280D01*
X95763720Y-65277431D01*
X96144126Y-65435000D01*
X96555874Y-65435000D01*
X96936280Y-65277431D01*
X97053711Y-65160000D01*
X98046289Y-65160000D01*
X98163720Y-65277431D01*
X98544126Y-65435000D01*
X98955874Y-65435000D01*
X99336280Y-65277431D01*
X99627431Y-64986280D01*
X99785000Y-64605874D01*
X99785000Y-64194126D01*
X99627431Y-63813720D01*
X99336280Y-63522569D01*
X98955874Y-63365000D01*
X98544126Y-63365000D01*
X98163720Y-63522569D01*
X98046289Y-63640000D01*
X97053711Y-63640000D01*
X96936280Y-63522569D01*
X96555874Y-63365000D01*
X96144126Y-63365000D01*
X95763720Y-63522569D01*
X95472569Y-63813720D01*
X95315000Y-64194126D01*
X89627000Y-64194126D01*
X89627000Y-59094126D01*
X95365000Y-59094126D01*
X95365000Y-59505874D01*
X95522569Y-59886280D01*
X95813720Y-60177431D01*
X96194126Y-60335000D01*
X96605874Y-60335000D01*
X96986280Y-60177431D01*
X97103711Y-60060000D01*
X98115199Y-60060000D01*
X99145199Y-61090000D01*
X97103711Y-61090000D01*
X96986280Y-60972569D01*
X96605874Y-60815000D01*
X96194126Y-60815000D01*
X95813720Y-60972569D01*
X95522569Y-61263720D01*
X95365000Y-61644126D01*
X95365000Y-62055874D01*
X95522569Y-62436280D01*
X95813720Y-62727431D01*
X96194126Y-62885000D01*
X96605874Y-62885000D01*
X96986280Y-62727431D01*
X97103711Y-62610000D01*
X99745198Y-62610000D01*
X100290001Y-63154803D01*
X100290000Y-69295153D01*
X100275112Y-69370000D01*
X100290000Y-69444847D01*
X100290000Y-69444851D01*
X100334096Y-69666536D01*
X100502071Y-69917929D01*
X100565530Y-69960331D01*
X101039671Y-70434473D01*
X101082071Y-70497929D01*
X101333463Y-70665904D01*
X101555148Y-70710000D01*
X101555153Y-70710000D01*
X101630000Y-70724888D01*
X101704847Y-70710000D01*
X103296289Y-70710000D01*
X103413720Y-70827431D01*
X103635000Y-70919088D01*
X103635000Y-71215874D01*
X103792569Y-71596280D01*
X104083720Y-71887431D01*
X104464126Y-72045000D01*
X104875874Y-72045000D01*
X105256280Y-71887431D01*
X105547431Y-71596280D01*
X105705000Y-71215874D01*
X105705000Y-70804126D01*
X105580000Y-70502349D01*
X105580000Y-69514846D01*
X105594888Y-69439999D01*
X105580000Y-69365152D01*
X105580000Y-69365148D01*
X105537205Y-69150000D01*
X130502560Y-69150000D01*
X130502560Y-70850000D01*
X130551843Y-71097765D01*
X130692191Y-71307809D01*
X130902235Y-71448157D01*
X130943523Y-71456370D01*
X130741078Y-71658815D01*
X130515000Y-72204615D01*
X130515000Y-72795385D01*
X130741078Y-73341185D01*
X131158815Y-73758922D01*
X131704615Y-73985000D01*
X132295385Y-73985000D01*
X132841185Y-73758922D01*
X133000000Y-73600107D01*
X133158815Y-73758922D01*
X133704615Y-73985000D01*
X134295385Y-73985000D01*
X134841185Y-73758922D01*
X135258922Y-73341185D01*
X135485000Y-72795385D01*
X135485000Y-72204615D01*
X135258922Y-71658815D01*
X134841185Y-71241078D01*
X134722249Y-71191813D01*
X134745689Y-71131770D01*
X134000000Y-70386080D01*
X133985858Y-70400223D01*
X133599778Y-70014143D01*
X133613920Y-70000000D01*
X134386080Y-70000000D01*
X135131770Y-70745689D01*
X135365316Y-70654514D01*
X135511859Y-70082208D01*
X135428235Y-69497387D01*
X135365316Y-69345486D01*
X135131770Y-69254311D01*
X134386080Y-70000000D01*
X133613920Y-70000000D01*
X133599778Y-69985858D01*
X133985858Y-69599777D01*
X134000000Y-69613920D01*
X134745689Y-68868230D01*
X134654514Y-68634684D01*
X134082208Y-68488141D01*
X133497387Y-68571765D01*
X133345486Y-68634684D01*
X133317420Y-68706575D01*
X133307809Y-68692191D01*
X133097765Y-68551843D01*
X132850000Y-68502560D01*
X131150000Y-68502560D01*
X130902235Y-68551843D01*
X130692191Y-68692191D01*
X130551843Y-68902235D01*
X130502560Y-69150000D01*
X105537205Y-69150000D01*
X105535904Y-69143463D01*
X105367929Y-68892071D01*
X105304472Y-68849670D01*
X105160330Y-68705529D01*
X105117929Y-68642071D01*
X104866537Y-68474096D01*
X104644852Y-68430000D01*
X104644847Y-68430000D01*
X104570000Y-68415112D01*
X104495153Y-68430000D01*
X102360000Y-68430000D01*
X102360000Y-67018641D01*
X135307439Y-67018641D01*
X135510566Y-67345335D01*
X136411372Y-67643319D01*
X137357641Y-67573896D01*
X137909434Y-67345335D01*
X138112561Y-67018641D01*
X136710000Y-65616080D01*
X135307439Y-67018641D01*
X102360000Y-67018641D01*
X102360000Y-64931372D01*
X134296681Y-64931372D01*
X134366104Y-65877641D01*
X134594665Y-66429434D01*
X134921359Y-66632561D01*
X136323920Y-65230000D01*
X137096080Y-65230000D01*
X138498641Y-66632561D01*
X138825335Y-66429434D01*
X139123319Y-65528628D01*
X139053896Y-64582359D01*
X138825335Y-64030566D01*
X138498641Y-63827439D01*
X137096080Y-65230000D01*
X136323920Y-65230000D01*
X134921359Y-63827439D01*
X134594665Y-64030566D01*
X134296681Y-64931372D01*
X102360000Y-64931372D01*
X102360000Y-63441359D01*
X135307439Y-63441359D01*
X136710000Y-64843920D01*
X138112561Y-63441359D01*
X137909434Y-63114665D01*
X137008628Y-62816681D01*
X136062359Y-62886104D01*
X135510566Y-63114665D01*
X135307439Y-63441359D01*
X102360000Y-63441359D01*
X102360000Y-62544847D01*
X102374888Y-62470000D01*
X102360000Y-62395153D01*
X102360000Y-62395148D01*
X102315904Y-62173463D01*
X102147929Y-61922071D01*
X102084473Y-61879671D01*
X101743443Y-61538641D01*
X130097439Y-61538641D01*
X130300566Y-61865335D01*
X131201372Y-62163319D01*
X132147641Y-62093896D01*
X132699434Y-61865335D01*
X132902561Y-61538641D01*
X135097439Y-61538641D01*
X135300566Y-61865335D01*
X136201372Y-62163319D01*
X137147641Y-62093896D01*
X137699434Y-61865335D01*
X137902561Y-61538641D01*
X136500000Y-60136080D01*
X135097439Y-61538641D01*
X132902561Y-61538641D01*
X131500000Y-60136080D01*
X130097439Y-61538641D01*
X101743443Y-61538641D01*
X99020331Y-58815530D01*
X98977929Y-58752071D01*
X98971819Y-58747988D01*
X103320967Y-58747988D01*
X103618034Y-59245468D01*
X104082865Y-59591397D01*
X104222015Y-59649012D01*
X104447000Y-59547848D01*
X104447000Y-58523000D01*
X103419039Y-58523000D01*
X103320967Y-58747988D01*
X98971819Y-58747988D01*
X98726537Y-58584096D01*
X98504852Y-58540000D01*
X98504847Y-58540000D01*
X98430000Y-58525112D01*
X98355153Y-58540000D01*
X97103711Y-58540000D01*
X96986280Y-58422569D01*
X96605874Y-58265000D01*
X96194126Y-58265000D01*
X95813720Y-58422569D01*
X95522569Y-58713720D01*
X95365000Y-59094126D01*
X89627000Y-59094126D01*
X89627000Y-57752012D01*
X103320967Y-57752012D01*
X103419039Y-57977000D01*
X104447000Y-57977000D01*
X104447000Y-56952152D01*
X104993000Y-56952152D01*
X104993000Y-57977000D01*
X105013000Y-57977000D01*
X105013000Y-58523000D01*
X104993000Y-58523000D01*
X104993000Y-59547848D01*
X105217985Y-59649012D01*
X105357135Y-59591397D01*
X105821966Y-59245468D01*
X105971658Y-58994788D01*
X106189375Y-59320625D01*
X106680582Y-59648839D01*
X107113744Y-59735000D01*
X107406256Y-59735000D01*
X107839418Y-59648839D01*
X108330625Y-59320625D01*
X108530000Y-59022239D01*
X108729375Y-59320625D01*
X109220582Y-59648839D01*
X109653744Y-59735000D01*
X109946256Y-59735000D01*
X110379418Y-59648839D01*
X110870625Y-59320625D01*
X110882816Y-59302381D01*
X110891843Y-59347765D01*
X111032191Y-59557809D01*
X111242235Y-59698157D01*
X111490000Y-59747440D01*
X113190000Y-59747440D01*
X113437765Y-59698157D01*
X113647809Y-59557809D01*
X113718928Y-59451372D01*
X129086681Y-59451372D01*
X129156104Y-60397641D01*
X129384665Y-60949434D01*
X129711359Y-61152561D01*
X131113920Y-59750000D01*
X131886080Y-59750000D01*
X133288641Y-61152561D01*
X133615335Y-60949434D01*
X133913319Y-60048628D01*
X133869502Y-59451372D01*
X134086681Y-59451372D01*
X134156104Y-60397641D01*
X134384665Y-60949434D01*
X134711359Y-61152561D01*
X136113920Y-59750000D01*
X136886080Y-59750000D01*
X138288641Y-61152561D01*
X138615335Y-60949434D01*
X138913319Y-60048628D01*
X138843896Y-59102359D01*
X138615335Y-58550566D01*
X138288641Y-58347439D01*
X136886080Y-59750000D01*
X136113920Y-59750000D01*
X134711359Y-58347439D01*
X134384665Y-58550566D01*
X134086681Y-59451372D01*
X133869502Y-59451372D01*
X133843896Y-59102359D01*
X133615335Y-58550566D01*
X133288641Y-58347439D01*
X131886080Y-59750000D01*
X131113920Y-59750000D01*
X129711359Y-58347439D01*
X129384665Y-58550566D01*
X129086681Y-59451372D01*
X113718928Y-59451372D01*
X113788157Y-59347765D01*
X113837440Y-59100000D01*
X113837440Y-57961359D01*
X130097439Y-57961359D01*
X131500000Y-59363920D01*
X132902561Y-57961359D01*
X135097439Y-57961359D01*
X136500000Y-59363920D01*
X137902561Y-57961359D01*
X137699434Y-57634665D01*
X136798628Y-57336681D01*
X135852359Y-57406104D01*
X135300566Y-57634665D01*
X135097439Y-57961359D01*
X132902561Y-57961359D01*
X132699434Y-57634665D01*
X131798628Y-57336681D01*
X130852359Y-57406104D01*
X130300566Y-57634665D01*
X130097439Y-57961359D01*
X113837440Y-57961359D01*
X113837440Y-57400000D01*
X113788157Y-57152235D01*
X113647809Y-56942191D01*
X113437765Y-56801843D01*
X113190000Y-56752560D01*
X111490000Y-56752560D01*
X111242235Y-56801843D01*
X111032191Y-56942191D01*
X110891843Y-57152235D01*
X110882816Y-57197619D01*
X110870625Y-57179375D01*
X110379418Y-56851161D01*
X109946256Y-56765000D01*
X109653744Y-56765000D01*
X109220582Y-56851161D01*
X108729375Y-57179375D01*
X108530000Y-57477761D01*
X108330625Y-57179375D01*
X107839418Y-56851161D01*
X107406256Y-56765000D01*
X107113744Y-56765000D01*
X106680582Y-56851161D01*
X106189375Y-57179375D01*
X105971658Y-57505212D01*
X105821966Y-57254532D01*
X105357135Y-56908603D01*
X105217985Y-56850988D01*
X104993000Y-56952152D01*
X104447000Y-56952152D01*
X104222015Y-56850988D01*
X104082865Y-56908603D01*
X103618034Y-57254532D01*
X103320967Y-57752012D01*
X89627000Y-57752012D01*
X89627000Y-54038641D01*
X130097439Y-54038641D01*
X130300566Y-54365335D01*
X131201372Y-54663319D01*
X132147641Y-54593896D01*
X132699434Y-54365335D01*
X132902561Y-54038641D01*
X135097439Y-54038641D01*
X135300566Y-54365335D01*
X136201372Y-54663319D01*
X137147641Y-54593896D01*
X137699434Y-54365335D01*
X137902561Y-54038641D01*
X136500000Y-52636080D01*
X135097439Y-54038641D01*
X132902561Y-54038641D01*
X131500000Y-52636080D01*
X130097439Y-54038641D01*
X89627000Y-54038641D01*
X89627000Y-51951372D01*
X129086681Y-51951372D01*
X129156104Y-52897641D01*
X129384665Y-53449434D01*
X129711359Y-53652561D01*
X131113920Y-52250000D01*
X131886080Y-52250000D01*
X133288641Y-53652561D01*
X133615335Y-53449434D01*
X133913319Y-52548628D01*
X133869502Y-51951372D01*
X134086681Y-51951372D01*
X134156104Y-52897641D01*
X134384665Y-53449434D01*
X134711359Y-53652561D01*
X136113920Y-52250000D01*
X136886080Y-52250000D01*
X138288641Y-53652561D01*
X138615335Y-53449434D01*
X138913319Y-52548628D01*
X138843896Y-51602359D01*
X138615335Y-51050566D01*
X138288641Y-50847439D01*
X136886080Y-52250000D01*
X136113920Y-52250000D01*
X134711359Y-50847439D01*
X134384665Y-51050566D01*
X134086681Y-51951372D01*
X133869502Y-51951372D01*
X133843896Y-51602359D01*
X133615335Y-51050566D01*
X133288641Y-50847439D01*
X131886080Y-52250000D01*
X131113920Y-52250000D01*
X129711359Y-50847439D01*
X129384665Y-51050566D01*
X129086681Y-51951372D01*
X89627000Y-51951372D01*
X89627000Y-49960000D01*
X130722243Y-49960000D01*
X130300566Y-50134665D01*
G04 #@! TD*
M02*
