G04 #@! TF.GenerationSoftware,KiCad,Pcbnew,(5.0.2)-1*
G04 #@! TF.CreationDate,2019-03-19T19:21:29-04:00*
G04 #@! TF.ProjectId,Keithley_17X_USB,4b656974-686c-4657-995f-3137585f5553,rev?*
G04 #@! TF.SameCoordinates,Original*
G04 #@! TF.FileFunction,Soldermask,Bot*
G04 #@! TF.FilePolarity,Negative*
%FSLAX46Y46*%
G04 Gerber Fmt 4.6, Leading zero omitted, Abs format (unit mm)*
G04 Created by KiCad (PCBNEW (5.0.2)-1) date 3/19/2019 7:21:29 PM*
%MOMM*%
%LPD*%
G01*
G04 APERTURE LIST*
%ADD10C,0.100000*%
G04 APERTURE END LIST*
D10*
G36*
X122051160Y-87002778D02*
X122331606Y-87058562D01*
X122850455Y-87273476D01*
X123314259Y-87583380D01*
X123317410Y-87585486D01*
X123714514Y-87982590D01*
X123714516Y-87982593D01*
X124026524Y-88449545D01*
X124241438Y-88968394D01*
X124241438Y-88968395D01*
X124326675Y-89396908D01*
X124351000Y-89519201D01*
X124351000Y-90080799D01*
X124241438Y-90631606D01*
X124026524Y-91150455D01*
X123716620Y-91614259D01*
X123714514Y-91617410D01*
X123317410Y-92014514D01*
X123317407Y-92014516D01*
X122850455Y-92326524D01*
X122331606Y-92541438D01*
X121780800Y-92651000D01*
X121219200Y-92651000D01*
X120668394Y-92541438D01*
X120149545Y-92326524D01*
X119682593Y-92014516D01*
X119682590Y-92014514D01*
X119285486Y-91617410D01*
X119283380Y-91614259D01*
X118973476Y-91150455D01*
X118758562Y-90631606D01*
X118649000Y-90080799D01*
X118649000Y-89519201D01*
X118673326Y-89396908D01*
X118758562Y-88968395D01*
X118758562Y-88968394D01*
X118973476Y-88449545D01*
X119285484Y-87982593D01*
X119285486Y-87982590D01*
X119682590Y-87585486D01*
X119685741Y-87583380D01*
X120149545Y-87273476D01*
X120668394Y-87058562D01*
X120948840Y-87002778D01*
X121219200Y-86949000D01*
X121780800Y-86949000D01*
X122051160Y-87002778D01*
X122051160Y-87002778D01*
G37*
G36*
X96151160Y-87002778D02*
X96431606Y-87058562D01*
X96950455Y-87273476D01*
X97414259Y-87583380D01*
X97417410Y-87585486D01*
X97814514Y-87982590D01*
X97814516Y-87982593D01*
X98126524Y-88449545D01*
X98341438Y-88968394D01*
X98341438Y-88968395D01*
X98426675Y-89396908D01*
X98451000Y-89519201D01*
X98451000Y-90080799D01*
X98341438Y-90631606D01*
X98126524Y-91150455D01*
X97816620Y-91614259D01*
X97814514Y-91617410D01*
X97417410Y-92014514D01*
X97417407Y-92014516D01*
X96950455Y-92326524D01*
X96431606Y-92541438D01*
X95880800Y-92651000D01*
X95319200Y-92651000D01*
X94768394Y-92541438D01*
X94249545Y-92326524D01*
X93782593Y-92014516D01*
X93782590Y-92014514D01*
X93385486Y-91617410D01*
X93383380Y-91614259D01*
X93073476Y-91150455D01*
X92858562Y-90631606D01*
X92749000Y-90080799D01*
X92749000Y-89519201D01*
X92773326Y-89396908D01*
X92858562Y-88968395D01*
X92858562Y-88968394D01*
X93073476Y-88449545D01*
X93385484Y-87982593D01*
X93385486Y-87982590D01*
X93782590Y-87585486D01*
X93785741Y-87583380D01*
X94249545Y-87273476D01*
X94768394Y-87058562D01*
X95048840Y-87002778D01*
X95319200Y-86949000D01*
X95880800Y-86949000D01*
X96151160Y-87002778D01*
X96151160Y-87002778D01*
G37*
G36*
X132025331Y-88518211D02*
X132353092Y-88653974D01*
X132648073Y-88851074D01*
X132898926Y-89101927D01*
X133096026Y-89396908D01*
X133231789Y-89724669D01*
X133301000Y-90072616D01*
X133301000Y-90427384D01*
X133231789Y-90775331D01*
X133096026Y-91103092D01*
X132898926Y-91398073D01*
X132648073Y-91648926D01*
X132353092Y-91846026D01*
X132025331Y-91981789D01*
X131677384Y-92051000D01*
X131322616Y-92051000D01*
X130974669Y-91981789D01*
X130646908Y-91846026D01*
X130351927Y-91648926D01*
X130101074Y-91398073D01*
X129903974Y-91103092D01*
X129768211Y-90775331D01*
X129699000Y-90427384D01*
X129699000Y-90072616D01*
X129768211Y-89724669D01*
X129903974Y-89396908D01*
X130101074Y-89101927D01*
X130351927Y-88851074D01*
X130646908Y-88653974D01*
X130974669Y-88518211D01*
X131322616Y-88449000D01*
X131677384Y-88449000D01*
X132025331Y-88518211D01*
X132025331Y-88518211D01*
G37*
G36*
X137025331Y-88518211D02*
X137353092Y-88653974D01*
X137648073Y-88851074D01*
X137898926Y-89101927D01*
X138096026Y-89396908D01*
X138231789Y-89724669D01*
X138301000Y-90072616D01*
X138301000Y-90427384D01*
X138231789Y-90775331D01*
X138096026Y-91103092D01*
X137898926Y-91398073D01*
X137648073Y-91648926D01*
X137353092Y-91846026D01*
X137025331Y-91981789D01*
X136677384Y-92051000D01*
X136322616Y-92051000D01*
X135974669Y-91981789D01*
X135646908Y-91846026D01*
X135351927Y-91648926D01*
X135101074Y-91398073D01*
X134903974Y-91103092D01*
X134768211Y-90775331D01*
X134699000Y-90427384D01*
X134699000Y-90072616D01*
X134768211Y-89724669D01*
X134903974Y-89396908D01*
X135101074Y-89101927D01*
X135351927Y-88851074D01*
X135646908Y-88653974D01*
X135974669Y-88518211D01*
X136322616Y-88449000D01*
X136677384Y-88449000D01*
X137025331Y-88518211D01*
X137025331Y-88518211D01*
G37*
G36*
X106095442Y-85355518D02*
X106161627Y-85362037D01*
X106274853Y-85396384D01*
X106331467Y-85413557D01*
X106470087Y-85487652D01*
X106487991Y-85497222D01*
X106523729Y-85526552D01*
X106625186Y-85609814D01*
X106708448Y-85711271D01*
X106737778Y-85747009D01*
X106737779Y-85747011D01*
X106821443Y-85903533D01*
X106821443Y-85903534D01*
X106872963Y-86073373D01*
X106890359Y-86250000D01*
X106872963Y-86426627D01*
X106838616Y-86539853D01*
X106821443Y-86596467D01*
X106747348Y-86735087D01*
X106737778Y-86752991D01*
X106708448Y-86788729D01*
X106625186Y-86890186D01*
X106523729Y-86973448D01*
X106487991Y-87002778D01*
X106487989Y-87002779D01*
X106331467Y-87086443D01*
X106274853Y-87103616D01*
X106161627Y-87137963D01*
X106095443Y-87144481D01*
X106029260Y-87151000D01*
X105940740Y-87151000D01*
X105874557Y-87144481D01*
X105808373Y-87137963D01*
X105695147Y-87103616D01*
X105638533Y-87086443D01*
X105482011Y-87002779D01*
X105482009Y-87002778D01*
X105446271Y-86973448D01*
X105344814Y-86890186D01*
X105261552Y-86788729D01*
X105232222Y-86752991D01*
X105222652Y-86735087D01*
X105148557Y-86596467D01*
X105131384Y-86539853D01*
X105097037Y-86426627D01*
X105079641Y-86250000D01*
X105097037Y-86073373D01*
X105148557Y-85903534D01*
X105148557Y-85903533D01*
X105232221Y-85747011D01*
X105232222Y-85747009D01*
X105261552Y-85711271D01*
X105344814Y-85609814D01*
X105446271Y-85526552D01*
X105482009Y-85497222D01*
X105499913Y-85487652D01*
X105638533Y-85413557D01*
X105695147Y-85396384D01*
X105808373Y-85362037D01*
X105874558Y-85355518D01*
X105940740Y-85349000D01*
X106029260Y-85349000D01*
X106095442Y-85355518D01*
X106095442Y-85355518D01*
G37*
G36*
X108635442Y-85355518D02*
X108701627Y-85362037D01*
X108814853Y-85396384D01*
X108871467Y-85413557D01*
X109010087Y-85487652D01*
X109027991Y-85497222D01*
X109063729Y-85526552D01*
X109165186Y-85609814D01*
X109248448Y-85711271D01*
X109277778Y-85747009D01*
X109277779Y-85747011D01*
X109361443Y-85903533D01*
X109361443Y-85903534D01*
X109412963Y-86073373D01*
X109430359Y-86250000D01*
X109412963Y-86426627D01*
X109378616Y-86539853D01*
X109361443Y-86596467D01*
X109287348Y-86735087D01*
X109277778Y-86752991D01*
X109248448Y-86788729D01*
X109165186Y-86890186D01*
X109063729Y-86973448D01*
X109027991Y-87002778D01*
X109027989Y-87002779D01*
X108871467Y-87086443D01*
X108814853Y-87103616D01*
X108701627Y-87137963D01*
X108635443Y-87144481D01*
X108569260Y-87151000D01*
X108480740Y-87151000D01*
X108414557Y-87144481D01*
X108348373Y-87137963D01*
X108235147Y-87103616D01*
X108178533Y-87086443D01*
X108022011Y-87002779D01*
X108022009Y-87002778D01*
X107986271Y-86973448D01*
X107884814Y-86890186D01*
X107801552Y-86788729D01*
X107772222Y-86752991D01*
X107762652Y-86735087D01*
X107688557Y-86596467D01*
X107671384Y-86539853D01*
X107637037Y-86426627D01*
X107619641Y-86250000D01*
X107637037Y-86073373D01*
X107688557Y-85903534D01*
X107688557Y-85903533D01*
X107772221Y-85747011D01*
X107772222Y-85747009D01*
X107801552Y-85711271D01*
X107884814Y-85609814D01*
X107986271Y-85526552D01*
X108022009Y-85497222D01*
X108039913Y-85487652D01*
X108178533Y-85413557D01*
X108235147Y-85396384D01*
X108348373Y-85362037D01*
X108414558Y-85355518D01*
X108480740Y-85349000D01*
X108569260Y-85349000D01*
X108635442Y-85355518D01*
X108635442Y-85355518D01*
G37*
G36*
X111966000Y-87151000D02*
X110164000Y-87151000D01*
X110164000Y-85349000D01*
X111966000Y-85349000D01*
X111966000Y-87151000D01*
X111966000Y-87151000D01*
G37*
G36*
X132025331Y-81018211D02*
X132353092Y-81153974D01*
X132648073Y-81351074D01*
X132898926Y-81601927D01*
X133096026Y-81896908D01*
X133231789Y-82224669D01*
X133301000Y-82572616D01*
X133301000Y-82927384D01*
X133231789Y-83275331D01*
X133096026Y-83603092D01*
X132898926Y-83898073D01*
X132648073Y-84148926D01*
X132353092Y-84346026D01*
X132025331Y-84481789D01*
X131677384Y-84551000D01*
X131322616Y-84551000D01*
X130974669Y-84481789D01*
X130646908Y-84346026D01*
X130351927Y-84148926D01*
X130101074Y-83898073D01*
X129903974Y-83603092D01*
X129768211Y-83275331D01*
X129699000Y-82927384D01*
X129699000Y-82572616D01*
X129768211Y-82224669D01*
X129903974Y-81896908D01*
X130101074Y-81601927D01*
X130351927Y-81351074D01*
X130646908Y-81153974D01*
X130974669Y-81018211D01*
X131322616Y-80949000D01*
X131677384Y-80949000D01*
X132025331Y-81018211D01*
X132025331Y-81018211D01*
G37*
G36*
X137025331Y-81018211D02*
X137353092Y-81153974D01*
X137648073Y-81351074D01*
X137898926Y-81601927D01*
X138096026Y-81896908D01*
X138231789Y-82224669D01*
X138301000Y-82572616D01*
X138301000Y-82927384D01*
X138231789Y-83275331D01*
X138096026Y-83603092D01*
X137898926Y-83898073D01*
X137648073Y-84148926D01*
X137353092Y-84346026D01*
X137025331Y-84481789D01*
X136677384Y-84551000D01*
X136322616Y-84551000D01*
X135974669Y-84481789D01*
X135646908Y-84346026D01*
X135351927Y-84148926D01*
X135101074Y-83898073D01*
X134903974Y-83603092D01*
X134768211Y-83275331D01*
X134699000Y-82927384D01*
X134699000Y-82572616D01*
X134768211Y-82224669D01*
X134903974Y-81896908D01*
X135101074Y-81601927D01*
X135351927Y-81351074D01*
X135646908Y-81153974D01*
X135974669Y-81018211D01*
X136322616Y-80949000D01*
X136677384Y-80949000D01*
X137025331Y-81018211D01*
X137025331Y-81018211D01*
G37*
G36*
X78110442Y-77975518D02*
X78176627Y-77982037D01*
X78289853Y-78016384D01*
X78346467Y-78033557D01*
X78485087Y-78107652D01*
X78502991Y-78117222D01*
X78538729Y-78146552D01*
X78640186Y-78229814D01*
X78723448Y-78331271D01*
X78752778Y-78367009D01*
X78752779Y-78367011D01*
X78836443Y-78523533D01*
X78836443Y-78523534D01*
X78887963Y-78693373D01*
X78905359Y-78870000D01*
X78887963Y-79046627D01*
X78853616Y-79159853D01*
X78836443Y-79216467D01*
X78762348Y-79355087D01*
X78752778Y-79372991D01*
X78723448Y-79408729D01*
X78640186Y-79510186D01*
X78538729Y-79593448D01*
X78502991Y-79622778D01*
X78502989Y-79622779D01*
X78346467Y-79706443D01*
X78289853Y-79723616D01*
X78176627Y-79757963D01*
X78110443Y-79764481D01*
X78044260Y-79771000D01*
X77955740Y-79771000D01*
X77889557Y-79764481D01*
X77823373Y-79757963D01*
X77710147Y-79723616D01*
X77653533Y-79706443D01*
X77497011Y-79622779D01*
X77497009Y-79622778D01*
X77461271Y-79593448D01*
X77359814Y-79510186D01*
X77276552Y-79408729D01*
X77247222Y-79372991D01*
X77237652Y-79355087D01*
X77163557Y-79216467D01*
X77146384Y-79159853D01*
X77112037Y-79046627D01*
X77094641Y-78870000D01*
X77112037Y-78693373D01*
X77163557Y-78523534D01*
X77163557Y-78523533D01*
X77247221Y-78367011D01*
X77247222Y-78367009D01*
X77276552Y-78331271D01*
X77359814Y-78229814D01*
X77461271Y-78146552D01*
X77497009Y-78117222D01*
X77514913Y-78107652D01*
X77653533Y-78033557D01*
X77710147Y-78016384D01*
X77823373Y-77982037D01*
X77889558Y-77975518D01*
X77955740Y-77969000D01*
X78044260Y-77969000D01*
X78110442Y-77975518D01*
X78110442Y-77975518D01*
G37*
G36*
X75570442Y-77975518D02*
X75636627Y-77982037D01*
X75749853Y-78016384D01*
X75806467Y-78033557D01*
X75945087Y-78107652D01*
X75962991Y-78117222D01*
X75998729Y-78146552D01*
X76100186Y-78229814D01*
X76183448Y-78331271D01*
X76212778Y-78367009D01*
X76212779Y-78367011D01*
X76296443Y-78523533D01*
X76296443Y-78523534D01*
X76347963Y-78693373D01*
X76365359Y-78870000D01*
X76347963Y-79046627D01*
X76313616Y-79159853D01*
X76296443Y-79216467D01*
X76222348Y-79355087D01*
X76212778Y-79372991D01*
X76183448Y-79408729D01*
X76100186Y-79510186D01*
X75998729Y-79593448D01*
X75962991Y-79622778D01*
X75962989Y-79622779D01*
X75806467Y-79706443D01*
X75749853Y-79723616D01*
X75636627Y-79757963D01*
X75570443Y-79764481D01*
X75504260Y-79771000D01*
X75415740Y-79771000D01*
X75349557Y-79764481D01*
X75283373Y-79757963D01*
X75170147Y-79723616D01*
X75113533Y-79706443D01*
X74957011Y-79622779D01*
X74957009Y-79622778D01*
X74921271Y-79593448D01*
X74819814Y-79510186D01*
X74736552Y-79408729D01*
X74707222Y-79372991D01*
X74697652Y-79355087D01*
X74623557Y-79216467D01*
X74606384Y-79159853D01*
X74572037Y-79046627D01*
X74554641Y-78870000D01*
X74572037Y-78693373D01*
X74623557Y-78523534D01*
X74623557Y-78523533D01*
X74707221Y-78367011D01*
X74707222Y-78367009D01*
X74736552Y-78331271D01*
X74819814Y-78229814D01*
X74921271Y-78146552D01*
X74957009Y-78117222D01*
X74974913Y-78107652D01*
X75113533Y-78033557D01*
X75170147Y-78016384D01*
X75283373Y-77982037D01*
X75349558Y-77975518D01*
X75415740Y-77969000D01*
X75504260Y-77969000D01*
X75570442Y-77975518D01*
X75570442Y-77975518D01*
G37*
G36*
X137235331Y-75538211D02*
X137563092Y-75673974D01*
X137858073Y-75871074D01*
X138108926Y-76121927D01*
X138306026Y-76416908D01*
X138441789Y-76744669D01*
X138511000Y-77092616D01*
X138511000Y-77447384D01*
X138441789Y-77795331D01*
X138306026Y-78123092D01*
X138108926Y-78418073D01*
X137858073Y-78668926D01*
X137563092Y-78866026D01*
X137235331Y-79001789D01*
X136887384Y-79071000D01*
X136532616Y-79071000D01*
X136184669Y-79001789D01*
X135856908Y-78866026D01*
X135561927Y-78668926D01*
X135311074Y-78418073D01*
X135113974Y-78123092D01*
X134978211Y-77795331D01*
X134909000Y-77447384D01*
X134909000Y-77092616D01*
X134978211Y-76744669D01*
X135113974Y-76416908D01*
X135311074Y-76121927D01*
X135561927Y-75871074D01*
X135856908Y-75673974D01*
X136184669Y-75538211D01*
X136532616Y-75469000D01*
X136887384Y-75469000D01*
X137235331Y-75538211D01*
X137235331Y-75538211D01*
G37*
G36*
X78110443Y-75435519D02*
X78176627Y-75442037D01*
X78265512Y-75469000D01*
X78346467Y-75493557D01*
X78430009Y-75538212D01*
X78502991Y-75577222D01*
X78538729Y-75606552D01*
X78640186Y-75689814D01*
X78723448Y-75791271D01*
X78752778Y-75827009D01*
X78752779Y-75827011D01*
X78836443Y-75983533D01*
X78836443Y-75983534D01*
X78887963Y-76153373D01*
X78905359Y-76330000D01*
X78887963Y-76506627D01*
X78853616Y-76619853D01*
X78836443Y-76676467D01*
X78762348Y-76815087D01*
X78752778Y-76832991D01*
X78723448Y-76868729D01*
X78640186Y-76970186D01*
X78538729Y-77053448D01*
X78502991Y-77082778D01*
X78502989Y-77082779D01*
X78346467Y-77166443D01*
X78289853Y-77183616D01*
X78176627Y-77217963D01*
X78110443Y-77224481D01*
X78044260Y-77231000D01*
X77955740Y-77231000D01*
X77889557Y-77224481D01*
X77823373Y-77217963D01*
X77710147Y-77183616D01*
X77653533Y-77166443D01*
X77497011Y-77082779D01*
X77497009Y-77082778D01*
X77461271Y-77053448D01*
X77359814Y-76970186D01*
X77276552Y-76868729D01*
X77247222Y-76832991D01*
X77237652Y-76815087D01*
X77163557Y-76676467D01*
X77146384Y-76619853D01*
X77112037Y-76506627D01*
X77094641Y-76330000D01*
X77112037Y-76153373D01*
X77163557Y-75983534D01*
X77163557Y-75983533D01*
X77247221Y-75827011D01*
X77247222Y-75827009D01*
X77276552Y-75791271D01*
X77359814Y-75689814D01*
X77461271Y-75606552D01*
X77497009Y-75577222D01*
X77569991Y-75538212D01*
X77653533Y-75493557D01*
X77734488Y-75469000D01*
X77823373Y-75442037D01*
X77889557Y-75435519D01*
X77955740Y-75429000D01*
X78044260Y-75429000D01*
X78110443Y-75435519D01*
X78110443Y-75435519D01*
G37*
G36*
X75570443Y-75435519D02*
X75636627Y-75442037D01*
X75725512Y-75469000D01*
X75806467Y-75493557D01*
X75890009Y-75538212D01*
X75962991Y-75577222D01*
X75998729Y-75606552D01*
X76100186Y-75689814D01*
X76183448Y-75791271D01*
X76212778Y-75827009D01*
X76212779Y-75827011D01*
X76296443Y-75983533D01*
X76296443Y-75983534D01*
X76347963Y-76153373D01*
X76365359Y-76330000D01*
X76347963Y-76506627D01*
X76313616Y-76619853D01*
X76296443Y-76676467D01*
X76222348Y-76815087D01*
X76212778Y-76832991D01*
X76183448Y-76868729D01*
X76100186Y-76970186D01*
X75998729Y-77053448D01*
X75962991Y-77082778D01*
X75962989Y-77082779D01*
X75806467Y-77166443D01*
X75749853Y-77183616D01*
X75636627Y-77217963D01*
X75570443Y-77224481D01*
X75504260Y-77231000D01*
X75415740Y-77231000D01*
X75349557Y-77224481D01*
X75283373Y-77217963D01*
X75170147Y-77183616D01*
X75113533Y-77166443D01*
X74957011Y-77082779D01*
X74957009Y-77082778D01*
X74921271Y-77053448D01*
X74819814Y-76970186D01*
X74736552Y-76868729D01*
X74707222Y-76832991D01*
X74697652Y-76815087D01*
X74623557Y-76676467D01*
X74606384Y-76619853D01*
X74572037Y-76506627D01*
X74554641Y-76330000D01*
X74572037Y-76153373D01*
X74623557Y-75983534D01*
X74623557Y-75983533D01*
X74707221Y-75827011D01*
X74707222Y-75827009D01*
X74736552Y-75791271D01*
X74819814Y-75689814D01*
X74921271Y-75606552D01*
X74957009Y-75577222D01*
X75029991Y-75538212D01*
X75113533Y-75493557D01*
X75194488Y-75469000D01*
X75283373Y-75442037D01*
X75349557Y-75435519D01*
X75415740Y-75429000D01*
X75504260Y-75429000D01*
X75570443Y-75435519D01*
X75570443Y-75435519D01*
G37*
G36*
X78110442Y-72895518D02*
X78176627Y-72902037D01*
X78258200Y-72926782D01*
X78346467Y-72953557D01*
X78485087Y-73027652D01*
X78502991Y-73037222D01*
X78538729Y-73066552D01*
X78640186Y-73149814D01*
X78723448Y-73251271D01*
X78752778Y-73287009D01*
X78752779Y-73287011D01*
X78836443Y-73443533D01*
X78836443Y-73443534D01*
X78887963Y-73613373D01*
X78905359Y-73790000D01*
X78887963Y-73966627D01*
X78853616Y-74079853D01*
X78836443Y-74136467D01*
X78762348Y-74275087D01*
X78752778Y-74292991D01*
X78723448Y-74328729D01*
X78640186Y-74430186D01*
X78538729Y-74513448D01*
X78502991Y-74542778D01*
X78502989Y-74542779D01*
X78346467Y-74626443D01*
X78289853Y-74643616D01*
X78176627Y-74677963D01*
X78110442Y-74684482D01*
X78044260Y-74691000D01*
X77955740Y-74691000D01*
X77889558Y-74684482D01*
X77823373Y-74677963D01*
X77710147Y-74643616D01*
X77653533Y-74626443D01*
X77497011Y-74542779D01*
X77497009Y-74542778D01*
X77461271Y-74513448D01*
X77359814Y-74430186D01*
X77276552Y-74328729D01*
X77247222Y-74292991D01*
X77237652Y-74275087D01*
X77163557Y-74136467D01*
X77146384Y-74079853D01*
X77112037Y-73966627D01*
X77094641Y-73790000D01*
X77112037Y-73613373D01*
X77163557Y-73443534D01*
X77163557Y-73443533D01*
X77247221Y-73287011D01*
X77247222Y-73287009D01*
X77276552Y-73251271D01*
X77359814Y-73149814D01*
X77461271Y-73066552D01*
X77497009Y-73037222D01*
X77514913Y-73027652D01*
X77653533Y-72953557D01*
X77741800Y-72926782D01*
X77823373Y-72902037D01*
X77889558Y-72895518D01*
X77955740Y-72889000D01*
X78044260Y-72889000D01*
X78110442Y-72895518D01*
X78110442Y-72895518D01*
G37*
G36*
X75570442Y-72895518D02*
X75636627Y-72902037D01*
X75718200Y-72926782D01*
X75806467Y-72953557D01*
X75945087Y-73027652D01*
X75962991Y-73037222D01*
X75998729Y-73066552D01*
X76100186Y-73149814D01*
X76183448Y-73251271D01*
X76212778Y-73287009D01*
X76212779Y-73287011D01*
X76296443Y-73443533D01*
X76296443Y-73443534D01*
X76347963Y-73613373D01*
X76365359Y-73790000D01*
X76347963Y-73966627D01*
X76313616Y-74079853D01*
X76296443Y-74136467D01*
X76222348Y-74275087D01*
X76212778Y-74292991D01*
X76183448Y-74328729D01*
X76100186Y-74430186D01*
X75998729Y-74513448D01*
X75962991Y-74542778D01*
X75962989Y-74542779D01*
X75806467Y-74626443D01*
X75749853Y-74643616D01*
X75636627Y-74677963D01*
X75570442Y-74684482D01*
X75504260Y-74691000D01*
X75415740Y-74691000D01*
X75349558Y-74684482D01*
X75283373Y-74677963D01*
X75170147Y-74643616D01*
X75113533Y-74626443D01*
X74957011Y-74542779D01*
X74957009Y-74542778D01*
X74921271Y-74513448D01*
X74819814Y-74430186D01*
X74736552Y-74328729D01*
X74707222Y-74292991D01*
X74697652Y-74275087D01*
X74623557Y-74136467D01*
X74606384Y-74079853D01*
X74572037Y-73966627D01*
X74554641Y-73790000D01*
X74572037Y-73613373D01*
X74623557Y-73443534D01*
X74623557Y-73443533D01*
X74707221Y-73287011D01*
X74707222Y-73287009D01*
X74736552Y-73251271D01*
X74819814Y-73149814D01*
X74921271Y-73066552D01*
X74957009Y-73037222D01*
X74974913Y-73027652D01*
X75113533Y-72953557D01*
X75201800Y-72926782D01*
X75283373Y-72902037D01*
X75349558Y-72895518D01*
X75415740Y-72889000D01*
X75504260Y-72889000D01*
X75570442Y-72895518D01*
X75570442Y-72895518D01*
G37*
G36*
X132262812Y-71633624D02*
X132426784Y-71701544D01*
X132574354Y-71800147D01*
X132699853Y-71925646D01*
X132798456Y-72073216D01*
X132866376Y-72237188D01*
X132877404Y-72292633D01*
X132884515Y-72316074D01*
X132896067Y-72337685D01*
X132911612Y-72356627D01*
X132930554Y-72372172D01*
X132952165Y-72383723D01*
X132975614Y-72390836D01*
X133000000Y-72393238D01*
X133024387Y-72390836D01*
X133047836Y-72383723D01*
X133069447Y-72372171D01*
X133088389Y-72356626D01*
X133103934Y-72337684D01*
X133115485Y-72316073D01*
X133122596Y-72292633D01*
X133133624Y-72237188D01*
X133201544Y-72073216D01*
X133300147Y-71925646D01*
X133425646Y-71800147D01*
X133573216Y-71701544D01*
X133737188Y-71633624D01*
X133911259Y-71599000D01*
X134088741Y-71599000D01*
X134262812Y-71633624D01*
X134426784Y-71701544D01*
X134574354Y-71800147D01*
X134699853Y-71925646D01*
X134798456Y-72073216D01*
X134866376Y-72237188D01*
X134901000Y-72411259D01*
X134901000Y-72588741D01*
X134866376Y-72762812D01*
X134798456Y-72926784D01*
X134699853Y-73074354D01*
X134574354Y-73199853D01*
X134426784Y-73298456D01*
X134262812Y-73366376D01*
X134088741Y-73401000D01*
X133911259Y-73401000D01*
X133737188Y-73366376D01*
X133573216Y-73298456D01*
X133425646Y-73199853D01*
X133300147Y-73074354D01*
X133201544Y-72926784D01*
X133133624Y-72762812D01*
X133122596Y-72707367D01*
X133115485Y-72683926D01*
X133103933Y-72662315D01*
X133088388Y-72643373D01*
X133069446Y-72627828D01*
X133047835Y-72616277D01*
X133024386Y-72609164D01*
X133000000Y-72606762D01*
X132975613Y-72609164D01*
X132952164Y-72616277D01*
X132930553Y-72627829D01*
X132911611Y-72643374D01*
X132896066Y-72662316D01*
X132884515Y-72683927D01*
X132877404Y-72707367D01*
X132866376Y-72762812D01*
X132798456Y-72926784D01*
X132699853Y-73074354D01*
X132574354Y-73199853D01*
X132426784Y-73298456D01*
X132262812Y-73366376D01*
X132088741Y-73401000D01*
X131911259Y-73401000D01*
X131737188Y-73366376D01*
X131573216Y-73298456D01*
X131425646Y-73199853D01*
X131300147Y-73074354D01*
X131201544Y-72926784D01*
X131133624Y-72762812D01*
X131099000Y-72588741D01*
X131099000Y-72411259D01*
X131133624Y-72237188D01*
X131201544Y-72073216D01*
X131300147Y-71925646D01*
X131425646Y-71800147D01*
X131573216Y-71701544D01*
X131737188Y-71633624D01*
X131911259Y-71599000D01*
X132088741Y-71599000D01*
X132262812Y-71633624D01*
X132262812Y-71633624D01*
G37*
G36*
X78110443Y-70355519D02*
X78176627Y-70362037D01*
X78289853Y-70396384D01*
X78346467Y-70413557D01*
X78485087Y-70487652D01*
X78502991Y-70497222D01*
X78538729Y-70526552D01*
X78640186Y-70609814D01*
X78714078Y-70699853D01*
X78752778Y-70747009D01*
X78752779Y-70747011D01*
X78836443Y-70903533D01*
X78836443Y-70903534D01*
X78887963Y-71073373D01*
X78905359Y-71250000D01*
X78887963Y-71426627D01*
X78853616Y-71539853D01*
X78836443Y-71596467D01*
X78816581Y-71633625D01*
X78752778Y-71752991D01*
X78723448Y-71788729D01*
X78640186Y-71890186D01*
X78538729Y-71973448D01*
X78502991Y-72002778D01*
X78502989Y-72002779D01*
X78346467Y-72086443D01*
X78289853Y-72103616D01*
X78176627Y-72137963D01*
X78110443Y-72144481D01*
X78044260Y-72151000D01*
X77955740Y-72151000D01*
X77889557Y-72144481D01*
X77823373Y-72137963D01*
X77710147Y-72103616D01*
X77653533Y-72086443D01*
X77497011Y-72002779D01*
X77497009Y-72002778D01*
X77461271Y-71973448D01*
X77359814Y-71890186D01*
X77276552Y-71788729D01*
X77247222Y-71752991D01*
X77183419Y-71633625D01*
X77163557Y-71596467D01*
X77146384Y-71539853D01*
X77112037Y-71426627D01*
X77094641Y-71250000D01*
X77112037Y-71073373D01*
X77163557Y-70903534D01*
X77163557Y-70903533D01*
X77247221Y-70747011D01*
X77247222Y-70747009D01*
X77285922Y-70699853D01*
X77359814Y-70609814D01*
X77461271Y-70526552D01*
X77497009Y-70497222D01*
X77514913Y-70487652D01*
X77653533Y-70413557D01*
X77710147Y-70396384D01*
X77823373Y-70362037D01*
X77889557Y-70355519D01*
X77955740Y-70349000D01*
X78044260Y-70349000D01*
X78110443Y-70355519D01*
X78110443Y-70355519D01*
G37*
G36*
X75570443Y-70355519D02*
X75636627Y-70362037D01*
X75749853Y-70396384D01*
X75806467Y-70413557D01*
X75945087Y-70487652D01*
X75962991Y-70497222D01*
X75998729Y-70526552D01*
X76100186Y-70609814D01*
X76174078Y-70699853D01*
X76212778Y-70747009D01*
X76212779Y-70747011D01*
X76296443Y-70903533D01*
X76296443Y-70903534D01*
X76347963Y-71073373D01*
X76365359Y-71250000D01*
X76347963Y-71426627D01*
X76313616Y-71539853D01*
X76296443Y-71596467D01*
X76276581Y-71633625D01*
X76212778Y-71752991D01*
X76183448Y-71788729D01*
X76100186Y-71890186D01*
X75998729Y-71973448D01*
X75962991Y-72002778D01*
X75962989Y-72002779D01*
X75806467Y-72086443D01*
X75749853Y-72103616D01*
X75636627Y-72137963D01*
X75570443Y-72144481D01*
X75504260Y-72151000D01*
X75415740Y-72151000D01*
X75349557Y-72144481D01*
X75283373Y-72137963D01*
X75170147Y-72103616D01*
X75113533Y-72086443D01*
X74957011Y-72002779D01*
X74957009Y-72002778D01*
X74921271Y-71973448D01*
X74819814Y-71890186D01*
X74736552Y-71788729D01*
X74707222Y-71752991D01*
X74643419Y-71633625D01*
X74623557Y-71596467D01*
X74606384Y-71539853D01*
X74572037Y-71426627D01*
X74554641Y-71250000D01*
X74572037Y-71073373D01*
X74623557Y-70903534D01*
X74623557Y-70903533D01*
X74707221Y-70747011D01*
X74707222Y-70747009D01*
X74745922Y-70699853D01*
X74819814Y-70609814D01*
X74921271Y-70526552D01*
X74957009Y-70497222D01*
X74974913Y-70487652D01*
X75113533Y-70413557D01*
X75170147Y-70396384D01*
X75283373Y-70362037D01*
X75349557Y-70355519D01*
X75415740Y-70349000D01*
X75504260Y-70349000D01*
X75570443Y-70355519D01*
X75570443Y-70355519D01*
G37*
G36*
X132901000Y-69670378D02*
X132903402Y-69694764D01*
X132910515Y-69718213D01*
X132922066Y-69739824D01*
X132937612Y-69758766D01*
X132956554Y-69774312D01*
X132978165Y-69785863D01*
X133001614Y-69792976D01*
X133026000Y-69795378D01*
X133050386Y-69792976D01*
X133073835Y-69785863D01*
X133095446Y-69774312D01*
X133114388Y-69758766D01*
X133129934Y-69739824D01*
X133141480Y-69718223D01*
X133201544Y-69573216D01*
X133300147Y-69425646D01*
X133425646Y-69300147D01*
X133573216Y-69201544D01*
X133737188Y-69133624D01*
X133911259Y-69099000D01*
X134088741Y-69099000D01*
X134262812Y-69133624D01*
X134426784Y-69201544D01*
X134574354Y-69300147D01*
X134699853Y-69425646D01*
X134798456Y-69573216D01*
X134866376Y-69737188D01*
X134901000Y-69911259D01*
X134901000Y-70088741D01*
X134866376Y-70262812D01*
X134798456Y-70426784D01*
X134699853Y-70574354D01*
X134574354Y-70699853D01*
X134426784Y-70798456D01*
X134262812Y-70866376D01*
X134088741Y-70901000D01*
X133911259Y-70901000D01*
X133737188Y-70866376D01*
X133573216Y-70798456D01*
X133425646Y-70699853D01*
X133300147Y-70574354D01*
X133201544Y-70426784D01*
X133141480Y-70281777D01*
X133129934Y-70260176D01*
X133114388Y-70241234D01*
X133095446Y-70225688D01*
X133073835Y-70214137D01*
X133050386Y-70207024D01*
X133026000Y-70204622D01*
X133001614Y-70207024D01*
X132978165Y-70214137D01*
X132956554Y-70225688D01*
X132937612Y-70241234D01*
X132922066Y-70260176D01*
X132910515Y-70281787D01*
X132903402Y-70305236D01*
X132901000Y-70329622D01*
X132901000Y-70901000D01*
X131099000Y-70901000D01*
X131099000Y-69099000D01*
X132901000Y-69099000D01*
X132901000Y-69670378D01*
X132901000Y-69670378D01*
G37*
G36*
X78110442Y-67815518D02*
X78176627Y-67822037D01*
X78289853Y-67856384D01*
X78346467Y-67873557D01*
X78485087Y-67947652D01*
X78502991Y-67957222D01*
X78538729Y-67986552D01*
X78640186Y-68069814D01*
X78723448Y-68171271D01*
X78752778Y-68207009D01*
X78752779Y-68207011D01*
X78836443Y-68363533D01*
X78836443Y-68363534D01*
X78887963Y-68533373D01*
X78905359Y-68710000D01*
X78887963Y-68886627D01*
X78853616Y-68999853D01*
X78836443Y-69056467D01*
X78762348Y-69195087D01*
X78752778Y-69212991D01*
X78723448Y-69248729D01*
X78640186Y-69350186D01*
X78548240Y-69425643D01*
X78502991Y-69462778D01*
X78502989Y-69462779D01*
X78346467Y-69546443D01*
X78289853Y-69563616D01*
X78176627Y-69597963D01*
X78110443Y-69604481D01*
X78044260Y-69611000D01*
X77955740Y-69611000D01*
X77889557Y-69604481D01*
X77823373Y-69597963D01*
X77710147Y-69563616D01*
X77653533Y-69546443D01*
X77497011Y-69462779D01*
X77497009Y-69462778D01*
X77451760Y-69425643D01*
X77359814Y-69350186D01*
X77276552Y-69248729D01*
X77247222Y-69212991D01*
X77237652Y-69195087D01*
X77163557Y-69056467D01*
X77146384Y-68999853D01*
X77112037Y-68886627D01*
X77094641Y-68710000D01*
X77112037Y-68533373D01*
X77163557Y-68363534D01*
X77163557Y-68363533D01*
X77247221Y-68207011D01*
X77247222Y-68207009D01*
X77276552Y-68171271D01*
X77359814Y-68069814D01*
X77461271Y-67986552D01*
X77497009Y-67957222D01*
X77514913Y-67947652D01*
X77653533Y-67873557D01*
X77710147Y-67856384D01*
X77823373Y-67822037D01*
X77889558Y-67815518D01*
X77955740Y-67809000D01*
X78044260Y-67809000D01*
X78110442Y-67815518D01*
X78110442Y-67815518D01*
G37*
G36*
X75570442Y-67815518D02*
X75636627Y-67822037D01*
X75749853Y-67856384D01*
X75806467Y-67873557D01*
X75945087Y-67947652D01*
X75962991Y-67957222D01*
X75998729Y-67986552D01*
X76100186Y-68069814D01*
X76183448Y-68171271D01*
X76212778Y-68207009D01*
X76212779Y-68207011D01*
X76296443Y-68363533D01*
X76296443Y-68363534D01*
X76347963Y-68533373D01*
X76365359Y-68710000D01*
X76347963Y-68886627D01*
X76313616Y-68999853D01*
X76296443Y-69056467D01*
X76222348Y-69195087D01*
X76212778Y-69212991D01*
X76183448Y-69248729D01*
X76100186Y-69350186D01*
X76008240Y-69425643D01*
X75962991Y-69462778D01*
X75962989Y-69462779D01*
X75806467Y-69546443D01*
X75749853Y-69563616D01*
X75636627Y-69597963D01*
X75570443Y-69604481D01*
X75504260Y-69611000D01*
X75415740Y-69611000D01*
X75349557Y-69604481D01*
X75283373Y-69597963D01*
X75170147Y-69563616D01*
X75113533Y-69546443D01*
X74957011Y-69462779D01*
X74957009Y-69462778D01*
X74911760Y-69425643D01*
X74819814Y-69350186D01*
X74736552Y-69248729D01*
X74707222Y-69212991D01*
X74697652Y-69195087D01*
X74623557Y-69056467D01*
X74606384Y-68999853D01*
X74572037Y-68886627D01*
X74554641Y-68710000D01*
X74572037Y-68533373D01*
X74623557Y-68363534D01*
X74623557Y-68363533D01*
X74707221Y-68207011D01*
X74707222Y-68207009D01*
X74736552Y-68171271D01*
X74819814Y-68069814D01*
X74921271Y-67986552D01*
X74957009Y-67957222D01*
X74974913Y-67947652D01*
X75113533Y-67873557D01*
X75170147Y-67856384D01*
X75283373Y-67822037D01*
X75349558Y-67815518D01*
X75415740Y-67809000D01*
X75504260Y-67809000D01*
X75570442Y-67815518D01*
X75570442Y-67815518D01*
G37*
G36*
X78110443Y-65275519D02*
X78176627Y-65282037D01*
X78289853Y-65316384D01*
X78346467Y-65333557D01*
X78484584Y-65407383D01*
X78502991Y-65417222D01*
X78538729Y-65446552D01*
X78640186Y-65529814D01*
X78723448Y-65631271D01*
X78752778Y-65667009D01*
X78752779Y-65667011D01*
X78836443Y-65823533D01*
X78836443Y-65823534D01*
X78887963Y-65993373D01*
X78905359Y-66170000D01*
X78887963Y-66346627D01*
X78878424Y-66378073D01*
X78836443Y-66516467D01*
X78776330Y-66628928D01*
X78752778Y-66672991D01*
X78723448Y-66708729D01*
X78640186Y-66810186D01*
X78538729Y-66893448D01*
X78502991Y-66922778D01*
X78502989Y-66922779D01*
X78346467Y-67006443D01*
X78289853Y-67023616D01*
X78176627Y-67057963D01*
X78110443Y-67064481D01*
X78044260Y-67071000D01*
X77955740Y-67071000D01*
X77889557Y-67064481D01*
X77823373Y-67057963D01*
X77710147Y-67023616D01*
X77653533Y-67006443D01*
X77497011Y-66922779D01*
X77497009Y-66922778D01*
X77461271Y-66893448D01*
X77359814Y-66810186D01*
X77276552Y-66708729D01*
X77247222Y-66672991D01*
X77223670Y-66628928D01*
X77163557Y-66516467D01*
X77121576Y-66378073D01*
X77112037Y-66346627D01*
X77094641Y-66170000D01*
X77112037Y-65993373D01*
X77163557Y-65823534D01*
X77163557Y-65823533D01*
X77247221Y-65667011D01*
X77247222Y-65667009D01*
X77276552Y-65631271D01*
X77359814Y-65529814D01*
X77461271Y-65446552D01*
X77497009Y-65417222D01*
X77515416Y-65407383D01*
X77653533Y-65333557D01*
X77710147Y-65316384D01*
X77823373Y-65282037D01*
X77889557Y-65275519D01*
X77955740Y-65269000D01*
X78044260Y-65269000D01*
X78110443Y-65275519D01*
X78110443Y-65275519D01*
G37*
G36*
X75570443Y-65275519D02*
X75636627Y-65282037D01*
X75749853Y-65316384D01*
X75806467Y-65333557D01*
X75944584Y-65407383D01*
X75962991Y-65417222D01*
X75998729Y-65446552D01*
X76100186Y-65529814D01*
X76183448Y-65631271D01*
X76212778Y-65667009D01*
X76212779Y-65667011D01*
X76296443Y-65823533D01*
X76296443Y-65823534D01*
X76347963Y-65993373D01*
X76365359Y-66170000D01*
X76347963Y-66346627D01*
X76338424Y-66378073D01*
X76296443Y-66516467D01*
X76236330Y-66628928D01*
X76212778Y-66672991D01*
X76183448Y-66708729D01*
X76100186Y-66810186D01*
X75998729Y-66893448D01*
X75962991Y-66922778D01*
X75962989Y-66922779D01*
X75806467Y-67006443D01*
X75749853Y-67023616D01*
X75636627Y-67057963D01*
X75570443Y-67064481D01*
X75504260Y-67071000D01*
X75415740Y-67071000D01*
X75349557Y-67064481D01*
X75283373Y-67057963D01*
X75170147Y-67023616D01*
X75113533Y-67006443D01*
X74957011Y-66922779D01*
X74957009Y-66922778D01*
X74921271Y-66893448D01*
X74819814Y-66810186D01*
X74736552Y-66708729D01*
X74707222Y-66672991D01*
X74683670Y-66628928D01*
X74623557Y-66516467D01*
X74581576Y-66378073D01*
X74572037Y-66346627D01*
X74554641Y-66170000D01*
X74572037Y-65993373D01*
X74623557Y-65823534D01*
X74623557Y-65823533D01*
X74707221Y-65667011D01*
X74707222Y-65667009D01*
X74736552Y-65631271D01*
X74819814Y-65529814D01*
X74921271Y-65446552D01*
X74957009Y-65417222D01*
X74975416Y-65407383D01*
X75113533Y-65333557D01*
X75170147Y-65316384D01*
X75283373Y-65282037D01*
X75349557Y-65275519D01*
X75415740Y-65269000D01*
X75504260Y-65269000D01*
X75570443Y-65275519D01*
X75570443Y-65275519D01*
G37*
G36*
X137235331Y-63498211D02*
X137563092Y-63633974D01*
X137858073Y-63831074D01*
X138108926Y-64081927D01*
X138306026Y-64376908D01*
X138441789Y-64704669D01*
X138511000Y-65052616D01*
X138511000Y-65407384D01*
X138441789Y-65755331D01*
X138306026Y-66083092D01*
X138108926Y-66378073D01*
X137858073Y-66628926D01*
X137563092Y-66826026D01*
X137235331Y-66961789D01*
X136887384Y-67031000D01*
X136532616Y-67031000D01*
X136184669Y-66961789D01*
X135856908Y-66826026D01*
X135561927Y-66628926D01*
X135311074Y-66378073D01*
X135113974Y-66083092D01*
X134978211Y-65755331D01*
X134909000Y-65407384D01*
X134909000Y-65052616D01*
X134978211Y-64704669D01*
X135113974Y-64376908D01*
X135311074Y-64081927D01*
X135561927Y-63831074D01*
X135856908Y-63633974D01*
X136184669Y-63498211D01*
X136532616Y-63429000D01*
X136887384Y-63429000D01*
X137235331Y-63498211D01*
X137235331Y-63498211D01*
G37*
G36*
X78901000Y-64531000D02*
X77099000Y-64531000D01*
X77099000Y-62729000D01*
X78901000Y-62729000D01*
X78901000Y-64531000D01*
X78901000Y-64531000D01*
G37*
G36*
X75570443Y-62735519D02*
X75636627Y-62742037D01*
X75749853Y-62776384D01*
X75806467Y-62793557D01*
X75945087Y-62867652D01*
X75962991Y-62877222D01*
X75998729Y-62906552D01*
X76100186Y-62989814D01*
X76183448Y-63091271D01*
X76212778Y-63127009D01*
X76212779Y-63127011D01*
X76296443Y-63283533D01*
X76296443Y-63283534D01*
X76347963Y-63453373D01*
X76365359Y-63630000D01*
X76347963Y-63806627D01*
X76340547Y-63831074D01*
X76296443Y-63976467D01*
X76240071Y-64081930D01*
X76212778Y-64132991D01*
X76183448Y-64168729D01*
X76100186Y-64270186D01*
X75998729Y-64353448D01*
X75962991Y-64382778D01*
X75962989Y-64382779D01*
X75806467Y-64466443D01*
X75749853Y-64483616D01*
X75636627Y-64517963D01*
X75570442Y-64524482D01*
X75504260Y-64531000D01*
X75415740Y-64531000D01*
X75349558Y-64524482D01*
X75283373Y-64517963D01*
X75170147Y-64483616D01*
X75113533Y-64466443D01*
X74957011Y-64382779D01*
X74957009Y-64382778D01*
X74921271Y-64353448D01*
X74819814Y-64270186D01*
X74736552Y-64168729D01*
X74707222Y-64132991D01*
X74679929Y-64081930D01*
X74623557Y-63976467D01*
X74579453Y-63831074D01*
X74572037Y-63806627D01*
X74554641Y-63630000D01*
X74572037Y-63453373D01*
X74623557Y-63283534D01*
X74623557Y-63283533D01*
X74707221Y-63127011D01*
X74707222Y-63127009D01*
X74736552Y-63091271D01*
X74819814Y-62989814D01*
X74921271Y-62906552D01*
X74957009Y-62877222D01*
X74974913Y-62867652D01*
X75113533Y-62793557D01*
X75170147Y-62776384D01*
X75283373Y-62742037D01*
X75349557Y-62735519D01*
X75415740Y-62729000D01*
X75504260Y-62729000D01*
X75570443Y-62735519D01*
X75570443Y-62735519D01*
G37*
G36*
X137025331Y-58018211D02*
X137353092Y-58153974D01*
X137648073Y-58351074D01*
X137898926Y-58601927D01*
X138096026Y-58896908D01*
X138231789Y-59224669D01*
X138301000Y-59572616D01*
X138301000Y-59927384D01*
X138231789Y-60275331D01*
X138096026Y-60603092D01*
X137898926Y-60898073D01*
X137648073Y-61148926D01*
X137353092Y-61346026D01*
X137025331Y-61481789D01*
X136677384Y-61551000D01*
X136322616Y-61551000D01*
X135974669Y-61481789D01*
X135646908Y-61346026D01*
X135351927Y-61148926D01*
X135101074Y-60898073D01*
X134903974Y-60603092D01*
X134768211Y-60275331D01*
X134699000Y-59927384D01*
X134699000Y-59572616D01*
X134768211Y-59224669D01*
X134903974Y-58896908D01*
X135101074Y-58601927D01*
X135351927Y-58351074D01*
X135646908Y-58153974D01*
X135974669Y-58018211D01*
X136322616Y-57949000D01*
X136677384Y-57949000D01*
X137025331Y-58018211D01*
X137025331Y-58018211D01*
G37*
G36*
X132025331Y-58018211D02*
X132353092Y-58153974D01*
X132648073Y-58351074D01*
X132898926Y-58601927D01*
X133096026Y-58896908D01*
X133231789Y-59224669D01*
X133301000Y-59572616D01*
X133301000Y-59927384D01*
X133231789Y-60275331D01*
X133096026Y-60603092D01*
X132898926Y-60898073D01*
X132648073Y-61148926D01*
X132353092Y-61346026D01*
X132025331Y-61481789D01*
X131677384Y-61551000D01*
X131322616Y-61551000D01*
X130974669Y-61481789D01*
X130646908Y-61346026D01*
X130351927Y-61148926D01*
X130101074Y-60898073D01*
X129903974Y-60603092D01*
X129768211Y-60275331D01*
X129699000Y-59927384D01*
X129699000Y-59572616D01*
X129768211Y-59224669D01*
X129903974Y-58896908D01*
X130101074Y-58601927D01*
X130351927Y-58351074D01*
X130646908Y-58153974D01*
X130974669Y-58018211D01*
X131322616Y-57949000D01*
X131677384Y-57949000D01*
X132025331Y-58018211D01*
X132025331Y-58018211D01*
G37*
G36*
X104830443Y-57355519D02*
X104896627Y-57362037D01*
X105009853Y-57396384D01*
X105066467Y-57413557D01*
X105205087Y-57487652D01*
X105222991Y-57497222D01*
X105258729Y-57526552D01*
X105360186Y-57609814D01*
X105443448Y-57711271D01*
X105472778Y-57747009D01*
X105472779Y-57747011D01*
X105556443Y-57903533D01*
X105556443Y-57903534D01*
X105607963Y-58073373D01*
X105625359Y-58250000D01*
X105607963Y-58426627D01*
X105573616Y-58539853D01*
X105556443Y-58596467D01*
X105482348Y-58735087D01*
X105472778Y-58752991D01*
X105443448Y-58788729D01*
X105360186Y-58890186D01*
X105258729Y-58973448D01*
X105222991Y-59002778D01*
X105222989Y-59002779D01*
X105066467Y-59086443D01*
X105009853Y-59103616D01*
X104896627Y-59137963D01*
X104830443Y-59144481D01*
X104764260Y-59151000D01*
X104675740Y-59151000D01*
X104609557Y-59144481D01*
X104543373Y-59137963D01*
X104430147Y-59103616D01*
X104373533Y-59086443D01*
X104217011Y-59002779D01*
X104217009Y-59002778D01*
X104181271Y-58973448D01*
X104079814Y-58890186D01*
X103996552Y-58788729D01*
X103967222Y-58752991D01*
X103957652Y-58735087D01*
X103883557Y-58596467D01*
X103866384Y-58539853D01*
X103832037Y-58426627D01*
X103814641Y-58250000D01*
X103832037Y-58073373D01*
X103883557Y-57903534D01*
X103883557Y-57903533D01*
X103967221Y-57747011D01*
X103967222Y-57747009D01*
X103996552Y-57711271D01*
X104079814Y-57609814D01*
X104181271Y-57526552D01*
X104217009Y-57497222D01*
X104234913Y-57487652D01*
X104373533Y-57413557D01*
X104430147Y-57396384D01*
X104543373Y-57362037D01*
X104609557Y-57355519D01*
X104675740Y-57349000D01*
X104764260Y-57349000D01*
X104830443Y-57355519D01*
X104830443Y-57355519D01*
G37*
G36*
X107370443Y-57355519D02*
X107436627Y-57362037D01*
X107549853Y-57396384D01*
X107606467Y-57413557D01*
X107745087Y-57487652D01*
X107762991Y-57497222D01*
X107798729Y-57526552D01*
X107900186Y-57609814D01*
X107983448Y-57711271D01*
X108012778Y-57747009D01*
X108012779Y-57747011D01*
X108096443Y-57903533D01*
X108096443Y-57903534D01*
X108147963Y-58073373D01*
X108165359Y-58250000D01*
X108147963Y-58426627D01*
X108113616Y-58539853D01*
X108096443Y-58596467D01*
X108022348Y-58735087D01*
X108012778Y-58752991D01*
X107983448Y-58788729D01*
X107900186Y-58890186D01*
X107798729Y-58973448D01*
X107762991Y-59002778D01*
X107762989Y-59002779D01*
X107606467Y-59086443D01*
X107549853Y-59103616D01*
X107436627Y-59137963D01*
X107370443Y-59144481D01*
X107304260Y-59151000D01*
X107215740Y-59151000D01*
X107149557Y-59144481D01*
X107083373Y-59137963D01*
X106970147Y-59103616D01*
X106913533Y-59086443D01*
X106757011Y-59002779D01*
X106757009Y-59002778D01*
X106721271Y-58973448D01*
X106619814Y-58890186D01*
X106536552Y-58788729D01*
X106507222Y-58752991D01*
X106497652Y-58735087D01*
X106423557Y-58596467D01*
X106406384Y-58539853D01*
X106372037Y-58426627D01*
X106354641Y-58250000D01*
X106372037Y-58073373D01*
X106423557Y-57903534D01*
X106423557Y-57903533D01*
X106507221Y-57747011D01*
X106507222Y-57747009D01*
X106536552Y-57711271D01*
X106619814Y-57609814D01*
X106721271Y-57526552D01*
X106757009Y-57497222D01*
X106774913Y-57487652D01*
X106913533Y-57413557D01*
X106970147Y-57396384D01*
X107083373Y-57362037D01*
X107149557Y-57355519D01*
X107215740Y-57349000D01*
X107304260Y-57349000D01*
X107370443Y-57355519D01*
X107370443Y-57355519D01*
G37*
G36*
X109910443Y-57355519D02*
X109976627Y-57362037D01*
X110089853Y-57396384D01*
X110146467Y-57413557D01*
X110285087Y-57487652D01*
X110302991Y-57497222D01*
X110338729Y-57526552D01*
X110440186Y-57609814D01*
X110523448Y-57711271D01*
X110552778Y-57747009D01*
X110552779Y-57747011D01*
X110636443Y-57903533D01*
X110636443Y-57903534D01*
X110687963Y-58073373D01*
X110705359Y-58250000D01*
X110687963Y-58426627D01*
X110653616Y-58539853D01*
X110636443Y-58596467D01*
X110562348Y-58735087D01*
X110552778Y-58752991D01*
X110523448Y-58788729D01*
X110440186Y-58890186D01*
X110338729Y-58973448D01*
X110302991Y-59002778D01*
X110302989Y-59002779D01*
X110146467Y-59086443D01*
X110089853Y-59103616D01*
X109976627Y-59137963D01*
X109910443Y-59144481D01*
X109844260Y-59151000D01*
X109755740Y-59151000D01*
X109689557Y-59144481D01*
X109623373Y-59137963D01*
X109510147Y-59103616D01*
X109453533Y-59086443D01*
X109297011Y-59002779D01*
X109297009Y-59002778D01*
X109261271Y-58973448D01*
X109159814Y-58890186D01*
X109076552Y-58788729D01*
X109047222Y-58752991D01*
X109037652Y-58735087D01*
X108963557Y-58596467D01*
X108946384Y-58539853D01*
X108912037Y-58426627D01*
X108894641Y-58250000D01*
X108912037Y-58073373D01*
X108963557Y-57903534D01*
X108963557Y-57903533D01*
X109047221Y-57747011D01*
X109047222Y-57747009D01*
X109076552Y-57711271D01*
X109159814Y-57609814D01*
X109261271Y-57526552D01*
X109297009Y-57497222D01*
X109314913Y-57487652D01*
X109453533Y-57413557D01*
X109510147Y-57396384D01*
X109623373Y-57362037D01*
X109689557Y-57355519D01*
X109755740Y-57349000D01*
X109844260Y-57349000D01*
X109910443Y-57355519D01*
X109910443Y-57355519D01*
G37*
G36*
X113241000Y-59151000D02*
X111439000Y-59151000D01*
X111439000Y-57349000D01*
X113241000Y-57349000D01*
X113241000Y-59151000D01*
X113241000Y-59151000D01*
G37*
G36*
X122056202Y-49903781D02*
X122331606Y-49958562D01*
X122850455Y-50173476D01*
X123262805Y-50449000D01*
X123317410Y-50485486D01*
X123714514Y-50882590D01*
X123714516Y-50882593D01*
X124026524Y-51349545D01*
X124181905Y-51724669D01*
X124241438Y-51868395D01*
X124351000Y-52419200D01*
X124351000Y-52980800D01*
X124326674Y-53103093D01*
X124241438Y-53531606D01*
X124026524Y-54050455D01*
X123716620Y-54514259D01*
X123714514Y-54517410D01*
X123317410Y-54914514D01*
X123317407Y-54914516D01*
X122850455Y-55226524D01*
X122331606Y-55441438D01*
X121780800Y-55551000D01*
X121219200Y-55551000D01*
X120668394Y-55441438D01*
X120149545Y-55226524D01*
X119682593Y-54914516D01*
X119682590Y-54914514D01*
X119285486Y-54517410D01*
X119283380Y-54514259D01*
X118973476Y-54050455D01*
X118758562Y-53531606D01*
X118673326Y-53103093D01*
X118649000Y-52980800D01*
X118649000Y-52419200D01*
X118758562Y-51868395D01*
X118818095Y-51724669D01*
X118973476Y-51349545D01*
X119285484Y-50882593D01*
X119285486Y-50882590D01*
X119682590Y-50485486D01*
X119737195Y-50449000D01*
X120149545Y-50173476D01*
X120668394Y-49958562D01*
X120943798Y-49903781D01*
X121219200Y-49849000D01*
X121780800Y-49849000D01*
X122056202Y-49903781D01*
X122056202Y-49903781D01*
G37*
G36*
X96156202Y-49903781D02*
X96431606Y-49958562D01*
X96950455Y-50173476D01*
X97362805Y-50449000D01*
X97417410Y-50485486D01*
X97814514Y-50882590D01*
X97814516Y-50882593D01*
X98126524Y-51349545D01*
X98281905Y-51724669D01*
X98341438Y-51868395D01*
X98451000Y-52419200D01*
X98451000Y-52980800D01*
X98426674Y-53103093D01*
X98341438Y-53531606D01*
X98126524Y-54050455D01*
X97816620Y-54514259D01*
X97814514Y-54517410D01*
X97417410Y-54914514D01*
X97417407Y-54914516D01*
X96950455Y-55226524D01*
X96431606Y-55441438D01*
X95880800Y-55551000D01*
X95319200Y-55551000D01*
X94768394Y-55441438D01*
X94249545Y-55226524D01*
X93782593Y-54914516D01*
X93782590Y-54914514D01*
X93385486Y-54517410D01*
X93383380Y-54514259D01*
X93073476Y-54050455D01*
X92858562Y-53531606D01*
X92773326Y-53103093D01*
X92749000Y-52980800D01*
X92749000Y-52419200D01*
X92858562Y-51868395D01*
X92918095Y-51724669D01*
X93073476Y-51349545D01*
X93385484Y-50882593D01*
X93385486Y-50882590D01*
X93782590Y-50485486D01*
X93837195Y-50449000D01*
X94249545Y-50173476D01*
X94768394Y-49958562D01*
X95043798Y-49903781D01*
X95319200Y-49849000D01*
X95880800Y-49849000D01*
X96156202Y-49903781D01*
X96156202Y-49903781D01*
G37*
G36*
X137025331Y-50518211D02*
X137353092Y-50653974D01*
X137648073Y-50851074D01*
X137898926Y-51101927D01*
X138096026Y-51396908D01*
X138231789Y-51724669D01*
X138301000Y-52072616D01*
X138301000Y-52427384D01*
X138231789Y-52775331D01*
X138096026Y-53103092D01*
X137898926Y-53398073D01*
X137648073Y-53648926D01*
X137353092Y-53846026D01*
X137025331Y-53981789D01*
X136677384Y-54051000D01*
X136322616Y-54051000D01*
X135974669Y-53981789D01*
X135646908Y-53846026D01*
X135351927Y-53648926D01*
X135101074Y-53398073D01*
X134903974Y-53103092D01*
X134768211Y-52775331D01*
X134699000Y-52427384D01*
X134699000Y-52072616D01*
X134768211Y-51724669D01*
X134903974Y-51396908D01*
X135101074Y-51101927D01*
X135351927Y-50851074D01*
X135646908Y-50653974D01*
X135974669Y-50518211D01*
X136322616Y-50449000D01*
X136677384Y-50449000D01*
X137025331Y-50518211D01*
X137025331Y-50518211D01*
G37*
G36*
X132025331Y-50518211D02*
X132353092Y-50653974D01*
X132648073Y-50851074D01*
X132898926Y-51101927D01*
X133096026Y-51396908D01*
X133231789Y-51724669D01*
X133301000Y-52072616D01*
X133301000Y-52427384D01*
X133231789Y-52775331D01*
X133096026Y-53103092D01*
X132898926Y-53398073D01*
X132648073Y-53648926D01*
X132353092Y-53846026D01*
X132025331Y-53981789D01*
X131677384Y-54051000D01*
X131322616Y-54051000D01*
X130974669Y-53981789D01*
X130646908Y-53846026D01*
X130351927Y-53648926D01*
X130101074Y-53398073D01*
X129903974Y-53103092D01*
X129768211Y-52775331D01*
X129699000Y-52427384D01*
X129699000Y-52072616D01*
X129768211Y-51724669D01*
X129903974Y-51396908D01*
X130101074Y-51101927D01*
X130351927Y-50851074D01*
X130646908Y-50653974D01*
X130974669Y-50518211D01*
X131322616Y-50449000D01*
X131677384Y-50449000D01*
X132025331Y-50518211D01*
X132025331Y-50518211D01*
G37*
M02*
