G04 #@! TF.GenerationSoftware,KiCad,Pcbnew,(5.0.2)-1*
G04 #@! TF.CreationDate,2019-03-19T19:21:29-04:00*
G04 #@! TF.ProjectId,Keithley_17X_USB,4b656974-686c-4657-995f-3137585f5553,rev?*
G04 #@! TF.SameCoordinates,Original*
G04 #@! TF.FileFunction,Copper,L1,Top*
G04 #@! TF.FilePolarity,Positive*
%FSLAX46Y46*%
G04 Gerber Fmt 4.6, Leading zero omitted, Abs format (unit mm)*
G04 Created by KiCad (PCBNEW (5.0.2)-1) date 3/19/2019 7:21:29 PM*
%MOMM*%
%LPD*%
G01*
G04 APERTURE LIST*
G04 #@! TA.AperFunction,ComponentPad*
%ADD10R,1.700000X1.700000*%
G04 #@! TD*
G04 #@! TA.AperFunction,ComponentPad*
%ADD11C,1.700000*%
G04 #@! TD*
G04 #@! TA.AperFunction,ComponentPad*
%ADD12C,3.500000*%
G04 #@! TD*
G04 #@! TA.AperFunction,ComponentPad*
%ADD13O,1.700000X1.700000*%
G04 #@! TD*
G04 #@! TA.AperFunction,Conductor*
%ADD14C,0.100000*%
G04 #@! TD*
G04 #@! TA.AperFunction,SMDPad,CuDef*
%ADD15C,0.875000*%
G04 #@! TD*
G04 #@! TA.AperFunction,SMDPad,CuDef*
%ADD16C,0.300000*%
G04 #@! TD*
G04 #@! TA.AperFunction,SMDPad,CuDef*
%ADD17C,0.200000*%
G04 #@! TD*
G04 #@! TA.AperFunction,SMDPad,CuDef*
%ADD18R,1.150000X1.300000*%
G04 #@! TD*
G04 #@! TA.AperFunction,SMDPad,CuDef*
%ADD19C,0.975000*%
G04 #@! TD*
G04 #@! TA.AperFunction,ComponentPad*
%ADD20C,5.600000*%
G04 #@! TD*
G04 #@! TA.AperFunction,SMDPad,CuDef*
%ADD21R,1.117600X0.889000*%
G04 #@! TD*
G04 #@! TA.AperFunction,SMDPad,CuDef*
%ADD22C,1.250000*%
G04 #@! TD*
G04 #@! TA.AperFunction,SMDPad,CuDef*
%ADD23C,0.550000*%
G04 #@! TD*
G04 #@! TA.AperFunction,SMDPad,CuDef*
%ADD24R,1.060000X0.650000*%
G04 #@! TD*
G04 #@! TA.AperFunction,SMDPad,CuDef*
%ADD25R,1.500000X0.450000*%
G04 #@! TD*
G04 #@! TA.AperFunction,SMDPad,CuDef*
%ADD26R,0.400000X1.200000*%
G04 #@! TD*
G04 #@! TA.AperFunction,ViaPad*
%ADD27C,0.800000*%
G04 #@! TD*
G04 #@! TA.AperFunction,Conductor*
%ADD28C,0.500000*%
G04 #@! TD*
G04 #@! TA.AperFunction,Conductor*
%ADD29C,0.250000*%
G04 #@! TD*
G04 #@! TA.AperFunction,Conductor*
%ADD30C,0.800000*%
G04 #@! TD*
G04 #@! TA.AperFunction,Conductor*
%ADD31C,1.000000*%
G04 #@! TD*
G04 #@! TA.AperFunction,Conductor*
%ADD32C,0.200000*%
G04 #@! TD*
G04 #@! TA.AperFunction,Conductor*
%ADD33C,0.254000*%
G04 #@! TD*
G04 APERTURE END LIST*
D10*
G04 #@! TO.P,J1,1*
G04 #@! TO.N,Net-(D1-Pad1)*
X132000000Y-70000000D03*
D11*
G04 #@! TO.P,J1,2*
G04 #@! TO.N,/D-*
X132000000Y-72500000D03*
G04 #@! TO.P,J1,3*
G04 #@! TO.N,/D+*
X134000000Y-72500000D03*
G04 #@! TO.P,J1,4*
G04 #@! TO.N,GND*
X134000000Y-70000000D03*
D12*
G04 #@! TO.P,J1,5*
X136710000Y-65230000D03*
X136710000Y-77270000D03*
G04 #@! TD*
D13*
G04 #@! TO.P,J2,14*
G04 #@! TO.N,N/C*
X75460000Y-78870000D03*
G04 #@! TO.P,J2,13*
G04 #@! TO.N,/D5_IN*
X78000000Y-78870000D03*
G04 #@! TO.P,J2,12*
G04 #@! TO.N,/OVERRANGE_IN*
X75460000Y-76330000D03*
G04 #@! TO.P,J2,11*
G04 #@! TO.N,GNDA*
X78000000Y-76330000D03*
G04 #@! TO.P,J2,10*
G04 #@! TO.N,N/C*
X75460000Y-73790000D03*
G04 #@! TO.P,J2,9*
G04 #@! TO.N,/B1_IN*
X78000000Y-73790000D03*
G04 #@! TO.P,J2,8*
G04 #@! TO.N,N/C*
X75460000Y-71250000D03*
G04 #@! TO.P,J2,7*
G04 #@! TO.N,/B2_IN*
X78000000Y-71250000D03*
G04 #@! TO.P,J2,6*
G04 #@! TO.N,/SIGN_IN*
X75460000Y-68710000D03*
G04 #@! TO.P,J2,5*
G04 #@! TO.N,/B4_IN*
X78000000Y-68710000D03*
G04 #@! TO.P,J2,4*
G04 #@! TO.N,N/C*
X75460000Y-66170000D03*
G04 #@! TO.P,J2,3*
G04 #@! TO.N,/B8_IN*
X78000000Y-66170000D03*
G04 #@! TO.P,J2,2*
G04 #@! TO.N,N/C*
X75460000Y-63630000D03*
D10*
G04 #@! TO.P,J2,1*
G04 #@! TO.N,/CLK_IN*
X78000000Y-63630000D03*
G04 #@! TD*
D14*
G04 #@! TO.N,+5V*
G04 #@! TO.C,C1*
G36*
X114702691Y-63551053D02*
X114723926Y-63554203D01*
X114744750Y-63559419D01*
X114764962Y-63566651D01*
X114784368Y-63575830D01*
X114802781Y-63586866D01*
X114820024Y-63599654D01*
X114835930Y-63614070D01*
X114850346Y-63629976D01*
X114863134Y-63647219D01*
X114874170Y-63665632D01*
X114883349Y-63685038D01*
X114890581Y-63705250D01*
X114895797Y-63726074D01*
X114898947Y-63747309D01*
X114900000Y-63768750D01*
X114900000Y-64281250D01*
X114898947Y-64302691D01*
X114895797Y-64323926D01*
X114890581Y-64344750D01*
X114883349Y-64364962D01*
X114874170Y-64384368D01*
X114863134Y-64402781D01*
X114850346Y-64420024D01*
X114835930Y-64435930D01*
X114820024Y-64450346D01*
X114802781Y-64463134D01*
X114784368Y-64474170D01*
X114764962Y-64483349D01*
X114744750Y-64490581D01*
X114723926Y-64495797D01*
X114702691Y-64498947D01*
X114681250Y-64500000D01*
X114243750Y-64500000D01*
X114222309Y-64498947D01*
X114201074Y-64495797D01*
X114180250Y-64490581D01*
X114160038Y-64483349D01*
X114140632Y-64474170D01*
X114122219Y-64463134D01*
X114104976Y-64450346D01*
X114089070Y-64435930D01*
X114074654Y-64420024D01*
X114061866Y-64402781D01*
X114050830Y-64384368D01*
X114041651Y-64364962D01*
X114034419Y-64344750D01*
X114029203Y-64323926D01*
X114026053Y-64302691D01*
X114025000Y-64281250D01*
X114025000Y-63768750D01*
X114026053Y-63747309D01*
X114029203Y-63726074D01*
X114034419Y-63705250D01*
X114041651Y-63685038D01*
X114050830Y-63665632D01*
X114061866Y-63647219D01*
X114074654Y-63629976D01*
X114089070Y-63614070D01*
X114104976Y-63599654D01*
X114122219Y-63586866D01*
X114140632Y-63575830D01*
X114160038Y-63566651D01*
X114180250Y-63559419D01*
X114201074Y-63554203D01*
X114222309Y-63551053D01*
X114243750Y-63550000D01*
X114681250Y-63550000D01*
X114702691Y-63551053D01*
X114702691Y-63551053D01*
G37*
D15*
G04 #@! TD*
G04 #@! TO.P,C1,1*
G04 #@! TO.N,+5V*
X114462500Y-64025000D03*
D14*
G04 #@! TO.N,GND*
G04 #@! TO.C,C1*
G36*
X113127691Y-63551053D02*
X113148926Y-63554203D01*
X113169750Y-63559419D01*
X113189962Y-63566651D01*
X113209368Y-63575830D01*
X113227781Y-63586866D01*
X113245024Y-63599654D01*
X113260930Y-63614070D01*
X113275346Y-63629976D01*
X113288134Y-63647219D01*
X113299170Y-63665632D01*
X113308349Y-63685038D01*
X113315581Y-63705250D01*
X113320797Y-63726074D01*
X113323947Y-63747309D01*
X113325000Y-63768750D01*
X113325000Y-64281250D01*
X113323947Y-64302691D01*
X113320797Y-64323926D01*
X113315581Y-64344750D01*
X113308349Y-64364962D01*
X113299170Y-64384368D01*
X113288134Y-64402781D01*
X113275346Y-64420024D01*
X113260930Y-64435930D01*
X113245024Y-64450346D01*
X113227781Y-64463134D01*
X113209368Y-64474170D01*
X113189962Y-64483349D01*
X113169750Y-64490581D01*
X113148926Y-64495797D01*
X113127691Y-64498947D01*
X113106250Y-64500000D01*
X112668750Y-64500000D01*
X112647309Y-64498947D01*
X112626074Y-64495797D01*
X112605250Y-64490581D01*
X112585038Y-64483349D01*
X112565632Y-64474170D01*
X112547219Y-64463134D01*
X112529976Y-64450346D01*
X112514070Y-64435930D01*
X112499654Y-64420024D01*
X112486866Y-64402781D01*
X112475830Y-64384368D01*
X112466651Y-64364962D01*
X112459419Y-64344750D01*
X112454203Y-64323926D01*
X112451053Y-64302691D01*
X112450000Y-64281250D01*
X112450000Y-63768750D01*
X112451053Y-63747309D01*
X112454203Y-63726074D01*
X112459419Y-63705250D01*
X112466651Y-63685038D01*
X112475830Y-63665632D01*
X112486866Y-63647219D01*
X112499654Y-63629976D01*
X112514070Y-63614070D01*
X112529976Y-63599654D01*
X112547219Y-63586866D01*
X112565632Y-63575830D01*
X112585038Y-63566651D01*
X112605250Y-63559419D01*
X112626074Y-63554203D01*
X112647309Y-63551053D01*
X112668750Y-63550000D01*
X113106250Y-63550000D01*
X113127691Y-63551053D01*
X113127691Y-63551053D01*
G37*
D15*
G04 #@! TD*
G04 #@! TO.P,C1,2*
G04 #@! TO.N,GND*
X112887500Y-64025000D03*
D14*
G04 #@! TO.N,+3V3*
G04 #@! TO.C,C2*
G36*
X110777691Y-67476053D02*
X110798926Y-67479203D01*
X110819750Y-67484419D01*
X110839962Y-67491651D01*
X110859368Y-67500830D01*
X110877781Y-67511866D01*
X110895024Y-67524654D01*
X110910930Y-67539070D01*
X110925346Y-67554976D01*
X110938134Y-67572219D01*
X110949170Y-67590632D01*
X110958349Y-67610038D01*
X110965581Y-67630250D01*
X110970797Y-67651074D01*
X110973947Y-67672309D01*
X110975000Y-67693750D01*
X110975000Y-68131250D01*
X110973947Y-68152691D01*
X110970797Y-68173926D01*
X110965581Y-68194750D01*
X110958349Y-68214962D01*
X110949170Y-68234368D01*
X110938134Y-68252781D01*
X110925346Y-68270024D01*
X110910930Y-68285930D01*
X110895024Y-68300346D01*
X110877781Y-68313134D01*
X110859368Y-68324170D01*
X110839962Y-68333349D01*
X110819750Y-68340581D01*
X110798926Y-68345797D01*
X110777691Y-68348947D01*
X110756250Y-68350000D01*
X110243750Y-68350000D01*
X110222309Y-68348947D01*
X110201074Y-68345797D01*
X110180250Y-68340581D01*
X110160038Y-68333349D01*
X110140632Y-68324170D01*
X110122219Y-68313134D01*
X110104976Y-68300346D01*
X110089070Y-68285930D01*
X110074654Y-68270024D01*
X110061866Y-68252781D01*
X110050830Y-68234368D01*
X110041651Y-68214962D01*
X110034419Y-68194750D01*
X110029203Y-68173926D01*
X110026053Y-68152691D01*
X110025000Y-68131250D01*
X110025000Y-67693750D01*
X110026053Y-67672309D01*
X110029203Y-67651074D01*
X110034419Y-67630250D01*
X110041651Y-67610038D01*
X110050830Y-67590632D01*
X110061866Y-67572219D01*
X110074654Y-67554976D01*
X110089070Y-67539070D01*
X110104976Y-67524654D01*
X110122219Y-67511866D01*
X110140632Y-67500830D01*
X110160038Y-67491651D01*
X110180250Y-67484419D01*
X110201074Y-67479203D01*
X110222309Y-67476053D01*
X110243750Y-67475000D01*
X110756250Y-67475000D01*
X110777691Y-67476053D01*
X110777691Y-67476053D01*
G37*
D15*
G04 #@! TD*
G04 #@! TO.P,C2,1*
G04 #@! TO.N,+3V3*
X110500000Y-67912500D03*
D14*
G04 #@! TO.N,GND*
G04 #@! TO.C,C2*
G36*
X110777691Y-65901053D02*
X110798926Y-65904203D01*
X110819750Y-65909419D01*
X110839962Y-65916651D01*
X110859368Y-65925830D01*
X110877781Y-65936866D01*
X110895024Y-65949654D01*
X110910930Y-65964070D01*
X110925346Y-65979976D01*
X110938134Y-65997219D01*
X110949170Y-66015632D01*
X110958349Y-66035038D01*
X110965581Y-66055250D01*
X110970797Y-66076074D01*
X110973947Y-66097309D01*
X110975000Y-66118750D01*
X110975000Y-66556250D01*
X110973947Y-66577691D01*
X110970797Y-66598926D01*
X110965581Y-66619750D01*
X110958349Y-66639962D01*
X110949170Y-66659368D01*
X110938134Y-66677781D01*
X110925346Y-66695024D01*
X110910930Y-66710930D01*
X110895024Y-66725346D01*
X110877781Y-66738134D01*
X110859368Y-66749170D01*
X110839962Y-66758349D01*
X110819750Y-66765581D01*
X110798926Y-66770797D01*
X110777691Y-66773947D01*
X110756250Y-66775000D01*
X110243750Y-66775000D01*
X110222309Y-66773947D01*
X110201074Y-66770797D01*
X110180250Y-66765581D01*
X110160038Y-66758349D01*
X110140632Y-66749170D01*
X110122219Y-66738134D01*
X110104976Y-66725346D01*
X110089070Y-66710930D01*
X110074654Y-66695024D01*
X110061866Y-66677781D01*
X110050830Y-66659368D01*
X110041651Y-66639962D01*
X110034419Y-66619750D01*
X110029203Y-66598926D01*
X110026053Y-66577691D01*
X110025000Y-66556250D01*
X110025000Y-66118750D01*
X110026053Y-66097309D01*
X110029203Y-66076074D01*
X110034419Y-66055250D01*
X110041651Y-66035038D01*
X110050830Y-66015632D01*
X110061866Y-65997219D01*
X110074654Y-65979976D01*
X110089070Y-65964070D01*
X110104976Y-65949654D01*
X110122219Y-65936866D01*
X110140632Y-65925830D01*
X110160038Y-65916651D01*
X110180250Y-65909419D01*
X110201074Y-65904203D01*
X110222309Y-65901053D01*
X110243750Y-65900000D01*
X110756250Y-65900000D01*
X110777691Y-65901053D01*
X110777691Y-65901053D01*
G37*
D15*
G04 #@! TD*
G04 #@! TO.P,C2,2*
G04 #@! TO.N,GND*
X110500000Y-66337500D03*
D14*
G04 #@! TO.N,+3V3*
G04 #@! TO.C,C3*
G36*
X104627691Y-67501053D02*
X104648926Y-67504203D01*
X104669750Y-67509419D01*
X104689962Y-67516651D01*
X104709368Y-67525830D01*
X104727781Y-67536866D01*
X104745024Y-67549654D01*
X104760930Y-67564070D01*
X104775346Y-67579976D01*
X104788134Y-67597219D01*
X104799170Y-67615632D01*
X104808349Y-67635038D01*
X104815581Y-67655250D01*
X104820797Y-67676074D01*
X104823947Y-67697309D01*
X104825000Y-67718750D01*
X104825000Y-68156250D01*
X104823947Y-68177691D01*
X104820797Y-68198926D01*
X104815581Y-68219750D01*
X104808349Y-68239962D01*
X104799170Y-68259368D01*
X104788134Y-68277781D01*
X104775346Y-68295024D01*
X104760930Y-68310930D01*
X104745024Y-68325346D01*
X104727781Y-68338134D01*
X104709368Y-68349170D01*
X104689962Y-68358349D01*
X104669750Y-68365581D01*
X104648926Y-68370797D01*
X104627691Y-68373947D01*
X104606250Y-68375000D01*
X104093750Y-68375000D01*
X104072309Y-68373947D01*
X104051074Y-68370797D01*
X104030250Y-68365581D01*
X104010038Y-68358349D01*
X103990632Y-68349170D01*
X103972219Y-68338134D01*
X103954976Y-68325346D01*
X103939070Y-68310930D01*
X103924654Y-68295024D01*
X103911866Y-68277781D01*
X103900830Y-68259368D01*
X103891651Y-68239962D01*
X103884419Y-68219750D01*
X103879203Y-68198926D01*
X103876053Y-68177691D01*
X103875000Y-68156250D01*
X103875000Y-67718750D01*
X103876053Y-67697309D01*
X103879203Y-67676074D01*
X103884419Y-67655250D01*
X103891651Y-67635038D01*
X103900830Y-67615632D01*
X103911866Y-67597219D01*
X103924654Y-67579976D01*
X103939070Y-67564070D01*
X103954976Y-67549654D01*
X103972219Y-67536866D01*
X103990632Y-67525830D01*
X104010038Y-67516651D01*
X104030250Y-67509419D01*
X104051074Y-67504203D01*
X104072309Y-67501053D01*
X104093750Y-67500000D01*
X104606250Y-67500000D01*
X104627691Y-67501053D01*
X104627691Y-67501053D01*
G37*
D15*
G04 #@! TD*
G04 #@! TO.P,C3,1*
G04 #@! TO.N,+3V3*
X104350000Y-67937500D03*
D14*
G04 #@! TO.N,GND*
G04 #@! TO.C,C3*
G36*
X104627691Y-65926053D02*
X104648926Y-65929203D01*
X104669750Y-65934419D01*
X104689962Y-65941651D01*
X104709368Y-65950830D01*
X104727781Y-65961866D01*
X104745024Y-65974654D01*
X104760930Y-65989070D01*
X104775346Y-66004976D01*
X104788134Y-66022219D01*
X104799170Y-66040632D01*
X104808349Y-66060038D01*
X104815581Y-66080250D01*
X104820797Y-66101074D01*
X104823947Y-66122309D01*
X104825000Y-66143750D01*
X104825000Y-66581250D01*
X104823947Y-66602691D01*
X104820797Y-66623926D01*
X104815581Y-66644750D01*
X104808349Y-66664962D01*
X104799170Y-66684368D01*
X104788134Y-66702781D01*
X104775346Y-66720024D01*
X104760930Y-66735930D01*
X104745024Y-66750346D01*
X104727781Y-66763134D01*
X104709368Y-66774170D01*
X104689962Y-66783349D01*
X104669750Y-66790581D01*
X104648926Y-66795797D01*
X104627691Y-66798947D01*
X104606250Y-66800000D01*
X104093750Y-66800000D01*
X104072309Y-66798947D01*
X104051074Y-66795797D01*
X104030250Y-66790581D01*
X104010038Y-66783349D01*
X103990632Y-66774170D01*
X103972219Y-66763134D01*
X103954976Y-66750346D01*
X103939070Y-66735930D01*
X103924654Y-66720024D01*
X103911866Y-66702781D01*
X103900830Y-66684368D01*
X103891651Y-66664962D01*
X103884419Y-66644750D01*
X103879203Y-66623926D01*
X103876053Y-66602691D01*
X103875000Y-66581250D01*
X103875000Y-66143750D01*
X103876053Y-66122309D01*
X103879203Y-66101074D01*
X103884419Y-66080250D01*
X103891651Y-66060038D01*
X103900830Y-66040632D01*
X103911866Y-66022219D01*
X103924654Y-66004976D01*
X103939070Y-65989070D01*
X103954976Y-65974654D01*
X103972219Y-65961866D01*
X103990632Y-65950830D01*
X104010038Y-65941651D01*
X104030250Y-65934419D01*
X104051074Y-65929203D01*
X104072309Y-65926053D01*
X104093750Y-65925000D01*
X104606250Y-65925000D01*
X104627691Y-65926053D01*
X104627691Y-65926053D01*
G37*
D15*
G04 #@! TD*
G04 #@! TO.P,C3,2*
G04 #@! TO.N,GND*
X104350000Y-66362500D03*
D14*
G04 #@! TO.N,GND*
G04 #@! TO.C,C4*
G36*
X102627691Y-65926053D02*
X102648926Y-65929203D01*
X102669750Y-65934419D01*
X102689962Y-65941651D01*
X102709368Y-65950830D01*
X102727781Y-65961866D01*
X102745024Y-65974654D01*
X102760930Y-65989070D01*
X102775346Y-66004976D01*
X102788134Y-66022219D01*
X102799170Y-66040632D01*
X102808349Y-66060038D01*
X102815581Y-66080250D01*
X102820797Y-66101074D01*
X102823947Y-66122309D01*
X102825000Y-66143750D01*
X102825000Y-66581250D01*
X102823947Y-66602691D01*
X102820797Y-66623926D01*
X102815581Y-66644750D01*
X102808349Y-66664962D01*
X102799170Y-66684368D01*
X102788134Y-66702781D01*
X102775346Y-66720024D01*
X102760930Y-66735930D01*
X102745024Y-66750346D01*
X102727781Y-66763134D01*
X102709368Y-66774170D01*
X102689962Y-66783349D01*
X102669750Y-66790581D01*
X102648926Y-66795797D01*
X102627691Y-66798947D01*
X102606250Y-66800000D01*
X102093750Y-66800000D01*
X102072309Y-66798947D01*
X102051074Y-66795797D01*
X102030250Y-66790581D01*
X102010038Y-66783349D01*
X101990632Y-66774170D01*
X101972219Y-66763134D01*
X101954976Y-66750346D01*
X101939070Y-66735930D01*
X101924654Y-66720024D01*
X101911866Y-66702781D01*
X101900830Y-66684368D01*
X101891651Y-66664962D01*
X101884419Y-66644750D01*
X101879203Y-66623926D01*
X101876053Y-66602691D01*
X101875000Y-66581250D01*
X101875000Y-66143750D01*
X101876053Y-66122309D01*
X101879203Y-66101074D01*
X101884419Y-66080250D01*
X101891651Y-66060038D01*
X101900830Y-66040632D01*
X101911866Y-66022219D01*
X101924654Y-66004976D01*
X101939070Y-65989070D01*
X101954976Y-65974654D01*
X101972219Y-65961866D01*
X101990632Y-65950830D01*
X102010038Y-65941651D01*
X102030250Y-65934419D01*
X102051074Y-65929203D01*
X102072309Y-65926053D01*
X102093750Y-65925000D01*
X102606250Y-65925000D01*
X102627691Y-65926053D01*
X102627691Y-65926053D01*
G37*
D15*
G04 #@! TD*
G04 #@! TO.P,C4,2*
G04 #@! TO.N,GND*
X102350000Y-66362500D03*
D14*
G04 #@! TO.N,+3V3*
G04 #@! TO.C,C4*
G36*
X102627691Y-67501053D02*
X102648926Y-67504203D01*
X102669750Y-67509419D01*
X102689962Y-67516651D01*
X102709368Y-67525830D01*
X102727781Y-67536866D01*
X102745024Y-67549654D01*
X102760930Y-67564070D01*
X102775346Y-67579976D01*
X102788134Y-67597219D01*
X102799170Y-67615632D01*
X102808349Y-67635038D01*
X102815581Y-67655250D01*
X102820797Y-67676074D01*
X102823947Y-67697309D01*
X102825000Y-67718750D01*
X102825000Y-68156250D01*
X102823947Y-68177691D01*
X102820797Y-68198926D01*
X102815581Y-68219750D01*
X102808349Y-68239962D01*
X102799170Y-68259368D01*
X102788134Y-68277781D01*
X102775346Y-68295024D01*
X102760930Y-68310930D01*
X102745024Y-68325346D01*
X102727781Y-68338134D01*
X102709368Y-68349170D01*
X102689962Y-68358349D01*
X102669750Y-68365581D01*
X102648926Y-68370797D01*
X102627691Y-68373947D01*
X102606250Y-68375000D01*
X102093750Y-68375000D01*
X102072309Y-68373947D01*
X102051074Y-68370797D01*
X102030250Y-68365581D01*
X102010038Y-68358349D01*
X101990632Y-68349170D01*
X101972219Y-68338134D01*
X101954976Y-68325346D01*
X101939070Y-68310930D01*
X101924654Y-68295024D01*
X101911866Y-68277781D01*
X101900830Y-68259368D01*
X101891651Y-68239962D01*
X101884419Y-68219750D01*
X101879203Y-68198926D01*
X101876053Y-68177691D01*
X101875000Y-68156250D01*
X101875000Y-67718750D01*
X101876053Y-67697309D01*
X101879203Y-67676074D01*
X101884419Y-67655250D01*
X101891651Y-67635038D01*
X101900830Y-67615632D01*
X101911866Y-67597219D01*
X101924654Y-67579976D01*
X101939070Y-67564070D01*
X101954976Y-67549654D01*
X101972219Y-67536866D01*
X101990632Y-67525830D01*
X102010038Y-67516651D01*
X102030250Y-67509419D01*
X102051074Y-67504203D01*
X102072309Y-67501053D01*
X102093750Y-67500000D01*
X102606250Y-67500000D01*
X102627691Y-67501053D01*
X102627691Y-67501053D01*
G37*
D15*
G04 #@! TD*
G04 #@! TO.P,C4,1*
G04 #@! TO.N,+3V3*
X102350000Y-67937500D03*
D14*
G04 #@! TO.N,GND*
G04 #@! TO.C,C5*
G36*
X113552691Y-69326053D02*
X113573926Y-69329203D01*
X113594750Y-69334419D01*
X113614962Y-69341651D01*
X113634368Y-69350830D01*
X113652781Y-69361866D01*
X113670024Y-69374654D01*
X113685930Y-69389070D01*
X113700346Y-69404976D01*
X113713134Y-69422219D01*
X113724170Y-69440632D01*
X113733349Y-69460038D01*
X113740581Y-69480250D01*
X113745797Y-69501074D01*
X113748947Y-69522309D01*
X113750000Y-69543750D01*
X113750000Y-70056250D01*
X113748947Y-70077691D01*
X113745797Y-70098926D01*
X113740581Y-70119750D01*
X113733349Y-70139962D01*
X113724170Y-70159368D01*
X113713134Y-70177781D01*
X113700346Y-70195024D01*
X113685930Y-70210930D01*
X113670024Y-70225346D01*
X113652781Y-70238134D01*
X113634368Y-70249170D01*
X113614962Y-70258349D01*
X113594750Y-70265581D01*
X113573926Y-70270797D01*
X113552691Y-70273947D01*
X113531250Y-70275000D01*
X113093750Y-70275000D01*
X113072309Y-70273947D01*
X113051074Y-70270797D01*
X113030250Y-70265581D01*
X113010038Y-70258349D01*
X112990632Y-70249170D01*
X112972219Y-70238134D01*
X112954976Y-70225346D01*
X112939070Y-70210930D01*
X112924654Y-70195024D01*
X112911866Y-70177781D01*
X112900830Y-70159368D01*
X112891651Y-70139962D01*
X112884419Y-70119750D01*
X112879203Y-70098926D01*
X112876053Y-70077691D01*
X112875000Y-70056250D01*
X112875000Y-69543750D01*
X112876053Y-69522309D01*
X112879203Y-69501074D01*
X112884419Y-69480250D01*
X112891651Y-69460038D01*
X112900830Y-69440632D01*
X112911866Y-69422219D01*
X112924654Y-69404976D01*
X112939070Y-69389070D01*
X112954976Y-69374654D01*
X112972219Y-69361866D01*
X112990632Y-69350830D01*
X113010038Y-69341651D01*
X113030250Y-69334419D01*
X113051074Y-69329203D01*
X113072309Y-69326053D01*
X113093750Y-69325000D01*
X113531250Y-69325000D01*
X113552691Y-69326053D01*
X113552691Y-69326053D01*
G37*
D15*
G04 #@! TD*
G04 #@! TO.P,C5,2*
G04 #@! TO.N,GND*
X113312500Y-69800000D03*
D14*
G04 #@! TO.N,+5V*
G04 #@! TO.C,C5*
G36*
X115127691Y-69326053D02*
X115148926Y-69329203D01*
X115169750Y-69334419D01*
X115189962Y-69341651D01*
X115209368Y-69350830D01*
X115227781Y-69361866D01*
X115245024Y-69374654D01*
X115260930Y-69389070D01*
X115275346Y-69404976D01*
X115288134Y-69422219D01*
X115299170Y-69440632D01*
X115308349Y-69460038D01*
X115315581Y-69480250D01*
X115320797Y-69501074D01*
X115323947Y-69522309D01*
X115325000Y-69543750D01*
X115325000Y-70056250D01*
X115323947Y-70077691D01*
X115320797Y-70098926D01*
X115315581Y-70119750D01*
X115308349Y-70139962D01*
X115299170Y-70159368D01*
X115288134Y-70177781D01*
X115275346Y-70195024D01*
X115260930Y-70210930D01*
X115245024Y-70225346D01*
X115227781Y-70238134D01*
X115209368Y-70249170D01*
X115189962Y-70258349D01*
X115169750Y-70265581D01*
X115148926Y-70270797D01*
X115127691Y-70273947D01*
X115106250Y-70275000D01*
X114668750Y-70275000D01*
X114647309Y-70273947D01*
X114626074Y-70270797D01*
X114605250Y-70265581D01*
X114585038Y-70258349D01*
X114565632Y-70249170D01*
X114547219Y-70238134D01*
X114529976Y-70225346D01*
X114514070Y-70210930D01*
X114499654Y-70195024D01*
X114486866Y-70177781D01*
X114475830Y-70159368D01*
X114466651Y-70139962D01*
X114459419Y-70119750D01*
X114454203Y-70098926D01*
X114451053Y-70077691D01*
X114450000Y-70056250D01*
X114450000Y-69543750D01*
X114451053Y-69522309D01*
X114454203Y-69501074D01*
X114459419Y-69480250D01*
X114466651Y-69460038D01*
X114475830Y-69440632D01*
X114486866Y-69422219D01*
X114499654Y-69404976D01*
X114514070Y-69389070D01*
X114529976Y-69374654D01*
X114547219Y-69361866D01*
X114565632Y-69350830D01*
X114585038Y-69341651D01*
X114605250Y-69334419D01*
X114626074Y-69329203D01*
X114647309Y-69326053D01*
X114668750Y-69325000D01*
X115106250Y-69325000D01*
X115127691Y-69326053D01*
X115127691Y-69326053D01*
G37*
D15*
G04 #@! TD*
G04 #@! TO.P,C5,1*
G04 #@! TO.N,+5V*
X114887500Y-69800000D03*
D14*
G04 #@! TO.N,+5V*
G04 #@! TO.C,C6*
G36*
X115127691Y-71276053D02*
X115148926Y-71279203D01*
X115169750Y-71284419D01*
X115189962Y-71291651D01*
X115209368Y-71300830D01*
X115227781Y-71311866D01*
X115245024Y-71324654D01*
X115260930Y-71339070D01*
X115275346Y-71354976D01*
X115288134Y-71372219D01*
X115299170Y-71390632D01*
X115308349Y-71410038D01*
X115315581Y-71430250D01*
X115320797Y-71451074D01*
X115323947Y-71472309D01*
X115325000Y-71493750D01*
X115325000Y-72006250D01*
X115323947Y-72027691D01*
X115320797Y-72048926D01*
X115315581Y-72069750D01*
X115308349Y-72089962D01*
X115299170Y-72109368D01*
X115288134Y-72127781D01*
X115275346Y-72145024D01*
X115260930Y-72160930D01*
X115245024Y-72175346D01*
X115227781Y-72188134D01*
X115209368Y-72199170D01*
X115189962Y-72208349D01*
X115169750Y-72215581D01*
X115148926Y-72220797D01*
X115127691Y-72223947D01*
X115106250Y-72225000D01*
X114668750Y-72225000D01*
X114647309Y-72223947D01*
X114626074Y-72220797D01*
X114605250Y-72215581D01*
X114585038Y-72208349D01*
X114565632Y-72199170D01*
X114547219Y-72188134D01*
X114529976Y-72175346D01*
X114514070Y-72160930D01*
X114499654Y-72145024D01*
X114486866Y-72127781D01*
X114475830Y-72109368D01*
X114466651Y-72089962D01*
X114459419Y-72069750D01*
X114454203Y-72048926D01*
X114451053Y-72027691D01*
X114450000Y-72006250D01*
X114450000Y-71493750D01*
X114451053Y-71472309D01*
X114454203Y-71451074D01*
X114459419Y-71430250D01*
X114466651Y-71410038D01*
X114475830Y-71390632D01*
X114486866Y-71372219D01*
X114499654Y-71354976D01*
X114514070Y-71339070D01*
X114529976Y-71324654D01*
X114547219Y-71311866D01*
X114565632Y-71300830D01*
X114585038Y-71291651D01*
X114605250Y-71284419D01*
X114626074Y-71279203D01*
X114647309Y-71276053D01*
X114668750Y-71275000D01*
X115106250Y-71275000D01*
X115127691Y-71276053D01*
X115127691Y-71276053D01*
G37*
D15*
G04 #@! TD*
G04 #@! TO.P,C6,1*
G04 #@! TO.N,+5V*
X114887500Y-71750000D03*
D14*
G04 #@! TO.N,GND*
G04 #@! TO.C,C6*
G36*
X113552691Y-71276053D02*
X113573926Y-71279203D01*
X113594750Y-71284419D01*
X113614962Y-71291651D01*
X113634368Y-71300830D01*
X113652781Y-71311866D01*
X113670024Y-71324654D01*
X113685930Y-71339070D01*
X113700346Y-71354976D01*
X113713134Y-71372219D01*
X113724170Y-71390632D01*
X113733349Y-71410038D01*
X113740581Y-71430250D01*
X113745797Y-71451074D01*
X113748947Y-71472309D01*
X113750000Y-71493750D01*
X113750000Y-72006250D01*
X113748947Y-72027691D01*
X113745797Y-72048926D01*
X113740581Y-72069750D01*
X113733349Y-72089962D01*
X113724170Y-72109368D01*
X113713134Y-72127781D01*
X113700346Y-72145024D01*
X113685930Y-72160930D01*
X113670024Y-72175346D01*
X113652781Y-72188134D01*
X113634368Y-72199170D01*
X113614962Y-72208349D01*
X113594750Y-72215581D01*
X113573926Y-72220797D01*
X113552691Y-72223947D01*
X113531250Y-72225000D01*
X113093750Y-72225000D01*
X113072309Y-72223947D01*
X113051074Y-72220797D01*
X113030250Y-72215581D01*
X113010038Y-72208349D01*
X112990632Y-72199170D01*
X112972219Y-72188134D01*
X112954976Y-72175346D01*
X112939070Y-72160930D01*
X112924654Y-72145024D01*
X112911866Y-72127781D01*
X112900830Y-72109368D01*
X112891651Y-72089962D01*
X112884419Y-72069750D01*
X112879203Y-72048926D01*
X112876053Y-72027691D01*
X112875000Y-72006250D01*
X112875000Y-71493750D01*
X112876053Y-71472309D01*
X112879203Y-71451074D01*
X112884419Y-71430250D01*
X112891651Y-71410038D01*
X112900830Y-71390632D01*
X112911866Y-71372219D01*
X112924654Y-71354976D01*
X112939070Y-71339070D01*
X112954976Y-71324654D01*
X112972219Y-71311866D01*
X112990632Y-71300830D01*
X113010038Y-71291651D01*
X113030250Y-71284419D01*
X113051074Y-71279203D01*
X113072309Y-71276053D01*
X113093750Y-71275000D01*
X113531250Y-71275000D01*
X113552691Y-71276053D01*
X113552691Y-71276053D01*
G37*
D15*
G04 #@! TD*
G04 #@! TO.P,C6,2*
G04 #@! TO.N,GND*
X113312500Y-71750000D03*
D14*
G04 #@! TO.N,GND*
G04 #@! TO.C,C7*
G36*
X118327691Y-71276053D02*
X118348926Y-71279203D01*
X118369750Y-71284419D01*
X118389962Y-71291651D01*
X118409368Y-71300830D01*
X118427781Y-71311866D01*
X118445024Y-71324654D01*
X118460930Y-71339070D01*
X118475346Y-71354976D01*
X118488134Y-71372219D01*
X118499170Y-71390632D01*
X118508349Y-71410038D01*
X118515581Y-71430250D01*
X118520797Y-71451074D01*
X118523947Y-71472309D01*
X118525000Y-71493750D01*
X118525000Y-72006250D01*
X118523947Y-72027691D01*
X118520797Y-72048926D01*
X118515581Y-72069750D01*
X118508349Y-72089962D01*
X118499170Y-72109368D01*
X118488134Y-72127781D01*
X118475346Y-72145024D01*
X118460930Y-72160930D01*
X118445024Y-72175346D01*
X118427781Y-72188134D01*
X118409368Y-72199170D01*
X118389962Y-72208349D01*
X118369750Y-72215581D01*
X118348926Y-72220797D01*
X118327691Y-72223947D01*
X118306250Y-72225000D01*
X117868750Y-72225000D01*
X117847309Y-72223947D01*
X117826074Y-72220797D01*
X117805250Y-72215581D01*
X117785038Y-72208349D01*
X117765632Y-72199170D01*
X117747219Y-72188134D01*
X117729976Y-72175346D01*
X117714070Y-72160930D01*
X117699654Y-72145024D01*
X117686866Y-72127781D01*
X117675830Y-72109368D01*
X117666651Y-72089962D01*
X117659419Y-72069750D01*
X117654203Y-72048926D01*
X117651053Y-72027691D01*
X117650000Y-72006250D01*
X117650000Y-71493750D01*
X117651053Y-71472309D01*
X117654203Y-71451074D01*
X117659419Y-71430250D01*
X117666651Y-71410038D01*
X117675830Y-71390632D01*
X117686866Y-71372219D01*
X117699654Y-71354976D01*
X117714070Y-71339070D01*
X117729976Y-71324654D01*
X117747219Y-71311866D01*
X117765632Y-71300830D01*
X117785038Y-71291651D01*
X117805250Y-71284419D01*
X117826074Y-71279203D01*
X117847309Y-71276053D01*
X117868750Y-71275000D01*
X118306250Y-71275000D01*
X118327691Y-71276053D01*
X118327691Y-71276053D01*
G37*
D15*
G04 #@! TD*
G04 #@! TO.P,C7,2*
G04 #@! TO.N,GND*
X118087500Y-71750000D03*
D14*
G04 #@! TO.N,/VCCIO*
G04 #@! TO.C,C7*
G36*
X116752691Y-71276053D02*
X116773926Y-71279203D01*
X116794750Y-71284419D01*
X116814962Y-71291651D01*
X116834368Y-71300830D01*
X116852781Y-71311866D01*
X116870024Y-71324654D01*
X116885930Y-71339070D01*
X116900346Y-71354976D01*
X116913134Y-71372219D01*
X116924170Y-71390632D01*
X116933349Y-71410038D01*
X116940581Y-71430250D01*
X116945797Y-71451074D01*
X116948947Y-71472309D01*
X116950000Y-71493750D01*
X116950000Y-72006250D01*
X116948947Y-72027691D01*
X116945797Y-72048926D01*
X116940581Y-72069750D01*
X116933349Y-72089962D01*
X116924170Y-72109368D01*
X116913134Y-72127781D01*
X116900346Y-72145024D01*
X116885930Y-72160930D01*
X116870024Y-72175346D01*
X116852781Y-72188134D01*
X116834368Y-72199170D01*
X116814962Y-72208349D01*
X116794750Y-72215581D01*
X116773926Y-72220797D01*
X116752691Y-72223947D01*
X116731250Y-72225000D01*
X116293750Y-72225000D01*
X116272309Y-72223947D01*
X116251074Y-72220797D01*
X116230250Y-72215581D01*
X116210038Y-72208349D01*
X116190632Y-72199170D01*
X116172219Y-72188134D01*
X116154976Y-72175346D01*
X116139070Y-72160930D01*
X116124654Y-72145024D01*
X116111866Y-72127781D01*
X116100830Y-72109368D01*
X116091651Y-72089962D01*
X116084419Y-72069750D01*
X116079203Y-72048926D01*
X116076053Y-72027691D01*
X116075000Y-72006250D01*
X116075000Y-71493750D01*
X116076053Y-71472309D01*
X116079203Y-71451074D01*
X116084419Y-71430250D01*
X116091651Y-71410038D01*
X116100830Y-71390632D01*
X116111866Y-71372219D01*
X116124654Y-71354976D01*
X116139070Y-71339070D01*
X116154976Y-71324654D01*
X116172219Y-71311866D01*
X116190632Y-71300830D01*
X116210038Y-71291651D01*
X116230250Y-71284419D01*
X116251074Y-71279203D01*
X116272309Y-71276053D01*
X116293750Y-71275000D01*
X116731250Y-71275000D01*
X116752691Y-71276053D01*
X116752691Y-71276053D01*
G37*
D15*
G04 #@! TD*
G04 #@! TO.P,C7,1*
G04 #@! TO.N,/VCCIO*
X116512500Y-71750000D03*
D14*
G04 #@! TO.N,Net-(D1-Pad1)*
G04 #@! TO.C,D1*
G36*
X128907351Y-65750361D02*
X128914632Y-65751441D01*
X128921771Y-65753229D01*
X128928701Y-65755709D01*
X128935355Y-65758856D01*
X128941668Y-65762640D01*
X128947579Y-65767024D01*
X128953033Y-65771967D01*
X128957976Y-65777421D01*
X128962360Y-65783332D01*
X128966144Y-65789645D01*
X128969291Y-65796299D01*
X128971771Y-65803229D01*
X128973559Y-65810368D01*
X128974639Y-65817649D01*
X128975000Y-65825000D01*
X128975000Y-65975000D01*
X128974639Y-65982351D01*
X128973559Y-65989632D01*
X128971771Y-65996771D01*
X128969291Y-66003701D01*
X128966144Y-66010355D01*
X128962360Y-66016668D01*
X128957976Y-66022579D01*
X128953033Y-66028033D01*
X128947579Y-66032976D01*
X128941668Y-66037360D01*
X128935355Y-66041144D01*
X128928701Y-66044291D01*
X128921771Y-66046771D01*
X128914632Y-66048559D01*
X128907351Y-66049639D01*
X128900000Y-66050000D01*
X128500000Y-66050000D01*
X128492649Y-66049639D01*
X128485368Y-66048559D01*
X128478229Y-66046771D01*
X128471299Y-66044291D01*
X128464645Y-66041144D01*
X128458332Y-66037360D01*
X128452421Y-66032976D01*
X128446967Y-66028033D01*
X128442024Y-66022579D01*
X128437640Y-66016668D01*
X128433856Y-66010355D01*
X128430709Y-66003701D01*
X128428229Y-65996771D01*
X128426441Y-65989632D01*
X128425361Y-65982351D01*
X128425000Y-65975000D01*
X128425000Y-65825000D01*
X128425361Y-65817649D01*
X128426441Y-65810368D01*
X128428229Y-65803229D01*
X128430709Y-65796299D01*
X128433856Y-65789645D01*
X128437640Y-65783332D01*
X128442024Y-65777421D01*
X128446967Y-65771967D01*
X128452421Y-65767024D01*
X128458332Y-65762640D01*
X128464645Y-65758856D01*
X128471299Y-65755709D01*
X128478229Y-65753229D01*
X128485368Y-65751441D01*
X128492649Y-65750361D01*
X128500000Y-65750000D01*
X128900000Y-65750000D01*
X128907351Y-65750361D01*
X128907351Y-65750361D01*
G37*
D16*
G04 #@! TD*
G04 #@! TO.P,D1,1*
G04 #@! TO.N,Net-(D1-Pad1)*
X128700000Y-65900000D03*
D14*
G04 #@! TO.N,GND*
G04 #@! TO.C,D1*
G36*
X128907351Y-65050361D02*
X128914632Y-65051441D01*
X128921771Y-65053229D01*
X128928701Y-65055709D01*
X128935355Y-65058856D01*
X128941668Y-65062640D01*
X128947579Y-65067024D01*
X128953033Y-65071967D01*
X128957976Y-65077421D01*
X128962360Y-65083332D01*
X128966144Y-65089645D01*
X128969291Y-65096299D01*
X128971771Y-65103229D01*
X128973559Y-65110368D01*
X128974639Y-65117649D01*
X128975000Y-65125000D01*
X128975000Y-65275000D01*
X128974639Y-65282351D01*
X128973559Y-65289632D01*
X128971771Y-65296771D01*
X128969291Y-65303701D01*
X128966144Y-65310355D01*
X128962360Y-65316668D01*
X128957976Y-65322579D01*
X128953033Y-65328033D01*
X128947579Y-65332976D01*
X128941668Y-65337360D01*
X128935355Y-65341144D01*
X128928701Y-65344291D01*
X128921771Y-65346771D01*
X128914632Y-65348559D01*
X128907351Y-65349639D01*
X128900000Y-65350000D01*
X128500000Y-65350000D01*
X128492649Y-65349639D01*
X128485368Y-65348559D01*
X128478229Y-65346771D01*
X128471299Y-65344291D01*
X128464645Y-65341144D01*
X128458332Y-65337360D01*
X128452421Y-65332976D01*
X128446967Y-65328033D01*
X128442024Y-65322579D01*
X128437640Y-65316668D01*
X128433856Y-65310355D01*
X128430709Y-65303701D01*
X128428229Y-65296771D01*
X128426441Y-65289632D01*
X128425361Y-65282351D01*
X128425000Y-65275000D01*
X128425000Y-65125000D01*
X128425361Y-65117649D01*
X128426441Y-65110368D01*
X128428229Y-65103229D01*
X128430709Y-65096299D01*
X128433856Y-65089645D01*
X128437640Y-65083332D01*
X128442024Y-65077421D01*
X128446967Y-65071967D01*
X128452421Y-65067024D01*
X128458332Y-65062640D01*
X128464645Y-65058856D01*
X128471299Y-65055709D01*
X128478229Y-65053229D01*
X128485368Y-65051441D01*
X128492649Y-65050361D01*
X128500000Y-65050000D01*
X128900000Y-65050000D01*
X128907351Y-65050361D01*
X128907351Y-65050361D01*
G37*
D16*
G04 #@! TD*
G04 #@! TO.P,D1,2*
G04 #@! TO.N,GND*
X128700000Y-65200000D03*
D14*
G04 #@! TO.N,GND*
G04 #@! TO.C,D2*
G36*
X128554901Y-77350241D02*
X128559755Y-77350961D01*
X128564514Y-77352153D01*
X128569134Y-77353806D01*
X128573570Y-77355904D01*
X128577779Y-77358427D01*
X128581720Y-77361349D01*
X128585355Y-77364645D01*
X128588651Y-77368280D01*
X128591573Y-77372221D01*
X128594096Y-77376430D01*
X128596194Y-77380866D01*
X128597847Y-77385486D01*
X128599039Y-77390245D01*
X128599759Y-77395099D01*
X128600000Y-77400000D01*
X128600000Y-77500000D01*
X128599759Y-77504901D01*
X128599039Y-77509755D01*
X128597847Y-77514514D01*
X128596194Y-77519134D01*
X128594096Y-77523570D01*
X128591573Y-77527779D01*
X128588651Y-77531720D01*
X128585355Y-77535355D01*
X128581720Y-77538651D01*
X128577779Y-77541573D01*
X128573570Y-77544096D01*
X128569134Y-77546194D01*
X128564514Y-77547847D01*
X128559755Y-77549039D01*
X128554901Y-77549759D01*
X128550000Y-77550000D01*
X128450000Y-77550000D01*
X128445099Y-77549759D01*
X128440245Y-77549039D01*
X128435486Y-77547847D01*
X128430866Y-77546194D01*
X128426430Y-77544096D01*
X128422221Y-77541573D01*
X128418280Y-77538651D01*
X128414645Y-77535355D01*
X128411349Y-77531720D01*
X128408427Y-77527779D01*
X128405904Y-77523570D01*
X128403806Y-77519134D01*
X128402153Y-77514514D01*
X128400961Y-77509755D01*
X128400241Y-77504901D01*
X128400000Y-77500000D01*
X128400000Y-77400000D01*
X128400241Y-77395099D01*
X128400961Y-77390245D01*
X128402153Y-77385486D01*
X128403806Y-77380866D01*
X128405904Y-77376430D01*
X128408427Y-77372221D01*
X128411349Y-77368280D01*
X128414645Y-77364645D01*
X128418280Y-77361349D01*
X128422221Y-77358427D01*
X128426430Y-77355904D01*
X128430866Y-77353806D01*
X128435486Y-77352153D01*
X128440245Y-77350961D01*
X128445099Y-77350241D01*
X128450000Y-77350000D01*
X128550000Y-77350000D01*
X128554901Y-77350241D01*
X128554901Y-77350241D01*
G37*
D17*
G04 #@! TD*
G04 #@! TO.P,D2,1*
G04 #@! TO.N,GND*
X128500000Y-77450000D03*
D14*
G04 #@! TO.N,/D+*
G04 #@! TO.C,D2*
G36*
X128854901Y-77690241D02*
X128859755Y-77690961D01*
X128864514Y-77692153D01*
X128869134Y-77693806D01*
X128873570Y-77695904D01*
X128877779Y-77698427D01*
X128881720Y-77701349D01*
X128885355Y-77704645D01*
X128888651Y-77708280D01*
X128891573Y-77712221D01*
X128894096Y-77716430D01*
X128896194Y-77720866D01*
X128897847Y-77725486D01*
X128899039Y-77730245D01*
X128899759Y-77735099D01*
X128900000Y-77740000D01*
X128900000Y-77840000D01*
X128899759Y-77844901D01*
X128899039Y-77849755D01*
X128897847Y-77854514D01*
X128896194Y-77859134D01*
X128894096Y-77863570D01*
X128891573Y-77867779D01*
X128888651Y-77871720D01*
X128885355Y-77875355D01*
X128881720Y-77878651D01*
X128877779Y-77881573D01*
X128873570Y-77884096D01*
X128869134Y-77886194D01*
X128864514Y-77887847D01*
X128859755Y-77889039D01*
X128854901Y-77889759D01*
X128850000Y-77890000D01*
X128750000Y-77890000D01*
X128745099Y-77889759D01*
X128740245Y-77889039D01*
X128735486Y-77887847D01*
X128730866Y-77886194D01*
X128726430Y-77884096D01*
X128722221Y-77881573D01*
X128718280Y-77878651D01*
X128714645Y-77875355D01*
X128711349Y-77871720D01*
X128708427Y-77867779D01*
X128705904Y-77863570D01*
X128703806Y-77859134D01*
X128702153Y-77854514D01*
X128700961Y-77849755D01*
X128700241Y-77844901D01*
X128700000Y-77840000D01*
X128700000Y-77740000D01*
X128700241Y-77735099D01*
X128700961Y-77730245D01*
X128702153Y-77725486D01*
X128703806Y-77720866D01*
X128705904Y-77716430D01*
X128708427Y-77712221D01*
X128711349Y-77708280D01*
X128714645Y-77704645D01*
X128718280Y-77701349D01*
X128722221Y-77698427D01*
X128726430Y-77695904D01*
X128730866Y-77693806D01*
X128735486Y-77692153D01*
X128740245Y-77690961D01*
X128745099Y-77690241D01*
X128750000Y-77690000D01*
X128850000Y-77690000D01*
X128854901Y-77690241D01*
X128854901Y-77690241D01*
G37*
D17*
G04 #@! TD*
G04 #@! TO.P,D2,2*
G04 #@! TO.N,/D+*
X128800000Y-77790000D03*
D14*
G04 #@! TO.N,/D-*
G04 #@! TO.C,D2*
G36*
X128854901Y-77010241D02*
X128859755Y-77010961D01*
X128864514Y-77012153D01*
X128869134Y-77013806D01*
X128873570Y-77015904D01*
X128877779Y-77018427D01*
X128881720Y-77021349D01*
X128885355Y-77024645D01*
X128888651Y-77028280D01*
X128891573Y-77032221D01*
X128894096Y-77036430D01*
X128896194Y-77040866D01*
X128897847Y-77045486D01*
X128899039Y-77050245D01*
X128899759Y-77055099D01*
X128900000Y-77060000D01*
X128900000Y-77160000D01*
X128899759Y-77164901D01*
X128899039Y-77169755D01*
X128897847Y-77174514D01*
X128896194Y-77179134D01*
X128894096Y-77183570D01*
X128891573Y-77187779D01*
X128888651Y-77191720D01*
X128885355Y-77195355D01*
X128881720Y-77198651D01*
X128877779Y-77201573D01*
X128873570Y-77204096D01*
X128869134Y-77206194D01*
X128864514Y-77207847D01*
X128859755Y-77209039D01*
X128854901Y-77209759D01*
X128850000Y-77210000D01*
X128750000Y-77210000D01*
X128745099Y-77209759D01*
X128740245Y-77209039D01*
X128735486Y-77207847D01*
X128730866Y-77206194D01*
X128726430Y-77204096D01*
X128722221Y-77201573D01*
X128718280Y-77198651D01*
X128714645Y-77195355D01*
X128711349Y-77191720D01*
X128708427Y-77187779D01*
X128705904Y-77183570D01*
X128703806Y-77179134D01*
X128702153Y-77174514D01*
X128700961Y-77169755D01*
X128700241Y-77164901D01*
X128700000Y-77160000D01*
X128700000Y-77060000D01*
X128700241Y-77055099D01*
X128700961Y-77050245D01*
X128702153Y-77045486D01*
X128703806Y-77040866D01*
X128705904Y-77036430D01*
X128708427Y-77032221D01*
X128711349Y-77028280D01*
X128714645Y-77024645D01*
X128718280Y-77021349D01*
X128722221Y-77018427D01*
X128726430Y-77015904D01*
X128730866Y-77013806D01*
X128735486Y-77012153D01*
X128740245Y-77010961D01*
X128745099Y-77010241D01*
X128750000Y-77010000D01*
X128850000Y-77010000D01*
X128854901Y-77010241D01*
X128854901Y-77010241D01*
G37*
D17*
G04 #@! TD*
G04 #@! TO.P,D2,3*
G04 #@! TO.N,/D-*
X128800000Y-77110000D03*
D18*
G04 #@! TO.P,D3,1*
G04 #@! TO.N,+5V*
X119000000Y-66150000D03*
G04 #@! TO.P,D3,2*
G04 #@! TO.N,Net-(D3-Pad2)*
X122100000Y-66150000D03*
G04 #@! TD*
D14*
G04 #@! TO.N,GND*
G04 #@! TO.C,D4*
G36*
X126405142Y-60601174D02*
X126428803Y-60604684D01*
X126452007Y-60610496D01*
X126474529Y-60618554D01*
X126496153Y-60628782D01*
X126516670Y-60641079D01*
X126535883Y-60655329D01*
X126553607Y-60671393D01*
X126569671Y-60689117D01*
X126583921Y-60708330D01*
X126596218Y-60728847D01*
X126606446Y-60750471D01*
X126614504Y-60772993D01*
X126620316Y-60796197D01*
X126623826Y-60819858D01*
X126625000Y-60843750D01*
X126625000Y-61756250D01*
X126623826Y-61780142D01*
X126620316Y-61803803D01*
X126614504Y-61827007D01*
X126606446Y-61849529D01*
X126596218Y-61871153D01*
X126583921Y-61891670D01*
X126569671Y-61910883D01*
X126553607Y-61928607D01*
X126535883Y-61944671D01*
X126516670Y-61958921D01*
X126496153Y-61971218D01*
X126474529Y-61981446D01*
X126452007Y-61989504D01*
X126428803Y-61995316D01*
X126405142Y-61998826D01*
X126381250Y-62000000D01*
X125893750Y-62000000D01*
X125869858Y-61998826D01*
X125846197Y-61995316D01*
X125822993Y-61989504D01*
X125800471Y-61981446D01*
X125778847Y-61971218D01*
X125758330Y-61958921D01*
X125739117Y-61944671D01*
X125721393Y-61928607D01*
X125705329Y-61910883D01*
X125691079Y-61891670D01*
X125678782Y-61871153D01*
X125668554Y-61849529D01*
X125660496Y-61827007D01*
X125654684Y-61803803D01*
X125651174Y-61780142D01*
X125650000Y-61756250D01*
X125650000Y-60843750D01*
X125651174Y-60819858D01*
X125654684Y-60796197D01*
X125660496Y-60772993D01*
X125668554Y-60750471D01*
X125678782Y-60728847D01*
X125691079Y-60708330D01*
X125705329Y-60689117D01*
X125721393Y-60671393D01*
X125739117Y-60655329D01*
X125758330Y-60641079D01*
X125778847Y-60628782D01*
X125800471Y-60618554D01*
X125822993Y-60610496D01*
X125846197Y-60604684D01*
X125869858Y-60601174D01*
X125893750Y-60600000D01*
X126381250Y-60600000D01*
X126405142Y-60601174D01*
X126405142Y-60601174D01*
G37*
D19*
G04 #@! TD*
G04 #@! TO.P,D4,1*
G04 #@! TO.N,GND*
X126137500Y-61300000D03*
D14*
G04 #@! TO.N,Net-(D4-Pad2)*
G04 #@! TO.C,D4*
G36*
X124530142Y-60601174D02*
X124553803Y-60604684D01*
X124577007Y-60610496D01*
X124599529Y-60618554D01*
X124621153Y-60628782D01*
X124641670Y-60641079D01*
X124660883Y-60655329D01*
X124678607Y-60671393D01*
X124694671Y-60689117D01*
X124708921Y-60708330D01*
X124721218Y-60728847D01*
X124731446Y-60750471D01*
X124739504Y-60772993D01*
X124745316Y-60796197D01*
X124748826Y-60819858D01*
X124750000Y-60843750D01*
X124750000Y-61756250D01*
X124748826Y-61780142D01*
X124745316Y-61803803D01*
X124739504Y-61827007D01*
X124731446Y-61849529D01*
X124721218Y-61871153D01*
X124708921Y-61891670D01*
X124694671Y-61910883D01*
X124678607Y-61928607D01*
X124660883Y-61944671D01*
X124641670Y-61958921D01*
X124621153Y-61971218D01*
X124599529Y-61981446D01*
X124577007Y-61989504D01*
X124553803Y-61995316D01*
X124530142Y-61998826D01*
X124506250Y-62000000D01*
X124018750Y-62000000D01*
X123994858Y-61998826D01*
X123971197Y-61995316D01*
X123947993Y-61989504D01*
X123925471Y-61981446D01*
X123903847Y-61971218D01*
X123883330Y-61958921D01*
X123864117Y-61944671D01*
X123846393Y-61928607D01*
X123830329Y-61910883D01*
X123816079Y-61891670D01*
X123803782Y-61871153D01*
X123793554Y-61849529D01*
X123785496Y-61827007D01*
X123779684Y-61803803D01*
X123776174Y-61780142D01*
X123775000Y-61756250D01*
X123775000Y-60843750D01*
X123776174Y-60819858D01*
X123779684Y-60796197D01*
X123785496Y-60772993D01*
X123793554Y-60750471D01*
X123803782Y-60728847D01*
X123816079Y-60708330D01*
X123830329Y-60689117D01*
X123846393Y-60671393D01*
X123864117Y-60655329D01*
X123883330Y-60641079D01*
X123903847Y-60628782D01*
X123925471Y-60618554D01*
X123947993Y-60610496D01*
X123971197Y-60604684D01*
X123994858Y-60601174D01*
X124018750Y-60600000D01*
X124506250Y-60600000D01*
X124530142Y-60601174D01*
X124530142Y-60601174D01*
G37*
D19*
G04 #@! TD*
G04 #@! TO.P,D4,2*
G04 #@! TO.N,Net-(D4-Pad2)*
X124262500Y-61300000D03*
D14*
G04 #@! TO.N,GND*
G04 #@! TO.C,D5*
G36*
X126405142Y-57551174D02*
X126428803Y-57554684D01*
X126452007Y-57560496D01*
X126474529Y-57568554D01*
X126496153Y-57578782D01*
X126516670Y-57591079D01*
X126535883Y-57605329D01*
X126553607Y-57621393D01*
X126569671Y-57639117D01*
X126583921Y-57658330D01*
X126596218Y-57678847D01*
X126606446Y-57700471D01*
X126614504Y-57722993D01*
X126620316Y-57746197D01*
X126623826Y-57769858D01*
X126625000Y-57793750D01*
X126625000Y-58706250D01*
X126623826Y-58730142D01*
X126620316Y-58753803D01*
X126614504Y-58777007D01*
X126606446Y-58799529D01*
X126596218Y-58821153D01*
X126583921Y-58841670D01*
X126569671Y-58860883D01*
X126553607Y-58878607D01*
X126535883Y-58894671D01*
X126516670Y-58908921D01*
X126496153Y-58921218D01*
X126474529Y-58931446D01*
X126452007Y-58939504D01*
X126428803Y-58945316D01*
X126405142Y-58948826D01*
X126381250Y-58950000D01*
X125893750Y-58950000D01*
X125869858Y-58948826D01*
X125846197Y-58945316D01*
X125822993Y-58939504D01*
X125800471Y-58931446D01*
X125778847Y-58921218D01*
X125758330Y-58908921D01*
X125739117Y-58894671D01*
X125721393Y-58878607D01*
X125705329Y-58860883D01*
X125691079Y-58841670D01*
X125678782Y-58821153D01*
X125668554Y-58799529D01*
X125660496Y-58777007D01*
X125654684Y-58753803D01*
X125651174Y-58730142D01*
X125650000Y-58706250D01*
X125650000Y-57793750D01*
X125651174Y-57769858D01*
X125654684Y-57746197D01*
X125660496Y-57722993D01*
X125668554Y-57700471D01*
X125678782Y-57678847D01*
X125691079Y-57658330D01*
X125705329Y-57639117D01*
X125721393Y-57621393D01*
X125739117Y-57605329D01*
X125758330Y-57591079D01*
X125778847Y-57578782D01*
X125800471Y-57568554D01*
X125822993Y-57560496D01*
X125846197Y-57554684D01*
X125869858Y-57551174D01*
X125893750Y-57550000D01*
X126381250Y-57550000D01*
X126405142Y-57551174D01*
X126405142Y-57551174D01*
G37*
D19*
G04 #@! TD*
G04 #@! TO.P,D5,1*
G04 #@! TO.N,GND*
X126137500Y-58250000D03*
D14*
G04 #@! TO.N,Net-(D5-Pad2)*
G04 #@! TO.C,D5*
G36*
X124530142Y-57551174D02*
X124553803Y-57554684D01*
X124577007Y-57560496D01*
X124599529Y-57568554D01*
X124621153Y-57578782D01*
X124641670Y-57591079D01*
X124660883Y-57605329D01*
X124678607Y-57621393D01*
X124694671Y-57639117D01*
X124708921Y-57658330D01*
X124721218Y-57678847D01*
X124731446Y-57700471D01*
X124739504Y-57722993D01*
X124745316Y-57746197D01*
X124748826Y-57769858D01*
X124750000Y-57793750D01*
X124750000Y-58706250D01*
X124748826Y-58730142D01*
X124745316Y-58753803D01*
X124739504Y-58777007D01*
X124731446Y-58799529D01*
X124721218Y-58821153D01*
X124708921Y-58841670D01*
X124694671Y-58860883D01*
X124678607Y-58878607D01*
X124660883Y-58894671D01*
X124641670Y-58908921D01*
X124621153Y-58921218D01*
X124599529Y-58931446D01*
X124577007Y-58939504D01*
X124553803Y-58945316D01*
X124530142Y-58948826D01*
X124506250Y-58950000D01*
X124018750Y-58950000D01*
X123994858Y-58948826D01*
X123971197Y-58945316D01*
X123947993Y-58939504D01*
X123925471Y-58931446D01*
X123903847Y-58921218D01*
X123883330Y-58908921D01*
X123864117Y-58894671D01*
X123846393Y-58878607D01*
X123830329Y-58860883D01*
X123816079Y-58841670D01*
X123803782Y-58821153D01*
X123793554Y-58799529D01*
X123785496Y-58777007D01*
X123779684Y-58753803D01*
X123776174Y-58730142D01*
X123775000Y-58706250D01*
X123775000Y-57793750D01*
X123776174Y-57769858D01*
X123779684Y-57746197D01*
X123785496Y-57722993D01*
X123793554Y-57700471D01*
X123803782Y-57678847D01*
X123816079Y-57658330D01*
X123830329Y-57639117D01*
X123846393Y-57621393D01*
X123864117Y-57605329D01*
X123883330Y-57591079D01*
X123903847Y-57578782D01*
X123925471Y-57568554D01*
X123947993Y-57560496D01*
X123971197Y-57554684D01*
X123994858Y-57551174D01*
X124018750Y-57550000D01*
X124506250Y-57550000D01*
X124530142Y-57551174D01*
X124530142Y-57551174D01*
G37*
D19*
G04 #@! TD*
G04 #@! TO.P,D5,2*
G04 #@! TO.N,Net-(D5-Pad2)*
X124262500Y-58250000D03*
D14*
G04 #@! TO.N,/RXLED*
G04 #@! TO.C,D6*
G36*
X126405142Y-71476174D02*
X126428803Y-71479684D01*
X126452007Y-71485496D01*
X126474529Y-71493554D01*
X126496153Y-71503782D01*
X126516670Y-71516079D01*
X126535883Y-71530329D01*
X126553607Y-71546393D01*
X126569671Y-71564117D01*
X126583921Y-71583330D01*
X126596218Y-71603847D01*
X126606446Y-71625471D01*
X126614504Y-71647993D01*
X126620316Y-71671197D01*
X126623826Y-71694858D01*
X126625000Y-71718750D01*
X126625000Y-72631250D01*
X126623826Y-72655142D01*
X126620316Y-72678803D01*
X126614504Y-72702007D01*
X126606446Y-72724529D01*
X126596218Y-72746153D01*
X126583921Y-72766670D01*
X126569671Y-72785883D01*
X126553607Y-72803607D01*
X126535883Y-72819671D01*
X126516670Y-72833921D01*
X126496153Y-72846218D01*
X126474529Y-72856446D01*
X126452007Y-72864504D01*
X126428803Y-72870316D01*
X126405142Y-72873826D01*
X126381250Y-72875000D01*
X125893750Y-72875000D01*
X125869858Y-72873826D01*
X125846197Y-72870316D01*
X125822993Y-72864504D01*
X125800471Y-72856446D01*
X125778847Y-72846218D01*
X125758330Y-72833921D01*
X125739117Y-72819671D01*
X125721393Y-72803607D01*
X125705329Y-72785883D01*
X125691079Y-72766670D01*
X125678782Y-72746153D01*
X125668554Y-72724529D01*
X125660496Y-72702007D01*
X125654684Y-72678803D01*
X125651174Y-72655142D01*
X125650000Y-72631250D01*
X125650000Y-71718750D01*
X125651174Y-71694858D01*
X125654684Y-71671197D01*
X125660496Y-71647993D01*
X125668554Y-71625471D01*
X125678782Y-71603847D01*
X125691079Y-71583330D01*
X125705329Y-71564117D01*
X125721393Y-71546393D01*
X125739117Y-71530329D01*
X125758330Y-71516079D01*
X125778847Y-71503782D01*
X125800471Y-71493554D01*
X125822993Y-71485496D01*
X125846197Y-71479684D01*
X125869858Y-71476174D01*
X125893750Y-71475000D01*
X126381250Y-71475000D01*
X126405142Y-71476174D01*
X126405142Y-71476174D01*
G37*
D19*
G04 #@! TD*
G04 #@! TO.P,D6,1*
G04 #@! TO.N,/RXLED*
X126137500Y-72175000D03*
D14*
G04 #@! TO.N,Net-(D6-Pad2)*
G04 #@! TO.C,D6*
G36*
X124530142Y-71476174D02*
X124553803Y-71479684D01*
X124577007Y-71485496D01*
X124599529Y-71493554D01*
X124621153Y-71503782D01*
X124641670Y-71516079D01*
X124660883Y-71530329D01*
X124678607Y-71546393D01*
X124694671Y-71564117D01*
X124708921Y-71583330D01*
X124721218Y-71603847D01*
X124731446Y-71625471D01*
X124739504Y-71647993D01*
X124745316Y-71671197D01*
X124748826Y-71694858D01*
X124750000Y-71718750D01*
X124750000Y-72631250D01*
X124748826Y-72655142D01*
X124745316Y-72678803D01*
X124739504Y-72702007D01*
X124731446Y-72724529D01*
X124721218Y-72746153D01*
X124708921Y-72766670D01*
X124694671Y-72785883D01*
X124678607Y-72803607D01*
X124660883Y-72819671D01*
X124641670Y-72833921D01*
X124621153Y-72846218D01*
X124599529Y-72856446D01*
X124577007Y-72864504D01*
X124553803Y-72870316D01*
X124530142Y-72873826D01*
X124506250Y-72875000D01*
X124018750Y-72875000D01*
X123994858Y-72873826D01*
X123971197Y-72870316D01*
X123947993Y-72864504D01*
X123925471Y-72856446D01*
X123903847Y-72846218D01*
X123883330Y-72833921D01*
X123864117Y-72819671D01*
X123846393Y-72803607D01*
X123830329Y-72785883D01*
X123816079Y-72766670D01*
X123803782Y-72746153D01*
X123793554Y-72724529D01*
X123785496Y-72702007D01*
X123779684Y-72678803D01*
X123776174Y-72655142D01*
X123775000Y-72631250D01*
X123775000Y-71718750D01*
X123776174Y-71694858D01*
X123779684Y-71671197D01*
X123785496Y-71647993D01*
X123793554Y-71625471D01*
X123803782Y-71603847D01*
X123816079Y-71583330D01*
X123830329Y-71564117D01*
X123846393Y-71546393D01*
X123864117Y-71530329D01*
X123883330Y-71516079D01*
X123903847Y-71503782D01*
X123925471Y-71493554D01*
X123947993Y-71485496D01*
X123971197Y-71479684D01*
X123994858Y-71476174D01*
X124018750Y-71475000D01*
X124506250Y-71475000D01*
X124530142Y-71476174D01*
X124530142Y-71476174D01*
G37*
D19*
G04 #@! TD*
G04 #@! TO.P,D6,2*
G04 #@! TO.N,Net-(D6-Pad2)*
X124262500Y-72175000D03*
D14*
G04 #@! TO.N,/TXLED*
G04 #@! TO.C,D7*
G36*
X126405142Y-82001174D02*
X126428803Y-82004684D01*
X126452007Y-82010496D01*
X126474529Y-82018554D01*
X126496153Y-82028782D01*
X126516670Y-82041079D01*
X126535883Y-82055329D01*
X126553607Y-82071393D01*
X126569671Y-82089117D01*
X126583921Y-82108330D01*
X126596218Y-82128847D01*
X126606446Y-82150471D01*
X126614504Y-82172993D01*
X126620316Y-82196197D01*
X126623826Y-82219858D01*
X126625000Y-82243750D01*
X126625000Y-83156250D01*
X126623826Y-83180142D01*
X126620316Y-83203803D01*
X126614504Y-83227007D01*
X126606446Y-83249529D01*
X126596218Y-83271153D01*
X126583921Y-83291670D01*
X126569671Y-83310883D01*
X126553607Y-83328607D01*
X126535883Y-83344671D01*
X126516670Y-83358921D01*
X126496153Y-83371218D01*
X126474529Y-83381446D01*
X126452007Y-83389504D01*
X126428803Y-83395316D01*
X126405142Y-83398826D01*
X126381250Y-83400000D01*
X125893750Y-83400000D01*
X125869858Y-83398826D01*
X125846197Y-83395316D01*
X125822993Y-83389504D01*
X125800471Y-83381446D01*
X125778847Y-83371218D01*
X125758330Y-83358921D01*
X125739117Y-83344671D01*
X125721393Y-83328607D01*
X125705329Y-83310883D01*
X125691079Y-83291670D01*
X125678782Y-83271153D01*
X125668554Y-83249529D01*
X125660496Y-83227007D01*
X125654684Y-83203803D01*
X125651174Y-83180142D01*
X125650000Y-83156250D01*
X125650000Y-82243750D01*
X125651174Y-82219858D01*
X125654684Y-82196197D01*
X125660496Y-82172993D01*
X125668554Y-82150471D01*
X125678782Y-82128847D01*
X125691079Y-82108330D01*
X125705329Y-82089117D01*
X125721393Y-82071393D01*
X125739117Y-82055329D01*
X125758330Y-82041079D01*
X125778847Y-82028782D01*
X125800471Y-82018554D01*
X125822993Y-82010496D01*
X125846197Y-82004684D01*
X125869858Y-82001174D01*
X125893750Y-82000000D01*
X126381250Y-82000000D01*
X126405142Y-82001174D01*
X126405142Y-82001174D01*
G37*
D19*
G04 #@! TD*
G04 #@! TO.P,D7,1*
G04 #@! TO.N,/TXLED*
X126137500Y-82700000D03*
D14*
G04 #@! TO.N,Net-(D7-Pad2)*
G04 #@! TO.C,D7*
G36*
X124530142Y-82001174D02*
X124553803Y-82004684D01*
X124577007Y-82010496D01*
X124599529Y-82018554D01*
X124621153Y-82028782D01*
X124641670Y-82041079D01*
X124660883Y-82055329D01*
X124678607Y-82071393D01*
X124694671Y-82089117D01*
X124708921Y-82108330D01*
X124721218Y-82128847D01*
X124731446Y-82150471D01*
X124739504Y-82172993D01*
X124745316Y-82196197D01*
X124748826Y-82219858D01*
X124750000Y-82243750D01*
X124750000Y-83156250D01*
X124748826Y-83180142D01*
X124745316Y-83203803D01*
X124739504Y-83227007D01*
X124731446Y-83249529D01*
X124721218Y-83271153D01*
X124708921Y-83291670D01*
X124694671Y-83310883D01*
X124678607Y-83328607D01*
X124660883Y-83344671D01*
X124641670Y-83358921D01*
X124621153Y-83371218D01*
X124599529Y-83381446D01*
X124577007Y-83389504D01*
X124553803Y-83395316D01*
X124530142Y-83398826D01*
X124506250Y-83400000D01*
X124018750Y-83400000D01*
X123994858Y-83398826D01*
X123971197Y-83395316D01*
X123947993Y-83389504D01*
X123925471Y-83381446D01*
X123903847Y-83371218D01*
X123883330Y-83358921D01*
X123864117Y-83344671D01*
X123846393Y-83328607D01*
X123830329Y-83310883D01*
X123816079Y-83291670D01*
X123803782Y-83271153D01*
X123793554Y-83249529D01*
X123785496Y-83227007D01*
X123779684Y-83203803D01*
X123776174Y-83180142D01*
X123775000Y-83156250D01*
X123775000Y-82243750D01*
X123776174Y-82219858D01*
X123779684Y-82196197D01*
X123785496Y-82172993D01*
X123793554Y-82150471D01*
X123803782Y-82128847D01*
X123816079Y-82108330D01*
X123830329Y-82089117D01*
X123846393Y-82071393D01*
X123864117Y-82055329D01*
X123883330Y-82041079D01*
X123903847Y-82028782D01*
X123925471Y-82018554D01*
X123947993Y-82010496D01*
X123971197Y-82004684D01*
X123994858Y-82001174D01*
X124018750Y-82000000D01*
X124506250Y-82000000D01*
X124530142Y-82001174D01*
X124530142Y-82001174D01*
G37*
D19*
G04 #@! TD*
G04 #@! TO.P,D7,2*
G04 #@! TO.N,Net-(D7-Pad2)*
X124262500Y-82700000D03*
D14*
G04 #@! TO.N,Net-(D8-Pad2)*
G04 #@! TO.C,D8*
G36*
X110980142Y-72926174D02*
X111003803Y-72929684D01*
X111027007Y-72935496D01*
X111049529Y-72943554D01*
X111071153Y-72953782D01*
X111091670Y-72966079D01*
X111110883Y-72980329D01*
X111128607Y-72996393D01*
X111144671Y-73014117D01*
X111158921Y-73033330D01*
X111171218Y-73053847D01*
X111181446Y-73075471D01*
X111189504Y-73097993D01*
X111195316Y-73121197D01*
X111198826Y-73144858D01*
X111200000Y-73168750D01*
X111200000Y-73656250D01*
X111198826Y-73680142D01*
X111195316Y-73703803D01*
X111189504Y-73727007D01*
X111181446Y-73749529D01*
X111171218Y-73771153D01*
X111158921Y-73791670D01*
X111144671Y-73810883D01*
X111128607Y-73828607D01*
X111110883Y-73844671D01*
X111091670Y-73858921D01*
X111071153Y-73871218D01*
X111049529Y-73881446D01*
X111027007Y-73889504D01*
X111003803Y-73895316D01*
X110980142Y-73898826D01*
X110956250Y-73900000D01*
X110043750Y-73900000D01*
X110019858Y-73898826D01*
X109996197Y-73895316D01*
X109972993Y-73889504D01*
X109950471Y-73881446D01*
X109928847Y-73871218D01*
X109908330Y-73858921D01*
X109889117Y-73844671D01*
X109871393Y-73828607D01*
X109855329Y-73810883D01*
X109841079Y-73791670D01*
X109828782Y-73771153D01*
X109818554Y-73749529D01*
X109810496Y-73727007D01*
X109804684Y-73703803D01*
X109801174Y-73680142D01*
X109800000Y-73656250D01*
X109800000Y-73168750D01*
X109801174Y-73144858D01*
X109804684Y-73121197D01*
X109810496Y-73097993D01*
X109818554Y-73075471D01*
X109828782Y-73053847D01*
X109841079Y-73033330D01*
X109855329Y-73014117D01*
X109871393Y-72996393D01*
X109889117Y-72980329D01*
X109908330Y-72966079D01*
X109928847Y-72953782D01*
X109950471Y-72943554D01*
X109972993Y-72935496D01*
X109996197Y-72929684D01*
X110019858Y-72926174D01*
X110043750Y-72925000D01*
X110956250Y-72925000D01*
X110980142Y-72926174D01*
X110980142Y-72926174D01*
G37*
D19*
G04 #@! TD*
G04 #@! TO.P,D8,2*
G04 #@! TO.N,Net-(D8-Pad2)*
X110500000Y-73412500D03*
D14*
G04 #@! TO.N,/READ*
G04 #@! TO.C,D8*
G36*
X110980142Y-74801174D02*
X111003803Y-74804684D01*
X111027007Y-74810496D01*
X111049529Y-74818554D01*
X111071153Y-74828782D01*
X111091670Y-74841079D01*
X111110883Y-74855329D01*
X111128607Y-74871393D01*
X111144671Y-74889117D01*
X111158921Y-74908330D01*
X111171218Y-74928847D01*
X111181446Y-74950471D01*
X111189504Y-74972993D01*
X111195316Y-74996197D01*
X111198826Y-75019858D01*
X111200000Y-75043750D01*
X111200000Y-75531250D01*
X111198826Y-75555142D01*
X111195316Y-75578803D01*
X111189504Y-75602007D01*
X111181446Y-75624529D01*
X111171218Y-75646153D01*
X111158921Y-75666670D01*
X111144671Y-75685883D01*
X111128607Y-75703607D01*
X111110883Y-75719671D01*
X111091670Y-75733921D01*
X111071153Y-75746218D01*
X111049529Y-75756446D01*
X111027007Y-75764504D01*
X111003803Y-75770316D01*
X110980142Y-75773826D01*
X110956250Y-75775000D01*
X110043750Y-75775000D01*
X110019858Y-75773826D01*
X109996197Y-75770316D01*
X109972993Y-75764504D01*
X109950471Y-75756446D01*
X109928847Y-75746218D01*
X109908330Y-75733921D01*
X109889117Y-75719671D01*
X109871393Y-75703607D01*
X109855329Y-75685883D01*
X109841079Y-75666670D01*
X109828782Y-75646153D01*
X109818554Y-75624529D01*
X109810496Y-75602007D01*
X109804684Y-75578803D01*
X109801174Y-75555142D01*
X109800000Y-75531250D01*
X109800000Y-75043750D01*
X109801174Y-75019858D01*
X109804684Y-74996197D01*
X109810496Y-74972993D01*
X109818554Y-74950471D01*
X109828782Y-74928847D01*
X109841079Y-74908330D01*
X109855329Y-74889117D01*
X109871393Y-74871393D01*
X109889117Y-74855329D01*
X109908330Y-74841079D01*
X109928847Y-74828782D01*
X109950471Y-74818554D01*
X109972993Y-74810496D01*
X109996197Y-74804684D01*
X110019858Y-74801174D01*
X110043750Y-74800000D01*
X110956250Y-74800000D01*
X110980142Y-74801174D01*
X110980142Y-74801174D01*
G37*
D19*
G04 #@! TD*
G04 #@! TO.P,D8,1*
G04 #@! TO.N,/READ*
X110500000Y-75287500D03*
D20*
G04 #@! TO.P,H1,1*
G04 #@! TO.N,GND*
X95600000Y-52700000D03*
G04 #@! TD*
G04 #@! TO.P,H2,1*
G04 #@! TO.N,GND*
X95600000Y-89800000D03*
G04 #@! TD*
G04 #@! TO.P,H3,1*
G04 #@! TO.N,GND*
X121500000Y-89800000D03*
G04 #@! TD*
G04 #@! TO.P,H4,1*
G04 #@! TO.N,GND*
X121500000Y-52700000D03*
G04 #@! TD*
D12*
G04 #@! TO.P,H5,1*
G04 #@! TO.N,GND*
X131500000Y-52250000D03*
X136500000Y-52250000D03*
X136500000Y-59750000D03*
X131500000Y-59750000D03*
G04 #@! TD*
G04 #@! TO.P,H6,1*
G04 #@! TO.N,GND*
X131500000Y-90250000D03*
X136500000Y-90250000D03*
X136500000Y-82750000D03*
X131500000Y-82750000D03*
G04 #@! TD*
D10*
G04 #@! TO.P,J3,1*
G04 #@! TO.N,+3V3*
X112340000Y-58250000D03*
D13*
G04 #@! TO.P,J3,2*
G04 #@! TO.N,/SBWTDIO*
X109800000Y-58250000D03*
G04 #@! TO.P,J3,3*
G04 #@! TO.N,/SBWTCK*
X107260000Y-58250000D03*
G04 #@! TO.P,J3,4*
G04 #@! TO.N,GND*
X104720000Y-58250000D03*
G04 #@! TD*
D10*
G04 #@! TO.P,JP1,1*
G04 #@! TO.N,Net-(JP1-Pad1)*
X111065000Y-86250000D03*
D13*
G04 #@! TO.P,JP1,2*
G04 #@! TO.N,/RATE*
X108525000Y-86250000D03*
G04 #@! TO.P,JP1,3*
G04 #@! TO.N,Net-(JP1-Pad3)*
X105985000Y-86250000D03*
G04 #@! TD*
D14*
G04 #@! TO.N,/D-*
G04 #@! TO.C,R1*
G36*
X126277691Y-75976053D02*
X126298926Y-75979203D01*
X126319750Y-75984419D01*
X126339962Y-75991651D01*
X126359368Y-76000830D01*
X126377781Y-76011866D01*
X126395024Y-76024654D01*
X126410930Y-76039070D01*
X126425346Y-76054976D01*
X126438134Y-76072219D01*
X126449170Y-76090632D01*
X126458349Y-76110038D01*
X126465581Y-76130250D01*
X126470797Y-76151074D01*
X126473947Y-76172309D01*
X126475000Y-76193750D01*
X126475000Y-76706250D01*
X126473947Y-76727691D01*
X126470797Y-76748926D01*
X126465581Y-76769750D01*
X126458349Y-76789962D01*
X126449170Y-76809368D01*
X126438134Y-76827781D01*
X126425346Y-76845024D01*
X126410930Y-76860930D01*
X126395024Y-76875346D01*
X126377781Y-76888134D01*
X126359368Y-76899170D01*
X126339962Y-76908349D01*
X126319750Y-76915581D01*
X126298926Y-76920797D01*
X126277691Y-76923947D01*
X126256250Y-76925000D01*
X125818750Y-76925000D01*
X125797309Y-76923947D01*
X125776074Y-76920797D01*
X125755250Y-76915581D01*
X125735038Y-76908349D01*
X125715632Y-76899170D01*
X125697219Y-76888134D01*
X125679976Y-76875346D01*
X125664070Y-76860930D01*
X125649654Y-76845024D01*
X125636866Y-76827781D01*
X125625830Y-76809368D01*
X125616651Y-76789962D01*
X125609419Y-76769750D01*
X125604203Y-76748926D01*
X125601053Y-76727691D01*
X125600000Y-76706250D01*
X125600000Y-76193750D01*
X125601053Y-76172309D01*
X125604203Y-76151074D01*
X125609419Y-76130250D01*
X125616651Y-76110038D01*
X125625830Y-76090632D01*
X125636866Y-76072219D01*
X125649654Y-76054976D01*
X125664070Y-76039070D01*
X125679976Y-76024654D01*
X125697219Y-76011866D01*
X125715632Y-76000830D01*
X125735038Y-75991651D01*
X125755250Y-75984419D01*
X125776074Y-75979203D01*
X125797309Y-75976053D01*
X125818750Y-75975000D01*
X126256250Y-75975000D01*
X126277691Y-75976053D01*
X126277691Y-75976053D01*
G37*
D15*
G04 #@! TD*
G04 #@! TO.P,R1,2*
G04 #@! TO.N,/D-*
X126037500Y-76450000D03*
D14*
G04 #@! TO.N,/USBD_N*
G04 #@! TO.C,R1*
G36*
X124702691Y-75976053D02*
X124723926Y-75979203D01*
X124744750Y-75984419D01*
X124764962Y-75991651D01*
X124784368Y-76000830D01*
X124802781Y-76011866D01*
X124820024Y-76024654D01*
X124835930Y-76039070D01*
X124850346Y-76054976D01*
X124863134Y-76072219D01*
X124874170Y-76090632D01*
X124883349Y-76110038D01*
X124890581Y-76130250D01*
X124895797Y-76151074D01*
X124898947Y-76172309D01*
X124900000Y-76193750D01*
X124900000Y-76706250D01*
X124898947Y-76727691D01*
X124895797Y-76748926D01*
X124890581Y-76769750D01*
X124883349Y-76789962D01*
X124874170Y-76809368D01*
X124863134Y-76827781D01*
X124850346Y-76845024D01*
X124835930Y-76860930D01*
X124820024Y-76875346D01*
X124802781Y-76888134D01*
X124784368Y-76899170D01*
X124764962Y-76908349D01*
X124744750Y-76915581D01*
X124723926Y-76920797D01*
X124702691Y-76923947D01*
X124681250Y-76925000D01*
X124243750Y-76925000D01*
X124222309Y-76923947D01*
X124201074Y-76920797D01*
X124180250Y-76915581D01*
X124160038Y-76908349D01*
X124140632Y-76899170D01*
X124122219Y-76888134D01*
X124104976Y-76875346D01*
X124089070Y-76860930D01*
X124074654Y-76845024D01*
X124061866Y-76827781D01*
X124050830Y-76809368D01*
X124041651Y-76789962D01*
X124034419Y-76769750D01*
X124029203Y-76748926D01*
X124026053Y-76727691D01*
X124025000Y-76706250D01*
X124025000Y-76193750D01*
X124026053Y-76172309D01*
X124029203Y-76151074D01*
X124034419Y-76130250D01*
X124041651Y-76110038D01*
X124050830Y-76090632D01*
X124061866Y-76072219D01*
X124074654Y-76054976D01*
X124089070Y-76039070D01*
X124104976Y-76024654D01*
X124122219Y-76011866D01*
X124140632Y-76000830D01*
X124160038Y-75991651D01*
X124180250Y-75984419D01*
X124201074Y-75979203D01*
X124222309Y-75976053D01*
X124243750Y-75975000D01*
X124681250Y-75975000D01*
X124702691Y-75976053D01*
X124702691Y-75976053D01*
G37*
D15*
G04 #@! TD*
G04 #@! TO.P,R1,1*
G04 #@! TO.N,/USBD_N*
X124462500Y-76450000D03*
D14*
G04 #@! TO.N,/USBD_P*
G04 #@! TO.C,R2*
G36*
X124702691Y-77976053D02*
X124723926Y-77979203D01*
X124744750Y-77984419D01*
X124764962Y-77991651D01*
X124784368Y-78000830D01*
X124802781Y-78011866D01*
X124820024Y-78024654D01*
X124835930Y-78039070D01*
X124850346Y-78054976D01*
X124863134Y-78072219D01*
X124874170Y-78090632D01*
X124883349Y-78110038D01*
X124890581Y-78130250D01*
X124895797Y-78151074D01*
X124898947Y-78172309D01*
X124900000Y-78193750D01*
X124900000Y-78706250D01*
X124898947Y-78727691D01*
X124895797Y-78748926D01*
X124890581Y-78769750D01*
X124883349Y-78789962D01*
X124874170Y-78809368D01*
X124863134Y-78827781D01*
X124850346Y-78845024D01*
X124835930Y-78860930D01*
X124820024Y-78875346D01*
X124802781Y-78888134D01*
X124784368Y-78899170D01*
X124764962Y-78908349D01*
X124744750Y-78915581D01*
X124723926Y-78920797D01*
X124702691Y-78923947D01*
X124681250Y-78925000D01*
X124243750Y-78925000D01*
X124222309Y-78923947D01*
X124201074Y-78920797D01*
X124180250Y-78915581D01*
X124160038Y-78908349D01*
X124140632Y-78899170D01*
X124122219Y-78888134D01*
X124104976Y-78875346D01*
X124089070Y-78860930D01*
X124074654Y-78845024D01*
X124061866Y-78827781D01*
X124050830Y-78809368D01*
X124041651Y-78789962D01*
X124034419Y-78769750D01*
X124029203Y-78748926D01*
X124026053Y-78727691D01*
X124025000Y-78706250D01*
X124025000Y-78193750D01*
X124026053Y-78172309D01*
X124029203Y-78151074D01*
X124034419Y-78130250D01*
X124041651Y-78110038D01*
X124050830Y-78090632D01*
X124061866Y-78072219D01*
X124074654Y-78054976D01*
X124089070Y-78039070D01*
X124104976Y-78024654D01*
X124122219Y-78011866D01*
X124140632Y-78000830D01*
X124160038Y-77991651D01*
X124180250Y-77984419D01*
X124201074Y-77979203D01*
X124222309Y-77976053D01*
X124243750Y-77975000D01*
X124681250Y-77975000D01*
X124702691Y-77976053D01*
X124702691Y-77976053D01*
G37*
D15*
G04 #@! TD*
G04 #@! TO.P,R2,1*
G04 #@! TO.N,/USBD_P*
X124462500Y-78450000D03*
D14*
G04 #@! TO.N,/D+*
G04 #@! TO.C,R2*
G36*
X126277691Y-77976053D02*
X126298926Y-77979203D01*
X126319750Y-77984419D01*
X126339962Y-77991651D01*
X126359368Y-78000830D01*
X126377781Y-78011866D01*
X126395024Y-78024654D01*
X126410930Y-78039070D01*
X126425346Y-78054976D01*
X126438134Y-78072219D01*
X126449170Y-78090632D01*
X126458349Y-78110038D01*
X126465581Y-78130250D01*
X126470797Y-78151074D01*
X126473947Y-78172309D01*
X126475000Y-78193750D01*
X126475000Y-78706250D01*
X126473947Y-78727691D01*
X126470797Y-78748926D01*
X126465581Y-78769750D01*
X126458349Y-78789962D01*
X126449170Y-78809368D01*
X126438134Y-78827781D01*
X126425346Y-78845024D01*
X126410930Y-78860930D01*
X126395024Y-78875346D01*
X126377781Y-78888134D01*
X126359368Y-78899170D01*
X126339962Y-78908349D01*
X126319750Y-78915581D01*
X126298926Y-78920797D01*
X126277691Y-78923947D01*
X126256250Y-78925000D01*
X125818750Y-78925000D01*
X125797309Y-78923947D01*
X125776074Y-78920797D01*
X125755250Y-78915581D01*
X125735038Y-78908349D01*
X125715632Y-78899170D01*
X125697219Y-78888134D01*
X125679976Y-78875346D01*
X125664070Y-78860930D01*
X125649654Y-78845024D01*
X125636866Y-78827781D01*
X125625830Y-78809368D01*
X125616651Y-78789962D01*
X125609419Y-78769750D01*
X125604203Y-78748926D01*
X125601053Y-78727691D01*
X125600000Y-78706250D01*
X125600000Y-78193750D01*
X125601053Y-78172309D01*
X125604203Y-78151074D01*
X125609419Y-78130250D01*
X125616651Y-78110038D01*
X125625830Y-78090632D01*
X125636866Y-78072219D01*
X125649654Y-78054976D01*
X125664070Y-78039070D01*
X125679976Y-78024654D01*
X125697219Y-78011866D01*
X125715632Y-78000830D01*
X125735038Y-77991651D01*
X125755250Y-77984419D01*
X125776074Y-77979203D01*
X125797309Y-77976053D01*
X125818750Y-77975000D01*
X126256250Y-77975000D01*
X126277691Y-77976053D01*
X126277691Y-77976053D01*
G37*
D15*
G04 #@! TD*
G04 #@! TO.P,R2,2*
G04 #@! TO.N,/D+*
X126037500Y-78450000D03*
D14*
G04 #@! TO.N,+5V*
G04 #@! TO.C,R3*
G36*
X120952691Y-60826053D02*
X120973926Y-60829203D01*
X120994750Y-60834419D01*
X121014962Y-60841651D01*
X121034368Y-60850830D01*
X121052781Y-60861866D01*
X121070024Y-60874654D01*
X121085930Y-60889070D01*
X121100346Y-60904976D01*
X121113134Y-60922219D01*
X121124170Y-60940632D01*
X121133349Y-60960038D01*
X121140581Y-60980250D01*
X121145797Y-61001074D01*
X121148947Y-61022309D01*
X121150000Y-61043750D01*
X121150000Y-61556250D01*
X121148947Y-61577691D01*
X121145797Y-61598926D01*
X121140581Y-61619750D01*
X121133349Y-61639962D01*
X121124170Y-61659368D01*
X121113134Y-61677781D01*
X121100346Y-61695024D01*
X121085930Y-61710930D01*
X121070024Y-61725346D01*
X121052781Y-61738134D01*
X121034368Y-61749170D01*
X121014962Y-61758349D01*
X120994750Y-61765581D01*
X120973926Y-61770797D01*
X120952691Y-61773947D01*
X120931250Y-61775000D01*
X120493750Y-61775000D01*
X120472309Y-61773947D01*
X120451074Y-61770797D01*
X120430250Y-61765581D01*
X120410038Y-61758349D01*
X120390632Y-61749170D01*
X120372219Y-61738134D01*
X120354976Y-61725346D01*
X120339070Y-61710930D01*
X120324654Y-61695024D01*
X120311866Y-61677781D01*
X120300830Y-61659368D01*
X120291651Y-61639962D01*
X120284419Y-61619750D01*
X120279203Y-61598926D01*
X120276053Y-61577691D01*
X120275000Y-61556250D01*
X120275000Y-61043750D01*
X120276053Y-61022309D01*
X120279203Y-61001074D01*
X120284419Y-60980250D01*
X120291651Y-60960038D01*
X120300830Y-60940632D01*
X120311866Y-60922219D01*
X120324654Y-60904976D01*
X120339070Y-60889070D01*
X120354976Y-60874654D01*
X120372219Y-60861866D01*
X120390632Y-60850830D01*
X120410038Y-60841651D01*
X120430250Y-60834419D01*
X120451074Y-60829203D01*
X120472309Y-60826053D01*
X120493750Y-60825000D01*
X120931250Y-60825000D01*
X120952691Y-60826053D01*
X120952691Y-60826053D01*
G37*
D15*
G04 #@! TD*
G04 #@! TO.P,R3,1*
G04 #@! TO.N,+5V*
X120712500Y-61300000D03*
D14*
G04 #@! TO.N,Net-(D4-Pad2)*
G04 #@! TO.C,R3*
G36*
X122527691Y-60826053D02*
X122548926Y-60829203D01*
X122569750Y-60834419D01*
X122589962Y-60841651D01*
X122609368Y-60850830D01*
X122627781Y-60861866D01*
X122645024Y-60874654D01*
X122660930Y-60889070D01*
X122675346Y-60904976D01*
X122688134Y-60922219D01*
X122699170Y-60940632D01*
X122708349Y-60960038D01*
X122715581Y-60980250D01*
X122720797Y-61001074D01*
X122723947Y-61022309D01*
X122725000Y-61043750D01*
X122725000Y-61556250D01*
X122723947Y-61577691D01*
X122720797Y-61598926D01*
X122715581Y-61619750D01*
X122708349Y-61639962D01*
X122699170Y-61659368D01*
X122688134Y-61677781D01*
X122675346Y-61695024D01*
X122660930Y-61710930D01*
X122645024Y-61725346D01*
X122627781Y-61738134D01*
X122609368Y-61749170D01*
X122589962Y-61758349D01*
X122569750Y-61765581D01*
X122548926Y-61770797D01*
X122527691Y-61773947D01*
X122506250Y-61775000D01*
X122068750Y-61775000D01*
X122047309Y-61773947D01*
X122026074Y-61770797D01*
X122005250Y-61765581D01*
X121985038Y-61758349D01*
X121965632Y-61749170D01*
X121947219Y-61738134D01*
X121929976Y-61725346D01*
X121914070Y-61710930D01*
X121899654Y-61695024D01*
X121886866Y-61677781D01*
X121875830Y-61659368D01*
X121866651Y-61639962D01*
X121859419Y-61619750D01*
X121854203Y-61598926D01*
X121851053Y-61577691D01*
X121850000Y-61556250D01*
X121850000Y-61043750D01*
X121851053Y-61022309D01*
X121854203Y-61001074D01*
X121859419Y-60980250D01*
X121866651Y-60960038D01*
X121875830Y-60940632D01*
X121886866Y-60922219D01*
X121899654Y-60904976D01*
X121914070Y-60889070D01*
X121929976Y-60874654D01*
X121947219Y-60861866D01*
X121965632Y-60850830D01*
X121985038Y-60841651D01*
X122005250Y-60834419D01*
X122026074Y-60829203D01*
X122047309Y-60826053D01*
X122068750Y-60825000D01*
X122506250Y-60825000D01*
X122527691Y-60826053D01*
X122527691Y-60826053D01*
G37*
D15*
G04 #@! TD*
G04 #@! TO.P,R3,2*
G04 #@! TO.N,Net-(D4-Pad2)*
X122287500Y-61300000D03*
D14*
G04 #@! TO.N,Net-(D5-Pad2)*
G04 #@! TO.C,R4*
G36*
X122527691Y-57776053D02*
X122548926Y-57779203D01*
X122569750Y-57784419D01*
X122589962Y-57791651D01*
X122609368Y-57800830D01*
X122627781Y-57811866D01*
X122645024Y-57824654D01*
X122660930Y-57839070D01*
X122675346Y-57854976D01*
X122688134Y-57872219D01*
X122699170Y-57890632D01*
X122708349Y-57910038D01*
X122715581Y-57930250D01*
X122720797Y-57951074D01*
X122723947Y-57972309D01*
X122725000Y-57993750D01*
X122725000Y-58506250D01*
X122723947Y-58527691D01*
X122720797Y-58548926D01*
X122715581Y-58569750D01*
X122708349Y-58589962D01*
X122699170Y-58609368D01*
X122688134Y-58627781D01*
X122675346Y-58645024D01*
X122660930Y-58660930D01*
X122645024Y-58675346D01*
X122627781Y-58688134D01*
X122609368Y-58699170D01*
X122589962Y-58708349D01*
X122569750Y-58715581D01*
X122548926Y-58720797D01*
X122527691Y-58723947D01*
X122506250Y-58725000D01*
X122068750Y-58725000D01*
X122047309Y-58723947D01*
X122026074Y-58720797D01*
X122005250Y-58715581D01*
X121985038Y-58708349D01*
X121965632Y-58699170D01*
X121947219Y-58688134D01*
X121929976Y-58675346D01*
X121914070Y-58660930D01*
X121899654Y-58645024D01*
X121886866Y-58627781D01*
X121875830Y-58609368D01*
X121866651Y-58589962D01*
X121859419Y-58569750D01*
X121854203Y-58548926D01*
X121851053Y-58527691D01*
X121850000Y-58506250D01*
X121850000Y-57993750D01*
X121851053Y-57972309D01*
X121854203Y-57951074D01*
X121859419Y-57930250D01*
X121866651Y-57910038D01*
X121875830Y-57890632D01*
X121886866Y-57872219D01*
X121899654Y-57854976D01*
X121914070Y-57839070D01*
X121929976Y-57824654D01*
X121947219Y-57811866D01*
X121965632Y-57800830D01*
X121985038Y-57791651D01*
X122005250Y-57784419D01*
X122026074Y-57779203D01*
X122047309Y-57776053D01*
X122068750Y-57775000D01*
X122506250Y-57775000D01*
X122527691Y-57776053D01*
X122527691Y-57776053D01*
G37*
D15*
G04 #@! TD*
G04 #@! TO.P,R4,2*
G04 #@! TO.N,Net-(D5-Pad2)*
X122287500Y-58250000D03*
D14*
G04 #@! TO.N,+3V3*
G04 #@! TO.C,R4*
G36*
X120952691Y-57776053D02*
X120973926Y-57779203D01*
X120994750Y-57784419D01*
X121014962Y-57791651D01*
X121034368Y-57800830D01*
X121052781Y-57811866D01*
X121070024Y-57824654D01*
X121085930Y-57839070D01*
X121100346Y-57854976D01*
X121113134Y-57872219D01*
X121124170Y-57890632D01*
X121133349Y-57910038D01*
X121140581Y-57930250D01*
X121145797Y-57951074D01*
X121148947Y-57972309D01*
X121150000Y-57993750D01*
X121150000Y-58506250D01*
X121148947Y-58527691D01*
X121145797Y-58548926D01*
X121140581Y-58569750D01*
X121133349Y-58589962D01*
X121124170Y-58609368D01*
X121113134Y-58627781D01*
X121100346Y-58645024D01*
X121085930Y-58660930D01*
X121070024Y-58675346D01*
X121052781Y-58688134D01*
X121034368Y-58699170D01*
X121014962Y-58708349D01*
X120994750Y-58715581D01*
X120973926Y-58720797D01*
X120952691Y-58723947D01*
X120931250Y-58725000D01*
X120493750Y-58725000D01*
X120472309Y-58723947D01*
X120451074Y-58720797D01*
X120430250Y-58715581D01*
X120410038Y-58708349D01*
X120390632Y-58699170D01*
X120372219Y-58688134D01*
X120354976Y-58675346D01*
X120339070Y-58660930D01*
X120324654Y-58645024D01*
X120311866Y-58627781D01*
X120300830Y-58609368D01*
X120291651Y-58589962D01*
X120284419Y-58569750D01*
X120279203Y-58548926D01*
X120276053Y-58527691D01*
X120275000Y-58506250D01*
X120275000Y-57993750D01*
X120276053Y-57972309D01*
X120279203Y-57951074D01*
X120284419Y-57930250D01*
X120291651Y-57910038D01*
X120300830Y-57890632D01*
X120311866Y-57872219D01*
X120324654Y-57854976D01*
X120339070Y-57839070D01*
X120354976Y-57824654D01*
X120372219Y-57811866D01*
X120390632Y-57800830D01*
X120410038Y-57791651D01*
X120430250Y-57784419D01*
X120451074Y-57779203D01*
X120472309Y-57776053D01*
X120493750Y-57775000D01*
X120931250Y-57775000D01*
X120952691Y-57776053D01*
X120952691Y-57776053D01*
G37*
D15*
G04 #@! TD*
G04 #@! TO.P,R4,1*
G04 #@! TO.N,+3V3*
X120712500Y-58250000D03*
D14*
G04 #@! TO.N,/VCCIO*
G04 #@! TO.C,R5*
G36*
X120952691Y-71701053D02*
X120973926Y-71704203D01*
X120994750Y-71709419D01*
X121014962Y-71716651D01*
X121034368Y-71725830D01*
X121052781Y-71736866D01*
X121070024Y-71749654D01*
X121085930Y-71764070D01*
X121100346Y-71779976D01*
X121113134Y-71797219D01*
X121124170Y-71815632D01*
X121133349Y-71835038D01*
X121140581Y-71855250D01*
X121145797Y-71876074D01*
X121148947Y-71897309D01*
X121150000Y-71918750D01*
X121150000Y-72431250D01*
X121148947Y-72452691D01*
X121145797Y-72473926D01*
X121140581Y-72494750D01*
X121133349Y-72514962D01*
X121124170Y-72534368D01*
X121113134Y-72552781D01*
X121100346Y-72570024D01*
X121085930Y-72585930D01*
X121070024Y-72600346D01*
X121052781Y-72613134D01*
X121034368Y-72624170D01*
X121014962Y-72633349D01*
X120994750Y-72640581D01*
X120973926Y-72645797D01*
X120952691Y-72648947D01*
X120931250Y-72650000D01*
X120493750Y-72650000D01*
X120472309Y-72648947D01*
X120451074Y-72645797D01*
X120430250Y-72640581D01*
X120410038Y-72633349D01*
X120390632Y-72624170D01*
X120372219Y-72613134D01*
X120354976Y-72600346D01*
X120339070Y-72585930D01*
X120324654Y-72570024D01*
X120311866Y-72552781D01*
X120300830Y-72534368D01*
X120291651Y-72514962D01*
X120284419Y-72494750D01*
X120279203Y-72473926D01*
X120276053Y-72452691D01*
X120275000Y-72431250D01*
X120275000Y-71918750D01*
X120276053Y-71897309D01*
X120279203Y-71876074D01*
X120284419Y-71855250D01*
X120291651Y-71835038D01*
X120300830Y-71815632D01*
X120311866Y-71797219D01*
X120324654Y-71779976D01*
X120339070Y-71764070D01*
X120354976Y-71749654D01*
X120372219Y-71736866D01*
X120390632Y-71725830D01*
X120410038Y-71716651D01*
X120430250Y-71709419D01*
X120451074Y-71704203D01*
X120472309Y-71701053D01*
X120493750Y-71700000D01*
X120931250Y-71700000D01*
X120952691Y-71701053D01*
X120952691Y-71701053D01*
G37*
D15*
G04 #@! TD*
G04 #@! TO.P,R5,1*
G04 #@! TO.N,/VCCIO*
X120712500Y-72175000D03*
D14*
G04 #@! TO.N,Net-(D6-Pad2)*
G04 #@! TO.C,R5*
G36*
X122527691Y-71701053D02*
X122548926Y-71704203D01*
X122569750Y-71709419D01*
X122589962Y-71716651D01*
X122609368Y-71725830D01*
X122627781Y-71736866D01*
X122645024Y-71749654D01*
X122660930Y-71764070D01*
X122675346Y-71779976D01*
X122688134Y-71797219D01*
X122699170Y-71815632D01*
X122708349Y-71835038D01*
X122715581Y-71855250D01*
X122720797Y-71876074D01*
X122723947Y-71897309D01*
X122725000Y-71918750D01*
X122725000Y-72431250D01*
X122723947Y-72452691D01*
X122720797Y-72473926D01*
X122715581Y-72494750D01*
X122708349Y-72514962D01*
X122699170Y-72534368D01*
X122688134Y-72552781D01*
X122675346Y-72570024D01*
X122660930Y-72585930D01*
X122645024Y-72600346D01*
X122627781Y-72613134D01*
X122609368Y-72624170D01*
X122589962Y-72633349D01*
X122569750Y-72640581D01*
X122548926Y-72645797D01*
X122527691Y-72648947D01*
X122506250Y-72650000D01*
X122068750Y-72650000D01*
X122047309Y-72648947D01*
X122026074Y-72645797D01*
X122005250Y-72640581D01*
X121985038Y-72633349D01*
X121965632Y-72624170D01*
X121947219Y-72613134D01*
X121929976Y-72600346D01*
X121914070Y-72585930D01*
X121899654Y-72570024D01*
X121886866Y-72552781D01*
X121875830Y-72534368D01*
X121866651Y-72514962D01*
X121859419Y-72494750D01*
X121854203Y-72473926D01*
X121851053Y-72452691D01*
X121850000Y-72431250D01*
X121850000Y-71918750D01*
X121851053Y-71897309D01*
X121854203Y-71876074D01*
X121859419Y-71855250D01*
X121866651Y-71835038D01*
X121875830Y-71815632D01*
X121886866Y-71797219D01*
X121899654Y-71779976D01*
X121914070Y-71764070D01*
X121929976Y-71749654D01*
X121947219Y-71736866D01*
X121965632Y-71725830D01*
X121985038Y-71716651D01*
X122005250Y-71709419D01*
X122026074Y-71704203D01*
X122047309Y-71701053D01*
X122068750Y-71700000D01*
X122506250Y-71700000D01*
X122527691Y-71701053D01*
X122527691Y-71701053D01*
G37*
D15*
G04 #@! TD*
G04 #@! TO.P,R5,2*
G04 #@! TO.N,Net-(D6-Pad2)*
X122287500Y-72175000D03*
D14*
G04 #@! TO.N,Net-(D7-Pad2)*
G04 #@! TO.C,R6*
G36*
X122502691Y-82226053D02*
X122523926Y-82229203D01*
X122544750Y-82234419D01*
X122564962Y-82241651D01*
X122584368Y-82250830D01*
X122602781Y-82261866D01*
X122620024Y-82274654D01*
X122635930Y-82289070D01*
X122650346Y-82304976D01*
X122663134Y-82322219D01*
X122674170Y-82340632D01*
X122683349Y-82360038D01*
X122690581Y-82380250D01*
X122695797Y-82401074D01*
X122698947Y-82422309D01*
X122700000Y-82443750D01*
X122700000Y-82956250D01*
X122698947Y-82977691D01*
X122695797Y-82998926D01*
X122690581Y-83019750D01*
X122683349Y-83039962D01*
X122674170Y-83059368D01*
X122663134Y-83077781D01*
X122650346Y-83095024D01*
X122635930Y-83110930D01*
X122620024Y-83125346D01*
X122602781Y-83138134D01*
X122584368Y-83149170D01*
X122564962Y-83158349D01*
X122544750Y-83165581D01*
X122523926Y-83170797D01*
X122502691Y-83173947D01*
X122481250Y-83175000D01*
X122043750Y-83175000D01*
X122022309Y-83173947D01*
X122001074Y-83170797D01*
X121980250Y-83165581D01*
X121960038Y-83158349D01*
X121940632Y-83149170D01*
X121922219Y-83138134D01*
X121904976Y-83125346D01*
X121889070Y-83110930D01*
X121874654Y-83095024D01*
X121861866Y-83077781D01*
X121850830Y-83059368D01*
X121841651Y-83039962D01*
X121834419Y-83019750D01*
X121829203Y-82998926D01*
X121826053Y-82977691D01*
X121825000Y-82956250D01*
X121825000Y-82443750D01*
X121826053Y-82422309D01*
X121829203Y-82401074D01*
X121834419Y-82380250D01*
X121841651Y-82360038D01*
X121850830Y-82340632D01*
X121861866Y-82322219D01*
X121874654Y-82304976D01*
X121889070Y-82289070D01*
X121904976Y-82274654D01*
X121922219Y-82261866D01*
X121940632Y-82250830D01*
X121960038Y-82241651D01*
X121980250Y-82234419D01*
X122001074Y-82229203D01*
X122022309Y-82226053D01*
X122043750Y-82225000D01*
X122481250Y-82225000D01*
X122502691Y-82226053D01*
X122502691Y-82226053D01*
G37*
D15*
G04 #@! TD*
G04 #@! TO.P,R6,2*
G04 #@! TO.N,Net-(D7-Pad2)*
X122262500Y-82700000D03*
D14*
G04 #@! TO.N,/VCCIO*
G04 #@! TO.C,R6*
G36*
X120927691Y-82226053D02*
X120948926Y-82229203D01*
X120969750Y-82234419D01*
X120989962Y-82241651D01*
X121009368Y-82250830D01*
X121027781Y-82261866D01*
X121045024Y-82274654D01*
X121060930Y-82289070D01*
X121075346Y-82304976D01*
X121088134Y-82322219D01*
X121099170Y-82340632D01*
X121108349Y-82360038D01*
X121115581Y-82380250D01*
X121120797Y-82401074D01*
X121123947Y-82422309D01*
X121125000Y-82443750D01*
X121125000Y-82956250D01*
X121123947Y-82977691D01*
X121120797Y-82998926D01*
X121115581Y-83019750D01*
X121108349Y-83039962D01*
X121099170Y-83059368D01*
X121088134Y-83077781D01*
X121075346Y-83095024D01*
X121060930Y-83110930D01*
X121045024Y-83125346D01*
X121027781Y-83138134D01*
X121009368Y-83149170D01*
X120989962Y-83158349D01*
X120969750Y-83165581D01*
X120948926Y-83170797D01*
X120927691Y-83173947D01*
X120906250Y-83175000D01*
X120468750Y-83175000D01*
X120447309Y-83173947D01*
X120426074Y-83170797D01*
X120405250Y-83165581D01*
X120385038Y-83158349D01*
X120365632Y-83149170D01*
X120347219Y-83138134D01*
X120329976Y-83125346D01*
X120314070Y-83110930D01*
X120299654Y-83095024D01*
X120286866Y-83077781D01*
X120275830Y-83059368D01*
X120266651Y-83039962D01*
X120259419Y-83019750D01*
X120254203Y-82998926D01*
X120251053Y-82977691D01*
X120250000Y-82956250D01*
X120250000Y-82443750D01*
X120251053Y-82422309D01*
X120254203Y-82401074D01*
X120259419Y-82380250D01*
X120266651Y-82360038D01*
X120275830Y-82340632D01*
X120286866Y-82322219D01*
X120299654Y-82304976D01*
X120314070Y-82289070D01*
X120329976Y-82274654D01*
X120347219Y-82261866D01*
X120365632Y-82250830D01*
X120385038Y-82241651D01*
X120405250Y-82234419D01*
X120426074Y-82229203D01*
X120447309Y-82226053D01*
X120468750Y-82225000D01*
X120906250Y-82225000D01*
X120927691Y-82226053D01*
X120927691Y-82226053D01*
G37*
D15*
G04 #@! TD*
G04 #@! TO.P,R6,1*
G04 #@! TO.N,/VCCIO*
X120687500Y-82700000D03*
D14*
G04 #@! TO.N,+3V3*
G04 #@! TO.C,R7*
G36*
X110777691Y-69426053D02*
X110798926Y-69429203D01*
X110819750Y-69434419D01*
X110839962Y-69441651D01*
X110859368Y-69450830D01*
X110877781Y-69461866D01*
X110895024Y-69474654D01*
X110910930Y-69489070D01*
X110925346Y-69504976D01*
X110938134Y-69522219D01*
X110949170Y-69540632D01*
X110958349Y-69560038D01*
X110965581Y-69580250D01*
X110970797Y-69601074D01*
X110973947Y-69622309D01*
X110975000Y-69643750D01*
X110975000Y-70081250D01*
X110973947Y-70102691D01*
X110970797Y-70123926D01*
X110965581Y-70144750D01*
X110958349Y-70164962D01*
X110949170Y-70184368D01*
X110938134Y-70202781D01*
X110925346Y-70220024D01*
X110910930Y-70235930D01*
X110895024Y-70250346D01*
X110877781Y-70263134D01*
X110859368Y-70274170D01*
X110839962Y-70283349D01*
X110819750Y-70290581D01*
X110798926Y-70295797D01*
X110777691Y-70298947D01*
X110756250Y-70300000D01*
X110243750Y-70300000D01*
X110222309Y-70298947D01*
X110201074Y-70295797D01*
X110180250Y-70290581D01*
X110160038Y-70283349D01*
X110140632Y-70274170D01*
X110122219Y-70263134D01*
X110104976Y-70250346D01*
X110089070Y-70235930D01*
X110074654Y-70220024D01*
X110061866Y-70202781D01*
X110050830Y-70184368D01*
X110041651Y-70164962D01*
X110034419Y-70144750D01*
X110029203Y-70123926D01*
X110026053Y-70102691D01*
X110025000Y-70081250D01*
X110025000Y-69643750D01*
X110026053Y-69622309D01*
X110029203Y-69601074D01*
X110034419Y-69580250D01*
X110041651Y-69560038D01*
X110050830Y-69540632D01*
X110061866Y-69522219D01*
X110074654Y-69504976D01*
X110089070Y-69489070D01*
X110104976Y-69474654D01*
X110122219Y-69461866D01*
X110140632Y-69450830D01*
X110160038Y-69441651D01*
X110180250Y-69434419D01*
X110201074Y-69429203D01*
X110222309Y-69426053D01*
X110243750Y-69425000D01*
X110756250Y-69425000D01*
X110777691Y-69426053D01*
X110777691Y-69426053D01*
G37*
D15*
G04 #@! TD*
G04 #@! TO.P,R7,1*
G04 #@! TO.N,+3V3*
X110500000Y-69862500D03*
D14*
G04 #@! TO.N,Net-(D8-Pad2)*
G04 #@! TO.C,R7*
G36*
X110777691Y-71001053D02*
X110798926Y-71004203D01*
X110819750Y-71009419D01*
X110839962Y-71016651D01*
X110859368Y-71025830D01*
X110877781Y-71036866D01*
X110895024Y-71049654D01*
X110910930Y-71064070D01*
X110925346Y-71079976D01*
X110938134Y-71097219D01*
X110949170Y-71115632D01*
X110958349Y-71135038D01*
X110965581Y-71155250D01*
X110970797Y-71176074D01*
X110973947Y-71197309D01*
X110975000Y-71218750D01*
X110975000Y-71656250D01*
X110973947Y-71677691D01*
X110970797Y-71698926D01*
X110965581Y-71719750D01*
X110958349Y-71739962D01*
X110949170Y-71759368D01*
X110938134Y-71777781D01*
X110925346Y-71795024D01*
X110910930Y-71810930D01*
X110895024Y-71825346D01*
X110877781Y-71838134D01*
X110859368Y-71849170D01*
X110839962Y-71858349D01*
X110819750Y-71865581D01*
X110798926Y-71870797D01*
X110777691Y-71873947D01*
X110756250Y-71875000D01*
X110243750Y-71875000D01*
X110222309Y-71873947D01*
X110201074Y-71870797D01*
X110180250Y-71865581D01*
X110160038Y-71858349D01*
X110140632Y-71849170D01*
X110122219Y-71838134D01*
X110104976Y-71825346D01*
X110089070Y-71810930D01*
X110074654Y-71795024D01*
X110061866Y-71777781D01*
X110050830Y-71759368D01*
X110041651Y-71739962D01*
X110034419Y-71719750D01*
X110029203Y-71698926D01*
X110026053Y-71677691D01*
X110025000Y-71656250D01*
X110025000Y-71218750D01*
X110026053Y-71197309D01*
X110029203Y-71176074D01*
X110034419Y-71155250D01*
X110041651Y-71135038D01*
X110050830Y-71115632D01*
X110061866Y-71097219D01*
X110074654Y-71079976D01*
X110089070Y-71064070D01*
X110104976Y-71049654D01*
X110122219Y-71036866D01*
X110140632Y-71025830D01*
X110160038Y-71016651D01*
X110180250Y-71009419D01*
X110201074Y-71004203D01*
X110222309Y-71001053D01*
X110243750Y-71000000D01*
X110756250Y-71000000D01*
X110777691Y-71001053D01*
X110777691Y-71001053D01*
G37*
D15*
G04 #@! TD*
G04 #@! TO.P,R7,2*
G04 #@! TO.N,Net-(D8-Pad2)*
X110500000Y-71437500D03*
D14*
G04 #@! TO.N,Net-(JP1-Pad1)*
G04 #@! TO.C,R8*
G36*
X110067691Y-82751053D02*
X110088926Y-82754203D01*
X110109750Y-82759419D01*
X110129962Y-82766651D01*
X110149368Y-82775830D01*
X110167781Y-82786866D01*
X110185024Y-82799654D01*
X110200930Y-82814070D01*
X110215346Y-82829976D01*
X110228134Y-82847219D01*
X110239170Y-82865632D01*
X110248349Y-82885038D01*
X110255581Y-82905250D01*
X110260797Y-82926074D01*
X110263947Y-82947309D01*
X110265000Y-82968750D01*
X110265000Y-83406250D01*
X110263947Y-83427691D01*
X110260797Y-83448926D01*
X110255581Y-83469750D01*
X110248349Y-83489962D01*
X110239170Y-83509368D01*
X110228134Y-83527781D01*
X110215346Y-83545024D01*
X110200930Y-83560930D01*
X110185024Y-83575346D01*
X110167781Y-83588134D01*
X110149368Y-83599170D01*
X110129962Y-83608349D01*
X110109750Y-83615581D01*
X110088926Y-83620797D01*
X110067691Y-83623947D01*
X110046250Y-83625000D01*
X109533750Y-83625000D01*
X109512309Y-83623947D01*
X109491074Y-83620797D01*
X109470250Y-83615581D01*
X109450038Y-83608349D01*
X109430632Y-83599170D01*
X109412219Y-83588134D01*
X109394976Y-83575346D01*
X109379070Y-83560930D01*
X109364654Y-83545024D01*
X109351866Y-83527781D01*
X109340830Y-83509368D01*
X109331651Y-83489962D01*
X109324419Y-83469750D01*
X109319203Y-83448926D01*
X109316053Y-83427691D01*
X109315000Y-83406250D01*
X109315000Y-82968750D01*
X109316053Y-82947309D01*
X109319203Y-82926074D01*
X109324419Y-82905250D01*
X109331651Y-82885038D01*
X109340830Y-82865632D01*
X109351866Y-82847219D01*
X109364654Y-82829976D01*
X109379070Y-82814070D01*
X109394976Y-82799654D01*
X109412219Y-82786866D01*
X109430632Y-82775830D01*
X109450038Y-82766651D01*
X109470250Y-82759419D01*
X109491074Y-82754203D01*
X109512309Y-82751053D01*
X109533750Y-82750000D01*
X110046250Y-82750000D01*
X110067691Y-82751053D01*
X110067691Y-82751053D01*
G37*
D15*
G04 #@! TD*
G04 #@! TO.P,R8,2*
G04 #@! TO.N,Net-(JP1-Pad1)*
X109790000Y-83187500D03*
D14*
G04 #@! TO.N,+3V3*
G04 #@! TO.C,R8*
G36*
X110067691Y-81176053D02*
X110088926Y-81179203D01*
X110109750Y-81184419D01*
X110129962Y-81191651D01*
X110149368Y-81200830D01*
X110167781Y-81211866D01*
X110185024Y-81224654D01*
X110200930Y-81239070D01*
X110215346Y-81254976D01*
X110228134Y-81272219D01*
X110239170Y-81290632D01*
X110248349Y-81310038D01*
X110255581Y-81330250D01*
X110260797Y-81351074D01*
X110263947Y-81372309D01*
X110265000Y-81393750D01*
X110265000Y-81831250D01*
X110263947Y-81852691D01*
X110260797Y-81873926D01*
X110255581Y-81894750D01*
X110248349Y-81914962D01*
X110239170Y-81934368D01*
X110228134Y-81952781D01*
X110215346Y-81970024D01*
X110200930Y-81985930D01*
X110185024Y-82000346D01*
X110167781Y-82013134D01*
X110149368Y-82024170D01*
X110129962Y-82033349D01*
X110109750Y-82040581D01*
X110088926Y-82045797D01*
X110067691Y-82048947D01*
X110046250Y-82050000D01*
X109533750Y-82050000D01*
X109512309Y-82048947D01*
X109491074Y-82045797D01*
X109470250Y-82040581D01*
X109450038Y-82033349D01*
X109430632Y-82024170D01*
X109412219Y-82013134D01*
X109394976Y-82000346D01*
X109379070Y-81985930D01*
X109364654Y-81970024D01*
X109351866Y-81952781D01*
X109340830Y-81934368D01*
X109331651Y-81914962D01*
X109324419Y-81894750D01*
X109319203Y-81873926D01*
X109316053Y-81852691D01*
X109315000Y-81831250D01*
X109315000Y-81393750D01*
X109316053Y-81372309D01*
X109319203Y-81351074D01*
X109324419Y-81330250D01*
X109331651Y-81310038D01*
X109340830Y-81290632D01*
X109351866Y-81272219D01*
X109364654Y-81254976D01*
X109379070Y-81239070D01*
X109394976Y-81224654D01*
X109412219Y-81211866D01*
X109430632Y-81200830D01*
X109450038Y-81191651D01*
X109470250Y-81184419D01*
X109491074Y-81179203D01*
X109512309Y-81176053D01*
X109533750Y-81175000D01*
X110046250Y-81175000D01*
X110067691Y-81176053D01*
X110067691Y-81176053D01*
G37*
D15*
G04 #@! TD*
G04 #@! TO.P,R8,1*
G04 #@! TO.N,+3V3*
X109790000Y-81612500D03*
D14*
G04 #@! TO.N,Net-(JP1-Pad3)*
G04 #@! TO.C,R9*
G36*
X107517691Y-82751053D02*
X107538926Y-82754203D01*
X107559750Y-82759419D01*
X107579962Y-82766651D01*
X107599368Y-82775830D01*
X107617781Y-82786866D01*
X107635024Y-82799654D01*
X107650930Y-82814070D01*
X107665346Y-82829976D01*
X107678134Y-82847219D01*
X107689170Y-82865632D01*
X107698349Y-82885038D01*
X107705581Y-82905250D01*
X107710797Y-82926074D01*
X107713947Y-82947309D01*
X107715000Y-82968750D01*
X107715000Y-83406250D01*
X107713947Y-83427691D01*
X107710797Y-83448926D01*
X107705581Y-83469750D01*
X107698349Y-83489962D01*
X107689170Y-83509368D01*
X107678134Y-83527781D01*
X107665346Y-83545024D01*
X107650930Y-83560930D01*
X107635024Y-83575346D01*
X107617781Y-83588134D01*
X107599368Y-83599170D01*
X107579962Y-83608349D01*
X107559750Y-83615581D01*
X107538926Y-83620797D01*
X107517691Y-83623947D01*
X107496250Y-83625000D01*
X106983750Y-83625000D01*
X106962309Y-83623947D01*
X106941074Y-83620797D01*
X106920250Y-83615581D01*
X106900038Y-83608349D01*
X106880632Y-83599170D01*
X106862219Y-83588134D01*
X106844976Y-83575346D01*
X106829070Y-83560930D01*
X106814654Y-83545024D01*
X106801866Y-83527781D01*
X106790830Y-83509368D01*
X106781651Y-83489962D01*
X106774419Y-83469750D01*
X106769203Y-83448926D01*
X106766053Y-83427691D01*
X106765000Y-83406250D01*
X106765000Y-82968750D01*
X106766053Y-82947309D01*
X106769203Y-82926074D01*
X106774419Y-82905250D01*
X106781651Y-82885038D01*
X106790830Y-82865632D01*
X106801866Y-82847219D01*
X106814654Y-82829976D01*
X106829070Y-82814070D01*
X106844976Y-82799654D01*
X106862219Y-82786866D01*
X106880632Y-82775830D01*
X106900038Y-82766651D01*
X106920250Y-82759419D01*
X106941074Y-82754203D01*
X106962309Y-82751053D01*
X106983750Y-82750000D01*
X107496250Y-82750000D01*
X107517691Y-82751053D01*
X107517691Y-82751053D01*
G37*
D15*
G04 #@! TD*
G04 #@! TO.P,R9,1*
G04 #@! TO.N,Net-(JP1-Pad3)*
X107240000Y-83187500D03*
D14*
G04 #@! TO.N,GND*
G04 #@! TO.C,R9*
G36*
X107517691Y-81176053D02*
X107538926Y-81179203D01*
X107559750Y-81184419D01*
X107579962Y-81191651D01*
X107599368Y-81200830D01*
X107617781Y-81211866D01*
X107635024Y-81224654D01*
X107650930Y-81239070D01*
X107665346Y-81254976D01*
X107678134Y-81272219D01*
X107689170Y-81290632D01*
X107698349Y-81310038D01*
X107705581Y-81330250D01*
X107710797Y-81351074D01*
X107713947Y-81372309D01*
X107715000Y-81393750D01*
X107715000Y-81831250D01*
X107713947Y-81852691D01*
X107710797Y-81873926D01*
X107705581Y-81894750D01*
X107698349Y-81914962D01*
X107689170Y-81934368D01*
X107678134Y-81952781D01*
X107665346Y-81970024D01*
X107650930Y-81985930D01*
X107635024Y-82000346D01*
X107617781Y-82013134D01*
X107599368Y-82024170D01*
X107579962Y-82033349D01*
X107559750Y-82040581D01*
X107538926Y-82045797D01*
X107517691Y-82048947D01*
X107496250Y-82050000D01*
X106983750Y-82050000D01*
X106962309Y-82048947D01*
X106941074Y-82045797D01*
X106920250Y-82040581D01*
X106900038Y-82033349D01*
X106880632Y-82024170D01*
X106862219Y-82013134D01*
X106844976Y-82000346D01*
X106829070Y-81985930D01*
X106814654Y-81970024D01*
X106801866Y-81952781D01*
X106790830Y-81934368D01*
X106781651Y-81914962D01*
X106774419Y-81894750D01*
X106769203Y-81873926D01*
X106766053Y-81852691D01*
X106765000Y-81831250D01*
X106765000Y-81393750D01*
X106766053Y-81372309D01*
X106769203Y-81351074D01*
X106774419Y-81330250D01*
X106781651Y-81310038D01*
X106790830Y-81290632D01*
X106801866Y-81272219D01*
X106814654Y-81254976D01*
X106829070Y-81239070D01*
X106844976Y-81224654D01*
X106862219Y-81211866D01*
X106880632Y-81200830D01*
X106900038Y-81191651D01*
X106920250Y-81184419D01*
X106941074Y-81179203D01*
X106962309Y-81176053D01*
X106983750Y-81175000D01*
X107496250Y-81175000D01*
X107517691Y-81176053D01*
X107517691Y-81176053D01*
G37*
D15*
G04 #@! TD*
G04 #@! TO.P,R9,2*
G04 #@! TO.N,GND*
X107240000Y-81612500D03*
D21*
G04 #@! TO.P,RN1,1*
G04 #@! TO.N,GNDA*
X76399800Y-84335000D03*
G04 #@! TO.P,RN1,2*
X76399800Y-85605000D03*
G04 #@! TO.P,RN1,3*
X76399800Y-86875000D03*
G04 #@! TO.P,RN1,4*
X76399800Y-88145000D03*
G04 #@! TO.P,RN1,5*
G04 #@! TO.N,Net-(RN1-Pad5)*
X79600200Y-88145000D03*
G04 #@! TO.P,RN1,6*
G04 #@! TO.N,Net-(RN1-Pad6)*
X79600200Y-86875000D03*
G04 #@! TO.P,RN1,7*
G04 #@! TO.N,Net-(RN1-Pad7)*
X79600200Y-85605000D03*
G04 #@! TO.P,RN1,8*
G04 #@! TO.N,Net-(RN1-Pad8)*
X79600200Y-84335000D03*
G04 #@! TD*
G04 #@! TO.P,RN2,8*
G04 #@! TO.N,Net-(RN2-Pad8)*
X79600200Y-54595000D03*
G04 #@! TO.P,RN2,7*
G04 #@! TO.N,Net-(RN2-Pad7)*
X79600200Y-55865000D03*
G04 #@! TO.P,RN2,6*
G04 #@! TO.N,Net-(RN2-Pad6)*
X79600200Y-57135000D03*
G04 #@! TO.P,RN2,5*
G04 #@! TO.N,Net-(RN2-Pad5)*
X79600200Y-58405000D03*
G04 #@! TO.P,RN2,4*
G04 #@! TO.N,GNDA*
X76399800Y-58405000D03*
G04 #@! TO.P,RN2,3*
X76399800Y-57135000D03*
G04 #@! TO.P,RN2,2*
X76399800Y-55865000D03*
G04 #@! TO.P,RN2,1*
X76399800Y-54595000D03*
G04 #@! TD*
D14*
G04 #@! TO.N,Net-(D3-Pad2)*
G04 #@! TO.C,TH1*
G36*
X124249504Y-65276204D02*
X124273773Y-65279804D01*
X124297571Y-65285765D01*
X124320671Y-65294030D01*
X124342849Y-65304520D01*
X124363893Y-65317133D01*
X124383598Y-65331747D01*
X124401777Y-65348223D01*
X124418253Y-65366402D01*
X124432867Y-65386107D01*
X124445480Y-65407151D01*
X124455970Y-65429329D01*
X124464235Y-65452429D01*
X124470196Y-65476227D01*
X124473796Y-65500496D01*
X124475000Y-65525000D01*
X124475000Y-66775000D01*
X124473796Y-66799504D01*
X124470196Y-66823773D01*
X124464235Y-66847571D01*
X124455970Y-66870671D01*
X124445480Y-66892849D01*
X124432867Y-66913893D01*
X124418253Y-66933598D01*
X124401777Y-66951777D01*
X124383598Y-66968253D01*
X124363893Y-66982867D01*
X124342849Y-66995480D01*
X124320671Y-67005970D01*
X124297571Y-67014235D01*
X124273773Y-67020196D01*
X124249504Y-67023796D01*
X124225000Y-67025000D01*
X123475000Y-67025000D01*
X123450496Y-67023796D01*
X123426227Y-67020196D01*
X123402429Y-67014235D01*
X123379329Y-67005970D01*
X123357151Y-66995480D01*
X123336107Y-66982867D01*
X123316402Y-66968253D01*
X123298223Y-66951777D01*
X123281747Y-66933598D01*
X123267133Y-66913893D01*
X123254520Y-66892849D01*
X123244030Y-66870671D01*
X123235765Y-66847571D01*
X123229804Y-66823773D01*
X123226204Y-66799504D01*
X123225000Y-66775000D01*
X123225000Y-65525000D01*
X123226204Y-65500496D01*
X123229804Y-65476227D01*
X123235765Y-65452429D01*
X123244030Y-65429329D01*
X123254520Y-65407151D01*
X123267133Y-65386107D01*
X123281747Y-65366402D01*
X123298223Y-65348223D01*
X123316402Y-65331747D01*
X123336107Y-65317133D01*
X123357151Y-65304520D01*
X123379329Y-65294030D01*
X123402429Y-65285765D01*
X123426227Y-65279804D01*
X123450496Y-65276204D01*
X123475000Y-65275000D01*
X124225000Y-65275000D01*
X124249504Y-65276204D01*
X124249504Y-65276204D01*
G37*
D22*
G04 #@! TD*
G04 #@! TO.P,TH1,1*
G04 #@! TO.N,Net-(D3-Pad2)*
X123850000Y-66150000D03*
D14*
G04 #@! TO.N,Net-(D1-Pad1)*
G04 #@! TO.C,TH1*
G36*
X127049504Y-65276204D02*
X127073773Y-65279804D01*
X127097571Y-65285765D01*
X127120671Y-65294030D01*
X127142849Y-65304520D01*
X127163893Y-65317133D01*
X127183598Y-65331747D01*
X127201777Y-65348223D01*
X127218253Y-65366402D01*
X127232867Y-65386107D01*
X127245480Y-65407151D01*
X127255970Y-65429329D01*
X127264235Y-65452429D01*
X127270196Y-65476227D01*
X127273796Y-65500496D01*
X127275000Y-65525000D01*
X127275000Y-66775000D01*
X127273796Y-66799504D01*
X127270196Y-66823773D01*
X127264235Y-66847571D01*
X127255970Y-66870671D01*
X127245480Y-66892849D01*
X127232867Y-66913893D01*
X127218253Y-66933598D01*
X127201777Y-66951777D01*
X127183598Y-66968253D01*
X127163893Y-66982867D01*
X127142849Y-66995480D01*
X127120671Y-67005970D01*
X127097571Y-67014235D01*
X127073773Y-67020196D01*
X127049504Y-67023796D01*
X127025000Y-67025000D01*
X126275000Y-67025000D01*
X126250496Y-67023796D01*
X126226227Y-67020196D01*
X126202429Y-67014235D01*
X126179329Y-67005970D01*
X126157151Y-66995480D01*
X126136107Y-66982867D01*
X126116402Y-66968253D01*
X126098223Y-66951777D01*
X126081747Y-66933598D01*
X126067133Y-66913893D01*
X126054520Y-66892849D01*
X126044030Y-66870671D01*
X126035765Y-66847571D01*
X126029804Y-66823773D01*
X126026204Y-66799504D01*
X126025000Y-66775000D01*
X126025000Y-65525000D01*
X126026204Y-65500496D01*
X126029804Y-65476227D01*
X126035765Y-65452429D01*
X126044030Y-65429329D01*
X126054520Y-65407151D01*
X126067133Y-65386107D01*
X126081747Y-65366402D01*
X126098223Y-65348223D01*
X126116402Y-65331747D01*
X126136107Y-65317133D01*
X126157151Y-65304520D01*
X126179329Y-65294030D01*
X126202429Y-65285765D01*
X126226227Y-65279804D01*
X126250496Y-65276204D01*
X126275000Y-65275000D01*
X127025000Y-65275000D01*
X127049504Y-65276204D01*
X127049504Y-65276204D01*
G37*
D22*
G04 #@! TD*
G04 #@! TO.P,TH1,2*
G04 #@! TO.N,Net-(D1-Pad1)*
X126650000Y-66150000D03*
D14*
G04 #@! TO.N,/CLK_IN*
G04 #@! TO.C,U1*
G36*
X85425977Y-74030662D02*
X85439325Y-74032642D01*
X85452414Y-74035921D01*
X85465119Y-74040467D01*
X85477317Y-74046236D01*
X85488891Y-74053173D01*
X85499729Y-74061211D01*
X85509727Y-74070273D01*
X85518789Y-74080271D01*
X85526827Y-74091109D01*
X85533764Y-74102683D01*
X85539533Y-74114881D01*
X85544079Y-74127586D01*
X85547358Y-74140675D01*
X85549338Y-74154023D01*
X85550000Y-74167500D01*
X85550000Y-74442500D01*
X85549338Y-74455977D01*
X85547358Y-74469325D01*
X85544079Y-74482414D01*
X85539533Y-74495119D01*
X85533764Y-74507317D01*
X85526827Y-74518891D01*
X85518789Y-74529729D01*
X85509727Y-74539727D01*
X85499729Y-74548789D01*
X85488891Y-74556827D01*
X85477317Y-74563764D01*
X85465119Y-74569533D01*
X85452414Y-74574079D01*
X85439325Y-74577358D01*
X85425977Y-74579338D01*
X85412500Y-74580000D01*
X84087500Y-74580000D01*
X84074023Y-74579338D01*
X84060675Y-74577358D01*
X84047586Y-74574079D01*
X84034881Y-74569533D01*
X84022683Y-74563764D01*
X84011109Y-74556827D01*
X84000271Y-74548789D01*
X83990273Y-74539727D01*
X83981211Y-74529729D01*
X83973173Y-74518891D01*
X83966236Y-74507317D01*
X83960467Y-74495119D01*
X83955921Y-74482414D01*
X83952642Y-74469325D01*
X83950662Y-74455977D01*
X83950000Y-74442500D01*
X83950000Y-74167500D01*
X83950662Y-74154023D01*
X83952642Y-74140675D01*
X83955921Y-74127586D01*
X83960467Y-74114881D01*
X83966236Y-74102683D01*
X83973173Y-74091109D01*
X83981211Y-74080271D01*
X83990273Y-74070273D01*
X84000271Y-74061211D01*
X84011109Y-74053173D01*
X84022683Y-74046236D01*
X84034881Y-74040467D01*
X84047586Y-74035921D01*
X84060675Y-74032642D01*
X84074023Y-74030662D01*
X84087500Y-74030000D01*
X85412500Y-74030000D01*
X85425977Y-74030662D01*
X85425977Y-74030662D01*
G37*
D23*
G04 #@! TD*
G04 #@! TO.P,U1,1*
G04 #@! TO.N,/CLK_IN*
X84750000Y-74305000D03*
D14*
G04 #@! TO.N,Net-(RN1-Pad8)*
G04 #@! TO.C,U1*
G36*
X85425977Y-75300662D02*
X85439325Y-75302642D01*
X85452414Y-75305921D01*
X85465119Y-75310467D01*
X85477317Y-75316236D01*
X85488891Y-75323173D01*
X85499729Y-75331211D01*
X85509727Y-75340273D01*
X85518789Y-75350271D01*
X85526827Y-75361109D01*
X85533764Y-75372683D01*
X85539533Y-75384881D01*
X85544079Y-75397586D01*
X85547358Y-75410675D01*
X85549338Y-75424023D01*
X85550000Y-75437500D01*
X85550000Y-75712500D01*
X85549338Y-75725977D01*
X85547358Y-75739325D01*
X85544079Y-75752414D01*
X85539533Y-75765119D01*
X85533764Y-75777317D01*
X85526827Y-75788891D01*
X85518789Y-75799729D01*
X85509727Y-75809727D01*
X85499729Y-75818789D01*
X85488891Y-75826827D01*
X85477317Y-75833764D01*
X85465119Y-75839533D01*
X85452414Y-75844079D01*
X85439325Y-75847358D01*
X85425977Y-75849338D01*
X85412500Y-75850000D01*
X84087500Y-75850000D01*
X84074023Y-75849338D01*
X84060675Y-75847358D01*
X84047586Y-75844079D01*
X84034881Y-75839533D01*
X84022683Y-75833764D01*
X84011109Y-75826827D01*
X84000271Y-75818789D01*
X83990273Y-75809727D01*
X83981211Y-75799729D01*
X83973173Y-75788891D01*
X83966236Y-75777317D01*
X83960467Y-75765119D01*
X83955921Y-75752414D01*
X83952642Y-75739325D01*
X83950662Y-75725977D01*
X83950000Y-75712500D01*
X83950000Y-75437500D01*
X83950662Y-75424023D01*
X83952642Y-75410675D01*
X83955921Y-75397586D01*
X83960467Y-75384881D01*
X83966236Y-75372683D01*
X83973173Y-75361109D01*
X83981211Y-75350271D01*
X83990273Y-75340273D01*
X84000271Y-75331211D01*
X84011109Y-75323173D01*
X84022683Y-75316236D01*
X84034881Y-75310467D01*
X84047586Y-75305921D01*
X84060675Y-75302642D01*
X84074023Y-75300662D01*
X84087500Y-75300000D01*
X85412500Y-75300000D01*
X85425977Y-75300662D01*
X85425977Y-75300662D01*
G37*
D23*
G04 #@! TD*
G04 #@! TO.P,U1,2*
G04 #@! TO.N,Net-(RN1-Pad8)*
X84750000Y-75575000D03*
D14*
G04 #@! TO.N,/D5_IN*
G04 #@! TO.C,U1*
G36*
X85425977Y-76570662D02*
X85439325Y-76572642D01*
X85452414Y-76575921D01*
X85465119Y-76580467D01*
X85477317Y-76586236D01*
X85488891Y-76593173D01*
X85499729Y-76601211D01*
X85509727Y-76610273D01*
X85518789Y-76620271D01*
X85526827Y-76631109D01*
X85533764Y-76642683D01*
X85539533Y-76654881D01*
X85544079Y-76667586D01*
X85547358Y-76680675D01*
X85549338Y-76694023D01*
X85550000Y-76707500D01*
X85550000Y-76982500D01*
X85549338Y-76995977D01*
X85547358Y-77009325D01*
X85544079Y-77022414D01*
X85539533Y-77035119D01*
X85533764Y-77047317D01*
X85526827Y-77058891D01*
X85518789Y-77069729D01*
X85509727Y-77079727D01*
X85499729Y-77088789D01*
X85488891Y-77096827D01*
X85477317Y-77103764D01*
X85465119Y-77109533D01*
X85452414Y-77114079D01*
X85439325Y-77117358D01*
X85425977Y-77119338D01*
X85412500Y-77120000D01*
X84087500Y-77120000D01*
X84074023Y-77119338D01*
X84060675Y-77117358D01*
X84047586Y-77114079D01*
X84034881Y-77109533D01*
X84022683Y-77103764D01*
X84011109Y-77096827D01*
X84000271Y-77088789D01*
X83990273Y-77079727D01*
X83981211Y-77069729D01*
X83973173Y-77058891D01*
X83966236Y-77047317D01*
X83960467Y-77035119D01*
X83955921Y-77022414D01*
X83952642Y-77009325D01*
X83950662Y-76995977D01*
X83950000Y-76982500D01*
X83950000Y-76707500D01*
X83950662Y-76694023D01*
X83952642Y-76680675D01*
X83955921Y-76667586D01*
X83960467Y-76654881D01*
X83966236Y-76642683D01*
X83973173Y-76631109D01*
X83981211Y-76620271D01*
X83990273Y-76610273D01*
X84000271Y-76601211D01*
X84011109Y-76593173D01*
X84022683Y-76586236D01*
X84034881Y-76580467D01*
X84047586Y-76575921D01*
X84060675Y-76572642D01*
X84074023Y-76570662D01*
X84087500Y-76570000D01*
X85412500Y-76570000D01*
X85425977Y-76570662D01*
X85425977Y-76570662D01*
G37*
D23*
G04 #@! TD*
G04 #@! TO.P,U1,3*
G04 #@! TO.N,/D5_IN*
X84750000Y-76845000D03*
D14*
G04 #@! TO.N,Net-(RN1-Pad7)*
G04 #@! TO.C,U1*
G36*
X85425977Y-77840662D02*
X85439325Y-77842642D01*
X85452414Y-77845921D01*
X85465119Y-77850467D01*
X85477317Y-77856236D01*
X85488891Y-77863173D01*
X85499729Y-77871211D01*
X85509727Y-77880273D01*
X85518789Y-77890271D01*
X85526827Y-77901109D01*
X85533764Y-77912683D01*
X85539533Y-77924881D01*
X85544079Y-77937586D01*
X85547358Y-77950675D01*
X85549338Y-77964023D01*
X85550000Y-77977500D01*
X85550000Y-78252500D01*
X85549338Y-78265977D01*
X85547358Y-78279325D01*
X85544079Y-78292414D01*
X85539533Y-78305119D01*
X85533764Y-78317317D01*
X85526827Y-78328891D01*
X85518789Y-78339729D01*
X85509727Y-78349727D01*
X85499729Y-78358789D01*
X85488891Y-78366827D01*
X85477317Y-78373764D01*
X85465119Y-78379533D01*
X85452414Y-78384079D01*
X85439325Y-78387358D01*
X85425977Y-78389338D01*
X85412500Y-78390000D01*
X84087500Y-78390000D01*
X84074023Y-78389338D01*
X84060675Y-78387358D01*
X84047586Y-78384079D01*
X84034881Y-78379533D01*
X84022683Y-78373764D01*
X84011109Y-78366827D01*
X84000271Y-78358789D01*
X83990273Y-78349727D01*
X83981211Y-78339729D01*
X83973173Y-78328891D01*
X83966236Y-78317317D01*
X83960467Y-78305119D01*
X83955921Y-78292414D01*
X83952642Y-78279325D01*
X83950662Y-78265977D01*
X83950000Y-78252500D01*
X83950000Y-77977500D01*
X83950662Y-77964023D01*
X83952642Y-77950675D01*
X83955921Y-77937586D01*
X83960467Y-77924881D01*
X83966236Y-77912683D01*
X83973173Y-77901109D01*
X83981211Y-77890271D01*
X83990273Y-77880273D01*
X84000271Y-77871211D01*
X84011109Y-77863173D01*
X84022683Y-77856236D01*
X84034881Y-77850467D01*
X84047586Y-77845921D01*
X84060675Y-77842642D01*
X84074023Y-77840662D01*
X84087500Y-77840000D01*
X85412500Y-77840000D01*
X85425977Y-77840662D01*
X85425977Y-77840662D01*
G37*
D23*
G04 #@! TD*
G04 #@! TO.P,U1,4*
G04 #@! TO.N,Net-(RN1-Pad7)*
X84750000Y-78115000D03*
D14*
G04 #@! TO.N,/SIGN_IN*
G04 #@! TO.C,U1*
G36*
X85425977Y-79110662D02*
X85439325Y-79112642D01*
X85452414Y-79115921D01*
X85465119Y-79120467D01*
X85477317Y-79126236D01*
X85488891Y-79133173D01*
X85499729Y-79141211D01*
X85509727Y-79150273D01*
X85518789Y-79160271D01*
X85526827Y-79171109D01*
X85533764Y-79182683D01*
X85539533Y-79194881D01*
X85544079Y-79207586D01*
X85547358Y-79220675D01*
X85549338Y-79234023D01*
X85550000Y-79247500D01*
X85550000Y-79522500D01*
X85549338Y-79535977D01*
X85547358Y-79549325D01*
X85544079Y-79562414D01*
X85539533Y-79575119D01*
X85533764Y-79587317D01*
X85526827Y-79598891D01*
X85518789Y-79609729D01*
X85509727Y-79619727D01*
X85499729Y-79628789D01*
X85488891Y-79636827D01*
X85477317Y-79643764D01*
X85465119Y-79649533D01*
X85452414Y-79654079D01*
X85439325Y-79657358D01*
X85425977Y-79659338D01*
X85412500Y-79660000D01*
X84087500Y-79660000D01*
X84074023Y-79659338D01*
X84060675Y-79657358D01*
X84047586Y-79654079D01*
X84034881Y-79649533D01*
X84022683Y-79643764D01*
X84011109Y-79636827D01*
X84000271Y-79628789D01*
X83990273Y-79619727D01*
X83981211Y-79609729D01*
X83973173Y-79598891D01*
X83966236Y-79587317D01*
X83960467Y-79575119D01*
X83955921Y-79562414D01*
X83952642Y-79549325D01*
X83950662Y-79535977D01*
X83950000Y-79522500D01*
X83950000Y-79247500D01*
X83950662Y-79234023D01*
X83952642Y-79220675D01*
X83955921Y-79207586D01*
X83960467Y-79194881D01*
X83966236Y-79182683D01*
X83973173Y-79171109D01*
X83981211Y-79160271D01*
X83990273Y-79150273D01*
X84000271Y-79141211D01*
X84011109Y-79133173D01*
X84022683Y-79126236D01*
X84034881Y-79120467D01*
X84047586Y-79115921D01*
X84060675Y-79112642D01*
X84074023Y-79110662D01*
X84087500Y-79110000D01*
X85412500Y-79110000D01*
X85425977Y-79110662D01*
X85425977Y-79110662D01*
G37*
D23*
G04 #@! TD*
G04 #@! TO.P,U1,5*
G04 #@! TO.N,/SIGN_IN*
X84750000Y-79385000D03*
D14*
G04 #@! TO.N,Net-(RN1-Pad6)*
G04 #@! TO.C,U1*
G36*
X85425977Y-80380662D02*
X85439325Y-80382642D01*
X85452414Y-80385921D01*
X85465119Y-80390467D01*
X85477317Y-80396236D01*
X85488891Y-80403173D01*
X85499729Y-80411211D01*
X85509727Y-80420273D01*
X85518789Y-80430271D01*
X85526827Y-80441109D01*
X85533764Y-80452683D01*
X85539533Y-80464881D01*
X85544079Y-80477586D01*
X85547358Y-80490675D01*
X85549338Y-80504023D01*
X85550000Y-80517500D01*
X85550000Y-80792500D01*
X85549338Y-80805977D01*
X85547358Y-80819325D01*
X85544079Y-80832414D01*
X85539533Y-80845119D01*
X85533764Y-80857317D01*
X85526827Y-80868891D01*
X85518789Y-80879729D01*
X85509727Y-80889727D01*
X85499729Y-80898789D01*
X85488891Y-80906827D01*
X85477317Y-80913764D01*
X85465119Y-80919533D01*
X85452414Y-80924079D01*
X85439325Y-80927358D01*
X85425977Y-80929338D01*
X85412500Y-80930000D01*
X84087500Y-80930000D01*
X84074023Y-80929338D01*
X84060675Y-80927358D01*
X84047586Y-80924079D01*
X84034881Y-80919533D01*
X84022683Y-80913764D01*
X84011109Y-80906827D01*
X84000271Y-80898789D01*
X83990273Y-80889727D01*
X83981211Y-80879729D01*
X83973173Y-80868891D01*
X83966236Y-80857317D01*
X83960467Y-80845119D01*
X83955921Y-80832414D01*
X83952642Y-80819325D01*
X83950662Y-80805977D01*
X83950000Y-80792500D01*
X83950000Y-80517500D01*
X83950662Y-80504023D01*
X83952642Y-80490675D01*
X83955921Y-80477586D01*
X83960467Y-80464881D01*
X83966236Y-80452683D01*
X83973173Y-80441109D01*
X83981211Y-80430271D01*
X83990273Y-80420273D01*
X84000271Y-80411211D01*
X84011109Y-80403173D01*
X84022683Y-80396236D01*
X84034881Y-80390467D01*
X84047586Y-80385921D01*
X84060675Y-80382642D01*
X84074023Y-80380662D01*
X84087500Y-80380000D01*
X85412500Y-80380000D01*
X85425977Y-80380662D01*
X85425977Y-80380662D01*
G37*
D23*
G04 #@! TD*
G04 #@! TO.P,U1,6*
G04 #@! TO.N,Net-(RN1-Pad6)*
X84750000Y-80655000D03*
D14*
G04 #@! TO.N,/OVERRANGE_IN*
G04 #@! TO.C,U1*
G36*
X85425977Y-81650662D02*
X85439325Y-81652642D01*
X85452414Y-81655921D01*
X85465119Y-81660467D01*
X85477317Y-81666236D01*
X85488891Y-81673173D01*
X85499729Y-81681211D01*
X85509727Y-81690273D01*
X85518789Y-81700271D01*
X85526827Y-81711109D01*
X85533764Y-81722683D01*
X85539533Y-81734881D01*
X85544079Y-81747586D01*
X85547358Y-81760675D01*
X85549338Y-81774023D01*
X85550000Y-81787500D01*
X85550000Y-82062500D01*
X85549338Y-82075977D01*
X85547358Y-82089325D01*
X85544079Y-82102414D01*
X85539533Y-82115119D01*
X85533764Y-82127317D01*
X85526827Y-82138891D01*
X85518789Y-82149729D01*
X85509727Y-82159727D01*
X85499729Y-82168789D01*
X85488891Y-82176827D01*
X85477317Y-82183764D01*
X85465119Y-82189533D01*
X85452414Y-82194079D01*
X85439325Y-82197358D01*
X85425977Y-82199338D01*
X85412500Y-82200000D01*
X84087500Y-82200000D01*
X84074023Y-82199338D01*
X84060675Y-82197358D01*
X84047586Y-82194079D01*
X84034881Y-82189533D01*
X84022683Y-82183764D01*
X84011109Y-82176827D01*
X84000271Y-82168789D01*
X83990273Y-82159727D01*
X83981211Y-82149729D01*
X83973173Y-82138891D01*
X83966236Y-82127317D01*
X83960467Y-82115119D01*
X83955921Y-82102414D01*
X83952642Y-82089325D01*
X83950662Y-82075977D01*
X83950000Y-82062500D01*
X83950000Y-81787500D01*
X83950662Y-81774023D01*
X83952642Y-81760675D01*
X83955921Y-81747586D01*
X83960467Y-81734881D01*
X83966236Y-81722683D01*
X83973173Y-81711109D01*
X83981211Y-81700271D01*
X83990273Y-81690273D01*
X84000271Y-81681211D01*
X84011109Y-81673173D01*
X84022683Y-81666236D01*
X84034881Y-81660467D01*
X84047586Y-81655921D01*
X84060675Y-81652642D01*
X84074023Y-81650662D01*
X84087500Y-81650000D01*
X85412500Y-81650000D01*
X85425977Y-81650662D01*
X85425977Y-81650662D01*
G37*
D23*
G04 #@! TD*
G04 #@! TO.P,U1,7*
G04 #@! TO.N,/OVERRANGE_IN*
X84750000Y-81925000D03*
D14*
G04 #@! TO.N,Net-(RN1-Pad5)*
G04 #@! TO.C,U1*
G36*
X85425977Y-82920662D02*
X85439325Y-82922642D01*
X85452414Y-82925921D01*
X85465119Y-82930467D01*
X85477317Y-82936236D01*
X85488891Y-82943173D01*
X85499729Y-82951211D01*
X85509727Y-82960273D01*
X85518789Y-82970271D01*
X85526827Y-82981109D01*
X85533764Y-82992683D01*
X85539533Y-83004881D01*
X85544079Y-83017586D01*
X85547358Y-83030675D01*
X85549338Y-83044023D01*
X85550000Y-83057500D01*
X85550000Y-83332500D01*
X85549338Y-83345977D01*
X85547358Y-83359325D01*
X85544079Y-83372414D01*
X85539533Y-83385119D01*
X85533764Y-83397317D01*
X85526827Y-83408891D01*
X85518789Y-83419729D01*
X85509727Y-83429727D01*
X85499729Y-83438789D01*
X85488891Y-83446827D01*
X85477317Y-83453764D01*
X85465119Y-83459533D01*
X85452414Y-83464079D01*
X85439325Y-83467358D01*
X85425977Y-83469338D01*
X85412500Y-83470000D01*
X84087500Y-83470000D01*
X84074023Y-83469338D01*
X84060675Y-83467358D01*
X84047586Y-83464079D01*
X84034881Y-83459533D01*
X84022683Y-83453764D01*
X84011109Y-83446827D01*
X84000271Y-83438789D01*
X83990273Y-83429727D01*
X83981211Y-83419729D01*
X83973173Y-83408891D01*
X83966236Y-83397317D01*
X83960467Y-83385119D01*
X83955921Y-83372414D01*
X83952642Y-83359325D01*
X83950662Y-83345977D01*
X83950000Y-83332500D01*
X83950000Y-83057500D01*
X83950662Y-83044023D01*
X83952642Y-83030675D01*
X83955921Y-83017586D01*
X83960467Y-83004881D01*
X83966236Y-82992683D01*
X83973173Y-82981109D01*
X83981211Y-82970271D01*
X83990273Y-82960273D01*
X84000271Y-82951211D01*
X84011109Y-82943173D01*
X84022683Y-82936236D01*
X84034881Y-82930467D01*
X84047586Y-82925921D01*
X84060675Y-82922642D01*
X84074023Y-82920662D01*
X84087500Y-82920000D01*
X85412500Y-82920000D01*
X85425977Y-82920662D01*
X85425977Y-82920662D01*
G37*
D23*
G04 #@! TD*
G04 #@! TO.P,U1,8*
G04 #@! TO.N,Net-(RN1-Pad5)*
X84750000Y-83195000D03*
D14*
G04 #@! TO.N,GND*
G04 #@! TO.C,U1*
G36*
X91925977Y-82920662D02*
X91939325Y-82922642D01*
X91952414Y-82925921D01*
X91965119Y-82930467D01*
X91977317Y-82936236D01*
X91988891Y-82943173D01*
X91999729Y-82951211D01*
X92009727Y-82960273D01*
X92018789Y-82970271D01*
X92026827Y-82981109D01*
X92033764Y-82992683D01*
X92039533Y-83004881D01*
X92044079Y-83017586D01*
X92047358Y-83030675D01*
X92049338Y-83044023D01*
X92050000Y-83057500D01*
X92050000Y-83332500D01*
X92049338Y-83345977D01*
X92047358Y-83359325D01*
X92044079Y-83372414D01*
X92039533Y-83385119D01*
X92033764Y-83397317D01*
X92026827Y-83408891D01*
X92018789Y-83419729D01*
X92009727Y-83429727D01*
X91999729Y-83438789D01*
X91988891Y-83446827D01*
X91977317Y-83453764D01*
X91965119Y-83459533D01*
X91952414Y-83464079D01*
X91939325Y-83467358D01*
X91925977Y-83469338D01*
X91912500Y-83470000D01*
X90587500Y-83470000D01*
X90574023Y-83469338D01*
X90560675Y-83467358D01*
X90547586Y-83464079D01*
X90534881Y-83459533D01*
X90522683Y-83453764D01*
X90511109Y-83446827D01*
X90500271Y-83438789D01*
X90490273Y-83429727D01*
X90481211Y-83419729D01*
X90473173Y-83408891D01*
X90466236Y-83397317D01*
X90460467Y-83385119D01*
X90455921Y-83372414D01*
X90452642Y-83359325D01*
X90450662Y-83345977D01*
X90450000Y-83332500D01*
X90450000Y-83057500D01*
X90450662Y-83044023D01*
X90452642Y-83030675D01*
X90455921Y-83017586D01*
X90460467Y-83004881D01*
X90466236Y-82992683D01*
X90473173Y-82981109D01*
X90481211Y-82970271D01*
X90490273Y-82960273D01*
X90500271Y-82951211D01*
X90511109Y-82943173D01*
X90522683Y-82936236D01*
X90534881Y-82930467D01*
X90547586Y-82925921D01*
X90560675Y-82922642D01*
X90574023Y-82920662D01*
X90587500Y-82920000D01*
X91912500Y-82920000D01*
X91925977Y-82920662D01*
X91925977Y-82920662D01*
G37*
D23*
G04 #@! TD*
G04 #@! TO.P,U1,9*
G04 #@! TO.N,GND*
X91250000Y-83195000D03*
D14*
G04 #@! TO.N,/OVERRANGE*
G04 #@! TO.C,U1*
G36*
X91925977Y-81650662D02*
X91939325Y-81652642D01*
X91952414Y-81655921D01*
X91965119Y-81660467D01*
X91977317Y-81666236D01*
X91988891Y-81673173D01*
X91999729Y-81681211D01*
X92009727Y-81690273D01*
X92018789Y-81700271D01*
X92026827Y-81711109D01*
X92033764Y-81722683D01*
X92039533Y-81734881D01*
X92044079Y-81747586D01*
X92047358Y-81760675D01*
X92049338Y-81774023D01*
X92050000Y-81787500D01*
X92050000Y-82062500D01*
X92049338Y-82075977D01*
X92047358Y-82089325D01*
X92044079Y-82102414D01*
X92039533Y-82115119D01*
X92033764Y-82127317D01*
X92026827Y-82138891D01*
X92018789Y-82149729D01*
X92009727Y-82159727D01*
X91999729Y-82168789D01*
X91988891Y-82176827D01*
X91977317Y-82183764D01*
X91965119Y-82189533D01*
X91952414Y-82194079D01*
X91939325Y-82197358D01*
X91925977Y-82199338D01*
X91912500Y-82200000D01*
X90587500Y-82200000D01*
X90574023Y-82199338D01*
X90560675Y-82197358D01*
X90547586Y-82194079D01*
X90534881Y-82189533D01*
X90522683Y-82183764D01*
X90511109Y-82176827D01*
X90500271Y-82168789D01*
X90490273Y-82159727D01*
X90481211Y-82149729D01*
X90473173Y-82138891D01*
X90466236Y-82127317D01*
X90460467Y-82115119D01*
X90455921Y-82102414D01*
X90452642Y-82089325D01*
X90450662Y-82075977D01*
X90450000Y-82062500D01*
X90450000Y-81787500D01*
X90450662Y-81774023D01*
X90452642Y-81760675D01*
X90455921Y-81747586D01*
X90460467Y-81734881D01*
X90466236Y-81722683D01*
X90473173Y-81711109D01*
X90481211Y-81700271D01*
X90490273Y-81690273D01*
X90500271Y-81681211D01*
X90511109Y-81673173D01*
X90522683Y-81666236D01*
X90534881Y-81660467D01*
X90547586Y-81655921D01*
X90560675Y-81652642D01*
X90574023Y-81650662D01*
X90587500Y-81650000D01*
X91912500Y-81650000D01*
X91925977Y-81650662D01*
X91925977Y-81650662D01*
G37*
D23*
G04 #@! TD*
G04 #@! TO.P,U1,10*
G04 #@! TO.N,/OVERRANGE*
X91250000Y-81925000D03*
D14*
G04 #@! TO.N,GND*
G04 #@! TO.C,U1*
G36*
X91925977Y-80380662D02*
X91939325Y-80382642D01*
X91952414Y-80385921D01*
X91965119Y-80390467D01*
X91977317Y-80396236D01*
X91988891Y-80403173D01*
X91999729Y-80411211D01*
X92009727Y-80420273D01*
X92018789Y-80430271D01*
X92026827Y-80441109D01*
X92033764Y-80452683D01*
X92039533Y-80464881D01*
X92044079Y-80477586D01*
X92047358Y-80490675D01*
X92049338Y-80504023D01*
X92050000Y-80517500D01*
X92050000Y-80792500D01*
X92049338Y-80805977D01*
X92047358Y-80819325D01*
X92044079Y-80832414D01*
X92039533Y-80845119D01*
X92033764Y-80857317D01*
X92026827Y-80868891D01*
X92018789Y-80879729D01*
X92009727Y-80889727D01*
X91999729Y-80898789D01*
X91988891Y-80906827D01*
X91977317Y-80913764D01*
X91965119Y-80919533D01*
X91952414Y-80924079D01*
X91939325Y-80927358D01*
X91925977Y-80929338D01*
X91912500Y-80930000D01*
X90587500Y-80930000D01*
X90574023Y-80929338D01*
X90560675Y-80927358D01*
X90547586Y-80924079D01*
X90534881Y-80919533D01*
X90522683Y-80913764D01*
X90511109Y-80906827D01*
X90500271Y-80898789D01*
X90490273Y-80889727D01*
X90481211Y-80879729D01*
X90473173Y-80868891D01*
X90466236Y-80857317D01*
X90460467Y-80845119D01*
X90455921Y-80832414D01*
X90452642Y-80819325D01*
X90450662Y-80805977D01*
X90450000Y-80792500D01*
X90450000Y-80517500D01*
X90450662Y-80504023D01*
X90452642Y-80490675D01*
X90455921Y-80477586D01*
X90460467Y-80464881D01*
X90466236Y-80452683D01*
X90473173Y-80441109D01*
X90481211Y-80430271D01*
X90490273Y-80420273D01*
X90500271Y-80411211D01*
X90511109Y-80403173D01*
X90522683Y-80396236D01*
X90534881Y-80390467D01*
X90547586Y-80385921D01*
X90560675Y-80382642D01*
X90574023Y-80380662D01*
X90587500Y-80380000D01*
X91912500Y-80380000D01*
X91925977Y-80380662D01*
X91925977Y-80380662D01*
G37*
D23*
G04 #@! TD*
G04 #@! TO.P,U1,11*
G04 #@! TO.N,GND*
X91250000Y-80655000D03*
D14*
G04 #@! TO.N,/SIGN*
G04 #@! TO.C,U1*
G36*
X91925977Y-79110662D02*
X91939325Y-79112642D01*
X91952414Y-79115921D01*
X91965119Y-79120467D01*
X91977317Y-79126236D01*
X91988891Y-79133173D01*
X91999729Y-79141211D01*
X92009727Y-79150273D01*
X92018789Y-79160271D01*
X92026827Y-79171109D01*
X92033764Y-79182683D01*
X92039533Y-79194881D01*
X92044079Y-79207586D01*
X92047358Y-79220675D01*
X92049338Y-79234023D01*
X92050000Y-79247500D01*
X92050000Y-79522500D01*
X92049338Y-79535977D01*
X92047358Y-79549325D01*
X92044079Y-79562414D01*
X92039533Y-79575119D01*
X92033764Y-79587317D01*
X92026827Y-79598891D01*
X92018789Y-79609729D01*
X92009727Y-79619727D01*
X91999729Y-79628789D01*
X91988891Y-79636827D01*
X91977317Y-79643764D01*
X91965119Y-79649533D01*
X91952414Y-79654079D01*
X91939325Y-79657358D01*
X91925977Y-79659338D01*
X91912500Y-79660000D01*
X90587500Y-79660000D01*
X90574023Y-79659338D01*
X90560675Y-79657358D01*
X90547586Y-79654079D01*
X90534881Y-79649533D01*
X90522683Y-79643764D01*
X90511109Y-79636827D01*
X90500271Y-79628789D01*
X90490273Y-79619727D01*
X90481211Y-79609729D01*
X90473173Y-79598891D01*
X90466236Y-79587317D01*
X90460467Y-79575119D01*
X90455921Y-79562414D01*
X90452642Y-79549325D01*
X90450662Y-79535977D01*
X90450000Y-79522500D01*
X90450000Y-79247500D01*
X90450662Y-79234023D01*
X90452642Y-79220675D01*
X90455921Y-79207586D01*
X90460467Y-79194881D01*
X90466236Y-79182683D01*
X90473173Y-79171109D01*
X90481211Y-79160271D01*
X90490273Y-79150273D01*
X90500271Y-79141211D01*
X90511109Y-79133173D01*
X90522683Y-79126236D01*
X90534881Y-79120467D01*
X90547586Y-79115921D01*
X90560675Y-79112642D01*
X90574023Y-79110662D01*
X90587500Y-79110000D01*
X91912500Y-79110000D01*
X91925977Y-79110662D01*
X91925977Y-79110662D01*
G37*
D23*
G04 #@! TD*
G04 #@! TO.P,U1,12*
G04 #@! TO.N,/SIGN*
X91250000Y-79385000D03*
D14*
G04 #@! TO.N,GND*
G04 #@! TO.C,U1*
G36*
X91925977Y-77840662D02*
X91939325Y-77842642D01*
X91952414Y-77845921D01*
X91965119Y-77850467D01*
X91977317Y-77856236D01*
X91988891Y-77863173D01*
X91999729Y-77871211D01*
X92009727Y-77880273D01*
X92018789Y-77890271D01*
X92026827Y-77901109D01*
X92033764Y-77912683D01*
X92039533Y-77924881D01*
X92044079Y-77937586D01*
X92047358Y-77950675D01*
X92049338Y-77964023D01*
X92050000Y-77977500D01*
X92050000Y-78252500D01*
X92049338Y-78265977D01*
X92047358Y-78279325D01*
X92044079Y-78292414D01*
X92039533Y-78305119D01*
X92033764Y-78317317D01*
X92026827Y-78328891D01*
X92018789Y-78339729D01*
X92009727Y-78349727D01*
X91999729Y-78358789D01*
X91988891Y-78366827D01*
X91977317Y-78373764D01*
X91965119Y-78379533D01*
X91952414Y-78384079D01*
X91939325Y-78387358D01*
X91925977Y-78389338D01*
X91912500Y-78390000D01*
X90587500Y-78390000D01*
X90574023Y-78389338D01*
X90560675Y-78387358D01*
X90547586Y-78384079D01*
X90534881Y-78379533D01*
X90522683Y-78373764D01*
X90511109Y-78366827D01*
X90500271Y-78358789D01*
X90490273Y-78349727D01*
X90481211Y-78339729D01*
X90473173Y-78328891D01*
X90466236Y-78317317D01*
X90460467Y-78305119D01*
X90455921Y-78292414D01*
X90452642Y-78279325D01*
X90450662Y-78265977D01*
X90450000Y-78252500D01*
X90450000Y-77977500D01*
X90450662Y-77964023D01*
X90452642Y-77950675D01*
X90455921Y-77937586D01*
X90460467Y-77924881D01*
X90466236Y-77912683D01*
X90473173Y-77901109D01*
X90481211Y-77890271D01*
X90490273Y-77880273D01*
X90500271Y-77871211D01*
X90511109Y-77863173D01*
X90522683Y-77856236D01*
X90534881Y-77850467D01*
X90547586Y-77845921D01*
X90560675Y-77842642D01*
X90574023Y-77840662D01*
X90587500Y-77840000D01*
X91912500Y-77840000D01*
X91925977Y-77840662D01*
X91925977Y-77840662D01*
G37*
D23*
G04 #@! TD*
G04 #@! TO.P,U1,13*
G04 #@! TO.N,GND*
X91250000Y-78115000D03*
D14*
G04 #@! TO.N,/D5*
G04 #@! TO.C,U1*
G36*
X91925977Y-76570662D02*
X91939325Y-76572642D01*
X91952414Y-76575921D01*
X91965119Y-76580467D01*
X91977317Y-76586236D01*
X91988891Y-76593173D01*
X91999729Y-76601211D01*
X92009727Y-76610273D01*
X92018789Y-76620271D01*
X92026827Y-76631109D01*
X92033764Y-76642683D01*
X92039533Y-76654881D01*
X92044079Y-76667586D01*
X92047358Y-76680675D01*
X92049338Y-76694023D01*
X92050000Y-76707500D01*
X92050000Y-76982500D01*
X92049338Y-76995977D01*
X92047358Y-77009325D01*
X92044079Y-77022414D01*
X92039533Y-77035119D01*
X92033764Y-77047317D01*
X92026827Y-77058891D01*
X92018789Y-77069729D01*
X92009727Y-77079727D01*
X91999729Y-77088789D01*
X91988891Y-77096827D01*
X91977317Y-77103764D01*
X91965119Y-77109533D01*
X91952414Y-77114079D01*
X91939325Y-77117358D01*
X91925977Y-77119338D01*
X91912500Y-77120000D01*
X90587500Y-77120000D01*
X90574023Y-77119338D01*
X90560675Y-77117358D01*
X90547586Y-77114079D01*
X90534881Y-77109533D01*
X90522683Y-77103764D01*
X90511109Y-77096827D01*
X90500271Y-77088789D01*
X90490273Y-77079727D01*
X90481211Y-77069729D01*
X90473173Y-77058891D01*
X90466236Y-77047317D01*
X90460467Y-77035119D01*
X90455921Y-77022414D01*
X90452642Y-77009325D01*
X90450662Y-76995977D01*
X90450000Y-76982500D01*
X90450000Y-76707500D01*
X90450662Y-76694023D01*
X90452642Y-76680675D01*
X90455921Y-76667586D01*
X90460467Y-76654881D01*
X90466236Y-76642683D01*
X90473173Y-76631109D01*
X90481211Y-76620271D01*
X90490273Y-76610273D01*
X90500271Y-76601211D01*
X90511109Y-76593173D01*
X90522683Y-76586236D01*
X90534881Y-76580467D01*
X90547586Y-76575921D01*
X90560675Y-76572642D01*
X90574023Y-76570662D01*
X90587500Y-76570000D01*
X91912500Y-76570000D01*
X91925977Y-76570662D01*
X91925977Y-76570662D01*
G37*
D23*
G04 #@! TD*
G04 #@! TO.P,U1,14*
G04 #@! TO.N,/D5*
X91250000Y-76845000D03*
D14*
G04 #@! TO.N,GND*
G04 #@! TO.C,U1*
G36*
X91925977Y-75300662D02*
X91939325Y-75302642D01*
X91952414Y-75305921D01*
X91965119Y-75310467D01*
X91977317Y-75316236D01*
X91988891Y-75323173D01*
X91999729Y-75331211D01*
X92009727Y-75340273D01*
X92018789Y-75350271D01*
X92026827Y-75361109D01*
X92033764Y-75372683D01*
X92039533Y-75384881D01*
X92044079Y-75397586D01*
X92047358Y-75410675D01*
X92049338Y-75424023D01*
X92050000Y-75437500D01*
X92050000Y-75712500D01*
X92049338Y-75725977D01*
X92047358Y-75739325D01*
X92044079Y-75752414D01*
X92039533Y-75765119D01*
X92033764Y-75777317D01*
X92026827Y-75788891D01*
X92018789Y-75799729D01*
X92009727Y-75809727D01*
X91999729Y-75818789D01*
X91988891Y-75826827D01*
X91977317Y-75833764D01*
X91965119Y-75839533D01*
X91952414Y-75844079D01*
X91939325Y-75847358D01*
X91925977Y-75849338D01*
X91912500Y-75850000D01*
X90587500Y-75850000D01*
X90574023Y-75849338D01*
X90560675Y-75847358D01*
X90547586Y-75844079D01*
X90534881Y-75839533D01*
X90522683Y-75833764D01*
X90511109Y-75826827D01*
X90500271Y-75818789D01*
X90490273Y-75809727D01*
X90481211Y-75799729D01*
X90473173Y-75788891D01*
X90466236Y-75777317D01*
X90460467Y-75765119D01*
X90455921Y-75752414D01*
X90452642Y-75739325D01*
X90450662Y-75725977D01*
X90450000Y-75712500D01*
X90450000Y-75437500D01*
X90450662Y-75424023D01*
X90452642Y-75410675D01*
X90455921Y-75397586D01*
X90460467Y-75384881D01*
X90466236Y-75372683D01*
X90473173Y-75361109D01*
X90481211Y-75350271D01*
X90490273Y-75340273D01*
X90500271Y-75331211D01*
X90511109Y-75323173D01*
X90522683Y-75316236D01*
X90534881Y-75310467D01*
X90547586Y-75305921D01*
X90560675Y-75302642D01*
X90574023Y-75300662D01*
X90587500Y-75300000D01*
X91912500Y-75300000D01*
X91925977Y-75300662D01*
X91925977Y-75300662D01*
G37*
D23*
G04 #@! TD*
G04 #@! TO.P,U1,15*
G04 #@! TO.N,GND*
X91250000Y-75575000D03*
D14*
G04 #@! TO.N,/CLK*
G04 #@! TO.C,U1*
G36*
X91925977Y-74030662D02*
X91939325Y-74032642D01*
X91952414Y-74035921D01*
X91965119Y-74040467D01*
X91977317Y-74046236D01*
X91988891Y-74053173D01*
X91999729Y-74061211D01*
X92009727Y-74070273D01*
X92018789Y-74080271D01*
X92026827Y-74091109D01*
X92033764Y-74102683D01*
X92039533Y-74114881D01*
X92044079Y-74127586D01*
X92047358Y-74140675D01*
X92049338Y-74154023D01*
X92050000Y-74167500D01*
X92050000Y-74442500D01*
X92049338Y-74455977D01*
X92047358Y-74469325D01*
X92044079Y-74482414D01*
X92039533Y-74495119D01*
X92033764Y-74507317D01*
X92026827Y-74518891D01*
X92018789Y-74529729D01*
X92009727Y-74539727D01*
X91999729Y-74548789D01*
X91988891Y-74556827D01*
X91977317Y-74563764D01*
X91965119Y-74569533D01*
X91952414Y-74574079D01*
X91939325Y-74577358D01*
X91925977Y-74579338D01*
X91912500Y-74580000D01*
X90587500Y-74580000D01*
X90574023Y-74579338D01*
X90560675Y-74577358D01*
X90547586Y-74574079D01*
X90534881Y-74569533D01*
X90522683Y-74563764D01*
X90511109Y-74556827D01*
X90500271Y-74548789D01*
X90490273Y-74539727D01*
X90481211Y-74529729D01*
X90473173Y-74518891D01*
X90466236Y-74507317D01*
X90460467Y-74495119D01*
X90455921Y-74482414D01*
X90452642Y-74469325D01*
X90450662Y-74455977D01*
X90450000Y-74442500D01*
X90450000Y-74167500D01*
X90450662Y-74154023D01*
X90452642Y-74140675D01*
X90455921Y-74127586D01*
X90460467Y-74114881D01*
X90466236Y-74102683D01*
X90473173Y-74091109D01*
X90481211Y-74080271D01*
X90490273Y-74070273D01*
X90500271Y-74061211D01*
X90511109Y-74053173D01*
X90522683Y-74046236D01*
X90534881Y-74040467D01*
X90547586Y-74035921D01*
X90560675Y-74032642D01*
X90574023Y-74030662D01*
X90587500Y-74030000D01*
X91912500Y-74030000D01*
X91925977Y-74030662D01*
X91925977Y-74030662D01*
G37*
D23*
G04 #@! TD*
G04 #@! TO.P,U1,16*
G04 #@! TO.N,/CLK*
X91250000Y-74305000D03*
D14*
G04 #@! TO.N,/B8*
G04 #@! TO.C,U2*
G36*
X91925977Y-59030662D02*
X91939325Y-59032642D01*
X91952414Y-59035921D01*
X91965119Y-59040467D01*
X91977317Y-59046236D01*
X91988891Y-59053173D01*
X91999729Y-59061211D01*
X92009727Y-59070273D01*
X92018789Y-59080271D01*
X92026827Y-59091109D01*
X92033764Y-59102683D01*
X92039533Y-59114881D01*
X92044079Y-59127586D01*
X92047358Y-59140675D01*
X92049338Y-59154023D01*
X92050000Y-59167500D01*
X92050000Y-59442500D01*
X92049338Y-59455977D01*
X92047358Y-59469325D01*
X92044079Y-59482414D01*
X92039533Y-59495119D01*
X92033764Y-59507317D01*
X92026827Y-59518891D01*
X92018789Y-59529729D01*
X92009727Y-59539727D01*
X91999729Y-59548789D01*
X91988891Y-59556827D01*
X91977317Y-59563764D01*
X91965119Y-59569533D01*
X91952414Y-59574079D01*
X91939325Y-59577358D01*
X91925977Y-59579338D01*
X91912500Y-59580000D01*
X90587500Y-59580000D01*
X90574023Y-59579338D01*
X90560675Y-59577358D01*
X90547586Y-59574079D01*
X90534881Y-59569533D01*
X90522683Y-59563764D01*
X90511109Y-59556827D01*
X90500271Y-59548789D01*
X90490273Y-59539727D01*
X90481211Y-59529729D01*
X90473173Y-59518891D01*
X90466236Y-59507317D01*
X90460467Y-59495119D01*
X90455921Y-59482414D01*
X90452642Y-59469325D01*
X90450662Y-59455977D01*
X90450000Y-59442500D01*
X90450000Y-59167500D01*
X90450662Y-59154023D01*
X90452642Y-59140675D01*
X90455921Y-59127586D01*
X90460467Y-59114881D01*
X90466236Y-59102683D01*
X90473173Y-59091109D01*
X90481211Y-59080271D01*
X90490273Y-59070273D01*
X90500271Y-59061211D01*
X90511109Y-59053173D01*
X90522683Y-59046236D01*
X90534881Y-59040467D01*
X90547586Y-59035921D01*
X90560675Y-59032642D01*
X90574023Y-59030662D01*
X90587500Y-59030000D01*
X91912500Y-59030000D01*
X91925977Y-59030662D01*
X91925977Y-59030662D01*
G37*
D23*
G04 #@! TD*
G04 #@! TO.P,U2,16*
G04 #@! TO.N,/B8*
X91250000Y-59305000D03*
D14*
G04 #@! TO.N,GND*
G04 #@! TO.C,U2*
G36*
X91925977Y-60300662D02*
X91939325Y-60302642D01*
X91952414Y-60305921D01*
X91965119Y-60310467D01*
X91977317Y-60316236D01*
X91988891Y-60323173D01*
X91999729Y-60331211D01*
X92009727Y-60340273D01*
X92018789Y-60350271D01*
X92026827Y-60361109D01*
X92033764Y-60372683D01*
X92039533Y-60384881D01*
X92044079Y-60397586D01*
X92047358Y-60410675D01*
X92049338Y-60424023D01*
X92050000Y-60437500D01*
X92050000Y-60712500D01*
X92049338Y-60725977D01*
X92047358Y-60739325D01*
X92044079Y-60752414D01*
X92039533Y-60765119D01*
X92033764Y-60777317D01*
X92026827Y-60788891D01*
X92018789Y-60799729D01*
X92009727Y-60809727D01*
X91999729Y-60818789D01*
X91988891Y-60826827D01*
X91977317Y-60833764D01*
X91965119Y-60839533D01*
X91952414Y-60844079D01*
X91939325Y-60847358D01*
X91925977Y-60849338D01*
X91912500Y-60850000D01*
X90587500Y-60850000D01*
X90574023Y-60849338D01*
X90560675Y-60847358D01*
X90547586Y-60844079D01*
X90534881Y-60839533D01*
X90522683Y-60833764D01*
X90511109Y-60826827D01*
X90500271Y-60818789D01*
X90490273Y-60809727D01*
X90481211Y-60799729D01*
X90473173Y-60788891D01*
X90466236Y-60777317D01*
X90460467Y-60765119D01*
X90455921Y-60752414D01*
X90452642Y-60739325D01*
X90450662Y-60725977D01*
X90450000Y-60712500D01*
X90450000Y-60437500D01*
X90450662Y-60424023D01*
X90452642Y-60410675D01*
X90455921Y-60397586D01*
X90460467Y-60384881D01*
X90466236Y-60372683D01*
X90473173Y-60361109D01*
X90481211Y-60350271D01*
X90490273Y-60340273D01*
X90500271Y-60331211D01*
X90511109Y-60323173D01*
X90522683Y-60316236D01*
X90534881Y-60310467D01*
X90547586Y-60305921D01*
X90560675Y-60302642D01*
X90574023Y-60300662D01*
X90587500Y-60300000D01*
X91912500Y-60300000D01*
X91925977Y-60300662D01*
X91925977Y-60300662D01*
G37*
D23*
G04 #@! TD*
G04 #@! TO.P,U2,15*
G04 #@! TO.N,GND*
X91250000Y-60575000D03*
D14*
G04 #@! TO.N,/B4*
G04 #@! TO.C,U2*
G36*
X91925977Y-61570662D02*
X91939325Y-61572642D01*
X91952414Y-61575921D01*
X91965119Y-61580467D01*
X91977317Y-61586236D01*
X91988891Y-61593173D01*
X91999729Y-61601211D01*
X92009727Y-61610273D01*
X92018789Y-61620271D01*
X92026827Y-61631109D01*
X92033764Y-61642683D01*
X92039533Y-61654881D01*
X92044079Y-61667586D01*
X92047358Y-61680675D01*
X92049338Y-61694023D01*
X92050000Y-61707500D01*
X92050000Y-61982500D01*
X92049338Y-61995977D01*
X92047358Y-62009325D01*
X92044079Y-62022414D01*
X92039533Y-62035119D01*
X92033764Y-62047317D01*
X92026827Y-62058891D01*
X92018789Y-62069729D01*
X92009727Y-62079727D01*
X91999729Y-62088789D01*
X91988891Y-62096827D01*
X91977317Y-62103764D01*
X91965119Y-62109533D01*
X91952414Y-62114079D01*
X91939325Y-62117358D01*
X91925977Y-62119338D01*
X91912500Y-62120000D01*
X90587500Y-62120000D01*
X90574023Y-62119338D01*
X90560675Y-62117358D01*
X90547586Y-62114079D01*
X90534881Y-62109533D01*
X90522683Y-62103764D01*
X90511109Y-62096827D01*
X90500271Y-62088789D01*
X90490273Y-62079727D01*
X90481211Y-62069729D01*
X90473173Y-62058891D01*
X90466236Y-62047317D01*
X90460467Y-62035119D01*
X90455921Y-62022414D01*
X90452642Y-62009325D01*
X90450662Y-61995977D01*
X90450000Y-61982500D01*
X90450000Y-61707500D01*
X90450662Y-61694023D01*
X90452642Y-61680675D01*
X90455921Y-61667586D01*
X90460467Y-61654881D01*
X90466236Y-61642683D01*
X90473173Y-61631109D01*
X90481211Y-61620271D01*
X90490273Y-61610273D01*
X90500271Y-61601211D01*
X90511109Y-61593173D01*
X90522683Y-61586236D01*
X90534881Y-61580467D01*
X90547586Y-61575921D01*
X90560675Y-61572642D01*
X90574023Y-61570662D01*
X90587500Y-61570000D01*
X91912500Y-61570000D01*
X91925977Y-61570662D01*
X91925977Y-61570662D01*
G37*
D23*
G04 #@! TD*
G04 #@! TO.P,U2,14*
G04 #@! TO.N,/B4*
X91250000Y-61845000D03*
D14*
G04 #@! TO.N,GND*
G04 #@! TO.C,U2*
G36*
X91925977Y-62840662D02*
X91939325Y-62842642D01*
X91952414Y-62845921D01*
X91965119Y-62850467D01*
X91977317Y-62856236D01*
X91988891Y-62863173D01*
X91999729Y-62871211D01*
X92009727Y-62880273D01*
X92018789Y-62890271D01*
X92026827Y-62901109D01*
X92033764Y-62912683D01*
X92039533Y-62924881D01*
X92044079Y-62937586D01*
X92047358Y-62950675D01*
X92049338Y-62964023D01*
X92050000Y-62977500D01*
X92050000Y-63252500D01*
X92049338Y-63265977D01*
X92047358Y-63279325D01*
X92044079Y-63292414D01*
X92039533Y-63305119D01*
X92033764Y-63317317D01*
X92026827Y-63328891D01*
X92018789Y-63339729D01*
X92009727Y-63349727D01*
X91999729Y-63358789D01*
X91988891Y-63366827D01*
X91977317Y-63373764D01*
X91965119Y-63379533D01*
X91952414Y-63384079D01*
X91939325Y-63387358D01*
X91925977Y-63389338D01*
X91912500Y-63390000D01*
X90587500Y-63390000D01*
X90574023Y-63389338D01*
X90560675Y-63387358D01*
X90547586Y-63384079D01*
X90534881Y-63379533D01*
X90522683Y-63373764D01*
X90511109Y-63366827D01*
X90500271Y-63358789D01*
X90490273Y-63349727D01*
X90481211Y-63339729D01*
X90473173Y-63328891D01*
X90466236Y-63317317D01*
X90460467Y-63305119D01*
X90455921Y-63292414D01*
X90452642Y-63279325D01*
X90450662Y-63265977D01*
X90450000Y-63252500D01*
X90450000Y-62977500D01*
X90450662Y-62964023D01*
X90452642Y-62950675D01*
X90455921Y-62937586D01*
X90460467Y-62924881D01*
X90466236Y-62912683D01*
X90473173Y-62901109D01*
X90481211Y-62890271D01*
X90490273Y-62880273D01*
X90500271Y-62871211D01*
X90511109Y-62863173D01*
X90522683Y-62856236D01*
X90534881Y-62850467D01*
X90547586Y-62845921D01*
X90560675Y-62842642D01*
X90574023Y-62840662D01*
X90587500Y-62840000D01*
X91912500Y-62840000D01*
X91925977Y-62840662D01*
X91925977Y-62840662D01*
G37*
D23*
G04 #@! TD*
G04 #@! TO.P,U2,13*
G04 #@! TO.N,GND*
X91250000Y-63115000D03*
D14*
G04 #@! TO.N,/B2*
G04 #@! TO.C,U2*
G36*
X91925977Y-64110662D02*
X91939325Y-64112642D01*
X91952414Y-64115921D01*
X91965119Y-64120467D01*
X91977317Y-64126236D01*
X91988891Y-64133173D01*
X91999729Y-64141211D01*
X92009727Y-64150273D01*
X92018789Y-64160271D01*
X92026827Y-64171109D01*
X92033764Y-64182683D01*
X92039533Y-64194881D01*
X92044079Y-64207586D01*
X92047358Y-64220675D01*
X92049338Y-64234023D01*
X92050000Y-64247500D01*
X92050000Y-64522500D01*
X92049338Y-64535977D01*
X92047358Y-64549325D01*
X92044079Y-64562414D01*
X92039533Y-64575119D01*
X92033764Y-64587317D01*
X92026827Y-64598891D01*
X92018789Y-64609729D01*
X92009727Y-64619727D01*
X91999729Y-64628789D01*
X91988891Y-64636827D01*
X91977317Y-64643764D01*
X91965119Y-64649533D01*
X91952414Y-64654079D01*
X91939325Y-64657358D01*
X91925977Y-64659338D01*
X91912500Y-64660000D01*
X90587500Y-64660000D01*
X90574023Y-64659338D01*
X90560675Y-64657358D01*
X90547586Y-64654079D01*
X90534881Y-64649533D01*
X90522683Y-64643764D01*
X90511109Y-64636827D01*
X90500271Y-64628789D01*
X90490273Y-64619727D01*
X90481211Y-64609729D01*
X90473173Y-64598891D01*
X90466236Y-64587317D01*
X90460467Y-64575119D01*
X90455921Y-64562414D01*
X90452642Y-64549325D01*
X90450662Y-64535977D01*
X90450000Y-64522500D01*
X90450000Y-64247500D01*
X90450662Y-64234023D01*
X90452642Y-64220675D01*
X90455921Y-64207586D01*
X90460467Y-64194881D01*
X90466236Y-64182683D01*
X90473173Y-64171109D01*
X90481211Y-64160271D01*
X90490273Y-64150273D01*
X90500271Y-64141211D01*
X90511109Y-64133173D01*
X90522683Y-64126236D01*
X90534881Y-64120467D01*
X90547586Y-64115921D01*
X90560675Y-64112642D01*
X90574023Y-64110662D01*
X90587500Y-64110000D01*
X91912500Y-64110000D01*
X91925977Y-64110662D01*
X91925977Y-64110662D01*
G37*
D23*
G04 #@! TD*
G04 #@! TO.P,U2,12*
G04 #@! TO.N,/B2*
X91250000Y-64385000D03*
D14*
G04 #@! TO.N,GND*
G04 #@! TO.C,U2*
G36*
X91925977Y-65380662D02*
X91939325Y-65382642D01*
X91952414Y-65385921D01*
X91965119Y-65390467D01*
X91977317Y-65396236D01*
X91988891Y-65403173D01*
X91999729Y-65411211D01*
X92009727Y-65420273D01*
X92018789Y-65430271D01*
X92026827Y-65441109D01*
X92033764Y-65452683D01*
X92039533Y-65464881D01*
X92044079Y-65477586D01*
X92047358Y-65490675D01*
X92049338Y-65504023D01*
X92050000Y-65517500D01*
X92050000Y-65792500D01*
X92049338Y-65805977D01*
X92047358Y-65819325D01*
X92044079Y-65832414D01*
X92039533Y-65845119D01*
X92033764Y-65857317D01*
X92026827Y-65868891D01*
X92018789Y-65879729D01*
X92009727Y-65889727D01*
X91999729Y-65898789D01*
X91988891Y-65906827D01*
X91977317Y-65913764D01*
X91965119Y-65919533D01*
X91952414Y-65924079D01*
X91939325Y-65927358D01*
X91925977Y-65929338D01*
X91912500Y-65930000D01*
X90587500Y-65930000D01*
X90574023Y-65929338D01*
X90560675Y-65927358D01*
X90547586Y-65924079D01*
X90534881Y-65919533D01*
X90522683Y-65913764D01*
X90511109Y-65906827D01*
X90500271Y-65898789D01*
X90490273Y-65889727D01*
X90481211Y-65879729D01*
X90473173Y-65868891D01*
X90466236Y-65857317D01*
X90460467Y-65845119D01*
X90455921Y-65832414D01*
X90452642Y-65819325D01*
X90450662Y-65805977D01*
X90450000Y-65792500D01*
X90450000Y-65517500D01*
X90450662Y-65504023D01*
X90452642Y-65490675D01*
X90455921Y-65477586D01*
X90460467Y-65464881D01*
X90466236Y-65452683D01*
X90473173Y-65441109D01*
X90481211Y-65430271D01*
X90490273Y-65420273D01*
X90500271Y-65411211D01*
X90511109Y-65403173D01*
X90522683Y-65396236D01*
X90534881Y-65390467D01*
X90547586Y-65385921D01*
X90560675Y-65382642D01*
X90574023Y-65380662D01*
X90587500Y-65380000D01*
X91912500Y-65380000D01*
X91925977Y-65380662D01*
X91925977Y-65380662D01*
G37*
D23*
G04 #@! TD*
G04 #@! TO.P,U2,11*
G04 #@! TO.N,GND*
X91250000Y-65655000D03*
D14*
G04 #@! TO.N,/B1*
G04 #@! TO.C,U2*
G36*
X91925977Y-66650662D02*
X91939325Y-66652642D01*
X91952414Y-66655921D01*
X91965119Y-66660467D01*
X91977317Y-66666236D01*
X91988891Y-66673173D01*
X91999729Y-66681211D01*
X92009727Y-66690273D01*
X92018789Y-66700271D01*
X92026827Y-66711109D01*
X92033764Y-66722683D01*
X92039533Y-66734881D01*
X92044079Y-66747586D01*
X92047358Y-66760675D01*
X92049338Y-66774023D01*
X92050000Y-66787500D01*
X92050000Y-67062500D01*
X92049338Y-67075977D01*
X92047358Y-67089325D01*
X92044079Y-67102414D01*
X92039533Y-67115119D01*
X92033764Y-67127317D01*
X92026827Y-67138891D01*
X92018789Y-67149729D01*
X92009727Y-67159727D01*
X91999729Y-67168789D01*
X91988891Y-67176827D01*
X91977317Y-67183764D01*
X91965119Y-67189533D01*
X91952414Y-67194079D01*
X91939325Y-67197358D01*
X91925977Y-67199338D01*
X91912500Y-67200000D01*
X90587500Y-67200000D01*
X90574023Y-67199338D01*
X90560675Y-67197358D01*
X90547586Y-67194079D01*
X90534881Y-67189533D01*
X90522683Y-67183764D01*
X90511109Y-67176827D01*
X90500271Y-67168789D01*
X90490273Y-67159727D01*
X90481211Y-67149729D01*
X90473173Y-67138891D01*
X90466236Y-67127317D01*
X90460467Y-67115119D01*
X90455921Y-67102414D01*
X90452642Y-67089325D01*
X90450662Y-67075977D01*
X90450000Y-67062500D01*
X90450000Y-66787500D01*
X90450662Y-66774023D01*
X90452642Y-66760675D01*
X90455921Y-66747586D01*
X90460467Y-66734881D01*
X90466236Y-66722683D01*
X90473173Y-66711109D01*
X90481211Y-66700271D01*
X90490273Y-66690273D01*
X90500271Y-66681211D01*
X90511109Y-66673173D01*
X90522683Y-66666236D01*
X90534881Y-66660467D01*
X90547586Y-66655921D01*
X90560675Y-66652642D01*
X90574023Y-66650662D01*
X90587500Y-66650000D01*
X91912500Y-66650000D01*
X91925977Y-66650662D01*
X91925977Y-66650662D01*
G37*
D23*
G04 #@! TD*
G04 #@! TO.P,U2,10*
G04 #@! TO.N,/B1*
X91250000Y-66925000D03*
D14*
G04 #@! TO.N,GND*
G04 #@! TO.C,U2*
G36*
X91925977Y-67920662D02*
X91939325Y-67922642D01*
X91952414Y-67925921D01*
X91965119Y-67930467D01*
X91977317Y-67936236D01*
X91988891Y-67943173D01*
X91999729Y-67951211D01*
X92009727Y-67960273D01*
X92018789Y-67970271D01*
X92026827Y-67981109D01*
X92033764Y-67992683D01*
X92039533Y-68004881D01*
X92044079Y-68017586D01*
X92047358Y-68030675D01*
X92049338Y-68044023D01*
X92050000Y-68057500D01*
X92050000Y-68332500D01*
X92049338Y-68345977D01*
X92047358Y-68359325D01*
X92044079Y-68372414D01*
X92039533Y-68385119D01*
X92033764Y-68397317D01*
X92026827Y-68408891D01*
X92018789Y-68419729D01*
X92009727Y-68429727D01*
X91999729Y-68438789D01*
X91988891Y-68446827D01*
X91977317Y-68453764D01*
X91965119Y-68459533D01*
X91952414Y-68464079D01*
X91939325Y-68467358D01*
X91925977Y-68469338D01*
X91912500Y-68470000D01*
X90587500Y-68470000D01*
X90574023Y-68469338D01*
X90560675Y-68467358D01*
X90547586Y-68464079D01*
X90534881Y-68459533D01*
X90522683Y-68453764D01*
X90511109Y-68446827D01*
X90500271Y-68438789D01*
X90490273Y-68429727D01*
X90481211Y-68419729D01*
X90473173Y-68408891D01*
X90466236Y-68397317D01*
X90460467Y-68385119D01*
X90455921Y-68372414D01*
X90452642Y-68359325D01*
X90450662Y-68345977D01*
X90450000Y-68332500D01*
X90450000Y-68057500D01*
X90450662Y-68044023D01*
X90452642Y-68030675D01*
X90455921Y-68017586D01*
X90460467Y-68004881D01*
X90466236Y-67992683D01*
X90473173Y-67981109D01*
X90481211Y-67970271D01*
X90490273Y-67960273D01*
X90500271Y-67951211D01*
X90511109Y-67943173D01*
X90522683Y-67936236D01*
X90534881Y-67930467D01*
X90547586Y-67925921D01*
X90560675Y-67922642D01*
X90574023Y-67920662D01*
X90587500Y-67920000D01*
X91912500Y-67920000D01*
X91925977Y-67920662D01*
X91925977Y-67920662D01*
G37*
D23*
G04 #@! TD*
G04 #@! TO.P,U2,9*
G04 #@! TO.N,GND*
X91250000Y-68195000D03*
D14*
G04 #@! TO.N,Net-(RN2-Pad5)*
G04 #@! TO.C,U2*
G36*
X85425977Y-67920662D02*
X85439325Y-67922642D01*
X85452414Y-67925921D01*
X85465119Y-67930467D01*
X85477317Y-67936236D01*
X85488891Y-67943173D01*
X85499729Y-67951211D01*
X85509727Y-67960273D01*
X85518789Y-67970271D01*
X85526827Y-67981109D01*
X85533764Y-67992683D01*
X85539533Y-68004881D01*
X85544079Y-68017586D01*
X85547358Y-68030675D01*
X85549338Y-68044023D01*
X85550000Y-68057500D01*
X85550000Y-68332500D01*
X85549338Y-68345977D01*
X85547358Y-68359325D01*
X85544079Y-68372414D01*
X85539533Y-68385119D01*
X85533764Y-68397317D01*
X85526827Y-68408891D01*
X85518789Y-68419729D01*
X85509727Y-68429727D01*
X85499729Y-68438789D01*
X85488891Y-68446827D01*
X85477317Y-68453764D01*
X85465119Y-68459533D01*
X85452414Y-68464079D01*
X85439325Y-68467358D01*
X85425977Y-68469338D01*
X85412500Y-68470000D01*
X84087500Y-68470000D01*
X84074023Y-68469338D01*
X84060675Y-68467358D01*
X84047586Y-68464079D01*
X84034881Y-68459533D01*
X84022683Y-68453764D01*
X84011109Y-68446827D01*
X84000271Y-68438789D01*
X83990273Y-68429727D01*
X83981211Y-68419729D01*
X83973173Y-68408891D01*
X83966236Y-68397317D01*
X83960467Y-68385119D01*
X83955921Y-68372414D01*
X83952642Y-68359325D01*
X83950662Y-68345977D01*
X83950000Y-68332500D01*
X83950000Y-68057500D01*
X83950662Y-68044023D01*
X83952642Y-68030675D01*
X83955921Y-68017586D01*
X83960467Y-68004881D01*
X83966236Y-67992683D01*
X83973173Y-67981109D01*
X83981211Y-67970271D01*
X83990273Y-67960273D01*
X84000271Y-67951211D01*
X84011109Y-67943173D01*
X84022683Y-67936236D01*
X84034881Y-67930467D01*
X84047586Y-67925921D01*
X84060675Y-67922642D01*
X84074023Y-67920662D01*
X84087500Y-67920000D01*
X85412500Y-67920000D01*
X85425977Y-67920662D01*
X85425977Y-67920662D01*
G37*
D23*
G04 #@! TD*
G04 #@! TO.P,U2,8*
G04 #@! TO.N,Net-(RN2-Pad5)*
X84750000Y-68195000D03*
D14*
G04 #@! TO.N,/B1_IN*
G04 #@! TO.C,U2*
G36*
X85425977Y-66650662D02*
X85439325Y-66652642D01*
X85452414Y-66655921D01*
X85465119Y-66660467D01*
X85477317Y-66666236D01*
X85488891Y-66673173D01*
X85499729Y-66681211D01*
X85509727Y-66690273D01*
X85518789Y-66700271D01*
X85526827Y-66711109D01*
X85533764Y-66722683D01*
X85539533Y-66734881D01*
X85544079Y-66747586D01*
X85547358Y-66760675D01*
X85549338Y-66774023D01*
X85550000Y-66787500D01*
X85550000Y-67062500D01*
X85549338Y-67075977D01*
X85547358Y-67089325D01*
X85544079Y-67102414D01*
X85539533Y-67115119D01*
X85533764Y-67127317D01*
X85526827Y-67138891D01*
X85518789Y-67149729D01*
X85509727Y-67159727D01*
X85499729Y-67168789D01*
X85488891Y-67176827D01*
X85477317Y-67183764D01*
X85465119Y-67189533D01*
X85452414Y-67194079D01*
X85439325Y-67197358D01*
X85425977Y-67199338D01*
X85412500Y-67200000D01*
X84087500Y-67200000D01*
X84074023Y-67199338D01*
X84060675Y-67197358D01*
X84047586Y-67194079D01*
X84034881Y-67189533D01*
X84022683Y-67183764D01*
X84011109Y-67176827D01*
X84000271Y-67168789D01*
X83990273Y-67159727D01*
X83981211Y-67149729D01*
X83973173Y-67138891D01*
X83966236Y-67127317D01*
X83960467Y-67115119D01*
X83955921Y-67102414D01*
X83952642Y-67089325D01*
X83950662Y-67075977D01*
X83950000Y-67062500D01*
X83950000Y-66787500D01*
X83950662Y-66774023D01*
X83952642Y-66760675D01*
X83955921Y-66747586D01*
X83960467Y-66734881D01*
X83966236Y-66722683D01*
X83973173Y-66711109D01*
X83981211Y-66700271D01*
X83990273Y-66690273D01*
X84000271Y-66681211D01*
X84011109Y-66673173D01*
X84022683Y-66666236D01*
X84034881Y-66660467D01*
X84047586Y-66655921D01*
X84060675Y-66652642D01*
X84074023Y-66650662D01*
X84087500Y-66650000D01*
X85412500Y-66650000D01*
X85425977Y-66650662D01*
X85425977Y-66650662D01*
G37*
D23*
G04 #@! TD*
G04 #@! TO.P,U2,7*
G04 #@! TO.N,/B1_IN*
X84750000Y-66925000D03*
D14*
G04 #@! TO.N,Net-(RN2-Pad6)*
G04 #@! TO.C,U2*
G36*
X85425977Y-65380662D02*
X85439325Y-65382642D01*
X85452414Y-65385921D01*
X85465119Y-65390467D01*
X85477317Y-65396236D01*
X85488891Y-65403173D01*
X85499729Y-65411211D01*
X85509727Y-65420273D01*
X85518789Y-65430271D01*
X85526827Y-65441109D01*
X85533764Y-65452683D01*
X85539533Y-65464881D01*
X85544079Y-65477586D01*
X85547358Y-65490675D01*
X85549338Y-65504023D01*
X85550000Y-65517500D01*
X85550000Y-65792500D01*
X85549338Y-65805977D01*
X85547358Y-65819325D01*
X85544079Y-65832414D01*
X85539533Y-65845119D01*
X85533764Y-65857317D01*
X85526827Y-65868891D01*
X85518789Y-65879729D01*
X85509727Y-65889727D01*
X85499729Y-65898789D01*
X85488891Y-65906827D01*
X85477317Y-65913764D01*
X85465119Y-65919533D01*
X85452414Y-65924079D01*
X85439325Y-65927358D01*
X85425977Y-65929338D01*
X85412500Y-65930000D01*
X84087500Y-65930000D01*
X84074023Y-65929338D01*
X84060675Y-65927358D01*
X84047586Y-65924079D01*
X84034881Y-65919533D01*
X84022683Y-65913764D01*
X84011109Y-65906827D01*
X84000271Y-65898789D01*
X83990273Y-65889727D01*
X83981211Y-65879729D01*
X83973173Y-65868891D01*
X83966236Y-65857317D01*
X83960467Y-65845119D01*
X83955921Y-65832414D01*
X83952642Y-65819325D01*
X83950662Y-65805977D01*
X83950000Y-65792500D01*
X83950000Y-65517500D01*
X83950662Y-65504023D01*
X83952642Y-65490675D01*
X83955921Y-65477586D01*
X83960467Y-65464881D01*
X83966236Y-65452683D01*
X83973173Y-65441109D01*
X83981211Y-65430271D01*
X83990273Y-65420273D01*
X84000271Y-65411211D01*
X84011109Y-65403173D01*
X84022683Y-65396236D01*
X84034881Y-65390467D01*
X84047586Y-65385921D01*
X84060675Y-65382642D01*
X84074023Y-65380662D01*
X84087500Y-65380000D01*
X85412500Y-65380000D01*
X85425977Y-65380662D01*
X85425977Y-65380662D01*
G37*
D23*
G04 #@! TD*
G04 #@! TO.P,U2,6*
G04 #@! TO.N,Net-(RN2-Pad6)*
X84750000Y-65655000D03*
D14*
G04 #@! TO.N,/B2_IN*
G04 #@! TO.C,U2*
G36*
X85425977Y-64110662D02*
X85439325Y-64112642D01*
X85452414Y-64115921D01*
X85465119Y-64120467D01*
X85477317Y-64126236D01*
X85488891Y-64133173D01*
X85499729Y-64141211D01*
X85509727Y-64150273D01*
X85518789Y-64160271D01*
X85526827Y-64171109D01*
X85533764Y-64182683D01*
X85539533Y-64194881D01*
X85544079Y-64207586D01*
X85547358Y-64220675D01*
X85549338Y-64234023D01*
X85550000Y-64247500D01*
X85550000Y-64522500D01*
X85549338Y-64535977D01*
X85547358Y-64549325D01*
X85544079Y-64562414D01*
X85539533Y-64575119D01*
X85533764Y-64587317D01*
X85526827Y-64598891D01*
X85518789Y-64609729D01*
X85509727Y-64619727D01*
X85499729Y-64628789D01*
X85488891Y-64636827D01*
X85477317Y-64643764D01*
X85465119Y-64649533D01*
X85452414Y-64654079D01*
X85439325Y-64657358D01*
X85425977Y-64659338D01*
X85412500Y-64660000D01*
X84087500Y-64660000D01*
X84074023Y-64659338D01*
X84060675Y-64657358D01*
X84047586Y-64654079D01*
X84034881Y-64649533D01*
X84022683Y-64643764D01*
X84011109Y-64636827D01*
X84000271Y-64628789D01*
X83990273Y-64619727D01*
X83981211Y-64609729D01*
X83973173Y-64598891D01*
X83966236Y-64587317D01*
X83960467Y-64575119D01*
X83955921Y-64562414D01*
X83952642Y-64549325D01*
X83950662Y-64535977D01*
X83950000Y-64522500D01*
X83950000Y-64247500D01*
X83950662Y-64234023D01*
X83952642Y-64220675D01*
X83955921Y-64207586D01*
X83960467Y-64194881D01*
X83966236Y-64182683D01*
X83973173Y-64171109D01*
X83981211Y-64160271D01*
X83990273Y-64150273D01*
X84000271Y-64141211D01*
X84011109Y-64133173D01*
X84022683Y-64126236D01*
X84034881Y-64120467D01*
X84047586Y-64115921D01*
X84060675Y-64112642D01*
X84074023Y-64110662D01*
X84087500Y-64110000D01*
X85412500Y-64110000D01*
X85425977Y-64110662D01*
X85425977Y-64110662D01*
G37*
D23*
G04 #@! TD*
G04 #@! TO.P,U2,5*
G04 #@! TO.N,/B2_IN*
X84750000Y-64385000D03*
D14*
G04 #@! TO.N,Net-(RN2-Pad7)*
G04 #@! TO.C,U2*
G36*
X85425977Y-62840662D02*
X85439325Y-62842642D01*
X85452414Y-62845921D01*
X85465119Y-62850467D01*
X85477317Y-62856236D01*
X85488891Y-62863173D01*
X85499729Y-62871211D01*
X85509727Y-62880273D01*
X85518789Y-62890271D01*
X85526827Y-62901109D01*
X85533764Y-62912683D01*
X85539533Y-62924881D01*
X85544079Y-62937586D01*
X85547358Y-62950675D01*
X85549338Y-62964023D01*
X85550000Y-62977500D01*
X85550000Y-63252500D01*
X85549338Y-63265977D01*
X85547358Y-63279325D01*
X85544079Y-63292414D01*
X85539533Y-63305119D01*
X85533764Y-63317317D01*
X85526827Y-63328891D01*
X85518789Y-63339729D01*
X85509727Y-63349727D01*
X85499729Y-63358789D01*
X85488891Y-63366827D01*
X85477317Y-63373764D01*
X85465119Y-63379533D01*
X85452414Y-63384079D01*
X85439325Y-63387358D01*
X85425977Y-63389338D01*
X85412500Y-63390000D01*
X84087500Y-63390000D01*
X84074023Y-63389338D01*
X84060675Y-63387358D01*
X84047586Y-63384079D01*
X84034881Y-63379533D01*
X84022683Y-63373764D01*
X84011109Y-63366827D01*
X84000271Y-63358789D01*
X83990273Y-63349727D01*
X83981211Y-63339729D01*
X83973173Y-63328891D01*
X83966236Y-63317317D01*
X83960467Y-63305119D01*
X83955921Y-63292414D01*
X83952642Y-63279325D01*
X83950662Y-63265977D01*
X83950000Y-63252500D01*
X83950000Y-62977500D01*
X83950662Y-62964023D01*
X83952642Y-62950675D01*
X83955921Y-62937586D01*
X83960467Y-62924881D01*
X83966236Y-62912683D01*
X83973173Y-62901109D01*
X83981211Y-62890271D01*
X83990273Y-62880273D01*
X84000271Y-62871211D01*
X84011109Y-62863173D01*
X84022683Y-62856236D01*
X84034881Y-62850467D01*
X84047586Y-62845921D01*
X84060675Y-62842642D01*
X84074023Y-62840662D01*
X84087500Y-62840000D01*
X85412500Y-62840000D01*
X85425977Y-62840662D01*
X85425977Y-62840662D01*
G37*
D23*
G04 #@! TD*
G04 #@! TO.P,U2,4*
G04 #@! TO.N,Net-(RN2-Pad7)*
X84750000Y-63115000D03*
D14*
G04 #@! TO.N,/B4_IN*
G04 #@! TO.C,U2*
G36*
X85425977Y-61570662D02*
X85439325Y-61572642D01*
X85452414Y-61575921D01*
X85465119Y-61580467D01*
X85477317Y-61586236D01*
X85488891Y-61593173D01*
X85499729Y-61601211D01*
X85509727Y-61610273D01*
X85518789Y-61620271D01*
X85526827Y-61631109D01*
X85533764Y-61642683D01*
X85539533Y-61654881D01*
X85544079Y-61667586D01*
X85547358Y-61680675D01*
X85549338Y-61694023D01*
X85550000Y-61707500D01*
X85550000Y-61982500D01*
X85549338Y-61995977D01*
X85547358Y-62009325D01*
X85544079Y-62022414D01*
X85539533Y-62035119D01*
X85533764Y-62047317D01*
X85526827Y-62058891D01*
X85518789Y-62069729D01*
X85509727Y-62079727D01*
X85499729Y-62088789D01*
X85488891Y-62096827D01*
X85477317Y-62103764D01*
X85465119Y-62109533D01*
X85452414Y-62114079D01*
X85439325Y-62117358D01*
X85425977Y-62119338D01*
X85412500Y-62120000D01*
X84087500Y-62120000D01*
X84074023Y-62119338D01*
X84060675Y-62117358D01*
X84047586Y-62114079D01*
X84034881Y-62109533D01*
X84022683Y-62103764D01*
X84011109Y-62096827D01*
X84000271Y-62088789D01*
X83990273Y-62079727D01*
X83981211Y-62069729D01*
X83973173Y-62058891D01*
X83966236Y-62047317D01*
X83960467Y-62035119D01*
X83955921Y-62022414D01*
X83952642Y-62009325D01*
X83950662Y-61995977D01*
X83950000Y-61982500D01*
X83950000Y-61707500D01*
X83950662Y-61694023D01*
X83952642Y-61680675D01*
X83955921Y-61667586D01*
X83960467Y-61654881D01*
X83966236Y-61642683D01*
X83973173Y-61631109D01*
X83981211Y-61620271D01*
X83990273Y-61610273D01*
X84000271Y-61601211D01*
X84011109Y-61593173D01*
X84022683Y-61586236D01*
X84034881Y-61580467D01*
X84047586Y-61575921D01*
X84060675Y-61572642D01*
X84074023Y-61570662D01*
X84087500Y-61570000D01*
X85412500Y-61570000D01*
X85425977Y-61570662D01*
X85425977Y-61570662D01*
G37*
D23*
G04 #@! TD*
G04 #@! TO.P,U2,3*
G04 #@! TO.N,/B4_IN*
X84750000Y-61845000D03*
D14*
G04 #@! TO.N,Net-(RN2-Pad8)*
G04 #@! TO.C,U2*
G36*
X85425977Y-60300662D02*
X85439325Y-60302642D01*
X85452414Y-60305921D01*
X85465119Y-60310467D01*
X85477317Y-60316236D01*
X85488891Y-60323173D01*
X85499729Y-60331211D01*
X85509727Y-60340273D01*
X85518789Y-60350271D01*
X85526827Y-60361109D01*
X85533764Y-60372683D01*
X85539533Y-60384881D01*
X85544079Y-60397586D01*
X85547358Y-60410675D01*
X85549338Y-60424023D01*
X85550000Y-60437500D01*
X85550000Y-60712500D01*
X85549338Y-60725977D01*
X85547358Y-60739325D01*
X85544079Y-60752414D01*
X85539533Y-60765119D01*
X85533764Y-60777317D01*
X85526827Y-60788891D01*
X85518789Y-60799729D01*
X85509727Y-60809727D01*
X85499729Y-60818789D01*
X85488891Y-60826827D01*
X85477317Y-60833764D01*
X85465119Y-60839533D01*
X85452414Y-60844079D01*
X85439325Y-60847358D01*
X85425977Y-60849338D01*
X85412500Y-60850000D01*
X84087500Y-60850000D01*
X84074023Y-60849338D01*
X84060675Y-60847358D01*
X84047586Y-60844079D01*
X84034881Y-60839533D01*
X84022683Y-60833764D01*
X84011109Y-60826827D01*
X84000271Y-60818789D01*
X83990273Y-60809727D01*
X83981211Y-60799729D01*
X83973173Y-60788891D01*
X83966236Y-60777317D01*
X83960467Y-60765119D01*
X83955921Y-60752414D01*
X83952642Y-60739325D01*
X83950662Y-60725977D01*
X83950000Y-60712500D01*
X83950000Y-60437500D01*
X83950662Y-60424023D01*
X83952642Y-60410675D01*
X83955921Y-60397586D01*
X83960467Y-60384881D01*
X83966236Y-60372683D01*
X83973173Y-60361109D01*
X83981211Y-60350271D01*
X83990273Y-60340273D01*
X84000271Y-60331211D01*
X84011109Y-60323173D01*
X84022683Y-60316236D01*
X84034881Y-60310467D01*
X84047586Y-60305921D01*
X84060675Y-60302642D01*
X84074023Y-60300662D01*
X84087500Y-60300000D01*
X85412500Y-60300000D01*
X85425977Y-60300662D01*
X85425977Y-60300662D01*
G37*
D23*
G04 #@! TD*
G04 #@! TO.P,U2,2*
G04 #@! TO.N,Net-(RN2-Pad8)*
X84750000Y-60575000D03*
D14*
G04 #@! TO.N,/B8_IN*
G04 #@! TO.C,U2*
G36*
X85425977Y-59030662D02*
X85439325Y-59032642D01*
X85452414Y-59035921D01*
X85465119Y-59040467D01*
X85477317Y-59046236D01*
X85488891Y-59053173D01*
X85499729Y-59061211D01*
X85509727Y-59070273D01*
X85518789Y-59080271D01*
X85526827Y-59091109D01*
X85533764Y-59102683D01*
X85539533Y-59114881D01*
X85544079Y-59127586D01*
X85547358Y-59140675D01*
X85549338Y-59154023D01*
X85550000Y-59167500D01*
X85550000Y-59442500D01*
X85549338Y-59455977D01*
X85547358Y-59469325D01*
X85544079Y-59482414D01*
X85539533Y-59495119D01*
X85533764Y-59507317D01*
X85526827Y-59518891D01*
X85518789Y-59529729D01*
X85509727Y-59539727D01*
X85499729Y-59548789D01*
X85488891Y-59556827D01*
X85477317Y-59563764D01*
X85465119Y-59569533D01*
X85452414Y-59574079D01*
X85439325Y-59577358D01*
X85425977Y-59579338D01*
X85412500Y-59580000D01*
X84087500Y-59580000D01*
X84074023Y-59579338D01*
X84060675Y-59577358D01*
X84047586Y-59574079D01*
X84034881Y-59569533D01*
X84022683Y-59563764D01*
X84011109Y-59556827D01*
X84000271Y-59548789D01*
X83990273Y-59539727D01*
X83981211Y-59529729D01*
X83973173Y-59518891D01*
X83966236Y-59507317D01*
X83960467Y-59495119D01*
X83955921Y-59482414D01*
X83952642Y-59469325D01*
X83950662Y-59455977D01*
X83950000Y-59442500D01*
X83950000Y-59167500D01*
X83950662Y-59154023D01*
X83952642Y-59140675D01*
X83955921Y-59127586D01*
X83960467Y-59114881D01*
X83966236Y-59102683D01*
X83973173Y-59091109D01*
X83981211Y-59080271D01*
X83990273Y-59070273D01*
X84000271Y-59061211D01*
X84011109Y-59053173D01*
X84022683Y-59046236D01*
X84034881Y-59040467D01*
X84047586Y-59035921D01*
X84060675Y-59032642D01*
X84074023Y-59030662D01*
X84087500Y-59030000D01*
X85412500Y-59030000D01*
X85425977Y-59030662D01*
X85425977Y-59030662D01*
G37*
D23*
G04 #@! TD*
G04 #@! TO.P,U2,1*
G04 #@! TO.N,/B8_IN*
X84750000Y-59305000D03*
D24*
G04 #@! TO.P,U3,1*
G04 #@! TO.N,+5V*
X114774483Y-68086686D03*
G04 #@! TO.P,U3,2*
G04 #@! TO.N,GND*
X114774483Y-67136686D03*
G04 #@! TO.P,U3,3*
G04 #@! TO.N,+5V*
X114774483Y-66186686D03*
G04 #@! TO.P,U3,4*
G04 #@! TO.N,N/C*
X112574483Y-66186686D03*
G04 #@! TO.P,U3,5*
G04 #@! TO.N,+3V3*
X112574483Y-68086686D03*
G04 #@! TD*
D25*
G04 #@! TO.P,U4,1*
G04 #@! TO.N,/B2*
X100350000Y-69975000D03*
G04 #@! TO.P,U4,2*
G04 #@! TO.N,/B1*
X100350000Y-70625000D03*
G04 #@! TO.P,U4,3*
G04 #@! TO.N,/SBWTCK*
X100350000Y-71275000D03*
G04 #@! TO.P,U4,4*
G04 #@! TO.N,/SBWTDIO*
X100350000Y-71925000D03*
G04 #@! TO.P,U4,5*
G04 #@! TO.N,+3V3*
X100350000Y-72575000D03*
G04 #@! TO.P,U4,6*
G04 #@! TO.N,GND*
X100350000Y-73225000D03*
G04 #@! TO.P,U4,7*
G04 #@! TO.N,/CLK*
X100350000Y-73875000D03*
G04 #@! TO.P,U4,8*
G04 #@! TO.N,/D5*
X100350000Y-74525000D03*
G04 #@! TO.P,U4,9*
G04 #@! TO.N,/OVERRANGE*
X106250000Y-74525000D03*
G04 #@! TO.P,U4,10*
G04 #@! TO.N,/SIGN*
X106250000Y-73875000D03*
G04 #@! TO.P,U4,11*
G04 #@! TO.N,/RXD*
X106250000Y-73225000D03*
G04 #@! TO.P,U4,12*
G04 #@! TO.N,/TXD*
X106250000Y-72575000D03*
G04 #@! TO.P,U4,13*
G04 #@! TO.N,/RATE*
X106250000Y-71925000D03*
G04 #@! TO.P,U4,14*
G04 #@! TO.N,/READ*
X106250000Y-71275000D03*
G04 #@! TO.P,U4,15*
G04 #@! TO.N,/B8*
X106250000Y-70625000D03*
G04 #@! TO.P,U4,16*
G04 #@! TO.N,/B4*
X106250000Y-69975000D03*
G04 #@! TD*
D26*
G04 #@! TO.P,U5,1*
G04 #@! TO.N,/TXD*
X113477500Y-80050000D03*
G04 #@! TO.P,U5,2*
G04 #@! TO.N,N/C*
X114112500Y-80050000D03*
G04 #@! TO.P,U5,3*
G04 #@! TO.N,/VCCIO*
X114747500Y-80050000D03*
G04 #@! TO.P,U5,4*
G04 #@! TO.N,/RXD*
X115382500Y-80050000D03*
G04 #@! TO.P,U5,5*
G04 #@! TO.N,GND*
X116017500Y-80050000D03*
G04 #@! TO.P,U5,6*
G04 #@! TO.N,N/C*
X116652500Y-80050000D03*
G04 #@! TO.P,U5,7*
G04 #@! TO.N,/TXLED*
X117287500Y-80050000D03*
G04 #@! TO.P,U5,8*
G04 #@! TO.N,/USBD_P*
X117922500Y-80050000D03*
G04 #@! TO.P,U5,9*
G04 #@! TO.N,/USBD_N*
X117922500Y-74850000D03*
G04 #@! TO.P,U5,10*
G04 #@! TO.N,/VCCIO*
X117287500Y-74850000D03*
G04 #@! TO.P,U5,11*
X116652500Y-74850000D03*
G04 #@! TO.P,U5,12*
G04 #@! TO.N,+5V*
X116017500Y-74850000D03*
G04 #@! TO.P,U5,13*
G04 #@! TO.N,GND*
X115382500Y-74850000D03*
G04 #@! TO.P,U5,14*
G04 #@! TO.N,/RXLED*
X114747500Y-74850000D03*
G04 #@! TO.P,U5,15*
G04 #@! TO.N,N/C*
X114112500Y-74850000D03*
G04 #@! TO.P,U5,16*
X113477500Y-74850000D03*
G04 #@! TD*
D27*
G04 #@! TO.N,GND*
X128700000Y-64500000D03*
X127700000Y-77450000D03*
X115400000Y-76200000D03*
X119350000Y-71750000D03*
X112050000Y-69800000D03*
X112050000Y-71750000D03*
X92860000Y-60570000D03*
X92860000Y-63120000D03*
X92860000Y-65660000D03*
X92860000Y-68200000D03*
X127350000Y-61300000D03*
X127350000Y-58250000D03*
X104350000Y-65150000D03*
X116450000Y-78650000D03*
X113700000Y-67150000D03*
X110500000Y-65125000D03*
X112900000Y-62700000D03*
X107240000Y-80450000D03*
X98350000Y-72900000D03*
X92860000Y-75580000D03*
X92860000Y-78120000D03*
X92860000Y-80650000D03*
X92860000Y-83190000D03*
X103020000Y-65150000D03*
G04 #@! TO.N,+3V3*
X102600000Y-72300000D03*
X107010000Y-76570000D03*
G04 #@! TO.N,/RXLED*
X114575000Y-73450000D03*
X117475000Y-73300000D03*
G04 #@! TO.N,GNDA*
X75040000Y-84335000D03*
X75040000Y-85605000D03*
X75040000Y-86875000D03*
X75040000Y-88145000D03*
X74940000Y-54590000D03*
X74940000Y-55860000D03*
X74940000Y-57130000D03*
X74940000Y-58400000D03*
G04 #@! TO.N,/RATE*
X104250000Y-73100000D03*
X104250000Y-75350000D03*
G04 #@! TO.N,Net-(RN1-Pad6)*
X83210000Y-80900000D03*
X83210000Y-86870000D03*
G04 #@! TO.N,Net-(RN1-Pad7)*
X82480000Y-85600000D03*
X83260000Y-78365000D03*
G04 #@! TO.N,Net-(RN1-Pad8)*
X81750000Y-84340000D03*
X83260000Y-75825000D03*
G04 #@! TO.N,Net-(RN2-Pad8)*
X83360000Y-60570000D03*
X83360000Y-54600000D03*
G04 #@! TO.N,Net-(RN2-Pad7)*
X82630000Y-63100000D03*
X82630000Y-55870000D03*
G04 #@! TO.N,Net-(RN2-Pad6)*
X81900000Y-65700000D03*
X81900000Y-57100000D03*
G04 #@! TO.N,Net-(RN2-Pad5)*
X81600000Y-68200000D03*
X81100000Y-58400000D03*
G04 #@! TO.N,/B1*
X96350000Y-66900000D03*
X98750000Y-66900000D03*
G04 #@! TO.N,/B2*
X96350000Y-64400000D03*
X98750000Y-64400000D03*
G04 #@! TO.N,/B4*
X104000000Y-69950000D03*
X96400000Y-61850000D03*
G04 #@! TO.N,/B8*
X96400000Y-59300000D03*
X104670000Y-71010000D03*
G04 #@! TO.N,/RXD*
X115500000Y-78200000D03*
X109210000Y-77670000D03*
G04 #@! TD*
D28*
G04 #@! TO.N,+5V*
X114812797Y-68125000D02*
X114774483Y-68086686D01*
D29*
X116017500Y-74850000D02*
X116017500Y-73817500D01*
X114887500Y-72687500D02*
X114887500Y-71750000D01*
X116017500Y-73817500D02*
X114887500Y-72687500D01*
X119000000Y-66150000D02*
X120150000Y-66150000D01*
X120712500Y-65587500D02*
X120712500Y-61300000D01*
X120150000Y-66150000D02*
X120712500Y-65587500D01*
X115661686Y-66186686D02*
X114774483Y-66186686D01*
X116025000Y-66550000D02*
X115661686Y-66186686D01*
X116025000Y-67675000D02*
X116025000Y-66550000D01*
D30*
X114811169Y-66150000D02*
X114774483Y-66186686D01*
X115613314Y-68086686D02*
X116000000Y-67700000D01*
X114774483Y-68086686D02*
X115613314Y-68086686D01*
D29*
X116000000Y-67700000D02*
X116025000Y-67675000D01*
D30*
X116000000Y-66180000D02*
X115970000Y-66150000D01*
X116000000Y-67700000D02*
X116000000Y-66180000D01*
X119000000Y-66150000D02*
X115970000Y-66150000D01*
X115970000Y-66150000D02*
X114811169Y-66150000D01*
X114887500Y-68199703D02*
X114774483Y-68086686D01*
X114887500Y-69800000D02*
X114887500Y-68199703D01*
X114887500Y-71750000D02*
X114887500Y-69800000D01*
X114774483Y-64336983D02*
X114462500Y-64025000D01*
X114774483Y-66186686D02*
X114774483Y-64336983D01*
D29*
G04 #@! TO.N,GND*
X128700000Y-65150000D02*
X128700000Y-64300000D01*
X128500000Y-77450000D02*
X127700000Y-77450000D01*
X115382500Y-74850000D02*
X115382500Y-76182500D01*
X115382500Y-76182500D02*
X115400000Y-76200000D01*
X118087500Y-71750000D02*
X119350000Y-71750000D01*
X113312500Y-69800000D02*
X112050000Y-69800000D01*
X113312500Y-71750000D02*
X112050000Y-71750000D01*
X91250000Y-60575000D02*
X92855000Y-60575000D01*
X92855000Y-60575000D02*
X92860000Y-60570000D01*
X91250000Y-63115000D02*
X92855000Y-63115000D01*
X92855000Y-63115000D02*
X92860000Y-63120000D01*
X91250000Y-65655000D02*
X92855000Y-65655000D01*
X92855000Y-65655000D02*
X92860000Y-65660000D01*
X91250000Y-68195000D02*
X92855000Y-68195000D01*
X92855000Y-68195000D02*
X92860000Y-68200000D01*
X126137500Y-61300000D02*
X127350000Y-61300000D01*
X126137500Y-58250000D02*
X127350000Y-58250000D01*
X104350000Y-66362500D02*
X104350000Y-65150000D01*
X116017500Y-80050000D02*
X116017500Y-79082500D01*
X116017500Y-79082500D02*
X116450000Y-78650000D01*
X114774483Y-67136686D02*
X113713314Y-67136686D01*
X113713314Y-67136686D02*
X113700000Y-67150000D01*
X110500000Y-66337500D02*
X110500000Y-65125000D01*
X112887500Y-64025000D02*
X112887500Y-62712500D01*
X112887500Y-62712500D02*
X112900000Y-62700000D01*
X107240000Y-81612500D02*
X107240000Y-80450000D01*
X100350000Y-73225000D02*
X98675000Y-73225000D01*
X98675000Y-73225000D02*
X98350000Y-72900000D01*
X91250000Y-75575000D02*
X92855000Y-75575000D01*
X92855000Y-75575000D02*
X92860000Y-75580000D01*
X91250000Y-78115000D02*
X92855000Y-78115000D01*
X92855000Y-78115000D02*
X92860000Y-78120000D01*
X91250000Y-80655000D02*
X92855000Y-80655000D01*
X92855000Y-80655000D02*
X92860000Y-80650000D01*
X91250000Y-83195000D02*
X92855000Y-83195000D01*
X92855000Y-83195000D02*
X92860000Y-83190000D01*
X102350000Y-65820000D02*
X103020000Y-65150000D01*
X102350000Y-66362500D02*
X102350000Y-65820000D01*
G04 #@! TO.N,+3V3*
X112574483Y-68086686D02*
X112936686Y-68086686D01*
X112574483Y-68086686D02*
X112311686Y-68086686D01*
X100350000Y-72575000D02*
X102025000Y-72575000D01*
X110500000Y-69862500D02*
X110500000Y-67912500D01*
X112340000Y-58250000D02*
X120712500Y-58250000D01*
X107010000Y-76590000D02*
X107010000Y-76570000D01*
X109790000Y-81612500D02*
X109790000Y-79370000D01*
X109790000Y-79370000D02*
X107010000Y-76590000D01*
X111515441Y-59074559D02*
X112340000Y-58250000D01*
X112574483Y-68086686D02*
X111515441Y-67027644D01*
X111515441Y-67027644D02*
X111515441Y-59074559D01*
D30*
X104375000Y-67912500D02*
X104350000Y-67937500D01*
X110500000Y-67912500D02*
X104375000Y-67912500D01*
X104350000Y-67937500D02*
X102350000Y-67937500D01*
X102600000Y-68187500D02*
X102350000Y-67937500D01*
X102600000Y-72300000D02*
X102600000Y-68187500D01*
X112400297Y-67912500D02*
X112574483Y-68086686D01*
X110500000Y-67912500D02*
X112400297Y-67912500D01*
D29*
X102300000Y-72300000D02*
X102025000Y-72575000D01*
X102600000Y-72300000D02*
X102300000Y-72300000D01*
D31*
G04 #@! TO.N,Net-(D1-Pad1)*
X132000000Y-70000000D02*
X132000000Y-66580000D01*
X131570000Y-66150000D02*
X126650000Y-66150000D01*
X132000000Y-66580000D02*
X131570000Y-66150000D01*
D29*
G04 #@! TO.N,/D+*
X126262500Y-78225000D02*
X126037500Y-78450000D01*
X134000000Y-72500000D02*
X133775000Y-72725000D01*
X130312032Y-77790000D02*
X128800000Y-77790000D01*
X133775000Y-74327032D02*
X130312032Y-77790000D01*
X133775000Y-72725000D02*
X133775000Y-74327032D01*
X128365000Y-78225000D02*
X126262500Y-78225000D01*
X128800000Y-77790000D02*
X128365000Y-78225000D01*
G04 #@! TO.N,/D-*
X126262500Y-76675000D02*
X126037500Y-76450000D01*
X132000000Y-72500000D02*
X132225000Y-72725000D01*
X132225000Y-73685000D02*
X128800000Y-77110000D01*
X132225000Y-72725000D02*
X132225000Y-73685000D01*
X128800000Y-77110000D02*
X128365000Y-76675000D01*
X128365000Y-76675000D02*
X126262500Y-76675000D01*
D31*
G04 #@! TO.N,Net-(D3-Pad2)*
X122100000Y-66150000D02*
X123850000Y-66150000D01*
D28*
G04 #@! TO.N,Net-(D4-Pad2)*
X122287500Y-61300000D02*
X124262500Y-61300000D01*
G04 #@! TO.N,Net-(D5-Pad2)*
X122287500Y-58250000D02*
X124262500Y-58250000D01*
D29*
G04 #@! TO.N,/RXLED*
X114747500Y-74850000D02*
X114747500Y-73622500D01*
X114747500Y-73622500D02*
X114575000Y-73450000D01*
X125012500Y-73300000D02*
X126137500Y-72175000D01*
X117475000Y-73300000D02*
X125012500Y-73300000D01*
G04 #@! TO.N,Net-(D6-Pad2)*
X122287500Y-72175000D02*
X124262500Y-72175000D01*
G04 #@! TO.N,/TXLED*
X117287500Y-80050000D02*
X117287500Y-81087500D01*
X117287500Y-81087500D02*
X117750000Y-81550000D01*
X117750000Y-81550000D02*
X125750000Y-81550000D01*
X126137500Y-81937500D02*
X126137500Y-82700000D01*
X125750000Y-81550000D02*
X126137500Y-81937500D01*
G04 #@! TO.N,Net-(D7-Pad2)*
X122262500Y-82700000D02*
X124262500Y-82700000D01*
G04 #@! TO.N,Net-(D8-Pad2)*
X110500000Y-73412500D02*
X110500000Y-71437500D01*
G04 #@! TO.N,/READ*
X110500000Y-75287500D02*
X109537500Y-75287500D01*
X109537500Y-75287500D02*
X109050000Y-74800000D01*
X109050000Y-74800000D02*
X109050000Y-72800000D01*
X107525000Y-71275000D02*
X106250000Y-71275000D01*
X109050000Y-72800000D02*
X107525000Y-71275000D01*
G04 #@! TO.N,/CLK_IN*
X78000000Y-63750000D02*
X77880000Y-63750000D01*
X76730000Y-64900000D02*
X76730000Y-74320000D01*
X78000000Y-63630000D02*
X76730000Y-64900000D01*
X76730000Y-74320000D02*
X77501705Y-75091705D01*
X77501705Y-75091705D02*
X82408295Y-75091705D01*
X82408295Y-75091705D02*
X83195000Y-74305000D01*
X83195000Y-74305000D02*
X84500000Y-74305000D01*
G04 #@! TO.N,/B8_IN*
X81325000Y-59305000D02*
X84750000Y-59305000D01*
X79450000Y-61180000D02*
X81325000Y-59305000D01*
X78000000Y-66170000D02*
X79450000Y-64720000D01*
X79450000Y-64720000D02*
X79450000Y-61180000D01*
G04 #@! TO.N,/B4_IN*
X78000000Y-68710000D02*
X78940000Y-68710000D01*
X79900000Y-67750000D02*
X79900000Y-66800000D01*
X78940000Y-68710000D02*
X79900000Y-67750000D01*
X79900000Y-66930000D02*
X79900000Y-66800000D01*
X81165000Y-61845000D02*
X84750000Y-61845000D01*
X79900000Y-66800000D02*
X79900000Y-63110000D01*
X79900000Y-63110000D02*
X81165000Y-61845000D01*
G04 #@! TO.N,/SIGN_IN*
X74190000Y-69980000D02*
X75460000Y-68710000D01*
X74910000Y-75120000D02*
X74190000Y-74400000D01*
X76370000Y-75120000D02*
X74910000Y-75120000D01*
X74190000Y-74400000D02*
X74190000Y-69980000D01*
X76720000Y-75470000D02*
X76370000Y-75120000D01*
X84500000Y-79385000D02*
X83055000Y-79385000D01*
X83055000Y-79385000D02*
X82180000Y-80260000D01*
X82180000Y-80260000D02*
X77390000Y-80260000D01*
X77390000Y-80260000D02*
X76720000Y-79590000D01*
X76720000Y-79590000D02*
X76720000Y-75470000D01*
G04 #@! TO.N,/B2_IN*
X81195000Y-64385000D02*
X84750000Y-64385000D01*
X80350000Y-65230000D02*
X81195000Y-64385000D01*
X80350000Y-70400000D02*
X80350000Y-65230000D01*
X78000000Y-71250000D02*
X79500000Y-71250000D01*
X79500000Y-71250000D02*
X80350000Y-70400000D01*
G04 #@! TO.N,/B1_IN*
X79660000Y-73790000D02*
X78000000Y-73790000D01*
X80800000Y-72650000D02*
X79660000Y-73790000D01*
X80800000Y-67910000D02*
X80800000Y-72650000D01*
X84750000Y-66925000D02*
X81785000Y-66925000D01*
X81785000Y-66925000D02*
X80800000Y-67910000D01*
G04 #@! TO.N,/OVERRANGE_IN*
X75460000Y-76450000D02*
X75820000Y-76450000D01*
X74270000Y-77520000D02*
X75460000Y-76330000D01*
X74270000Y-81350000D02*
X74270000Y-77520000D01*
X74845000Y-81925000D02*
X74270000Y-81350000D01*
X84500000Y-81925000D02*
X74845000Y-81925000D01*
G04 #@! TO.N,/D5_IN*
X82115000Y-76845000D02*
X84500000Y-76845000D01*
X78000000Y-78870000D02*
X80090000Y-78870000D01*
X80090000Y-78870000D02*
X82115000Y-76845000D01*
G04 #@! TO.N,/SBWTDIO*
X98455000Y-71925000D02*
X100350000Y-71925000D01*
X97350000Y-70820000D02*
X98455000Y-71925000D01*
X97350000Y-58070000D02*
X97350000Y-70820000D01*
X99030000Y-56390000D02*
X97350000Y-58070000D01*
X109800000Y-58250000D02*
X107940000Y-56390000D01*
X107940000Y-56390000D02*
X99030000Y-56390000D01*
G04 #@! TO.N,/SBWTCK*
X98805000Y-71275000D02*
X100350000Y-71275000D01*
X97910000Y-70380000D02*
X98805000Y-71275000D01*
X97910000Y-58210000D02*
X97910000Y-70380000D01*
X99270000Y-56850000D02*
X97910000Y-58210000D01*
X107260000Y-58250000D02*
X105860000Y-56850000D01*
X105860000Y-56850000D02*
X99270000Y-56850000D01*
G04 #@! TO.N,Net-(JP1-Pad1)*
X109790000Y-84975000D02*
X111065000Y-86250000D01*
X109790000Y-83187500D02*
X109790000Y-84975000D01*
G04 #@! TO.N,/RATE*
X106250000Y-71925000D02*
X104725000Y-71925000D01*
X104725000Y-71925000D02*
X104250000Y-72400000D01*
X104250000Y-72400000D02*
X104250000Y-73100000D01*
X108525000Y-79625000D02*
X104250000Y-75350000D01*
X108525000Y-86250000D02*
X108525000Y-79625000D01*
G04 #@! TO.N,Net-(JP1-Pad3)*
X107240000Y-84995000D02*
X105985000Y-86250000D01*
X107240000Y-83187500D02*
X107240000Y-84995000D01*
G04 #@! TO.N,Net-(RN1-Pad5)*
X84750000Y-87510000D02*
X84750000Y-83195000D01*
X79600200Y-88145000D02*
X84115000Y-88145000D01*
X84115000Y-88145000D02*
X84750000Y-87510000D01*
G04 #@! TO.N,Net-(RN1-Pad6)*
X83205000Y-86875000D02*
X79600200Y-86875000D01*
X83210000Y-86870000D02*
X83205000Y-86875000D01*
X83210000Y-80900000D02*
X83455000Y-80655000D01*
X83455000Y-80655000D02*
X84500000Y-80655000D01*
G04 #@! TO.N,Net-(RN1-Pad7)*
X82475000Y-85605000D02*
X79600200Y-85605000D01*
X82480000Y-85600000D02*
X82475000Y-85605000D01*
X83260000Y-78365000D02*
X83510000Y-78115000D01*
X83510000Y-78115000D02*
X84500000Y-78115000D01*
G04 #@! TO.N,Net-(RN1-Pad8)*
X81745000Y-84335000D02*
X79600200Y-84335000D01*
X81750000Y-84340000D02*
X81745000Y-84335000D01*
X83260000Y-75825000D02*
X83510000Y-75575000D01*
X83510000Y-75575000D02*
X84500000Y-75575000D01*
G04 #@! TO.N,Net-(RN2-Pad8)*
X84750000Y-60575000D02*
X83365000Y-60575000D01*
X83365000Y-60575000D02*
X83360000Y-60570000D01*
X79605200Y-54600000D02*
X79600200Y-54595000D01*
X83360000Y-54600000D02*
X79605200Y-54600000D01*
G04 #@! TO.N,Net-(RN2-Pad7)*
X82645000Y-63115000D02*
X84750000Y-63115000D01*
X82630000Y-63100000D02*
X82645000Y-63115000D01*
X79605200Y-55870000D02*
X79600200Y-55865000D01*
X82630000Y-55870000D02*
X79605200Y-55870000D01*
G04 #@! TO.N,Net-(RN2-Pad6)*
X81945000Y-65655000D02*
X84750000Y-65655000D01*
X81900000Y-65700000D02*
X81945000Y-65655000D01*
X79635200Y-57100000D02*
X79600200Y-57135000D01*
X81900000Y-57100000D02*
X79635200Y-57100000D01*
G04 #@! TO.N,Net-(RN2-Pad5)*
X84750000Y-68195000D02*
X81605000Y-68195000D01*
X81605000Y-68195000D02*
X81600000Y-68200000D01*
X79605200Y-58400000D02*
X79600200Y-58405000D01*
X81100000Y-58400000D02*
X79605200Y-58400000D01*
G04 #@! TO.N,/OVERRANGE*
X104025000Y-74525000D02*
X106250000Y-74525000D01*
X96625000Y-81925000D02*
X104025000Y-74525000D01*
X91500000Y-81925000D02*
X96625000Y-81925000D01*
G04 #@! TO.N,/SIGN*
X103275000Y-73875000D02*
X106250000Y-73875000D01*
X97765000Y-79385000D02*
X103275000Y-73875000D01*
X91500000Y-79385000D02*
X97765000Y-79385000D01*
G04 #@! TO.N,/D5*
X97025000Y-74525000D02*
X100350000Y-74525000D01*
X94705000Y-76845000D02*
X97025000Y-74525000D01*
X91500000Y-76845000D02*
X94705000Y-76845000D01*
G04 #@! TO.N,/CLK*
X96425000Y-73875000D02*
X100350000Y-73875000D01*
X91500000Y-74305000D02*
X95995000Y-74305000D01*
X95995000Y-74305000D02*
X96425000Y-73875000D01*
G04 #@! TO.N,/B1*
X91250000Y-66925000D02*
X96325000Y-66925000D01*
X96325000Y-66925000D02*
X96350000Y-66900000D01*
X98750000Y-66900000D02*
X98750000Y-70200000D01*
X99175000Y-70625000D02*
X100350000Y-70625000D01*
X98750000Y-70200000D02*
X99175000Y-70625000D01*
G04 #@! TO.N,/B2*
X96335000Y-64385000D02*
X96350000Y-64400000D01*
X91250000Y-64385000D02*
X96335000Y-64385000D01*
X98750000Y-64400000D02*
X99000000Y-64400000D01*
X99000000Y-64400000D02*
X100350000Y-65750000D01*
X100350000Y-65750000D02*
X100350000Y-69975000D01*
G04 #@! TO.N,/B4*
X106225000Y-69950000D02*
X106250000Y-69975000D01*
X104000000Y-69950000D02*
X106225000Y-69950000D01*
X96395000Y-61845000D02*
X96400000Y-61850000D01*
X91250000Y-61845000D02*
X96395000Y-61845000D01*
G04 #@! TO.N,/B8*
X91250000Y-59305000D02*
X96395000Y-59305000D01*
X96395000Y-59305000D02*
X96400000Y-59300000D01*
X106250000Y-70625000D02*
X105055000Y-70625000D01*
X105055000Y-70625000D02*
X104670000Y-71010000D01*
G04 #@! TO.N,/RXD*
X115382500Y-80050000D02*
X115382500Y-78317500D01*
X115382500Y-78317500D02*
X115500000Y-78200000D01*
X107475000Y-73225000D02*
X106250000Y-73225000D01*
X109210000Y-77670000D02*
X107700000Y-76160000D01*
X107700000Y-76160000D02*
X107700000Y-73450000D01*
X107700000Y-73450000D02*
X107475000Y-73225000D01*
G04 #@! TO.N,/TXD*
X107575000Y-72575000D02*
X106250000Y-72575000D01*
X108450000Y-73450000D02*
X107575000Y-72575000D01*
X108450000Y-75800000D02*
X108450000Y-73450000D01*
X113477500Y-80050000D02*
X112700000Y-80050000D01*
X112700000Y-80050000D02*
X108450000Y-75800000D01*
D32*
G04 #@! TO.N,/USBD_N*
X123687500Y-77225000D02*
X121197501Y-77225000D01*
X124462500Y-76450000D02*
X123687500Y-77225000D01*
X121197501Y-77225000D02*
X118822501Y-74850000D01*
X118822501Y-74850000D02*
X117922500Y-74850000D01*
G04 #@! TO.N,/USBD_P*
X118822501Y-80050000D02*
X117922500Y-80050000D01*
X121197501Y-77675000D02*
X118822501Y-80050000D01*
X124462500Y-78450000D02*
X123687500Y-77675000D01*
X123687500Y-77675000D02*
X121197501Y-77675000D01*
D29*
G04 #@! TO.N,/VCCIO*
X117287500Y-74850000D02*
X116652500Y-74850000D01*
X116652500Y-75997500D02*
X116652500Y-74850000D01*
X114747500Y-80050000D02*
X114747500Y-77902500D01*
X114747500Y-77902500D02*
X116652500Y-75997500D01*
X114747500Y-80050000D02*
X114747500Y-81547500D01*
X116652500Y-71890000D02*
X116512500Y-71750000D01*
X116652500Y-74850000D02*
X116652500Y-71890000D01*
X115900000Y-82700000D02*
X114747500Y-81547500D01*
X120687500Y-82700000D02*
X115900000Y-82700000D01*
X116512500Y-71750000D02*
X116512500Y-71537500D01*
X116512500Y-71537500D02*
X117275000Y-70775000D01*
X117275000Y-70775000D02*
X120475000Y-70775000D01*
X120712500Y-71012500D02*
X120712500Y-72175000D01*
X120475000Y-70775000D02*
X120712500Y-71012500D01*
G04 #@! TD*
D33*
G04 #@! TO.N,GNDA*
G36*
X77283000Y-88913000D02*
X74517000Y-88913000D01*
X74517000Y-83567000D01*
X77283000Y-83567000D01*
X77283000Y-88913000D01*
X77283000Y-88913000D01*
G37*
X77283000Y-88913000D02*
X74517000Y-88913000D01*
X74517000Y-83567000D01*
X77283000Y-83567000D01*
X77283000Y-88913000D01*
G36*
X77283000Y-59173000D02*
X74417000Y-59173000D01*
X74417000Y-53827000D01*
X77283000Y-53827000D01*
X77283000Y-59173000D01*
X77283000Y-59173000D01*
G37*
X77283000Y-59173000D02*
X74417000Y-59173000D01*
X74417000Y-53827000D01*
X77283000Y-53827000D01*
X77283000Y-59173000D01*
G04 #@! TD*
M02*
