G04 #@! TF.GenerationSoftware,KiCad,Pcbnew,(5.0.2)-1*
G04 #@! TF.CreationDate,2019-03-19T19:21:29-04:00*
G04 #@! TF.ProjectId,Keithley_17X_USB,4b656974-686c-4657-995f-3137585f5553,rev?*
G04 #@! TF.SameCoordinates,Original*
G04 #@! TF.FileFunction,Soldermask,Top*
G04 #@! TF.FilePolarity,Negative*
%FSLAX46Y46*%
G04 Gerber Fmt 4.6, Leading zero omitted, Abs format (unit mm)*
G04 Created by KiCad (PCBNEW (5.0.2)-1) date 3/19/2019 7:21:29 PM*
%MOMM*%
%LPD*%
G01*
G04 APERTURE LIST*
%ADD10C,0.100000*%
G04 APERTURE END LIST*
D10*
G36*
X122051160Y-87002778D02*
X122331606Y-87058562D01*
X122850455Y-87273476D01*
X122995661Y-87370500D01*
X123317410Y-87585486D01*
X123714514Y-87982590D01*
X123714516Y-87982593D01*
X124026524Y-88449545D01*
X124241438Y-88968394D01*
X124241438Y-88968395D01*
X124326675Y-89396908D01*
X124351000Y-89519201D01*
X124351000Y-90080799D01*
X124241438Y-90631606D01*
X124026524Y-91150455D01*
X123716620Y-91614259D01*
X123714514Y-91617410D01*
X123317410Y-92014514D01*
X123317407Y-92014516D01*
X122850455Y-92326524D01*
X122331606Y-92541438D01*
X121780800Y-92651000D01*
X121219200Y-92651000D01*
X120668394Y-92541438D01*
X120149545Y-92326524D01*
X119682593Y-92014516D01*
X119682590Y-92014514D01*
X119285486Y-91617410D01*
X119283380Y-91614259D01*
X118973476Y-91150455D01*
X118758562Y-90631606D01*
X118649000Y-90080799D01*
X118649000Y-89519201D01*
X118673326Y-89396908D01*
X118758562Y-88968395D01*
X118758562Y-88968394D01*
X118973476Y-88449545D01*
X119285484Y-87982593D01*
X119285486Y-87982590D01*
X119682590Y-87585486D01*
X120004339Y-87370500D01*
X120149545Y-87273476D01*
X120668394Y-87058562D01*
X120948840Y-87002778D01*
X121219200Y-86949000D01*
X121780800Y-86949000D01*
X122051160Y-87002778D01*
X122051160Y-87002778D01*
G37*
G36*
X96151160Y-87002778D02*
X96431606Y-87058562D01*
X96950455Y-87273476D01*
X97095661Y-87370500D01*
X97417410Y-87585486D01*
X97814514Y-87982590D01*
X97814516Y-87982593D01*
X98126524Y-88449545D01*
X98341438Y-88968394D01*
X98341438Y-88968395D01*
X98426675Y-89396908D01*
X98451000Y-89519201D01*
X98451000Y-90080799D01*
X98341438Y-90631606D01*
X98126524Y-91150455D01*
X97816620Y-91614259D01*
X97814514Y-91617410D01*
X97417410Y-92014514D01*
X97417407Y-92014516D01*
X96950455Y-92326524D01*
X96431606Y-92541438D01*
X95880800Y-92651000D01*
X95319200Y-92651000D01*
X94768394Y-92541438D01*
X94249545Y-92326524D01*
X93782593Y-92014516D01*
X93782590Y-92014514D01*
X93385486Y-91617410D01*
X93383380Y-91614259D01*
X93073476Y-91150455D01*
X92858562Y-90631606D01*
X92749000Y-90080799D01*
X92749000Y-89519201D01*
X92773326Y-89396908D01*
X92858562Y-88968395D01*
X92858562Y-88968394D01*
X93073476Y-88449545D01*
X93385484Y-87982593D01*
X93385486Y-87982590D01*
X93782590Y-87585486D01*
X94104339Y-87370500D01*
X94249545Y-87273476D01*
X94768394Y-87058562D01*
X95048840Y-87002778D01*
X95319200Y-86949000D01*
X95880800Y-86949000D01*
X96151160Y-87002778D01*
X96151160Y-87002778D01*
G37*
G36*
X132025331Y-88518211D02*
X132353092Y-88653974D01*
X132648073Y-88851074D01*
X132898926Y-89101927D01*
X133096026Y-89396908D01*
X133231789Y-89724669D01*
X133301000Y-90072616D01*
X133301000Y-90427384D01*
X133231789Y-90775331D01*
X133096026Y-91103092D01*
X132898926Y-91398073D01*
X132648073Y-91648926D01*
X132353092Y-91846026D01*
X132025331Y-91981789D01*
X131677384Y-92051000D01*
X131322616Y-92051000D01*
X130974669Y-91981789D01*
X130646908Y-91846026D01*
X130351927Y-91648926D01*
X130101074Y-91398073D01*
X129903974Y-91103092D01*
X129768211Y-90775331D01*
X129699000Y-90427384D01*
X129699000Y-90072616D01*
X129768211Y-89724669D01*
X129903974Y-89396908D01*
X130101074Y-89101927D01*
X130351927Y-88851074D01*
X130646908Y-88653974D01*
X130974669Y-88518211D01*
X131322616Y-88449000D01*
X131677384Y-88449000D01*
X132025331Y-88518211D01*
X132025331Y-88518211D01*
G37*
G36*
X137025331Y-88518211D02*
X137353092Y-88653974D01*
X137648073Y-88851074D01*
X137898926Y-89101927D01*
X138096026Y-89396908D01*
X138231789Y-89724669D01*
X138301000Y-90072616D01*
X138301000Y-90427384D01*
X138231789Y-90775331D01*
X138096026Y-91103092D01*
X137898926Y-91398073D01*
X137648073Y-91648926D01*
X137353092Y-91846026D01*
X137025331Y-91981789D01*
X136677384Y-92051000D01*
X136322616Y-92051000D01*
X135974669Y-91981789D01*
X135646908Y-91846026D01*
X135351927Y-91648926D01*
X135101074Y-91398073D01*
X134903974Y-91103092D01*
X134768211Y-90775331D01*
X134699000Y-90427384D01*
X134699000Y-90072616D01*
X134768211Y-89724669D01*
X134903974Y-89396908D01*
X135101074Y-89101927D01*
X135351927Y-88851074D01*
X135646908Y-88653974D01*
X135974669Y-88518211D01*
X136322616Y-88449000D01*
X136677384Y-88449000D01*
X137025331Y-88518211D01*
X137025331Y-88518211D01*
G37*
G36*
X80210000Y-88640500D02*
X78990400Y-88640500D01*
X78990400Y-87649500D01*
X80210000Y-87649500D01*
X80210000Y-88640500D01*
X80210000Y-88640500D01*
G37*
G36*
X77009600Y-88640500D02*
X75790000Y-88640500D01*
X75790000Y-87649500D01*
X77009600Y-87649500D01*
X77009600Y-88640500D01*
X77009600Y-88640500D01*
G37*
G36*
X80210000Y-87370500D02*
X78990400Y-87370500D01*
X78990400Y-86379500D01*
X80210000Y-86379500D01*
X80210000Y-87370500D01*
X80210000Y-87370500D01*
G37*
G36*
X77009600Y-87370500D02*
X75790000Y-87370500D01*
X75790000Y-86379500D01*
X77009600Y-86379500D01*
X77009600Y-87370500D01*
X77009600Y-87370500D01*
G37*
G36*
X111966000Y-87151000D02*
X110164000Y-87151000D01*
X110164000Y-85349000D01*
X111966000Y-85349000D01*
X111966000Y-87151000D01*
X111966000Y-87151000D01*
G37*
G36*
X108635442Y-85355518D02*
X108701627Y-85362037D01*
X108814853Y-85396384D01*
X108871467Y-85413557D01*
X109010087Y-85487652D01*
X109027991Y-85497222D01*
X109063729Y-85526552D01*
X109165186Y-85609814D01*
X109248448Y-85711271D01*
X109277778Y-85747009D01*
X109277779Y-85747011D01*
X109361443Y-85903533D01*
X109361443Y-85903534D01*
X109412963Y-86073373D01*
X109430359Y-86250000D01*
X109412963Y-86426627D01*
X109378616Y-86539853D01*
X109361443Y-86596467D01*
X109287348Y-86735087D01*
X109277778Y-86752991D01*
X109248448Y-86788729D01*
X109165186Y-86890186D01*
X109063729Y-86973448D01*
X109027991Y-87002778D01*
X109027989Y-87002779D01*
X108871467Y-87086443D01*
X108814853Y-87103616D01*
X108701627Y-87137963D01*
X108635443Y-87144481D01*
X108569260Y-87151000D01*
X108480740Y-87151000D01*
X108414557Y-87144481D01*
X108348373Y-87137963D01*
X108235147Y-87103616D01*
X108178533Y-87086443D01*
X108022011Y-87002779D01*
X108022009Y-87002778D01*
X107986271Y-86973448D01*
X107884814Y-86890186D01*
X107801552Y-86788729D01*
X107772222Y-86752991D01*
X107762652Y-86735087D01*
X107688557Y-86596467D01*
X107671384Y-86539853D01*
X107637037Y-86426627D01*
X107619641Y-86250000D01*
X107637037Y-86073373D01*
X107688557Y-85903534D01*
X107688557Y-85903533D01*
X107772221Y-85747011D01*
X107772222Y-85747009D01*
X107801552Y-85711271D01*
X107884814Y-85609814D01*
X107986271Y-85526552D01*
X108022009Y-85497222D01*
X108039913Y-85487652D01*
X108178533Y-85413557D01*
X108235147Y-85396384D01*
X108348373Y-85362037D01*
X108414558Y-85355518D01*
X108480740Y-85349000D01*
X108569260Y-85349000D01*
X108635442Y-85355518D01*
X108635442Y-85355518D01*
G37*
G36*
X106095442Y-85355518D02*
X106161627Y-85362037D01*
X106274853Y-85396384D01*
X106331467Y-85413557D01*
X106470087Y-85487652D01*
X106487991Y-85497222D01*
X106523729Y-85526552D01*
X106625186Y-85609814D01*
X106708448Y-85711271D01*
X106737778Y-85747009D01*
X106737779Y-85747011D01*
X106821443Y-85903533D01*
X106821443Y-85903534D01*
X106872963Y-86073373D01*
X106890359Y-86250000D01*
X106872963Y-86426627D01*
X106838616Y-86539853D01*
X106821443Y-86596467D01*
X106747348Y-86735087D01*
X106737778Y-86752991D01*
X106708448Y-86788729D01*
X106625186Y-86890186D01*
X106523729Y-86973448D01*
X106487991Y-87002778D01*
X106487989Y-87002779D01*
X106331467Y-87086443D01*
X106274853Y-87103616D01*
X106161627Y-87137963D01*
X106095443Y-87144481D01*
X106029260Y-87151000D01*
X105940740Y-87151000D01*
X105874557Y-87144481D01*
X105808373Y-87137963D01*
X105695147Y-87103616D01*
X105638533Y-87086443D01*
X105482011Y-87002779D01*
X105482009Y-87002778D01*
X105446271Y-86973448D01*
X105344814Y-86890186D01*
X105261552Y-86788729D01*
X105232222Y-86752991D01*
X105222652Y-86735087D01*
X105148557Y-86596467D01*
X105131384Y-86539853D01*
X105097037Y-86426627D01*
X105079641Y-86250000D01*
X105097037Y-86073373D01*
X105148557Y-85903534D01*
X105148557Y-85903533D01*
X105232221Y-85747011D01*
X105232222Y-85747009D01*
X105261552Y-85711271D01*
X105344814Y-85609814D01*
X105446271Y-85526552D01*
X105482009Y-85497222D01*
X105499913Y-85487652D01*
X105638533Y-85413557D01*
X105695147Y-85396384D01*
X105808373Y-85362037D01*
X105874558Y-85355518D01*
X105940740Y-85349000D01*
X106029260Y-85349000D01*
X106095442Y-85355518D01*
X106095442Y-85355518D01*
G37*
G36*
X80210000Y-86100500D02*
X78990400Y-86100500D01*
X78990400Y-85109500D01*
X80210000Y-85109500D01*
X80210000Y-86100500D01*
X80210000Y-86100500D01*
G37*
G36*
X77009600Y-86100500D02*
X75790000Y-86100500D01*
X75790000Y-85109500D01*
X77009600Y-85109500D01*
X77009600Y-86100500D01*
X77009600Y-86100500D01*
G37*
G36*
X77009600Y-84830500D02*
X75790000Y-84830500D01*
X75790000Y-83839500D01*
X77009600Y-83839500D01*
X77009600Y-84830500D01*
X77009600Y-84830500D01*
G37*
G36*
X80210000Y-84830500D02*
X78990400Y-84830500D01*
X78990400Y-83839500D01*
X80210000Y-83839500D01*
X80210000Y-84830500D01*
X80210000Y-84830500D01*
G37*
G36*
X132025331Y-81018211D02*
X132353092Y-81153974D01*
X132648073Y-81351074D01*
X132898926Y-81601927D01*
X133096026Y-81896908D01*
X133231789Y-82224669D01*
X133301000Y-82572616D01*
X133301000Y-82927384D01*
X133231789Y-83275331D01*
X133096026Y-83603092D01*
X132898926Y-83898073D01*
X132648073Y-84148926D01*
X132353092Y-84346026D01*
X132025331Y-84481789D01*
X131677384Y-84551000D01*
X131322616Y-84551000D01*
X130974669Y-84481789D01*
X130646908Y-84346026D01*
X130351927Y-84148926D01*
X130101074Y-83898073D01*
X129903974Y-83603092D01*
X129768211Y-83275331D01*
X129699000Y-82927384D01*
X129699000Y-82572616D01*
X129768211Y-82224669D01*
X129903974Y-81896908D01*
X130101074Y-81601927D01*
X130351927Y-81351074D01*
X130646908Y-81153974D01*
X130974669Y-81018211D01*
X131322616Y-80949000D01*
X131677384Y-80949000D01*
X132025331Y-81018211D01*
X132025331Y-81018211D01*
G37*
G36*
X137025331Y-81018211D02*
X137353092Y-81153974D01*
X137648073Y-81351074D01*
X137898926Y-81601927D01*
X138096026Y-81896908D01*
X138231789Y-82224669D01*
X138301000Y-82572616D01*
X138301000Y-82927384D01*
X138231789Y-83275331D01*
X138096026Y-83603092D01*
X137898926Y-83898073D01*
X137648073Y-84148926D01*
X137353092Y-84346026D01*
X137025331Y-84481789D01*
X136677384Y-84551000D01*
X136322616Y-84551000D01*
X135974669Y-84481789D01*
X135646908Y-84346026D01*
X135351927Y-84148926D01*
X135101074Y-83898073D01*
X134903974Y-83603092D01*
X134768211Y-83275331D01*
X134699000Y-82927384D01*
X134699000Y-82572616D01*
X134768211Y-82224669D01*
X134903974Y-81896908D01*
X135101074Y-81601927D01*
X135351927Y-81351074D01*
X135646908Y-81153974D01*
X135974669Y-81018211D01*
X136322616Y-80949000D01*
X136677384Y-80949000D01*
X137025331Y-81018211D01*
X137025331Y-81018211D01*
G37*
G36*
X110169591Y-82703085D02*
X110203569Y-82713393D01*
X110234887Y-82730133D01*
X110262339Y-82752661D01*
X110284867Y-82780113D01*
X110301607Y-82811431D01*
X110311915Y-82845409D01*
X110316000Y-82886890D01*
X110316000Y-83488110D01*
X110311915Y-83529591D01*
X110301607Y-83563569D01*
X110284867Y-83594887D01*
X110262339Y-83622339D01*
X110234887Y-83644867D01*
X110203569Y-83661607D01*
X110169591Y-83671915D01*
X110128110Y-83676000D01*
X109451890Y-83676000D01*
X109410409Y-83671915D01*
X109376431Y-83661607D01*
X109345113Y-83644867D01*
X109317661Y-83622339D01*
X109295133Y-83594887D01*
X109278393Y-83563569D01*
X109268085Y-83529591D01*
X109264000Y-83488110D01*
X109264000Y-82886890D01*
X109268085Y-82845409D01*
X109278393Y-82811431D01*
X109295133Y-82780113D01*
X109317661Y-82752661D01*
X109345113Y-82730133D01*
X109376431Y-82713393D01*
X109410409Y-82703085D01*
X109451890Y-82699000D01*
X110128110Y-82699000D01*
X110169591Y-82703085D01*
X110169591Y-82703085D01*
G37*
G36*
X107619591Y-82703085D02*
X107653569Y-82713393D01*
X107684887Y-82730133D01*
X107712339Y-82752661D01*
X107734867Y-82780113D01*
X107751607Y-82811431D01*
X107761915Y-82845409D01*
X107766000Y-82886890D01*
X107766000Y-83488110D01*
X107761915Y-83529591D01*
X107751607Y-83563569D01*
X107734867Y-83594887D01*
X107712339Y-83622339D01*
X107684887Y-83644867D01*
X107653569Y-83661607D01*
X107619591Y-83671915D01*
X107578110Y-83676000D01*
X106901890Y-83676000D01*
X106860409Y-83671915D01*
X106826431Y-83661607D01*
X106795113Y-83644867D01*
X106767661Y-83622339D01*
X106745133Y-83594887D01*
X106728393Y-83563569D01*
X106718085Y-83529591D01*
X106714000Y-83488110D01*
X106714000Y-82886890D01*
X106718085Y-82845409D01*
X106728393Y-82811431D01*
X106745133Y-82780113D01*
X106767661Y-82752661D01*
X106795113Y-82730133D01*
X106826431Y-82713393D01*
X106860409Y-82703085D01*
X106901890Y-82699000D01*
X107578110Y-82699000D01*
X107619591Y-82703085D01*
X107619591Y-82703085D01*
G37*
G36*
X85519987Y-82871524D02*
X85538726Y-82877209D01*
X85556002Y-82886443D01*
X85571137Y-82898863D01*
X85583557Y-82913998D01*
X85592791Y-82931274D01*
X85598476Y-82950013D01*
X85601000Y-82975640D01*
X85601000Y-83414360D01*
X85598476Y-83439987D01*
X85592791Y-83458726D01*
X85583557Y-83476002D01*
X85571137Y-83491137D01*
X85556002Y-83503557D01*
X85538726Y-83512791D01*
X85519987Y-83518476D01*
X85494360Y-83521000D01*
X84005640Y-83521000D01*
X83980013Y-83518476D01*
X83961274Y-83512791D01*
X83943998Y-83503557D01*
X83928863Y-83491137D01*
X83916443Y-83476002D01*
X83907209Y-83458726D01*
X83901524Y-83439987D01*
X83899000Y-83414360D01*
X83899000Y-82975640D01*
X83901524Y-82950013D01*
X83907209Y-82931274D01*
X83916443Y-82913998D01*
X83928863Y-82898863D01*
X83943998Y-82886443D01*
X83961274Y-82877209D01*
X83980013Y-82871524D01*
X84005640Y-82869000D01*
X85494360Y-82869000D01*
X85519987Y-82871524D01*
X85519987Y-82871524D01*
G37*
G36*
X92019987Y-82871524D02*
X92038726Y-82877209D01*
X92056002Y-82886443D01*
X92071137Y-82898863D01*
X92083557Y-82913998D01*
X92092791Y-82931274D01*
X92098476Y-82950013D01*
X92101000Y-82975640D01*
X92101000Y-83414360D01*
X92098476Y-83439987D01*
X92092791Y-83458726D01*
X92083557Y-83476002D01*
X92071137Y-83491137D01*
X92056002Y-83503557D01*
X92038726Y-83512791D01*
X92019987Y-83518476D01*
X91994360Y-83521000D01*
X90505640Y-83521000D01*
X90480013Y-83518476D01*
X90461274Y-83512791D01*
X90443998Y-83503557D01*
X90428863Y-83491137D01*
X90416443Y-83476002D01*
X90407209Y-83458726D01*
X90401524Y-83439987D01*
X90399000Y-83414360D01*
X90399000Y-82975640D01*
X90401524Y-82950013D01*
X90407209Y-82931274D01*
X90416443Y-82913998D01*
X90428863Y-82898863D01*
X90443998Y-82886443D01*
X90461274Y-82877209D01*
X90480013Y-82871524D01*
X90505640Y-82869000D01*
X91994360Y-82869000D01*
X92019987Y-82871524D01*
X92019987Y-82871524D01*
G37*
G36*
X124634466Y-81953565D02*
X124673137Y-81965296D01*
X124708779Y-81984348D01*
X124740017Y-82009983D01*
X124765652Y-82041221D01*
X124784704Y-82076863D01*
X124796435Y-82115534D01*
X124801000Y-82161888D01*
X124801000Y-83238112D01*
X124796435Y-83284466D01*
X124784704Y-83323137D01*
X124765652Y-83358779D01*
X124740017Y-83390017D01*
X124708779Y-83415652D01*
X124673137Y-83434704D01*
X124634466Y-83446435D01*
X124588112Y-83451000D01*
X123936888Y-83451000D01*
X123890534Y-83446435D01*
X123851863Y-83434704D01*
X123816221Y-83415652D01*
X123784983Y-83390017D01*
X123759348Y-83358779D01*
X123740296Y-83323137D01*
X123728565Y-83284466D01*
X123724000Y-83238112D01*
X123724000Y-82161888D01*
X123728565Y-82115534D01*
X123740296Y-82076863D01*
X123759348Y-82041221D01*
X123784983Y-82009983D01*
X123816221Y-81984348D01*
X123851863Y-81965296D01*
X123890534Y-81953565D01*
X123936888Y-81949000D01*
X124588112Y-81949000D01*
X124634466Y-81953565D01*
X124634466Y-81953565D01*
G37*
G36*
X126509466Y-81953565D02*
X126548137Y-81965296D01*
X126583779Y-81984348D01*
X126615017Y-82009983D01*
X126640652Y-82041221D01*
X126659704Y-82076863D01*
X126671435Y-82115534D01*
X126676000Y-82161888D01*
X126676000Y-83238112D01*
X126671435Y-83284466D01*
X126659704Y-83323137D01*
X126640652Y-83358779D01*
X126615017Y-83390017D01*
X126583779Y-83415652D01*
X126548137Y-83434704D01*
X126509466Y-83446435D01*
X126463112Y-83451000D01*
X125811888Y-83451000D01*
X125765534Y-83446435D01*
X125726863Y-83434704D01*
X125691221Y-83415652D01*
X125659983Y-83390017D01*
X125634348Y-83358779D01*
X125615296Y-83323137D01*
X125603565Y-83284466D01*
X125599000Y-83238112D01*
X125599000Y-82161888D01*
X125603565Y-82115534D01*
X125615296Y-82076863D01*
X125634348Y-82041221D01*
X125659983Y-82009983D01*
X125691221Y-81984348D01*
X125726863Y-81965296D01*
X125765534Y-81953565D01*
X125811888Y-81949000D01*
X126463112Y-81949000D01*
X126509466Y-81953565D01*
X126509466Y-81953565D01*
G37*
G36*
X122604591Y-82178085D02*
X122638569Y-82188393D01*
X122669887Y-82205133D01*
X122697339Y-82227661D01*
X122719867Y-82255113D01*
X122736607Y-82286431D01*
X122746915Y-82320409D01*
X122751000Y-82361890D01*
X122751000Y-83038110D01*
X122746915Y-83079591D01*
X122736607Y-83113569D01*
X122719867Y-83144887D01*
X122697339Y-83172339D01*
X122669887Y-83194867D01*
X122638569Y-83211607D01*
X122604591Y-83221915D01*
X122563110Y-83226000D01*
X121961890Y-83226000D01*
X121920409Y-83221915D01*
X121886431Y-83211607D01*
X121855113Y-83194867D01*
X121827661Y-83172339D01*
X121805133Y-83144887D01*
X121788393Y-83113569D01*
X121778085Y-83079591D01*
X121774000Y-83038110D01*
X121774000Y-82361890D01*
X121778085Y-82320409D01*
X121788393Y-82286431D01*
X121805133Y-82255113D01*
X121827661Y-82227661D01*
X121855113Y-82205133D01*
X121886431Y-82188393D01*
X121920409Y-82178085D01*
X121961890Y-82174000D01*
X122563110Y-82174000D01*
X122604591Y-82178085D01*
X122604591Y-82178085D01*
G37*
G36*
X121029591Y-82178085D02*
X121063569Y-82188393D01*
X121094887Y-82205133D01*
X121122339Y-82227661D01*
X121144867Y-82255113D01*
X121161607Y-82286431D01*
X121171915Y-82320409D01*
X121176000Y-82361890D01*
X121176000Y-83038110D01*
X121171915Y-83079591D01*
X121161607Y-83113569D01*
X121144867Y-83144887D01*
X121122339Y-83172339D01*
X121094887Y-83194867D01*
X121063569Y-83211607D01*
X121029591Y-83221915D01*
X120988110Y-83226000D01*
X120386890Y-83226000D01*
X120345409Y-83221915D01*
X120311431Y-83211607D01*
X120280113Y-83194867D01*
X120252661Y-83172339D01*
X120230133Y-83144887D01*
X120213393Y-83113569D01*
X120203085Y-83079591D01*
X120199000Y-83038110D01*
X120199000Y-82361890D01*
X120203085Y-82320409D01*
X120213393Y-82286431D01*
X120230133Y-82255113D01*
X120252661Y-82227661D01*
X120280113Y-82205133D01*
X120311431Y-82188393D01*
X120345409Y-82178085D01*
X120386890Y-82174000D01*
X120988110Y-82174000D01*
X121029591Y-82178085D01*
X121029591Y-82178085D01*
G37*
G36*
X92019987Y-81601524D02*
X92038726Y-81607209D01*
X92056002Y-81616443D01*
X92071137Y-81628863D01*
X92083557Y-81643998D01*
X92092791Y-81661274D01*
X92098476Y-81680013D01*
X92101000Y-81705640D01*
X92101000Y-82144360D01*
X92098476Y-82169987D01*
X92092791Y-82188726D01*
X92083557Y-82206002D01*
X92071137Y-82221137D01*
X92056002Y-82233557D01*
X92038726Y-82242791D01*
X92019987Y-82248476D01*
X91994360Y-82251000D01*
X90505640Y-82251000D01*
X90480013Y-82248476D01*
X90461274Y-82242791D01*
X90443998Y-82233557D01*
X90428863Y-82221137D01*
X90416443Y-82206002D01*
X90407209Y-82188726D01*
X90401524Y-82169987D01*
X90399000Y-82144360D01*
X90399000Y-81705640D01*
X90401524Y-81680013D01*
X90407209Y-81661274D01*
X90416443Y-81643998D01*
X90428863Y-81628863D01*
X90443998Y-81616443D01*
X90461274Y-81607209D01*
X90480013Y-81601524D01*
X90505640Y-81599000D01*
X91994360Y-81599000D01*
X92019987Y-81601524D01*
X92019987Y-81601524D01*
G37*
G36*
X85519987Y-81601524D02*
X85538726Y-81607209D01*
X85556002Y-81616443D01*
X85571137Y-81628863D01*
X85583557Y-81643998D01*
X85592791Y-81661274D01*
X85598476Y-81680013D01*
X85601000Y-81705640D01*
X85601000Y-82144360D01*
X85598476Y-82169987D01*
X85592791Y-82188726D01*
X85583557Y-82206002D01*
X85571137Y-82221137D01*
X85556002Y-82233557D01*
X85538726Y-82242791D01*
X85519987Y-82248476D01*
X85494360Y-82251000D01*
X84005640Y-82251000D01*
X83980013Y-82248476D01*
X83961274Y-82242791D01*
X83943998Y-82233557D01*
X83928863Y-82221137D01*
X83916443Y-82206002D01*
X83907209Y-82188726D01*
X83901524Y-82169987D01*
X83899000Y-82144360D01*
X83899000Y-81705640D01*
X83901524Y-81680013D01*
X83907209Y-81661274D01*
X83916443Y-81643998D01*
X83928863Y-81628863D01*
X83943998Y-81616443D01*
X83961274Y-81607209D01*
X83980013Y-81601524D01*
X84005640Y-81599000D01*
X85494360Y-81599000D01*
X85519987Y-81601524D01*
X85519987Y-81601524D01*
G37*
G36*
X110169591Y-81128085D02*
X110203569Y-81138393D01*
X110234887Y-81155133D01*
X110262339Y-81177661D01*
X110284867Y-81205113D01*
X110301607Y-81236431D01*
X110311915Y-81270409D01*
X110316000Y-81311890D01*
X110316000Y-81913110D01*
X110311915Y-81954591D01*
X110301607Y-81988569D01*
X110284867Y-82019887D01*
X110262339Y-82047339D01*
X110234887Y-82069867D01*
X110203569Y-82086607D01*
X110169591Y-82096915D01*
X110128110Y-82101000D01*
X109451890Y-82101000D01*
X109410409Y-82096915D01*
X109376431Y-82086607D01*
X109345113Y-82069867D01*
X109317661Y-82047339D01*
X109295133Y-82019887D01*
X109278393Y-81988569D01*
X109268085Y-81954591D01*
X109264000Y-81913110D01*
X109264000Y-81311890D01*
X109268085Y-81270409D01*
X109278393Y-81236431D01*
X109295133Y-81205113D01*
X109317661Y-81177661D01*
X109345113Y-81155133D01*
X109376431Y-81138393D01*
X109410409Y-81128085D01*
X109451890Y-81124000D01*
X110128110Y-81124000D01*
X110169591Y-81128085D01*
X110169591Y-81128085D01*
G37*
G36*
X107619591Y-81128085D02*
X107653569Y-81138393D01*
X107684887Y-81155133D01*
X107712339Y-81177661D01*
X107734867Y-81205113D01*
X107751607Y-81236431D01*
X107761915Y-81270409D01*
X107766000Y-81311890D01*
X107766000Y-81913110D01*
X107761915Y-81954591D01*
X107751607Y-81988569D01*
X107734867Y-82019887D01*
X107712339Y-82047339D01*
X107684887Y-82069867D01*
X107653569Y-82086607D01*
X107619591Y-82096915D01*
X107578110Y-82101000D01*
X106901890Y-82101000D01*
X106860409Y-82096915D01*
X106826431Y-82086607D01*
X106795113Y-82069867D01*
X106767661Y-82047339D01*
X106745133Y-82019887D01*
X106728393Y-81988569D01*
X106718085Y-81954591D01*
X106714000Y-81913110D01*
X106714000Y-81311890D01*
X106718085Y-81270409D01*
X106728393Y-81236431D01*
X106745133Y-81205113D01*
X106767661Y-81177661D01*
X106795113Y-81155133D01*
X106826431Y-81138393D01*
X106860409Y-81128085D01*
X106901890Y-81124000D01*
X107578110Y-81124000D01*
X107619591Y-81128085D01*
X107619591Y-81128085D01*
G37*
G36*
X92019987Y-80331524D02*
X92038726Y-80337209D01*
X92056002Y-80346443D01*
X92071137Y-80358863D01*
X92083557Y-80373998D01*
X92092791Y-80391274D01*
X92098476Y-80410013D01*
X92101000Y-80435640D01*
X92101000Y-80874360D01*
X92098476Y-80899987D01*
X92092791Y-80918726D01*
X92083557Y-80936002D01*
X92071137Y-80951137D01*
X92056002Y-80963557D01*
X92038726Y-80972791D01*
X92019987Y-80978476D01*
X91994360Y-80981000D01*
X90505640Y-80981000D01*
X90480013Y-80978476D01*
X90461274Y-80972791D01*
X90443998Y-80963557D01*
X90428863Y-80951137D01*
X90416443Y-80936002D01*
X90407209Y-80918726D01*
X90401524Y-80899987D01*
X90399000Y-80874360D01*
X90399000Y-80435640D01*
X90401524Y-80410013D01*
X90407209Y-80391274D01*
X90416443Y-80373998D01*
X90428863Y-80358863D01*
X90443998Y-80346443D01*
X90461274Y-80337209D01*
X90480013Y-80331524D01*
X90505640Y-80329000D01*
X91994360Y-80329000D01*
X92019987Y-80331524D01*
X92019987Y-80331524D01*
G37*
G36*
X85519987Y-80331524D02*
X85538726Y-80337209D01*
X85556002Y-80346443D01*
X85571137Y-80358863D01*
X85583557Y-80373998D01*
X85592791Y-80391274D01*
X85598476Y-80410013D01*
X85601000Y-80435640D01*
X85601000Y-80874360D01*
X85598476Y-80899987D01*
X85592791Y-80918726D01*
X85583557Y-80936002D01*
X85571137Y-80951137D01*
X85556002Y-80963557D01*
X85538726Y-80972791D01*
X85519987Y-80978476D01*
X85494360Y-80981000D01*
X84005640Y-80981000D01*
X83980013Y-80978476D01*
X83961274Y-80972791D01*
X83943998Y-80963557D01*
X83928863Y-80951137D01*
X83916443Y-80936002D01*
X83907209Y-80918726D01*
X83901524Y-80899987D01*
X83899000Y-80874360D01*
X83899000Y-80435640D01*
X83901524Y-80410013D01*
X83907209Y-80391274D01*
X83916443Y-80373998D01*
X83928863Y-80358863D01*
X83943998Y-80346443D01*
X83961274Y-80337209D01*
X83980013Y-80331524D01*
X84005640Y-80329000D01*
X85494360Y-80329000D01*
X85519987Y-80331524D01*
X85519987Y-80331524D01*
G37*
G36*
X118173500Y-80701000D02*
X113226500Y-80701000D01*
X113226500Y-79399000D01*
X118173500Y-79399000D01*
X118173500Y-80701000D01*
X118173500Y-80701000D01*
G37*
G36*
X75570442Y-77975518D02*
X75636627Y-77982037D01*
X75749853Y-78016384D01*
X75806467Y-78033557D01*
X75945087Y-78107652D01*
X75962991Y-78117222D01*
X75998729Y-78146552D01*
X76100186Y-78229814D01*
X76183448Y-78331271D01*
X76212778Y-78367009D01*
X76212779Y-78367011D01*
X76296443Y-78523533D01*
X76296443Y-78523534D01*
X76347963Y-78693373D01*
X76365359Y-78870000D01*
X76347963Y-79046627D01*
X76329727Y-79106742D01*
X76296443Y-79216467D01*
X76222348Y-79355087D01*
X76212778Y-79372991D01*
X76191433Y-79399000D01*
X76100186Y-79510186D01*
X75998729Y-79593448D01*
X75962991Y-79622778D01*
X75962989Y-79622779D01*
X75806467Y-79706443D01*
X75791444Y-79711000D01*
X75636627Y-79757963D01*
X75570443Y-79764481D01*
X75504260Y-79771000D01*
X75415740Y-79771000D01*
X75349557Y-79764481D01*
X75283373Y-79757963D01*
X75128556Y-79711000D01*
X75113533Y-79706443D01*
X74957011Y-79622779D01*
X74957009Y-79622778D01*
X74921271Y-79593448D01*
X74819814Y-79510186D01*
X74728567Y-79399000D01*
X74707222Y-79372991D01*
X74697652Y-79355087D01*
X74623557Y-79216467D01*
X74590273Y-79106742D01*
X74572037Y-79046627D01*
X74554641Y-78870000D01*
X74572037Y-78693373D01*
X74623557Y-78523534D01*
X74623557Y-78523533D01*
X74707221Y-78367011D01*
X74707222Y-78367009D01*
X74736552Y-78331271D01*
X74819814Y-78229814D01*
X74921271Y-78146552D01*
X74957009Y-78117222D01*
X74974913Y-78107652D01*
X75113533Y-78033557D01*
X75170147Y-78016384D01*
X75283373Y-77982037D01*
X75349558Y-77975518D01*
X75415740Y-77969000D01*
X75504260Y-77969000D01*
X75570442Y-77975518D01*
X75570442Y-77975518D01*
G37*
G36*
X78110442Y-77975518D02*
X78176627Y-77982037D01*
X78289853Y-78016384D01*
X78346467Y-78033557D01*
X78485087Y-78107652D01*
X78502991Y-78117222D01*
X78538729Y-78146552D01*
X78640186Y-78229814D01*
X78723448Y-78331271D01*
X78752778Y-78367009D01*
X78752779Y-78367011D01*
X78836443Y-78523533D01*
X78836443Y-78523534D01*
X78887963Y-78693373D01*
X78905359Y-78870000D01*
X78887963Y-79046627D01*
X78869727Y-79106742D01*
X78836443Y-79216467D01*
X78762348Y-79355087D01*
X78752778Y-79372991D01*
X78731433Y-79399000D01*
X78640186Y-79510186D01*
X78538729Y-79593448D01*
X78502991Y-79622778D01*
X78502989Y-79622779D01*
X78346467Y-79706443D01*
X78331444Y-79711000D01*
X78176627Y-79757963D01*
X78110443Y-79764481D01*
X78044260Y-79771000D01*
X77955740Y-79771000D01*
X77889557Y-79764481D01*
X77823373Y-79757963D01*
X77668556Y-79711000D01*
X77653533Y-79706443D01*
X77497011Y-79622779D01*
X77497009Y-79622778D01*
X77461271Y-79593448D01*
X77359814Y-79510186D01*
X77268567Y-79399000D01*
X77247222Y-79372991D01*
X77237652Y-79355087D01*
X77163557Y-79216467D01*
X77130273Y-79106742D01*
X77112037Y-79046627D01*
X77094641Y-78870000D01*
X77112037Y-78693373D01*
X77163557Y-78523534D01*
X77163557Y-78523533D01*
X77247221Y-78367011D01*
X77247222Y-78367009D01*
X77276552Y-78331271D01*
X77359814Y-78229814D01*
X77461271Y-78146552D01*
X77497009Y-78117222D01*
X77514913Y-78107652D01*
X77653533Y-78033557D01*
X77710147Y-78016384D01*
X77823373Y-77982037D01*
X77889558Y-77975518D01*
X77955740Y-77969000D01*
X78044260Y-77969000D01*
X78110442Y-77975518D01*
X78110442Y-77975518D01*
G37*
G36*
X92019987Y-79061524D02*
X92038726Y-79067209D01*
X92056002Y-79076443D01*
X92071137Y-79088863D01*
X92083557Y-79103998D01*
X92092791Y-79121274D01*
X92098476Y-79140013D01*
X92101000Y-79165640D01*
X92101000Y-79604360D01*
X92098476Y-79629987D01*
X92092791Y-79648726D01*
X92083557Y-79666002D01*
X92071137Y-79681137D01*
X92056002Y-79693557D01*
X92038726Y-79702791D01*
X92019987Y-79708476D01*
X91994360Y-79711000D01*
X90505640Y-79711000D01*
X90480013Y-79708476D01*
X90461274Y-79702791D01*
X90443998Y-79693557D01*
X90428863Y-79681137D01*
X90416443Y-79666002D01*
X90407209Y-79648726D01*
X90401524Y-79629987D01*
X90399000Y-79604360D01*
X90399000Y-79165640D01*
X90401524Y-79140013D01*
X90407209Y-79121274D01*
X90416443Y-79103998D01*
X90428863Y-79088863D01*
X90443998Y-79076443D01*
X90461274Y-79067209D01*
X90480013Y-79061524D01*
X90505640Y-79059000D01*
X91994360Y-79059000D01*
X92019987Y-79061524D01*
X92019987Y-79061524D01*
G37*
G36*
X85519987Y-79061524D02*
X85538726Y-79067209D01*
X85556002Y-79076443D01*
X85571137Y-79088863D01*
X85583557Y-79103998D01*
X85592791Y-79121274D01*
X85598476Y-79140013D01*
X85601000Y-79165640D01*
X85601000Y-79604360D01*
X85598476Y-79629987D01*
X85592791Y-79648726D01*
X85583557Y-79666002D01*
X85571137Y-79681137D01*
X85556002Y-79693557D01*
X85538726Y-79702791D01*
X85519987Y-79708476D01*
X85494360Y-79711000D01*
X84005640Y-79711000D01*
X83980013Y-79708476D01*
X83961274Y-79702791D01*
X83943998Y-79693557D01*
X83928863Y-79681137D01*
X83916443Y-79666002D01*
X83907209Y-79648726D01*
X83901524Y-79629987D01*
X83899000Y-79604360D01*
X83899000Y-79165640D01*
X83901524Y-79140013D01*
X83907209Y-79121274D01*
X83916443Y-79103998D01*
X83928863Y-79088863D01*
X83943998Y-79076443D01*
X83961274Y-79067209D01*
X83980013Y-79061524D01*
X84005640Y-79059000D01*
X85494360Y-79059000D01*
X85519987Y-79061524D01*
X85519987Y-79061524D01*
G37*
G36*
X137235331Y-75538211D02*
X137563092Y-75673974D01*
X137858073Y-75871074D01*
X138108926Y-76121927D01*
X138306026Y-76416908D01*
X138441789Y-76744669D01*
X138511000Y-77092616D01*
X138511000Y-77447384D01*
X138441789Y-77795331D01*
X138306026Y-78123092D01*
X138108926Y-78418073D01*
X137858073Y-78668926D01*
X137563092Y-78866026D01*
X137235331Y-79001789D01*
X136887384Y-79071000D01*
X136532616Y-79071000D01*
X136184669Y-79001789D01*
X135856908Y-78866026D01*
X135561927Y-78668926D01*
X135311074Y-78418073D01*
X135113974Y-78123092D01*
X134978211Y-77795331D01*
X134909000Y-77447384D01*
X134909000Y-77092616D01*
X134978211Y-76744669D01*
X135113974Y-76416908D01*
X135311074Y-76121927D01*
X135561927Y-75871074D01*
X135856908Y-75673974D01*
X136184669Y-75538211D01*
X136532616Y-75469000D01*
X136887384Y-75469000D01*
X137235331Y-75538211D01*
X137235331Y-75538211D01*
G37*
G36*
X124804591Y-77928085D02*
X124838569Y-77938393D01*
X124869887Y-77955133D01*
X124897339Y-77977661D01*
X124919867Y-78005113D01*
X124936607Y-78036431D01*
X124946915Y-78070409D01*
X124951000Y-78111890D01*
X124951000Y-78788110D01*
X124946915Y-78829591D01*
X124936607Y-78863569D01*
X124919867Y-78894887D01*
X124897339Y-78922339D01*
X124869887Y-78944867D01*
X124838569Y-78961607D01*
X124804591Y-78971915D01*
X124763110Y-78976000D01*
X124161890Y-78976000D01*
X124120409Y-78971915D01*
X124086431Y-78961607D01*
X124055113Y-78944867D01*
X124027661Y-78922339D01*
X124005133Y-78894887D01*
X123988393Y-78863569D01*
X123978085Y-78829591D01*
X123974000Y-78788110D01*
X123974000Y-78111890D01*
X123978085Y-78070409D01*
X123988393Y-78036431D01*
X124005133Y-78005113D01*
X124027661Y-77977661D01*
X124055113Y-77955133D01*
X124086431Y-77938393D01*
X124120409Y-77928085D01*
X124161890Y-77924000D01*
X124763110Y-77924000D01*
X124804591Y-77928085D01*
X124804591Y-77928085D01*
G37*
G36*
X126379591Y-77928085D02*
X126413569Y-77938393D01*
X126444887Y-77955133D01*
X126472339Y-77977661D01*
X126494867Y-78005113D01*
X126511607Y-78036431D01*
X126521915Y-78070409D01*
X126526000Y-78111890D01*
X126526000Y-78788110D01*
X126521915Y-78829591D01*
X126511607Y-78863569D01*
X126494867Y-78894887D01*
X126472339Y-78922339D01*
X126444887Y-78944867D01*
X126413569Y-78961607D01*
X126379591Y-78971915D01*
X126338110Y-78976000D01*
X125736890Y-78976000D01*
X125695409Y-78971915D01*
X125661431Y-78961607D01*
X125630113Y-78944867D01*
X125602661Y-78922339D01*
X125580133Y-78894887D01*
X125563393Y-78863569D01*
X125553085Y-78829591D01*
X125549000Y-78788110D01*
X125549000Y-78111890D01*
X125553085Y-78070409D01*
X125563393Y-78036431D01*
X125580133Y-78005113D01*
X125602661Y-77977661D01*
X125630113Y-77955133D01*
X125661431Y-77938393D01*
X125695409Y-77928085D01*
X125736890Y-77924000D01*
X126338110Y-77924000D01*
X126379591Y-77928085D01*
X126379591Y-77928085D01*
G37*
G36*
X85519987Y-77791524D02*
X85538726Y-77797209D01*
X85556002Y-77806443D01*
X85571137Y-77818863D01*
X85583557Y-77833998D01*
X85592791Y-77851274D01*
X85598476Y-77870013D01*
X85601000Y-77895640D01*
X85601000Y-78334360D01*
X85598476Y-78359987D01*
X85592791Y-78378726D01*
X85583557Y-78396002D01*
X85571137Y-78411137D01*
X85556002Y-78423557D01*
X85538726Y-78432791D01*
X85519987Y-78438476D01*
X85494360Y-78441000D01*
X84005640Y-78441000D01*
X83980013Y-78438476D01*
X83961274Y-78432791D01*
X83943998Y-78423557D01*
X83928863Y-78411137D01*
X83916443Y-78396002D01*
X83907209Y-78378726D01*
X83901524Y-78359987D01*
X83899000Y-78334360D01*
X83899000Y-77895640D01*
X83901524Y-77870013D01*
X83907209Y-77851274D01*
X83916443Y-77833998D01*
X83928863Y-77818863D01*
X83943998Y-77806443D01*
X83961274Y-77797209D01*
X83980013Y-77791524D01*
X84005640Y-77789000D01*
X85494360Y-77789000D01*
X85519987Y-77791524D01*
X85519987Y-77791524D01*
G37*
G36*
X92019987Y-77791524D02*
X92038726Y-77797209D01*
X92056002Y-77806443D01*
X92071137Y-77818863D01*
X92083557Y-77833998D01*
X92092791Y-77851274D01*
X92098476Y-77870013D01*
X92101000Y-77895640D01*
X92101000Y-78334360D01*
X92098476Y-78359987D01*
X92092791Y-78378726D01*
X92083557Y-78396002D01*
X92071137Y-78411137D01*
X92056002Y-78423557D01*
X92038726Y-78432791D01*
X92019987Y-78438476D01*
X91994360Y-78441000D01*
X90505640Y-78441000D01*
X90480013Y-78438476D01*
X90461274Y-78432791D01*
X90443998Y-78423557D01*
X90428863Y-78411137D01*
X90416443Y-78396002D01*
X90407209Y-78378726D01*
X90401524Y-78359987D01*
X90399000Y-78334360D01*
X90399000Y-77895640D01*
X90401524Y-77870013D01*
X90407209Y-77851274D01*
X90416443Y-77833998D01*
X90428863Y-77818863D01*
X90443998Y-77806443D01*
X90461274Y-77797209D01*
X90480013Y-77791524D01*
X90505640Y-77789000D01*
X91994360Y-77789000D01*
X92019987Y-77791524D01*
X92019987Y-77791524D01*
G37*
G36*
X128940416Y-76959843D02*
X128942747Y-76960550D01*
X128944889Y-76961695D01*
X128946765Y-76963235D01*
X128948305Y-76965111D01*
X128949450Y-76967253D01*
X128950157Y-76969584D01*
X128951000Y-76978143D01*
X128951000Y-77241857D01*
X128950157Y-77250416D01*
X128949450Y-77252747D01*
X128948305Y-77254889D01*
X128946765Y-77256765D01*
X128944889Y-77258305D01*
X128942747Y-77259450D01*
X128940416Y-77260157D01*
X128931857Y-77261000D01*
X128776000Y-77261000D01*
X128751614Y-77263402D01*
X128728165Y-77270515D01*
X128706554Y-77282066D01*
X128687612Y-77297612D01*
X128672066Y-77316554D01*
X128660515Y-77338165D01*
X128653402Y-77361614D01*
X128651000Y-77386000D01*
X128651000Y-77514000D01*
X128653402Y-77538386D01*
X128660515Y-77561835D01*
X128672066Y-77583446D01*
X128687612Y-77602388D01*
X128706554Y-77617934D01*
X128728165Y-77629485D01*
X128751614Y-77636598D01*
X128776000Y-77639000D01*
X128931857Y-77639000D01*
X128940416Y-77639843D01*
X128942747Y-77640550D01*
X128944889Y-77641695D01*
X128946765Y-77643235D01*
X128948305Y-77645111D01*
X128949450Y-77647253D01*
X128950157Y-77649584D01*
X128951000Y-77658143D01*
X128951000Y-77921857D01*
X128950157Y-77930416D01*
X128949450Y-77932747D01*
X128948305Y-77934889D01*
X128946765Y-77936765D01*
X128944889Y-77938305D01*
X128942747Y-77939450D01*
X128940416Y-77940157D01*
X128931857Y-77941000D01*
X128668143Y-77941000D01*
X128659584Y-77940157D01*
X128657253Y-77939450D01*
X128655111Y-77938305D01*
X128653235Y-77936765D01*
X128651695Y-77934889D01*
X128650550Y-77932747D01*
X128649843Y-77930416D01*
X128649000Y-77921857D01*
X128649000Y-77726000D01*
X128646598Y-77701614D01*
X128639485Y-77678165D01*
X128627934Y-77656554D01*
X128612388Y-77637612D01*
X128593446Y-77622066D01*
X128571835Y-77610515D01*
X128548386Y-77603402D01*
X128524000Y-77601000D01*
X128368143Y-77601000D01*
X128359584Y-77600157D01*
X128357253Y-77599450D01*
X128355111Y-77598305D01*
X128353235Y-77596765D01*
X128351695Y-77594889D01*
X128350550Y-77592747D01*
X128349843Y-77590416D01*
X128349000Y-77581857D01*
X128349000Y-77318143D01*
X128349843Y-77309584D01*
X128350550Y-77307253D01*
X128351695Y-77305111D01*
X128353235Y-77303235D01*
X128355111Y-77301695D01*
X128357253Y-77300550D01*
X128359584Y-77299843D01*
X128368143Y-77299000D01*
X128524000Y-77299000D01*
X128548386Y-77296598D01*
X128571835Y-77289485D01*
X128593446Y-77277934D01*
X128612388Y-77262388D01*
X128627934Y-77243446D01*
X128639485Y-77221835D01*
X128646598Y-77198386D01*
X128649000Y-77174000D01*
X128649000Y-76978143D01*
X128649843Y-76969584D01*
X128650550Y-76967253D01*
X128651695Y-76965111D01*
X128653235Y-76963235D01*
X128655111Y-76961695D01*
X128657253Y-76960550D01*
X128659584Y-76959843D01*
X128668143Y-76959000D01*
X128931857Y-76959000D01*
X128940416Y-76959843D01*
X128940416Y-76959843D01*
G37*
G36*
X78110443Y-75435519D02*
X78176627Y-75442037D01*
X78265512Y-75469000D01*
X78346467Y-75493557D01*
X78430009Y-75538212D01*
X78502991Y-75577222D01*
X78538729Y-75606552D01*
X78640186Y-75689814D01*
X78714710Y-75780623D01*
X78752778Y-75827009D01*
X78752779Y-75827011D01*
X78836443Y-75983533D01*
X78836443Y-75983534D01*
X78887963Y-76153373D01*
X78905359Y-76330000D01*
X78887963Y-76506627D01*
X78869727Y-76566742D01*
X78836443Y-76676467D01*
X78781423Y-76779401D01*
X78752778Y-76832991D01*
X78727683Y-76863569D01*
X78640186Y-76970186D01*
X78538729Y-77053448D01*
X78502991Y-77082778D01*
X78502989Y-77082779D01*
X78346467Y-77166443D01*
X78331444Y-77171000D01*
X78176627Y-77217963D01*
X78110443Y-77224481D01*
X78044260Y-77231000D01*
X77955740Y-77231000D01*
X77889557Y-77224481D01*
X77823373Y-77217963D01*
X77668556Y-77171000D01*
X77653533Y-77166443D01*
X77497011Y-77082779D01*
X77497009Y-77082778D01*
X77461271Y-77053448D01*
X77359814Y-76970186D01*
X77272317Y-76863569D01*
X77247222Y-76832991D01*
X77218577Y-76779401D01*
X77163557Y-76676467D01*
X77130273Y-76566742D01*
X77112037Y-76506627D01*
X77094641Y-76330000D01*
X77112037Y-76153373D01*
X77163557Y-75983534D01*
X77163557Y-75983533D01*
X77247221Y-75827011D01*
X77247222Y-75827009D01*
X77285290Y-75780623D01*
X77359814Y-75689814D01*
X77461271Y-75606552D01*
X77497009Y-75577222D01*
X77569991Y-75538212D01*
X77653533Y-75493557D01*
X77734488Y-75469000D01*
X77823373Y-75442037D01*
X77889557Y-75435519D01*
X77955740Y-75429000D01*
X78044260Y-75429000D01*
X78110443Y-75435519D01*
X78110443Y-75435519D01*
G37*
G36*
X75570443Y-75435519D02*
X75636627Y-75442037D01*
X75725512Y-75469000D01*
X75806467Y-75493557D01*
X75890009Y-75538212D01*
X75962991Y-75577222D01*
X75998729Y-75606552D01*
X76100186Y-75689814D01*
X76174710Y-75780623D01*
X76212778Y-75827009D01*
X76212779Y-75827011D01*
X76296443Y-75983533D01*
X76296443Y-75983534D01*
X76347963Y-76153373D01*
X76365359Y-76330000D01*
X76347963Y-76506627D01*
X76329727Y-76566742D01*
X76296443Y-76676467D01*
X76241423Y-76779401D01*
X76212778Y-76832991D01*
X76187683Y-76863569D01*
X76100186Y-76970186D01*
X75998729Y-77053448D01*
X75962991Y-77082778D01*
X75962989Y-77082779D01*
X75806467Y-77166443D01*
X75791444Y-77171000D01*
X75636627Y-77217963D01*
X75570443Y-77224481D01*
X75504260Y-77231000D01*
X75415740Y-77231000D01*
X75349557Y-77224481D01*
X75283373Y-77217963D01*
X75128556Y-77171000D01*
X75113533Y-77166443D01*
X74957011Y-77082779D01*
X74957009Y-77082778D01*
X74921271Y-77053448D01*
X74819814Y-76970186D01*
X74732317Y-76863569D01*
X74707222Y-76832991D01*
X74678577Y-76779401D01*
X74623557Y-76676467D01*
X74590273Y-76566742D01*
X74572037Y-76506627D01*
X74554641Y-76330000D01*
X74572037Y-76153373D01*
X74623557Y-75983534D01*
X74623557Y-75983533D01*
X74707221Y-75827011D01*
X74707222Y-75827009D01*
X74745290Y-75780623D01*
X74819814Y-75689814D01*
X74921271Y-75606552D01*
X74957009Y-75577222D01*
X75029991Y-75538212D01*
X75113533Y-75493557D01*
X75194488Y-75469000D01*
X75283373Y-75442037D01*
X75349557Y-75435519D01*
X75415740Y-75429000D01*
X75504260Y-75429000D01*
X75570443Y-75435519D01*
X75570443Y-75435519D01*
G37*
G36*
X85519987Y-76521524D02*
X85538726Y-76527209D01*
X85556002Y-76536443D01*
X85571137Y-76548863D01*
X85583557Y-76563998D01*
X85592791Y-76581274D01*
X85598476Y-76600013D01*
X85601000Y-76625640D01*
X85601000Y-77064360D01*
X85598476Y-77089987D01*
X85592791Y-77108726D01*
X85583557Y-77126002D01*
X85571137Y-77141137D01*
X85556002Y-77153557D01*
X85538726Y-77162791D01*
X85519987Y-77168476D01*
X85494360Y-77171000D01*
X84005640Y-77171000D01*
X83980013Y-77168476D01*
X83961274Y-77162791D01*
X83943998Y-77153557D01*
X83928863Y-77141137D01*
X83916443Y-77126002D01*
X83907209Y-77108726D01*
X83901524Y-77089987D01*
X83899000Y-77064360D01*
X83899000Y-76625640D01*
X83901524Y-76600013D01*
X83907209Y-76581274D01*
X83916443Y-76563998D01*
X83928863Y-76548863D01*
X83943998Y-76536443D01*
X83961274Y-76527209D01*
X83980013Y-76521524D01*
X84005640Y-76519000D01*
X85494360Y-76519000D01*
X85519987Y-76521524D01*
X85519987Y-76521524D01*
G37*
G36*
X92019987Y-76521524D02*
X92038726Y-76527209D01*
X92056002Y-76536443D01*
X92071137Y-76548863D01*
X92083557Y-76563998D01*
X92092791Y-76581274D01*
X92098476Y-76600013D01*
X92101000Y-76625640D01*
X92101000Y-77064360D01*
X92098476Y-77089987D01*
X92092791Y-77108726D01*
X92083557Y-77126002D01*
X92071137Y-77141137D01*
X92056002Y-77153557D01*
X92038726Y-77162791D01*
X92019987Y-77168476D01*
X91994360Y-77171000D01*
X90505640Y-77171000D01*
X90480013Y-77168476D01*
X90461274Y-77162791D01*
X90443998Y-77153557D01*
X90428863Y-77141137D01*
X90416443Y-77126002D01*
X90407209Y-77108726D01*
X90401524Y-77089987D01*
X90399000Y-77064360D01*
X90399000Y-76625640D01*
X90401524Y-76600013D01*
X90407209Y-76581274D01*
X90416443Y-76563998D01*
X90428863Y-76548863D01*
X90443998Y-76536443D01*
X90461274Y-76527209D01*
X90480013Y-76521524D01*
X90505640Y-76519000D01*
X91994360Y-76519000D01*
X92019987Y-76521524D01*
X92019987Y-76521524D01*
G37*
G36*
X126379591Y-75928085D02*
X126413569Y-75938393D01*
X126444887Y-75955133D01*
X126472339Y-75977661D01*
X126494867Y-76005113D01*
X126511607Y-76036431D01*
X126521915Y-76070409D01*
X126526000Y-76111890D01*
X126526000Y-76788110D01*
X126521915Y-76829591D01*
X126511607Y-76863569D01*
X126494867Y-76894887D01*
X126472339Y-76922339D01*
X126444887Y-76944867D01*
X126413569Y-76961607D01*
X126379591Y-76971915D01*
X126338110Y-76976000D01*
X125736890Y-76976000D01*
X125695409Y-76971915D01*
X125661431Y-76961607D01*
X125630113Y-76944867D01*
X125602661Y-76922339D01*
X125580133Y-76894887D01*
X125563393Y-76863569D01*
X125553085Y-76829591D01*
X125549000Y-76788110D01*
X125549000Y-76111890D01*
X125553085Y-76070409D01*
X125563393Y-76036431D01*
X125580133Y-76005113D01*
X125602661Y-75977661D01*
X125630113Y-75955133D01*
X125661431Y-75938393D01*
X125695409Y-75928085D01*
X125736890Y-75924000D01*
X126338110Y-75924000D01*
X126379591Y-75928085D01*
X126379591Y-75928085D01*
G37*
G36*
X124804591Y-75928085D02*
X124838569Y-75938393D01*
X124869887Y-75955133D01*
X124897339Y-75977661D01*
X124919867Y-76005113D01*
X124936607Y-76036431D01*
X124946915Y-76070409D01*
X124951000Y-76111890D01*
X124951000Y-76788110D01*
X124946915Y-76829591D01*
X124936607Y-76863569D01*
X124919867Y-76894887D01*
X124897339Y-76922339D01*
X124869887Y-76944867D01*
X124838569Y-76961607D01*
X124804591Y-76971915D01*
X124763110Y-76976000D01*
X124161890Y-76976000D01*
X124120409Y-76971915D01*
X124086431Y-76961607D01*
X124055113Y-76944867D01*
X124027661Y-76922339D01*
X124005133Y-76894887D01*
X123988393Y-76863569D01*
X123978085Y-76829591D01*
X123974000Y-76788110D01*
X123974000Y-76111890D01*
X123978085Y-76070409D01*
X123988393Y-76036431D01*
X124005133Y-76005113D01*
X124027661Y-75977661D01*
X124055113Y-75955133D01*
X124086431Y-75938393D01*
X124120409Y-75928085D01*
X124161890Y-75924000D01*
X124763110Y-75924000D01*
X124804591Y-75928085D01*
X124804591Y-75928085D01*
G37*
G36*
X92019987Y-75251524D02*
X92038726Y-75257209D01*
X92056002Y-75266443D01*
X92071137Y-75278863D01*
X92083557Y-75293998D01*
X92092791Y-75311274D01*
X92098476Y-75330013D01*
X92101000Y-75355640D01*
X92101000Y-75794360D01*
X92098476Y-75819987D01*
X92092791Y-75838726D01*
X92083557Y-75856002D01*
X92071137Y-75871137D01*
X92056002Y-75883557D01*
X92038726Y-75892791D01*
X92019987Y-75898476D01*
X91994360Y-75901000D01*
X90505640Y-75901000D01*
X90480013Y-75898476D01*
X90461274Y-75892791D01*
X90443998Y-75883557D01*
X90428863Y-75871137D01*
X90416443Y-75856002D01*
X90407209Y-75838726D01*
X90401524Y-75819987D01*
X90399000Y-75794360D01*
X90399000Y-75355640D01*
X90401524Y-75330013D01*
X90407209Y-75311274D01*
X90416443Y-75293998D01*
X90428863Y-75278863D01*
X90443998Y-75266443D01*
X90461274Y-75257209D01*
X90480013Y-75251524D01*
X90505640Y-75249000D01*
X91994360Y-75249000D01*
X92019987Y-75251524D01*
X92019987Y-75251524D01*
G37*
G36*
X85519987Y-75251524D02*
X85538726Y-75257209D01*
X85556002Y-75266443D01*
X85571137Y-75278863D01*
X85583557Y-75293998D01*
X85592791Y-75311274D01*
X85598476Y-75330013D01*
X85601000Y-75355640D01*
X85601000Y-75794360D01*
X85598476Y-75819987D01*
X85592791Y-75838726D01*
X85583557Y-75856002D01*
X85571137Y-75871137D01*
X85556002Y-75883557D01*
X85538726Y-75892791D01*
X85519987Y-75898476D01*
X85494360Y-75901000D01*
X84005640Y-75901000D01*
X83980013Y-75898476D01*
X83961274Y-75892791D01*
X83943998Y-75883557D01*
X83928863Y-75871137D01*
X83916443Y-75856002D01*
X83907209Y-75838726D01*
X83901524Y-75819987D01*
X83899000Y-75794360D01*
X83899000Y-75355640D01*
X83901524Y-75330013D01*
X83907209Y-75311274D01*
X83916443Y-75293998D01*
X83928863Y-75278863D01*
X83943998Y-75266443D01*
X83961274Y-75257209D01*
X83980013Y-75251524D01*
X84005640Y-75249000D01*
X85494360Y-75249000D01*
X85519987Y-75251524D01*
X85519987Y-75251524D01*
G37*
G36*
X111084466Y-74753565D02*
X111123137Y-74765296D01*
X111158779Y-74784348D01*
X111190017Y-74809983D01*
X111215652Y-74841221D01*
X111234704Y-74876863D01*
X111246435Y-74915534D01*
X111251000Y-74961888D01*
X111251000Y-75613112D01*
X111246435Y-75659466D01*
X111234704Y-75698137D01*
X111215652Y-75733779D01*
X111190017Y-75765017D01*
X111158779Y-75790652D01*
X111123137Y-75809704D01*
X111084466Y-75821435D01*
X111038112Y-75826000D01*
X109961888Y-75826000D01*
X109915534Y-75821435D01*
X109876863Y-75809704D01*
X109841221Y-75790652D01*
X109809983Y-75765017D01*
X109784348Y-75733779D01*
X109765296Y-75698137D01*
X109753565Y-75659466D01*
X109749000Y-75613112D01*
X109749000Y-74961888D01*
X109753565Y-74915534D01*
X109765296Y-74876863D01*
X109784348Y-74841221D01*
X109809983Y-74809983D01*
X109841221Y-74784348D01*
X109876863Y-74765296D01*
X109915534Y-74753565D01*
X109961888Y-74749000D01*
X111038112Y-74749000D01*
X111084466Y-74753565D01*
X111084466Y-74753565D01*
G37*
G36*
X118173500Y-75501000D02*
X113226500Y-75501000D01*
X113226500Y-74199000D01*
X118173500Y-74199000D01*
X118173500Y-75501000D01*
X118173500Y-75501000D01*
G37*
G36*
X107051000Y-74801000D02*
X105449000Y-74801000D01*
X105449000Y-69699000D01*
X107051000Y-69699000D01*
X107051000Y-74801000D01*
X107051000Y-74801000D01*
G37*
G36*
X101151000Y-74801000D02*
X99549000Y-74801000D01*
X99549000Y-69699000D01*
X101151000Y-69699000D01*
X101151000Y-74801000D01*
X101151000Y-74801000D01*
G37*
G36*
X75560051Y-72894495D02*
X75636627Y-72902037D01*
X75718200Y-72926782D01*
X75806467Y-72953557D01*
X75945087Y-73027652D01*
X75962991Y-73037222D01*
X75998729Y-73066552D01*
X76100186Y-73149814D01*
X76183448Y-73251271D01*
X76212778Y-73287009D01*
X76212779Y-73287011D01*
X76296443Y-73443533D01*
X76296443Y-73443534D01*
X76347963Y-73613373D01*
X76365359Y-73790000D01*
X76347963Y-73966627D01*
X76329727Y-74026742D01*
X76296443Y-74136467D01*
X76263018Y-74199000D01*
X76212778Y-74292991D01*
X76183448Y-74328729D01*
X76100186Y-74430186D01*
X75998729Y-74513448D01*
X75962991Y-74542778D01*
X75962989Y-74542779D01*
X75806467Y-74626443D01*
X75791444Y-74631000D01*
X75636627Y-74677963D01*
X75570442Y-74684482D01*
X75504260Y-74691000D01*
X75415740Y-74691000D01*
X75349558Y-74684482D01*
X75283373Y-74677963D01*
X75128556Y-74631000D01*
X75113533Y-74626443D01*
X74957011Y-74542779D01*
X74957009Y-74542778D01*
X74921271Y-74513448D01*
X74819814Y-74430186D01*
X74736552Y-74328729D01*
X74707222Y-74292991D01*
X74656982Y-74199000D01*
X74623557Y-74136467D01*
X74590273Y-74026742D01*
X74572037Y-73966627D01*
X74554641Y-73790000D01*
X74572037Y-73613373D01*
X74623557Y-73443534D01*
X74623557Y-73443533D01*
X74707221Y-73287011D01*
X74707222Y-73287009D01*
X74736552Y-73251271D01*
X74819814Y-73149814D01*
X74921271Y-73066552D01*
X74957009Y-73037222D01*
X74974913Y-73027652D01*
X75113533Y-72953557D01*
X75201800Y-72926782D01*
X75283373Y-72902037D01*
X75359949Y-72894495D01*
X75415740Y-72889000D01*
X75504260Y-72889000D01*
X75560051Y-72894495D01*
X75560051Y-72894495D01*
G37*
G36*
X78100051Y-72894495D02*
X78176627Y-72902037D01*
X78258200Y-72926782D01*
X78346467Y-72953557D01*
X78485087Y-73027652D01*
X78502991Y-73037222D01*
X78538729Y-73066552D01*
X78640186Y-73149814D01*
X78723448Y-73251271D01*
X78752778Y-73287009D01*
X78752779Y-73287011D01*
X78836443Y-73443533D01*
X78836443Y-73443534D01*
X78887963Y-73613373D01*
X78905359Y-73790000D01*
X78887963Y-73966627D01*
X78869727Y-74026742D01*
X78836443Y-74136467D01*
X78803018Y-74199000D01*
X78752778Y-74292991D01*
X78723448Y-74328729D01*
X78640186Y-74430186D01*
X78538729Y-74513448D01*
X78502991Y-74542778D01*
X78502989Y-74542779D01*
X78346467Y-74626443D01*
X78331444Y-74631000D01*
X78176627Y-74677963D01*
X78110442Y-74684482D01*
X78044260Y-74691000D01*
X77955740Y-74691000D01*
X77889558Y-74684482D01*
X77823373Y-74677963D01*
X77668556Y-74631000D01*
X77653533Y-74626443D01*
X77497011Y-74542779D01*
X77497009Y-74542778D01*
X77461271Y-74513448D01*
X77359814Y-74430186D01*
X77276552Y-74328729D01*
X77247222Y-74292991D01*
X77196982Y-74199000D01*
X77163557Y-74136467D01*
X77130273Y-74026742D01*
X77112037Y-73966627D01*
X77094641Y-73790000D01*
X77112037Y-73613373D01*
X77163557Y-73443534D01*
X77163557Y-73443533D01*
X77247221Y-73287011D01*
X77247222Y-73287009D01*
X77276552Y-73251271D01*
X77359814Y-73149814D01*
X77461271Y-73066552D01*
X77497009Y-73037222D01*
X77514913Y-73027652D01*
X77653533Y-72953557D01*
X77741800Y-72926782D01*
X77823373Y-72902037D01*
X77899949Y-72894495D01*
X77955740Y-72889000D01*
X78044260Y-72889000D01*
X78100051Y-72894495D01*
X78100051Y-72894495D01*
G37*
G36*
X92019987Y-73981524D02*
X92038726Y-73987209D01*
X92056002Y-73996443D01*
X92071137Y-74008863D01*
X92083557Y-74023998D01*
X92092791Y-74041274D01*
X92098476Y-74060013D01*
X92101000Y-74085640D01*
X92101000Y-74524360D01*
X92098476Y-74549987D01*
X92092791Y-74568726D01*
X92083557Y-74586002D01*
X92071137Y-74601137D01*
X92056002Y-74613557D01*
X92038726Y-74622791D01*
X92019987Y-74628476D01*
X91994360Y-74631000D01*
X90505640Y-74631000D01*
X90480013Y-74628476D01*
X90461274Y-74622791D01*
X90443998Y-74613557D01*
X90428863Y-74601137D01*
X90416443Y-74586002D01*
X90407209Y-74568726D01*
X90401524Y-74549987D01*
X90399000Y-74524360D01*
X90399000Y-74085640D01*
X90401524Y-74060013D01*
X90407209Y-74041274D01*
X90416443Y-74023998D01*
X90428863Y-74008863D01*
X90443998Y-73996443D01*
X90461274Y-73987209D01*
X90480013Y-73981524D01*
X90505640Y-73979000D01*
X91994360Y-73979000D01*
X92019987Y-73981524D01*
X92019987Y-73981524D01*
G37*
G36*
X85519987Y-73981524D02*
X85538726Y-73987209D01*
X85556002Y-73996443D01*
X85571137Y-74008863D01*
X85583557Y-74023998D01*
X85592791Y-74041274D01*
X85598476Y-74060013D01*
X85601000Y-74085640D01*
X85601000Y-74524360D01*
X85598476Y-74549987D01*
X85592791Y-74568726D01*
X85583557Y-74586002D01*
X85571137Y-74601137D01*
X85556002Y-74613557D01*
X85538726Y-74622791D01*
X85519987Y-74628476D01*
X85494360Y-74631000D01*
X84005640Y-74631000D01*
X83980013Y-74628476D01*
X83961274Y-74622791D01*
X83943998Y-74613557D01*
X83928863Y-74601137D01*
X83916443Y-74586002D01*
X83907209Y-74568726D01*
X83901524Y-74549987D01*
X83899000Y-74524360D01*
X83899000Y-74085640D01*
X83901524Y-74060013D01*
X83907209Y-74041274D01*
X83916443Y-74023998D01*
X83928863Y-74008863D01*
X83943998Y-73996443D01*
X83961274Y-73987209D01*
X83980013Y-73981524D01*
X84005640Y-73979000D01*
X85494360Y-73979000D01*
X85519987Y-73981524D01*
X85519987Y-73981524D01*
G37*
G36*
X111084466Y-72878565D02*
X111123137Y-72890296D01*
X111158779Y-72909348D01*
X111190017Y-72934983D01*
X111215652Y-72966221D01*
X111234704Y-73001863D01*
X111246435Y-73040534D01*
X111251000Y-73086888D01*
X111251000Y-73738112D01*
X111246435Y-73784466D01*
X111234704Y-73823137D01*
X111215652Y-73858779D01*
X111190017Y-73890017D01*
X111158779Y-73915652D01*
X111123137Y-73934704D01*
X111084466Y-73946435D01*
X111038112Y-73951000D01*
X109961888Y-73951000D01*
X109915534Y-73946435D01*
X109876863Y-73934704D01*
X109841221Y-73915652D01*
X109809983Y-73890017D01*
X109784348Y-73858779D01*
X109765296Y-73823137D01*
X109753565Y-73784466D01*
X109749000Y-73738112D01*
X109749000Y-73086888D01*
X109753565Y-73040534D01*
X109765296Y-73001863D01*
X109784348Y-72966221D01*
X109809983Y-72934983D01*
X109841221Y-72909348D01*
X109876863Y-72890296D01*
X109915534Y-72878565D01*
X109961888Y-72874000D01*
X111038112Y-72874000D01*
X111084466Y-72878565D01*
X111084466Y-72878565D01*
G37*
G36*
X132262812Y-71633624D02*
X132426784Y-71701544D01*
X132574354Y-71800147D01*
X132699853Y-71925646D01*
X132798456Y-72073216D01*
X132866376Y-72237188D01*
X132877404Y-72292633D01*
X132884515Y-72316074D01*
X132896067Y-72337685D01*
X132911612Y-72356627D01*
X132930554Y-72372172D01*
X132952165Y-72383723D01*
X132975614Y-72390836D01*
X133000000Y-72393238D01*
X133024387Y-72390836D01*
X133047836Y-72383723D01*
X133069447Y-72372171D01*
X133088389Y-72356626D01*
X133103934Y-72337684D01*
X133115485Y-72316073D01*
X133122596Y-72292633D01*
X133133624Y-72237188D01*
X133201544Y-72073216D01*
X133300147Y-71925646D01*
X133425646Y-71800147D01*
X133573216Y-71701544D01*
X133737188Y-71633624D01*
X133911259Y-71599000D01*
X134088741Y-71599000D01*
X134262812Y-71633624D01*
X134426784Y-71701544D01*
X134574354Y-71800147D01*
X134699853Y-71925646D01*
X134798456Y-72073216D01*
X134866376Y-72237188D01*
X134901000Y-72411259D01*
X134901000Y-72588741D01*
X134866376Y-72762812D01*
X134798456Y-72926784D01*
X134699853Y-73074354D01*
X134574354Y-73199853D01*
X134426784Y-73298456D01*
X134262812Y-73366376D01*
X134088741Y-73401000D01*
X133911259Y-73401000D01*
X133737188Y-73366376D01*
X133573216Y-73298456D01*
X133425646Y-73199853D01*
X133300147Y-73074354D01*
X133201544Y-72926784D01*
X133133624Y-72762812D01*
X133122596Y-72707367D01*
X133115485Y-72683926D01*
X133103933Y-72662315D01*
X133088388Y-72643373D01*
X133069446Y-72627828D01*
X133047835Y-72616277D01*
X133024386Y-72609164D01*
X133000000Y-72606762D01*
X132975613Y-72609164D01*
X132952164Y-72616277D01*
X132930553Y-72627829D01*
X132911611Y-72643374D01*
X132896066Y-72662316D01*
X132884515Y-72683927D01*
X132877404Y-72707367D01*
X132866376Y-72762812D01*
X132798456Y-72926784D01*
X132699853Y-73074354D01*
X132574354Y-73199853D01*
X132426784Y-73298456D01*
X132262812Y-73366376D01*
X132088741Y-73401000D01*
X131911259Y-73401000D01*
X131737188Y-73366376D01*
X131573216Y-73298456D01*
X131425646Y-73199853D01*
X131300147Y-73074354D01*
X131201544Y-72926784D01*
X131133624Y-72762812D01*
X131099000Y-72588741D01*
X131099000Y-72411259D01*
X131133624Y-72237188D01*
X131201544Y-72073216D01*
X131300147Y-71925646D01*
X131425646Y-71800147D01*
X131573216Y-71701544D01*
X131737188Y-71633624D01*
X131911259Y-71599000D01*
X132088741Y-71599000D01*
X132262812Y-71633624D01*
X132262812Y-71633624D01*
G37*
G36*
X126509466Y-71428565D02*
X126548137Y-71440296D01*
X126583779Y-71459348D01*
X126615017Y-71484983D01*
X126640652Y-71516221D01*
X126659704Y-71551863D01*
X126671435Y-71590534D01*
X126676000Y-71636888D01*
X126676000Y-72713112D01*
X126671435Y-72759466D01*
X126659704Y-72798137D01*
X126640652Y-72833779D01*
X126615017Y-72865017D01*
X126583779Y-72890652D01*
X126548137Y-72909704D01*
X126509466Y-72921435D01*
X126463112Y-72926000D01*
X125811888Y-72926000D01*
X125765534Y-72921435D01*
X125726863Y-72909704D01*
X125691221Y-72890652D01*
X125659983Y-72865017D01*
X125634348Y-72833779D01*
X125615296Y-72798137D01*
X125603565Y-72759466D01*
X125599000Y-72713112D01*
X125599000Y-71636888D01*
X125603565Y-71590534D01*
X125615296Y-71551863D01*
X125634348Y-71516221D01*
X125659983Y-71484983D01*
X125691221Y-71459348D01*
X125726863Y-71440296D01*
X125765534Y-71428565D01*
X125811888Y-71424000D01*
X126463112Y-71424000D01*
X126509466Y-71428565D01*
X126509466Y-71428565D01*
G37*
G36*
X124634466Y-71428565D02*
X124673137Y-71440296D01*
X124708779Y-71459348D01*
X124740017Y-71484983D01*
X124765652Y-71516221D01*
X124784704Y-71551863D01*
X124796435Y-71590534D01*
X124801000Y-71636888D01*
X124801000Y-72713112D01*
X124796435Y-72759466D01*
X124784704Y-72798137D01*
X124765652Y-72833779D01*
X124740017Y-72865017D01*
X124708779Y-72890652D01*
X124673137Y-72909704D01*
X124634466Y-72921435D01*
X124588112Y-72926000D01*
X123936888Y-72926000D01*
X123890534Y-72921435D01*
X123851863Y-72909704D01*
X123816221Y-72890652D01*
X123784983Y-72865017D01*
X123759348Y-72833779D01*
X123740296Y-72798137D01*
X123728565Y-72759466D01*
X123724000Y-72713112D01*
X123724000Y-71636888D01*
X123728565Y-71590534D01*
X123740296Y-71551863D01*
X123759348Y-71516221D01*
X123784983Y-71484983D01*
X123816221Y-71459348D01*
X123851863Y-71440296D01*
X123890534Y-71428565D01*
X123936888Y-71424000D01*
X124588112Y-71424000D01*
X124634466Y-71428565D01*
X124634466Y-71428565D01*
G37*
G36*
X122629591Y-71653085D02*
X122663569Y-71663393D01*
X122694887Y-71680133D01*
X122722339Y-71702661D01*
X122744867Y-71730113D01*
X122761607Y-71761431D01*
X122771915Y-71795409D01*
X122776000Y-71836890D01*
X122776000Y-72513110D01*
X122771915Y-72554591D01*
X122761607Y-72588569D01*
X122744867Y-72619887D01*
X122722339Y-72647339D01*
X122694887Y-72669867D01*
X122663569Y-72686607D01*
X122629591Y-72696915D01*
X122588110Y-72701000D01*
X121986890Y-72701000D01*
X121945409Y-72696915D01*
X121911431Y-72686607D01*
X121880113Y-72669867D01*
X121852661Y-72647339D01*
X121830133Y-72619887D01*
X121813393Y-72588569D01*
X121803085Y-72554591D01*
X121799000Y-72513110D01*
X121799000Y-71836890D01*
X121803085Y-71795409D01*
X121813393Y-71761431D01*
X121830133Y-71730113D01*
X121852661Y-71702661D01*
X121880113Y-71680133D01*
X121911431Y-71663393D01*
X121945409Y-71653085D01*
X121986890Y-71649000D01*
X122588110Y-71649000D01*
X122629591Y-71653085D01*
X122629591Y-71653085D01*
G37*
G36*
X121054591Y-71653085D02*
X121088569Y-71663393D01*
X121119887Y-71680133D01*
X121147339Y-71702661D01*
X121169867Y-71730113D01*
X121186607Y-71761431D01*
X121196915Y-71795409D01*
X121201000Y-71836890D01*
X121201000Y-72513110D01*
X121196915Y-72554591D01*
X121186607Y-72588569D01*
X121169867Y-72619887D01*
X121147339Y-72647339D01*
X121119887Y-72669867D01*
X121088569Y-72686607D01*
X121054591Y-72696915D01*
X121013110Y-72701000D01*
X120411890Y-72701000D01*
X120370409Y-72696915D01*
X120336431Y-72686607D01*
X120305113Y-72669867D01*
X120277661Y-72647339D01*
X120255133Y-72619887D01*
X120238393Y-72588569D01*
X120228085Y-72554591D01*
X120224000Y-72513110D01*
X120224000Y-71836890D01*
X120228085Y-71795409D01*
X120238393Y-71761431D01*
X120255133Y-71730113D01*
X120277661Y-71702661D01*
X120305113Y-71680133D01*
X120336431Y-71663393D01*
X120370409Y-71653085D01*
X120411890Y-71649000D01*
X121013110Y-71649000D01*
X121054591Y-71653085D01*
X121054591Y-71653085D01*
G37*
G36*
X115229591Y-71228085D02*
X115263569Y-71238393D01*
X115294887Y-71255133D01*
X115322339Y-71277661D01*
X115344867Y-71305113D01*
X115361607Y-71336431D01*
X115371915Y-71370409D01*
X115376000Y-71411890D01*
X115376000Y-72088110D01*
X115371915Y-72129591D01*
X115361607Y-72163569D01*
X115344867Y-72194887D01*
X115322339Y-72222339D01*
X115294887Y-72244867D01*
X115263569Y-72261607D01*
X115229591Y-72271915D01*
X115188110Y-72276000D01*
X114586890Y-72276000D01*
X114545409Y-72271915D01*
X114511431Y-72261607D01*
X114480113Y-72244867D01*
X114452661Y-72222339D01*
X114430133Y-72194887D01*
X114413393Y-72163569D01*
X114403085Y-72129591D01*
X114399000Y-72088110D01*
X114399000Y-71411890D01*
X114403085Y-71370409D01*
X114413393Y-71336431D01*
X114430133Y-71305113D01*
X114452661Y-71277661D01*
X114480113Y-71255133D01*
X114511431Y-71238393D01*
X114545409Y-71228085D01*
X114586890Y-71224000D01*
X115188110Y-71224000D01*
X115229591Y-71228085D01*
X115229591Y-71228085D01*
G37*
G36*
X116854591Y-71228085D02*
X116888569Y-71238393D01*
X116919887Y-71255133D01*
X116947339Y-71277661D01*
X116969867Y-71305113D01*
X116986607Y-71336431D01*
X116996915Y-71370409D01*
X117001000Y-71411890D01*
X117001000Y-72088110D01*
X116996915Y-72129591D01*
X116986607Y-72163569D01*
X116969867Y-72194887D01*
X116947339Y-72222339D01*
X116919887Y-72244867D01*
X116888569Y-72261607D01*
X116854591Y-72271915D01*
X116813110Y-72276000D01*
X116211890Y-72276000D01*
X116170409Y-72271915D01*
X116136431Y-72261607D01*
X116105113Y-72244867D01*
X116077661Y-72222339D01*
X116055133Y-72194887D01*
X116038393Y-72163569D01*
X116028085Y-72129591D01*
X116024000Y-72088110D01*
X116024000Y-71411890D01*
X116028085Y-71370409D01*
X116038393Y-71336431D01*
X116055133Y-71305113D01*
X116077661Y-71277661D01*
X116105113Y-71255133D01*
X116136431Y-71238393D01*
X116170409Y-71228085D01*
X116211890Y-71224000D01*
X116813110Y-71224000D01*
X116854591Y-71228085D01*
X116854591Y-71228085D01*
G37*
G36*
X113654591Y-71228085D02*
X113688569Y-71238393D01*
X113719887Y-71255133D01*
X113747339Y-71277661D01*
X113769867Y-71305113D01*
X113786607Y-71336431D01*
X113796915Y-71370409D01*
X113801000Y-71411890D01*
X113801000Y-72088110D01*
X113796915Y-72129591D01*
X113786607Y-72163569D01*
X113769867Y-72194887D01*
X113747339Y-72222339D01*
X113719887Y-72244867D01*
X113688569Y-72261607D01*
X113654591Y-72271915D01*
X113613110Y-72276000D01*
X113011890Y-72276000D01*
X112970409Y-72271915D01*
X112936431Y-72261607D01*
X112905113Y-72244867D01*
X112877661Y-72222339D01*
X112855133Y-72194887D01*
X112838393Y-72163569D01*
X112828085Y-72129591D01*
X112824000Y-72088110D01*
X112824000Y-71411890D01*
X112828085Y-71370409D01*
X112838393Y-71336431D01*
X112855133Y-71305113D01*
X112877661Y-71277661D01*
X112905113Y-71255133D01*
X112936431Y-71238393D01*
X112970409Y-71228085D01*
X113011890Y-71224000D01*
X113613110Y-71224000D01*
X113654591Y-71228085D01*
X113654591Y-71228085D01*
G37*
G36*
X118429591Y-71228085D02*
X118463569Y-71238393D01*
X118494887Y-71255133D01*
X118522339Y-71277661D01*
X118544867Y-71305113D01*
X118561607Y-71336431D01*
X118571915Y-71370409D01*
X118576000Y-71411890D01*
X118576000Y-72088110D01*
X118571915Y-72129591D01*
X118561607Y-72163569D01*
X118544867Y-72194887D01*
X118522339Y-72222339D01*
X118494887Y-72244867D01*
X118463569Y-72261607D01*
X118429591Y-72271915D01*
X118388110Y-72276000D01*
X117786890Y-72276000D01*
X117745409Y-72271915D01*
X117711431Y-72261607D01*
X117680113Y-72244867D01*
X117652661Y-72222339D01*
X117630133Y-72194887D01*
X117613393Y-72163569D01*
X117603085Y-72129591D01*
X117599000Y-72088110D01*
X117599000Y-71411890D01*
X117603085Y-71370409D01*
X117613393Y-71336431D01*
X117630133Y-71305113D01*
X117652661Y-71277661D01*
X117680113Y-71255133D01*
X117711431Y-71238393D01*
X117745409Y-71228085D01*
X117786890Y-71224000D01*
X118388110Y-71224000D01*
X118429591Y-71228085D01*
X118429591Y-71228085D01*
G37*
G36*
X78110443Y-70355519D02*
X78176627Y-70362037D01*
X78289853Y-70396384D01*
X78346467Y-70413557D01*
X78485087Y-70487652D01*
X78502991Y-70497222D01*
X78538729Y-70526552D01*
X78640186Y-70609814D01*
X78714078Y-70699853D01*
X78752778Y-70747009D01*
X78752779Y-70747011D01*
X78836443Y-70903533D01*
X78836443Y-70903534D01*
X78887963Y-71073373D01*
X78905359Y-71250000D01*
X78887963Y-71426627D01*
X78874995Y-71469377D01*
X78836443Y-71596467D01*
X78780277Y-71701544D01*
X78752778Y-71752991D01*
X78745851Y-71761431D01*
X78640186Y-71890186D01*
X78538729Y-71973448D01*
X78502991Y-72002778D01*
X78502989Y-72002779D01*
X78346467Y-72086443D01*
X78289853Y-72103616D01*
X78176627Y-72137963D01*
X78110443Y-72144481D01*
X78044260Y-72151000D01*
X77955740Y-72151000D01*
X77889557Y-72144481D01*
X77823373Y-72137963D01*
X77710147Y-72103616D01*
X77653533Y-72086443D01*
X77497011Y-72002779D01*
X77497009Y-72002778D01*
X77461271Y-71973448D01*
X77359814Y-71890186D01*
X77254149Y-71761431D01*
X77247222Y-71752991D01*
X77219723Y-71701544D01*
X77163557Y-71596467D01*
X77125005Y-71469377D01*
X77112037Y-71426627D01*
X77094641Y-71250000D01*
X77112037Y-71073373D01*
X77163557Y-70903534D01*
X77163557Y-70903533D01*
X77247221Y-70747011D01*
X77247222Y-70747009D01*
X77285922Y-70699853D01*
X77359814Y-70609814D01*
X77461271Y-70526552D01*
X77497009Y-70497222D01*
X77514913Y-70487652D01*
X77653533Y-70413557D01*
X77710147Y-70396384D01*
X77823373Y-70362037D01*
X77889557Y-70355519D01*
X77955740Y-70349000D01*
X78044260Y-70349000D01*
X78110443Y-70355519D01*
X78110443Y-70355519D01*
G37*
G36*
X75570443Y-70355519D02*
X75636627Y-70362037D01*
X75749853Y-70396384D01*
X75806467Y-70413557D01*
X75945087Y-70487652D01*
X75962991Y-70497222D01*
X75998729Y-70526552D01*
X76100186Y-70609814D01*
X76174078Y-70699853D01*
X76212778Y-70747009D01*
X76212779Y-70747011D01*
X76296443Y-70903533D01*
X76296443Y-70903534D01*
X76347963Y-71073373D01*
X76365359Y-71250000D01*
X76347963Y-71426627D01*
X76334995Y-71469377D01*
X76296443Y-71596467D01*
X76240277Y-71701544D01*
X76212778Y-71752991D01*
X76205851Y-71761431D01*
X76100186Y-71890186D01*
X75998729Y-71973448D01*
X75962991Y-72002778D01*
X75962989Y-72002779D01*
X75806467Y-72086443D01*
X75749853Y-72103616D01*
X75636627Y-72137963D01*
X75570443Y-72144481D01*
X75504260Y-72151000D01*
X75415740Y-72151000D01*
X75349557Y-72144481D01*
X75283373Y-72137963D01*
X75170147Y-72103616D01*
X75113533Y-72086443D01*
X74957011Y-72002779D01*
X74957009Y-72002778D01*
X74921271Y-71973448D01*
X74819814Y-71890186D01*
X74714149Y-71761431D01*
X74707222Y-71752991D01*
X74679723Y-71701544D01*
X74623557Y-71596467D01*
X74585005Y-71469377D01*
X74572037Y-71426627D01*
X74554641Y-71250000D01*
X74572037Y-71073373D01*
X74623557Y-70903534D01*
X74623557Y-70903533D01*
X74707221Y-70747011D01*
X74707222Y-70747009D01*
X74745922Y-70699853D01*
X74819814Y-70609814D01*
X74921271Y-70526552D01*
X74957009Y-70497222D01*
X74974913Y-70487652D01*
X75113533Y-70413557D01*
X75170147Y-70396384D01*
X75283373Y-70362037D01*
X75349557Y-70355519D01*
X75415740Y-70349000D01*
X75504260Y-70349000D01*
X75570443Y-70355519D01*
X75570443Y-70355519D01*
G37*
G36*
X110879591Y-70953085D02*
X110913569Y-70963393D01*
X110944887Y-70980133D01*
X110972339Y-71002661D01*
X110994867Y-71030113D01*
X111011607Y-71061431D01*
X111021915Y-71095409D01*
X111026000Y-71136890D01*
X111026000Y-71738110D01*
X111021915Y-71779591D01*
X111011607Y-71813569D01*
X110994867Y-71844887D01*
X110972339Y-71872339D01*
X110944887Y-71894867D01*
X110913569Y-71911607D01*
X110879591Y-71921915D01*
X110838110Y-71926000D01*
X110161890Y-71926000D01*
X110120409Y-71921915D01*
X110086431Y-71911607D01*
X110055113Y-71894867D01*
X110027661Y-71872339D01*
X110005133Y-71844887D01*
X109988393Y-71813569D01*
X109978085Y-71779591D01*
X109974000Y-71738110D01*
X109974000Y-71136890D01*
X109978085Y-71095409D01*
X109988393Y-71061431D01*
X110005133Y-71030113D01*
X110027661Y-71002661D01*
X110055113Y-70980133D01*
X110086431Y-70963393D01*
X110120409Y-70953085D01*
X110161890Y-70949000D01*
X110838110Y-70949000D01*
X110879591Y-70953085D01*
X110879591Y-70953085D01*
G37*
G36*
X132901000Y-69670378D02*
X132903402Y-69694764D01*
X132910515Y-69718213D01*
X132922066Y-69739824D01*
X132937612Y-69758766D01*
X132956554Y-69774312D01*
X132978165Y-69785863D01*
X133001614Y-69792976D01*
X133026000Y-69795378D01*
X133050386Y-69792976D01*
X133073835Y-69785863D01*
X133095446Y-69774312D01*
X133114388Y-69758766D01*
X133129934Y-69739824D01*
X133141480Y-69718223D01*
X133201544Y-69573216D01*
X133300147Y-69425646D01*
X133425646Y-69300147D01*
X133573216Y-69201544D01*
X133737188Y-69133624D01*
X133911259Y-69099000D01*
X134088741Y-69099000D01*
X134262812Y-69133624D01*
X134426784Y-69201544D01*
X134574354Y-69300147D01*
X134699853Y-69425646D01*
X134798456Y-69573216D01*
X134866376Y-69737188D01*
X134901000Y-69911259D01*
X134901000Y-70088741D01*
X134866376Y-70262812D01*
X134798456Y-70426784D01*
X134699853Y-70574354D01*
X134574354Y-70699853D01*
X134426784Y-70798456D01*
X134262812Y-70866376D01*
X134088741Y-70901000D01*
X133911259Y-70901000D01*
X133737188Y-70866376D01*
X133573216Y-70798456D01*
X133425646Y-70699853D01*
X133300147Y-70574354D01*
X133201544Y-70426784D01*
X133141480Y-70281777D01*
X133129934Y-70260176D01*
X133114388Y-70241234D01*
X133095446Y-70225688D01*
X133073835Y-70214137D01*
X133050386Y-70207024D01*
X133026000Y-70204622D01*
X133001614Y-70207024D01*
X132978165Y-70214137D01*
X132956554Y-70225688D01*
X132937612Y-70241234D01*
X132922066Y-70260176D01*
X132910515Y-70281787D01*
X132903402Y-70305236D01*
X132901000Y-70329622D01*
X132901000Y-70901000D01*
X131099000Y-70901000D01*
X131099000Y-69099000D01*
X132901000Y-69099000D01*
X132901000Y-69670378D01*
X132901000Y-69670378D01*
G37*
G36*
X110879591Y-69378085D02*
X110913569Y-69388393D01*
X110944887Y-69405133D01*
X110972339Y-69427661D01*
X110994867Y-69455113D01*
X111011607Y-69486431D01*
X111021915Y-69520409D01*
X111026000Y-69561890D01*
X111026000Y-70163110D01*
X111021915Y-70204591D01*
X111011607Y-70238569D01*
X110994867Y-70269887D01*
X110972339Y-70297339D01*
X110944887Y-70319867D01*
X110913569Y-70336607D01*
X110879591Y-70346915D01*
X110838110Y-70351000D01*
X110161890Y-70351000D01*
X110120409Y-70346915D01*
X110086431Y-70336607D01*
X110055113Y-70319867D01*
X110027661Y-70297339D01*
X110005133Y-70269887D01*
X109988393Y-70238569D01*
X109978085Y-70204591D01*
X109974000Y-70163110D01*
X109974000Y-69561890D01*
X109978085Y-69520409D01*
X109988393Y-69486431D01*
X110005133Y-69455113D01*
X110027661Y-69427661D01*
X110055113Y-69405133D01*
X110086431Y-69388393D01*
X110120409Y-69378085D01*
X110161890Y-69374000D01*
X110838110Y-69374000D01*
X110879591Y-69378085D01*
X110879591Y-69378085D01*
G37*
G36*
X115229591Y-69278085D02*
X115263569Y-69288393D01*
X115294887Y-69305133D01*
X115322339Y-69327661D01*
X115344867Y-69355113D01*
X115361607Y-69386431D01*
X115371915Y-69420409D01*
X115376000Y-69461890D01*
X115376000Y-70138110D01*
X115371915Y-70179591D01*
X115361607Y-70213569D01*
X115344867Y-70244887D01*
X115322339Y-70272339D01*
X115294887Y-70294867D01*
X115263569Y-70311607D01*
X115229591Y-70321915D01*
X115188110Y-70326000D01*
X114586890Y-70326000D01*
X114545409Y-70321915D01*
X114511431Y-70311607D01*
X114480113Y-70294867D01*
X114452661Y-70272339D01*
X114430133Y-70244887D01*
X114413393Y-70213569D01*
X114403085Y-70179591D01*
X114399000Y-70138110D01*
X114399000Y-69461890D01*
X114403085Y-69420409D01*
X114413393Y-69386431D01*
X114430133Y-69355113D01*
X114452661Y-69327661D01*
X114480113Y-69305133D01*
X114511431Y-69288393D01*
X114545409Y-69278085D01*
X114586890Y-69274000D01*
X115188110Y-69274000D01*
X115229591Y-69278085D01*
X115229591Y-69278085D01*
G37*
G36*
X113654591Y-69278085D02*
X113688569Y-69288393D01*
X113719887Y-69305133D01*
X113747339Y-69327661D01*
X113769867Y-69355113D01*
X113786607Y-69386431D01*
X113796915Y-69420409D01*
X113801000Y-69461890D01*
X113801000Y-70138110D01*
X113796915Y-70179591D01*
X113786607Y-70213569D01*
X113769867Y-70244887D01*
X113747339Y-70272339D01*
X113719887Y-70294867D01*
X113688569Y-70311607D01*
X113654591Y-70321915D01*
X113613110Y-70326000D01*
X113011890Y-70326000D01*
X112970409Y-70321915D01*
X112936431Y-70311607D01*
X112905113Y-70294867D01*
X112877661Y-70272339D01*
X112855133Y-70244887D01*
X112838393Y-70213569D01*
X112828085Y-70179591D01*
X112824000Y-70138110D01*
X112824000Y-69461890D01*
X112828085Y-69420409D01*
X112838393Y-69386431D01*
X112855133Y-69355113D01*
X112877661Y-69327661D01*
X112905113Y-69305133D01*
X112936431Y-69288393D01*
X112970409Y-69278085D01*
X113011890Y-69274000D01*
X113613110Y-69274000D01*
X113654591Y-69278085D01*
X113654591Y-69278085D01*
G37*
G36*
X78110442Y-67815518D02*
X78176627Y-67822037D01*
X78289853Y-67856384D01*
X78346467Y-67873557D01*
X78427259Y-67916742D01*
X78502991Y-67957222D01*
X78525433Y-67975640D01*
X78640186Y-68069814D01*
X78711531Y-68156750D01*
X78752778Y-68207009D01*
X78752779Y-68207011D01*
X78836443Y-68363533D01*
X78842905Y-68384836D01*
X78887963Y-68533373D01*
X78905359Y-68710000D01*
X78887963Y-68886627D01*
X78853616Y-68999853D01*
X78836443Y-69056467D01*
X78762348Y-69195087D01*
X78752778Y-69212991D01*
X78723448Y-69248729D01*
X78640186Y-69350186D01*
X78548240Y-69425643D01*
X78502991Y-69462778D01*
X78502989Y-69462779D01*
X78346467Y-69546443D01*
X78295544Y-69561890D01*
X78176627Y-69597963D01*
X78110443Y-69604481D01*
X78044260Y-69611000D01*
X77955740Y-69611000D01*
X77889557Y-69604481D01*
X77823373Y-69597963D01*
X77704456Y-69561890D01*
X77653533Y-69546443D01*
X77497011Y-69462779D01*
X77497009Y-69462778D01*
X77451760Y-69425643D01*
X77359814Y-69350186D01*
X77276552Y-69248729D01*
X77247222Y-69212991D01*
X77237652Y-69195087D01*
X77163557Y-69056467D01*
X77146384Y-68999853D01*
X77112037Y-68886627D01*
X77094641Y-68710000D01*
X77112037Y-68533373D01*
X77157095Y-68384836D01*
X77163557Y-68363533D01*
X77247221Y-68207011D01*
X77247222Y-68207009D01*
X77288469Y-68156750D01*
X77359814Y-68069814D01*
X77474567Y-67975640D01*
X77497009Y-67957222D01*
X77572741Y-67916742D01*
X77653533Y-67873557D01*
X77710147Y-67856384D01*
X77823373Y-67822037D01*
X77889558Y-67815518D01*
X77955740Y-67809000D01*
X78044260Y-67809000D01*
X78110442Y-67815518D01*
X78110442Y-67815518D01*
G37*
G36*
X75570442Y-67815518D02*
X75636627Y-67822037D01*
X75749853Y-67856384D01*
X75806467Y-67873557D01*
X75887259Y-67916742D01*
X75962991Y-67957222D01*
X75985433Y-67975640D01*
X76100186Y-68069814D01*
X76171531Y-68156750D01*
X76212778Y-68207009D01*
X76212779Y-68207011D01*
X76296443Y-68363533D01*
X76302905Y-68384836D01*
X76347963Y-68533373D01*
X76365359Y-68710000D01*
X76347963Y-68886627D01*
X76313616Y-68999853D01*
X76296443Y-69056467D01*
X76222348Y-69195087D01*
X76212778Y-69212991D01*
X76183448Y-69248729D01*
X76100186Y-69350186D01*
X76008240Y-69425643D01*
X75962991Y-69462778D01*
X75962989Y-69462779D01*
X75806467Y-69546443D01*
X75755544Y-69561890D01*
X75636627Y-69597963D01*
X75570443Y-69604481D01*
X75504260Y-69611000D01*
X75415740Y-69611000D01*
X75349557Y-69604481D01*
X75283373Y-69597963D01*
X75164456Y-69561890D01*
X75113533Y-69546443D01*
X74957011Y-69462779D01*
X74957009Y-69462778D01*
X74911760Y-69425643D01*
X74819814Y-69350186D01*
X74736552Y-69248729D01*
X74707222Y-69212991D01*
X74697652Y-69195087D01*
X74623557Y-69056467D01*
X74606384Y-68999853D01*
X74572037Y-68886627D01*
X74554641Y-68710000D01*
X74572037Y-68533373D01*
X74617095Y-68384836D01*
X74623557Y-68363533D01*
X74707221Y-68207011D01*
X74707222Y-68207009D01*
X74748469Y-68156750D01*
X74819814Y-68069814D01*
X74934567Y-67975640D01*
X74957009Y-67957222D01*
X75032741Y-67916742D01*
X75113533Y-67873557D01*
X75170147Y-67856384D01*
X75283373Y-67822037D01*
X75349558Y-67815518D01*
X75415740Y-67809000D01*
X75504260Y-67809000D01*
X75570442Y-67815518D01*
X75570442Y-67815518D01*
G37*
G36*
X92019987Y-67871524D02*
X92038726Y-67877209D01*
X92056002Y-67886443D01*
X92071137Y-67898863D01*
X92083557Y-67913998D01*
X92092791Y-67931274D01*
X92098476Y-67950013D01*
X92101000Y-67975640D01*
X92101000Y-68414360D01*
X92098476Y-68439987D01*
X92092791Y-68458726D01*
X92083557Y-68476002D01*
X92071137Y-68491137D01*
X92056002Y-68503557D01*
X92038726Y-68512791D01*
X92019987Y-68518476D01*
X91994360Y-68521000D01*
X90505640Y-68521000D01*
X90480013Y-68518476D01*
X90461274Y-68512791D01*
X90443998Y-68503557D01*
X90428863Y-68491137D01*
X90416443Y-68476002D01*
X90407209Y-68458726D01*
X90401524Y-68439987D01*
X90399000Y-68414360D01*
X90399000Y-67975640D01*
X90401524Y-67950013D01*
X90407209Y-67931274D01*
X90416443Y-67913998D01*
X90428863Y-67898863D01*
X90443998Y-67886443D01*
X90461274Y-67877209D01*
X90480013Y-67871524D01*
X90505640Y-67869000D01*
X91994360Y-67869000D01*
X92019987Y-67871524D01*
X92019987Y-67871524D01*
G37*
G36*
X85519987Y-67871524D02*
X85538726Y-67877209D01*
X85556002Y-67886443D01*
X85571137Y-67898863D01*
X85583557Y-67913998D01*
X85592791Y-67931274D01*
X85598476Y-67950013D01*
X85601000Y-67975640D01*
X85601000Y-68414360D01*
X85598476Y-68439987D01*
X85592791Y-68458726D01*
X85583557Y-68476002D01*
X85571137Y-68491137D01*
X85556002Y-68503557D01*
X85538726Y-68512791D01*
X85519987Y-68518476D01*
X85494360Y-68521000D01*
X84005640Y-68521000D01*
X83980013Y-68518476D01*
X83961274Y-68512791D01*
X83943998Y-68503557D01*
X83928863Y-68491137D01*
X83916443Y-68476002D01*
X83907209Y-68458726D01*
X83901524Y-68439987D01*
X83899000Y-68414360D01*
X83899000Y-67975640D01*
X83901524Y-67950013D01*
X83907209Y-67931274D01*
X83916443Y-67913998D01*
X83928863Y-67898863D01*
X83943998Y-67886443D01*
X83961274Y-67877209D01*
X83980013Y-67871524D01*
X84005640Y-67869000D01*
X85494360Y-67869000D01*
X85519987Y-67871524D01*
X85519987Y-67871524D01*
G37*
G36*
X113155483Y-68462686D02*
X111993483Y-68462686D01*
X111993483Y-67710686D01*
X113155483Y-67710686D01*
X113155483Y-68462686D01*
X113155483Y-68462686D01*
G37*
G36*
X115355483Y-68462686D02*
X114193483Y-68462686D01*
X114193483Y-65810686D01*
X115355483Y-65810686D01*
X115355483Y-68462686D01*
X115355483Y-68462686D01*
G37*
G36*
X104729591Y-67453085D02*
X104763569Y-67463393D01*
X104794887Y-67480133D01*
X104822339Y-67502661D01*
X104844867Y-67530113D01*
X104861607Y-67561431D01*
X104871915Y-67595409D01*
X104876000Y-67636890D01*
X104876000Y-68238110D01*
X104871915Y-68279591D01*
X104861607Y-68313569D01*
X104844867Y-68344887D01*
X104822339Y-68372339D01*
X104794887Y-68394867D01*
X104763569Y-68411607D01*
X104729591Y-68421915D01*
X104688110Y-68426000D01*
X104011890Y-68426000D01*
X103970409Y-68421915D01*
X103936431Y-68411607D01*
X103905113Y-68394867D01*
X103877661Y-68372339D01*
X103855133Y-68344887D01*
X103838393Y-68313569D01*
X103828085Y-68279591D01*
X103824000Y-68238110D01*
X103824000Y-67636890D01*
X103828085Y-67595409D01*
X103838393Y-67561431D01*
X103855133Y-67530113D01*
X103877661Y-67502661D01*
X103905113Y-67480133D01*
X103936431Y-67463393D01*
X103970409Y-67453085D01*
X104011890Y-67449000D01*
X104688110Y-67449000D01*
X104729591Y-67453085D01*
X104729591Y-67453085D01*
G37*
G36*
X102729591Y-67453085D02*
X102763569Y-67463393D01*
X102794887Y-67480133D01*
X102822339Y-67502661D01*
X102844867Y-67530113D01*
X102861607Y-67561431D01*
X102871915Y-67595409D01*
X102876000Y-67636890D01*
X102876000Y-68238110D01*
X102871915Y-68279591D01*
X102861607Y-68313569D01*
X102844867Y-68344887D01*
X102822339Y-68372339D01*
X102794887Y-68394867D01*
X102763569Y-68411607D01*
X102729591Y-68421915D01*
X102688110Y-68426000D01*
X102011890Y-68426000D01*
X101970409Y-68421915D01*
X101936431Y-68411607D01*
X101905113Y-68394867D01*
X101877661Y-68372339D01*
X101855133Y-68344887D01*
X101838393Y-68313569D01*
X101828085Y-68279591D01*
X101824000Y-68238110D01*
X101824000Y-67636890D01*
X101828085Y-67595409D01*
X101838393Y-67561431D01*
X101855133Y-67530113D01*
X101877661Y-67502661D01*
X101905113Y-67480133D01*
X101936431Y-67463393D01*
X101970409Y-67453085D01*
X102011890Y-67449000D01*
X102688110Y-67449000D01*
X102729591Y-67453085D01*
X102729591Y-67453085D01*
G37*
G36*
X110879591Y-67428085D02*
X110913569Y-67438393D01*
X110944887Y-67455133D01*
X110972339Y-67477661D01*
X110994867Y-67505113D01*
X111011607Y-67536431D01*
X111021915Y-67570409D01*
X111026000Y-67611890D01*
X111026000Y-68213110D01*
X111021915Y-68254591D01*
X111011607Y-68288569D01*
X110994867Y-68319887D01*
X110972339Y-68347339D01*
X110944887Y-68369867D01*
X110913569Y-68386607D01*
X110879591Y-68396915D01*
X110838110Y-68401000D01*
X110161890Y-68401000D01*
X110120409Y-68396915D01*
X110086431Y-68386607D01*
X110055113Y-68369867D01*
X110027661Y-68347339D01*
X110005133Y-68319887D01*
X109988393Y-68288569D01*
X109978085Y-68254591D01*
X109974000Y-68213110D01*
X109974000Y-67611890D01*
X109978085Y-67570409D01*
X109988393Y-67536431D01*
X110005133Y-67505113D01*
X110027661Y-67477661D01*
X110055113Y-67455133D01*
X110086431Y-67438393D01*
X110120409Y-67428085D01*
X110161890Y-67424000D01*
X110838110Y-67424000D01*
X110879591Y-67428085D01*
X110879591Y-67428085D01*
G37*
G36*
X92019987Y-66601524D02*
X92038726Y-66607209D01*
X92056002Y-66616443D01*
X92071137Y-66628863D01*
X92083557Y-66643998D01*
X92092791Y-66661274D01*
X92098476Y-66680013D01*
X92101000Y-66705640D01*
X92101000Y-67144360D01*
X92098476Y-67169987D01*
X92092791Y-67188726D01*
X92083557Y-67206002D01*
X92071137Y-67221137D01*
X92056002Y-67233557D01*
X92038726Y-67242791D01*
X92019987Y-67248476D01*
X91994360Y-67251000D01*
X90505640Y-67251000D01*
X90480013Y-67248476D01*
X90461274Y-67242791D01*
X90443998Y-67233557D01*
X90428863Y-67221137D01*
X90416443Y-67206002D01*
X90407209Y-67188726D01*
X90401524Y-67169987D01*
X90399000Y-67144360D01*
X90399000Y-66705640D01*
X90401524Y-66680013D01*
X90407209Y-66661274D01*
X90416443Y-66643998D01*
X90428863Y-66628863D01*
X90443998Y-66616443D01*
X90461274Y-66607209D01*
X90480013Y-66601524D01*
X90505640Y-66599000D01*
X91994360Y-66599000D01*
X92019987Y-66601524D01*
X92019987Y-66601524D01*
G37*
G36*
X85519987Y-66601524D02*
X85538726Y-66607209D01*
X85556002Y-66616443D01*
X85571137Y-66628863D01*
X85583557Y-66643998D01*
X85592791Y-66661274D01*
X85598476Y-66680013D01*
X85601000Y-66705640D01*
X85601000Y-67144360D01*
X85598476Y-67169987D01*
X85592791Y-67188726D01*
X85583557Y-67206002D01*
X85571137Y-67221137D01*
X85556002Y-67233557D01*
X85538726Y-67242791D01*
X85519987Y-67248476D01*
X85494360Y-67251000D01*
X84005640Y-67251000D01*
X83980013Y-67248476D01*
X83961274Y-67242791D01*
X83943998Y-67233557D01*
X83928863Y-67221137D01*
X83916443Y-67206002D01*
X83907209Y-67188726D01*
X83901524Y-67169987D01*
X83899000Y-67144360D01*
X83899000Y-66705640D01*
X83901524Y-66680013D01*
X83907209Y-66661274D01*
X83916443Y-66643998D01*
X83928863Y-66628863D01*
X83943998Y-66616443D01*
X83961274Y-66607209D01*
X83980013Y-66601524D01*
X84005640Y-66599000D01*
X85494360Y-66599000D01*
X85519987Y-66601524D01*
X85519987Y-66601524D01*
G37*
G36*
X127168604Y-65228347D02*
X127205145Y-65239432D01*
X127238820Y-65257431D01*
X127268341Y-65281659D01*
X127292569Y-65311180D01*
X127310568Y-65344855D01*
X127321653Y-65381396D01*
X127326000Y-65425538D01*
X127326000Y-66874462D01*
X127321653Y-66918604D01*
X127310568Y-66955145D01*
X127292569Y-66988820D01*
X127268341Y-67018341D01*
X127238820Y-67042569D01*
X127205145Y-67060568D01*
X127168604Y-67071653D01*
X127124462Y-67076000D01*
X126175538Y-67076000D01*
X126131396Y-67071653D01*
X126094855Y-67060568D01*
X126061180Y-67042569D01*
X126031659Y-67018341D01*
X126007431Y-66988820D01*
X125989432Y-66955145D01*
X125978347Y-66918604D01*
X125974000Y-66874462D01*
X125974000Y-65425538D01*
X125978347Y-65381396D01*
X125989432Y-65344855D01*
X126007431Y-65311180D01*
X126031659Y-65281659D01*
X126061180Y-65257431D01*
X126094855Y-65239432D01*
X126131396Y-65228347D01*
X126175538Y-65224000D01*
X127124462Y-65224000D01*
X127168604Y-65228347D01*
X127168604Y-65228347D01*
G37*
G36*
X124368604Y-65228347D02*
X124405145Y-65239432D01*
X124438820Y-65257431D01*
X124468341Y-65281659D01*
X124492569Y-65311180D01*
X124510568Y-65344855D01*
X124521653Y-65381396D01*
X124526000Y-65425538D01*
X124526000Y-66874462D01*
X124521653Y-66918604D01*
X124510568Y-66955145D01*
X124492569Y-66988820D01*
X124468341Y-67018341D01*
X124438820Y-67042569D01*
X124405145Y-67060568D01*
X124368604Y-67071653D01*
X124324462Y-67076000D01*
X123375538Y-67076000D01*
X123331396Y-67071653D01*
X123294855Y-67060568D01*
X123261180Y-67042569D01*
X123231659Y-67018341D01*
X123207431Y-66988820D01*
X123189432Y-66955145D01*
X123178347Y-66918604D01*
X123174000Y-66874462D01*
X123174000Y-65425538D01*
X123178347Y-65381396D01*
X123189432Y-65344855D01*
X123207431Y-65311180D01*
X123231659Y-65281659D01*
X123261180Y-65257431D01*
X123294855Y-65239432D01*
X123331396Y-65228347D01*
X123375538Y-65224000D01*
X124324462Y-65224000D01*
X124368604Y-65228347D01*
X124368604Y-65228347D01*
G37*
G36*
X78110443Y-65275519D02*
X78176627Y-65282037D01*
X78289853Y-65316384D01*
X78346467Y-65333557D01*
X78470167Y-65399677D01*
X78502991Y-65417222D01*
X78525433Y-65435640D01*
X78640186Y-65529814D01*
X78723448Y-65631271D01*
X78752778Y-65667009D01*
X78752779Y-65667011D01*
X78836443Y-65823533D01*
X78836443Y-65823534D01*
X78887963Y-65993373D01*
X78905359Y-66170000D01*
X78887963Y-66346627D01*
X78878424Y-66378073D01*
X78836443Y-66516467D01*
X78762715Y-66654401D01*
X78752778Y-66672991D01*
X78726844Y-66704591D01*
X78640186Y-66810186D01*
X78561864Y-66874462D01*
X78502991Y-66922778D01*
X78502989Y-66922779D01*
X78346467Y-67006443D01*
X78289853Y-67023616D01*
X78176627Y-67057963D01*
X78110443Y-67064481D01*
X78044260Y-67071000D01*
X77955740Y-67071000D01*
X77889557Y-67064481D01*
X77823373Y-67057963D01*
X77710147Y-67023616D01*
X77653533Y-67006443D01*
X77497011Y-66922779D01*
X77497009Y-66922778D01*
X77438136Y-66874462D01*
X77359814Y-66810186D01*
X77273156Y-66704591D01*
X77247222Y-66672991D01*
X77237285Y-66654401D01*
X77163557Y-66516467D01*
X77121576Y-66378073D01*
X77112037Y-66346627D01*
X77094641Y-66170000D01*
X77112037Y-65993373D01*
X77163557Y-65823534D01*
X77163557Y-65823533D01*
X77247221Y-65667011D01*
X77247222Y-65667009D01*
X77276552Y-65631271D01*
X77359814Y-65529814D01*
X77474567Y-65435640D01*
X77497009Y-65417222D01*
X77529833Y-65399677D01*
X77653533Y-65333557D01*
X77710147Y-65316384D01*
X77823373Y-65282037D01*
X77889557Y-65275519D01*
X77955740Y-65269000D01*
X78044260Y-65269000D01*
X78110443Y-65275519D01*
X78110443Y-65275519D01*
G37*
G36*
X75570443Y-65275519D02*
X75636627Y-65282037D01*
X75749853Y-65316384D01*
X75806467Y-65333557D01*
X75930167Y-65399677D01*
X75962991Y-65417222D01*
X75985433Y-65435640D01*
X76100186Y-65529814D01*
X76183448Y-65631271D01*
X76212778Y-65667009D01*
X76212779Y-65667011D01*
X76296443Y-65823533D01*
X76296443Y-65823534D01*
X76347963Y-65993373D01*
X76365359Y-66170000D01*
X76347963Y-66346627D01*
X76338424Y-66378073D01*
X76296443Y-66516467D01*
X76222715Y-66654401D01*
X76212778Y-66672991D01*
X76186844Y-66704591D01*
X76100186Y-66810186D01*
X76021864Y-66874462D01*
X75962991Y-66922778D01*
X75962989Y-66922779D01*
X75806467Y-67006443D01*
X75749853Y-67023616D01*
X75636627Y-67057963D01*
X75570443Y-67064481D01*
X75504260Y-67071000D01*
X75415740Y-67071000D01*
X75349557Y-67064481D01*
X75283373Y-67057963D01*
X75170147Y-67023616D01*
X75113533Y-67006443D01*
X74957011Y-66922779D01*
X74957009Y-66922778D01*
X74898136Y-66874462D01*
X74819814Y-66810186D01*
X74733156Y-66704591D01*
X74707222Y-66672991D01*
X74697285Y-66654401D01*
X74623557Y-66516467D01*
X74581576Y-66378073D01*
X74572037Y-66346627D01*
X74554641Y-66170000D01*
X74572037Y-65993373D01*
X74623557Y-65823534D01*
X74623557Y-65823533D01*
X74707221Y-65667011D01*
X74707222Y-65667009D01*
X74736552Y-65631271D01*
X74819814Y-65529814D01*
X74934567Y-65435640D01*
X74957009Y-65417222D01*
X74989833Y-65399677D01*
X75113533Y-65333557D01*
X75170147Y-65316384D01*
X75283373Y-65282037D01*
X75349557Y-65275519D01*
X75415740Y-65269000D01*
X75504260Y-65269000D01*
X75570443Y-65275519D01*
X75570443Y-65275519D01*
G37*
G36*
X137235331Y-63498211D02*
X137563092Y-63633974D01*
X137858073Y-63831074D01*
X138108926Y-64081927D01*
X138306026Y-64376908D01*
X138441789Y-64704669D01*
X138511000Y-65052616D01*
X138511000Y-65407384D01*
X138441789Y-65755331D01*
X138306026Y-66083092D01*
X138108926Y-66378073D01*
X137858073Y-66628926D01*
X137563092Y-66826026D01*
X137235331Y-66961789D01*
X136887384Y-67031000D01*
X136532616Y-67031000D01*
X136184669Y-66961789D01*
X135856908Y-66826026D01*
X135561927Y-66628926D01*
X135311074Y-66378073D01*
X135113974Y-66083092D01*
X134978211Y-65755331D01*
X134909000Y-65407384D01*
X134909000Y-65052616D01*
X134978211Y-64704669D01*
X135113974Y-64376908D01*
X135311074Y-64081927D01*
X135561927Y-63831074D01*
X135856908Y-63633974D01*
X136184669Y-63498211D01*
X136532616Y-63429000D01*
X136887384Y-63429000D01*
X137235331Y-63498211D01*
X137235331Y-63498211D01*
G37*
G36*
X119626000Y-66851000D02*
X118374000Y-66851000D01*
X118374000Y-65449000D01*
X119626000Y-65449000D01*
X119626000Y-66851000D01*
X119626000Y-66851000D01*
G37*
G36*
X122726000Y-66851000D02*
X121474000Y-66851000D01*
X121474000Y-65449000D01*
X122726000Y-65449000D01*
X122726000Y-66851000D01*
X122726000Y-66851000D01*
G37*
G36*
X102729591Y-65878085D02*
X102763569Y-65888393D01*
X102794887Y-65905133D01*
X102822339Y-65927661D01*
X102844867Y-65955113D01*
X102861607Y-65986431D01*
X102871915Y-66020409D01*
X102876000Y-66061890D01*
X102876000Y-66663110D01*
X102871915Y-66704591D01*
X102861607Y-66738569D01*
X102844867Y-66769887D01*
X102822339Y-66797339D01*
X102794887Y-66819867D01*
X102763569Y-66836607D01*
X102729591Y-66846915D01*
X102688110Y-66851000D01*
X102011890Y-66851000D01*
X101970409Y-66846915D01*
X101936431Y-66836607D01*
X101905113Y-66819867D01*
X101877661Y-66797339D01*
X101855133Y-66769887D01*
X101838393Y-66738569D01*
X101828085Y-66704591D01*
X101824000Y-66663110D01*
X101824000Y-66061890D01*
X101828085Y-66020409D01*
X101838393Y-65986431D01*
X101855133Y-65955113D01*
X101877661Y-65927661D01*
X101905113Y-65905133D01*
X101936431Y-65888393D01*
X101970409Y-65878085D01*
X102011890Y-65874000D01*
X102688110Y-65874000D01*
X102729591Y-65878085D01*
X102729591Y-65878085D01*
G37*
G36*
X104729591Y-65878085D02*
X104763569Y-65888393D01*
X104794887Y-65905133D01*
X104822339Y-65927661D01*
X104844867Y-65955113D01*
X104861607Y-65986431D01*
X104871915Y-66020409D01*
X104876000Y-66061890D01*
X104876000Y-66663110D01*
X104871915Y-66704591D01*
X104861607Y-66738569D01*
X104844867Y-66769887D01*
X104822339Y-66797339D01*
X104794887Y-66819867D01*
X104763569Y-66836607D01*
X104729591Y-66846915D01*
X104688110Y-66851000D01*
X104011890Y-66851000D01*
X103970409Y-66846915D01*
X103936431Y-66836607D01*
X103905113Y-66819867D01*
X103877661Y-66797339D01*
X103855133Y-66769887D01*
X103838393Y-66738569D01*
X103828085Y-66704591D01*
X103824000Y-66663110D01*
X103824000Y-66061890D01*
X103828085Y-66020409D01*
X103838393Y-65986431D01*
X103855133Y-65955113D01*
X103877661Y-65927661D01*
X103905113Y-65905133D01*
X103936431Y-65888393D01*
X103970409Y-65878085D01*
X104011890Y-65874000D01*
X104688110Y-65874000D01*
X104729591Y-65878085D01*
X104729591Y-65878085D01*
G37*
G36*
X110879591Y-65853085D02*
X110913569Y-65863393D01*
X110944887Y-65880133D01*
X110972339Y-65902661D01*
X110994867Y-65930113D01*
X111011607Y-65961431D01*
X111021915Y-65995409D01*
X111026000Y-66036890D01*
X111026000Y-66638110D01*
X111021915Y-66679591D01*
X111011607Y-66713569D01*
X110994867Y-66744887D01*
X110972339Y-66772339D01*
X110944887Y-66794867D01*
X110913569Y-66811607D01*
X110879591Y-66821915D01*
X110838110Y-66826000D01*
X110161890Y-66826000D01*
X110120409Y-66821915D01*
X110086431Y-66811607D01*
X110055113Y-66794867D01*
X110027661Y-66772339D01*
X110005133Y-66744887D01*
X109988393Y-66713569D01*
X109978085Y-66679591D01*
X109974000Y-66638110D01*
X109974000Y-66036890D01*
X109978085Y-65995409D01*
X109988393Y-65961431D01*
X110005133Y-65930113D01*
X110027661Y-65902661D01*
X110055113Y-65880133D01*
X110086431Y-65863393D01*
X110120409Y-65853085D01*
X110161890Y-65849000D01*
X110838110Y-65849000D01*
X110879591Y-65853085D01*
X110879591Y-65853085D01*
G37*
G36*
X113155483Y-66562686D02*
X111993483Y-66562686D01*
X111993483Y-65810686D01*
X113155483Y-65810686D01*
X113155483Y-66562686D01*
X113155483Y-66562686D01*
G37*
G36*
X128995293Y-65700323D02*
X129002312Y-65702452D01*
X129008775Y-65705907D01*
X129014442Y-65710558D01*
X129019093Y-65716225D01*
X129022548Y-65722688D01*
X129024677Y-65729707D01*
X129026000Y-65743140D01*
X129026000Y-66056860D01*
X129024677Y-66070293D01*
X129022548Y-66077312D01*
X129019093Y-66083775D01*
X129014442Y-66089442D01*
X129008775Y-66094093D01*
X129002312Y-66097548D01*
X128995293Y-66099677D01*
X128981860Y-66101000D01*
X128418140Y-66101000D01*
X128404707Y-66099677D01*
X128397688Y-66097548D01*
X128391225Y-66094093D01*
X128385558Y-66089442D01*
X128380907Y-66083775D01*
X128377452Y-66077312D01*
X128375323Y-66070293D01*
X128374000Y-66056860D01*
X128374000Y-65743140D01*
X128375323Y-65729707D01*
X128377452Y-65722688D01*
X128380907Y-65716225D01*
X128385558Y-65710558D01*
X128391225Y-65705907D01*
X128397688Y-65702452D01*
X128404707Y-65700323D01*
X128418140Y-65699000D01*
X128981860Y-65699000D01*
X128995293Y-65700323D01*
X128995293Y-65700323D01*
G37*
G36*
X85519987Y-65331524D02*
X85538726Y-65337209D01*
X85556002Y-65346443D01*
X85571137Y-65358863D01*
X85583557Y-65373998D01*
X85592791Y-65391274D01*
X85598476Y-65410013D01*
X85601000Y-65435640D01*
X85601000Y-65874360D01*
X85598476Y-65899987D01*
X85592791Y-65918726D01*
X85583557Y-65936002D01*
X85571137Y-65951137D01*
X85556002Y-65963557D01*
X85538726Y-65972791D01*
X85519987Y-65978476D01*
X85494360Y-65981000D01*
X84005640Y-65981000D01*
X83980013Y-65978476D01*
X83961274Y-65972791D01*
X83943998Y-65963557D01*
X83928863Y-65951137D01*
X83916443Y-65936002D01*
X83907209Y-65918726D01*
X83901524Y-65899987D01*
X83899000Y-65874360D01*
X83899000Y-65435640D01*
X83901524Y-65410013D01*
X83907209Y-65391274D01*
X83916443Y-65373998D01*
X83928863Y-65358863D01*
X83943998Y-65346443D01*
X83961274Y-65337209D01*
X83980013Y-65331524D01*
X84005640Y-65329000D01*
X85494360Y-65329000D01*
X85519987Y-65331524D01*
X85519987Y-65331524D01*
G37*
G36*
X92019987Y-65331524D02*
X92038726Y-65337209D01*
X92056002Y-65346443D01*
X92071137Y-65358863D01*
X92083557Y-65373998D01*
X92092791Y-65391274D01*
X92098476Y-65410013D01*
X92101000Y-65435640D01*
X92101000Y-65874360D01*
X92098476Y-65899987D01*
X92092791Y-65918726D01*
X92083557Y-65936002D01*
X92071137Y-65951137D01*
X92056002Y-65963557D01*
X92038726Y-65972791D01*
X92019987Y-65978476D01*
X91994360Y-65981000D01*
X90505640Y-65981000D01*
X90480013Y-65978476D01*
X90461274Y-65972791D01*
X90443998Y-65963557D01*
X90428863Y-65951137D01*
X90416443Y-65936002D01*
X90407209Y-65918726D01*
X90401524Y-65899987D01*
X90399000Y-65874360D01*
X90399000Y-65435640D01*
X90401524Y-65410013D01*
X90407209Y-65391274D01*
X90416443Y-65373998D01*
X90428863Y-65358863D01*
X90443998Y-65346443D01*
X90461274Y-65337209D01*
X90480013Y-65331524D01*
X90505640Y-65329000D01*
X91994360Y-65329000D01*
X92019987Y-65331524D01*
X92019987Y-65331524D01*
G37*
G36*
X128995293Y-65000323D02*
X129002312Y-65002452D01*
X129008775Y-65005907D01*
X129014442Y-65010558D01*
X129019093Y-65016225D01*
X129022548Y-65022688D01*
X129024677Y-65029707D01*
X129026000Y-65043140D01*
X129026000Y-65356860D01*
X129024677Y-65370293D01*
X129022548Y-65377312D01*
X129019093Y-65383775D01*
X129014442Y-65389442D01*
X129008775Y-65394093D01*
X129002312Y-65397548D01*
X128995293Y-65399677D01*
X128981860Y-65401000D01*
X128418140Y-65401000D01*
X128404707Y-65399677D01*
X128397688Y-65397548D01*
X128391225Y-65394093D01*
X128385558Y-65389442D01*
X128380907Y-65383775D01*
X128377452Y-65377312D01*
X128375323Y-65370293D01*
X128374000Y-65356860D01*
X128374000Y-65043140D01*
X128375323Y-65029707D01*
X128377452Y-65022688D01*
X128380907Y-65016225D01*
X128385558Y-65010558D01*
X128391225Y-65005907D01*
X128397688Y-65002452D01*
X128404707Y-65000323D01*
X128418140Y-64999000D01*
X128981860Y-64999000D01*
X128995293Y-65000323D01*
X128995293Y-65000323D01*
G37*
G36*
X85519987Y-64061524D02*
X85538726Y-64067209D01*
X85556002Y-64076443D01*
X85571137Y-64088863D01*
X85583557Y-64103998D01*
X85592791Y-64121274D01*
X85598476Y-64140013D01*
X85601000Y-64165640D01*
X85601000Y-64604360D01*
X85598476Y-64629987D01*
X85592791Y-64648726D01*
X85583557Y-64666002D01*
X85571137Y-64681137D01*
X85556002Y-64693557D01*
X85538726Y-64702791D01*
X85519987Y-64708476D01*
X85494360Y-64711000D01*
X84005640Y-64711000D01*
X83980013Y-64708476D01*
X83961274Y-64702791D01*
X83943998Y-64693557D01*
X83928863Y-64681137D01*
X83916443Y-64666002D01*
X83907209Y-64648726D01*
X83901524Y-64629987D01*
X83899000Y-64604360D01*
X83899000Y-64165640D01*
X83901524Y-64140013D01*
X83907209Y-64121274D01*
X83916443Y-64103998D01*
X83928863Y-64088863D01*
X83943998Y-64076443D01*
X83961274Y-64067209D01*
X83980013Y-64061524D01*
X84005640Y-64059000D01*
X85494360Y-64059000D01*
X85519987Y-64061524D01*
X85519987Y-64061524D01*
G37*
G36*
X92019987Y-64061524D02*
X92038726Y-64067209D01*
X92056002Y-64076443D01*
X92071137Y-64088863D01*
X92083557Y-64103998D01*
X92092791Y-64121274D01*
X92098476Y-64140013D01*
X92101000Y-64165640D01*
X92101000Y-64604360D01*
X92098476Y-64629987D01*
X92092791Y-64648726D01*
X92083557Y-64666002D01*
X92071137Y-64681137D01*
X92056002Y-64693557D01*
X92038726Y-64702791D01*
X92019987Y-64708476D01*
X91994360Y-64711000D01*
X90505640Y-64711000D01*
X90480013Y-64708476D01*
X90461274Y-64702791D01*
X90443998Y-64693557D01*
X90428863Y-64681137D01*
X90416443Y-64666002D01*
X90407209Y-64648726D01*
X90401524Y-64629987D01*
X90399000Y-64604360D01*
X90399000Y-64165640D01*
X90401524Y-64140013D01*
X90407209Y-64121274D01*
X90416443Y-64103998D01*
X90428863Y-64088863D01*
X90443998Y-64076443D01*
X90461274Y-64067209D01*
X90480013Y-64061524D01*
X90505640Y-64059000D01*
X91994360Y-64059000D01*
X92019987Y-64061524D01*
X92019987Y-64061524D01*
G37*
G36*
X114804591Y-63503085D02*
X114838569Y-63513393D01*
X114869887Y-63530133D01*
X114897339Y-63552661D01*
X114919867Y-63580113D01*
X114936607Y-63611431D01*
X114946915Y-63645409D01*
X114951000Y-63686890D01*
X114951000Y-64363110D01*
X114946915Y-64404591D01*
X114936607Y-64438569D01*
X114919867Y-64469887D01*
X114897339Y-64497339D01*
X114869887Y-64519867D01*
X114838569Y-64536607D01*
X114804591Y-64546915D01*
X114763110Y-64551000D01*
X114161890Y-64551000D01*
X114120409Y-64546915D01*
X114086431Y-64536607D01*
X114055113Y-64519867D01*
X114027661Y-64497339D01*
X114005133Y-64469887D01*
X113988393Y-64438569D01*
X113978085Y-64404591D01*
X113974000Y-64363110D01*
X113974000Y-63686890D01*
X113978085Y-63645409D01*
X113988393Y-63611431D01*
X114005133Y-63580113D01*
X114027661Y-63552661D01*
X114055113Y-63530133D01*
X114086431Y-63513393D01*
X114120409Y-63503085D01*
X114161890Y-63499000D01*
X114763110Y-63499000D01*
X114804591Y-63503085D01*
X114804591Y-63503085D01*
G37*
G36*
X113229591Y-63503085D02*
X113263569Y-63513393D01*
X113294887Y-63530133D01*
X113322339Y-63552661D01*
X113344867Y-63580113D01*
X113361607Y-63611431D01*
X113371915Y-63645409D01*
X113376000Y-63686890D01*
X113376000Y-64363110D01*
X113371915Y-64404591D01*
X113361607Y-64438569D01*
X113344867Y-64469887D01*
X113322339Y-64497339D01*
X113294887Y-64519867D01*
X113263569Y-64536607D01*
X113229591Y-64546915D01*
X113188110Y-64551000D01*
X112586890Y-64551000D01*
X112545409Y-64546915D01*
X112511431Y-64536607D01*
X112480113Y-64519867D01*
X112452661Y-64497339D01*
X112430133Y-64469887D01*
X112413393Y-64438569D01*
X112403085Y-64404591D01*
X112399000Y-64363110D01*
X112399000Y-63686890D01*
X112403085Y-63645409D01*
X112413393Y-63611431D01*
X112430133Y-63580113D01*
X112452661Y-63552661D01*
X112480113Y-63530133D01*
X112511431Y-63513393D01*
X112545409Y-63503085D01*
X112586890Y-63499000D01*
X113188110Y-63499000D01*
X113229591Y-63503085D01*
X113229591Y-63503085D01*
G37*
G36*
X78901000Y-64531000D02*
X77099000Y-64531000D01*
X77099000Y-62729000D01*
X78901000Y-62729000D01*
X78901000Y-64531000D01*
X78901000Y-64531000D01*
G37*
G36*
X75570443Y-62735519D02*
X75636627Y-62742037D01*
X75749853Y-62776384D01*
X75806467Y-62793557D01*
X75887259Y-62836742D01*
X75962991Y-62877222D01*
X75985433Y-62895640D01*
X76100186Y-62989814D01*
X76183448Y-63091271D01*
X76212778Y-63127009D01*
X76212779Y-63127011D01*
X76296443Y-63283533D01*
X76296443Y-63283534D01*
X76347963Y-63453373D01*
X76365359Y-63630000D01*
X76347963Y-63806627D01*
X76340547Y-63831074D01*
X76296443Y-63976467D01*
X76222348Y-64115087D01*
X76212778Y-64132991D01*
X76185983Y-64165640D01*
X76100186Y-64270186D01*
X75998729Y-64353448D01*
X75962991Y-64382778D01*
X75962989Y-64382779D01*
X75806467Y-64466443D01*
X75749853Y-64483616D01*
X75636627Y-64517963D01*
X75570442Y-64524482D01*
X75504260Y-64531000D01*
X75415740Y-64531000D01*
X75349558Y-64524482D01*
X75283373Y-64517963D01*
X75170147Y-64483616D01*
X75113533Y-64466443D01*
X74957011Y-64382779D01*
X74957009Y-64382778D01*
X74921271Y-64353448D01*
X74819814Y-64270186D01*
X74734017Y-64165640D01*
X74707222Y-64132991D01*
X74697652Y-64115087D01*
X74623557Y-63976467D01*
X74579453Y-63831074D01*
X74572037Y-63806627D01*
X74554641Y-63630000D01*
X74572037Y-63453373D01*
X74623557Y-63283534D01*
X74623557Y-63283533D01*
X74707221Y-63127011D01*
X74707222Y-63127009D01*
X74736552Y-63091271D01*
X74819814Y-62989814D01*
X74934567Y-62895640D01*
X74957009Y-62877222D01*
X75032741Y-62836742D01*
X75113533Y-62793557D01*
X75170147Y-62776384D01*
X75283373Y-62742037D01*
X75349557Y-62735519D01*
X75415740Y-62729000D01*
X75504260Y-62729000D01*
X75570443Y-62735519D01*
X75570443Y-62735519D01*
G37*
G36*
X92019987Y-62791524D02*
X92038726Y-62797209D01*
X92056002Y-62806443D01*
X92071137Y-62818863D01*
X92083557Y-62833998D01*
X92092791Y-62851274D01*
X92098476Y-62870013D01*
X92101000Y-62895640D01*
X92101000Y-63334360D01*
X92098476Y-63359987D01*
X92092791Y-63378726D01*
X92083557Y-63396002D01*
X92071137Y-63411137D01*
X92056002Y-63423557D01*
X92038726Y-63432791D01*
X92019987Y-63438476D01*
X91994360Y-63441000D01*
X90505640Y-63441000D01*
X90480013Y-63438476D01*
X90461274Y-63432791D01*
X90443998Y-63423557D01*
X90428863Y-63411137D01*
X90416443Y-63396002D01*
X90407209Y-63378726D01*
X90401524Y-63359987D01*
X90399000Y-63334360D01*
X90399000Y-62895640D01*
X90401524Y-62870013D01*
X90407209Y-62851274D01*
X90416443Y-62833998D01*
X90428863Y-62818863D01*
X90443998Y-62806443D01*
X90461274Y-62797209D01*
X90480013Y-62791524D01*
X90505640Y-62789000D01*
X91994360Y-62789000D01*
X92019987Y-62791524D01*
X92019987Y-62791524D01*
G37*
G36*
X85519987Y-62791524D02*
X85538726Y-62797209D01*
X85556002Y-62806443D01*
X85571137Y-62818863D01*
X85583557Y-62833998D01*
X85592791Y-62851274D01*
X85598476Y-62870013D01*
X85601000Y-62895640D01*
X85601000Y-63334360D01*
X85598476Y-63359987D01*
X85592791Y-63378726D01*
X85583557Y-63396002D01*
X85571137Y-63411137D01*
X85556002Y-63423557D01*
X85538726Y-63432791D01*
X85519987Y-63438476D01*
X85494360Y-63441000D01*
X84005640Y-63441000D01*
X83980013Y-63438476D01*
X83961274Y-63432791D01*
X83943998Y-63423557D01*
X83928863Y-63411137D01*
X83916443Y-63396002D01*
X83907209Y-63378726D01*
X83901524Y-63359987D01*
X83899000Y-63334360D01*
X83899000Y-62895640D01*
X83901524Y-62870013D01*
X83907209Y-62851274D01*
X83916443Y-62833998D01*
X83928863Y-62818863D01*
X83943998Y-62806443D01*
X83961274Y-62797209D01*
X83980013Y-62791524D01*
X84005640Y-62789000D01*
X85494360Y-62789000D01*
X85519987Y-62791524D01*
X85519987Y-62791524D01*
G37*
G36*
X92019987Y-61521524D02*
X92038726Y-61527209D01*
X92056002Y-61536443D01*
X92071137Y-61548863D01*
X92083557Y-61563998D01*
X92092791Y-61581274D01*
X92098476Y-61600013D01*
X92101000Y-61625640D01*
X92101000Y-62064360D01*
X92098476Y-62089987D01*
X92092791Y-62108726D01*
X92083557Y-62126002D01*
X92071137Y-62141137D01*
X92056002Y-62153557D01*
X92038726Y-62162791D01*
X92019987Y-62168476D01*
X91994360Y-62171000D01*
X90505640Y-62171000D01*
X90480013Y-62168476D01*
X90461274Y-62162791D01*
X90443998Y-62153557D01*
X90428863Y-62141137D01*
X90416443Y-62126002D01*
X90407209Y-62108726D01*
X90401524Y-62089987D01*
X90399000Y-62064360D01*
X90399000Y-61625640D01*
X90401524Y-61600013D01*
X90407209Y-61581274D01*
X90416443Y-61563998D01*
X90428863Y-61548863D01*
X90443998Y-61536443D01*
X90461274Y-61527209D01*
X90480013Y-61521524D01*
X90505640Y-61519000D01*
X91994360Y-61519000D01*
X92019987Y-61521524D01*
X92019987Y-61521524D01*
G37*
G36*
X85519987Y-61521524D02*
X85538726Y-61527209D01*
X85556002Y-61536443D01*
X85571137Y-61548863D01*
X85583557Y-61563998D01*
X85592791Y-61581274D01*
X85598476Y-61600013D01*
X85601000Y-61625640D01*
X85601000Y-62064360D01*
X85598476Y-62089987D01*
X85592791Y-62108726D01*
X85583557Y-62126002D01*
X85571137Y-62141137D01*
X85556002Y-62153557D01*
X85538726Y-62162791D01*
X85519987Y-62168476D01*
X85494360Y-62171000D01*
X84005640Y-62171000D01*
X83980013Y-62168476D01*
X83961274Y-62162791D01*
X83943998Y-62153557D01*
X83928863Y-62141137D01*
X83916443Y-62126002D01*
X83907209Y-62108726D01*
X83901524Y-62089987D01*
X83899000Y-62064360D01*
X83899000Y-61625640D01*
X83901524Y-61600013D01*
X83907209Y-61581274D01*
X83916443Y-61563998D01*
X83928863Y-61548863D01*
X83943998Y-61536443D01*
X83961274Y-61527209D01*
X83980013Y-61521524D01*
X84005640Y-61519000D01*
X85494360Y-61519000D01*
X85519987Y-61521524D01*
X85519987Y-61521524D01*
G37*
G36*
X126509466Y-60553565D02*
X126548137Y-60565296D01*
X126583779Y-60584348D01*
X126615017Y-60609983D01*
X126640652Y-60641221D01*
X126659704Y-60676863D01*
X126671435Y-60715534D01*
X126676000Y-60761888D01*
X126676000Y-61838112D01*
X126671435Y-61884466D01*
X126659704Y-61923137D01*
X126640652Y-61958779D01*
X126615017Y-61990017D01*
X126583779Y-62015652D01*
X126548137Y-62034704D01*
X126509466Y-62046435D01*
X126463112Y-62051000D01*
X125811888Y-62051000D01*
X125765534Y-62046435D01*
X125726863Y-62034704D01*
X125691221Y-62015652D01*
X125659983Y-61990017D01*
X125634348Y-61958779D01*
X125615296Y-61923137D01*
X125603565Y-61884466D01*
X125599000Y-61838112D01*
X125599000Y-60761888D01*
X125603565Y-60715534D01*
X125615296Y-60676863D01*
X125634348Y-60641221D01*
X125659983Y-60609983D01*
X125691221Y-60584348D01*
X125726863Y-60565296D01*
X125765534Y-60553565D01*
X125811888Y-60549000D01*
X126463112Y-60549000D01*
X126509466Y-60553565D01*
X126509466Y-60553565D01*
G37*
G36*
X124634466Y-60553565D02*
X124673137Y-60565296D01*
X124708779Y-60584348D01*
X124740017Y-60609983D01*
X124765652Y-60641221D01*
X124784704Y-60676863D01*
X124796435Y-60715534D01*
X124801000Y-60761888D01*
X124801000Y-61838112D01*
X124796435Y-61884466D01*
X124784704Y-61923137D01*
X124765652Y-61958779D01*
X124740017Y-61990017D01*
X124708779Y-62015652D01*
X124673137Y-62034704D01*
X124634466Y-62046435D01*
X124588112Y-62051000D01*
X123936888Y-62051000D01*
X123890534Y-62046435D01*
X123851863Y-62034704D01*
X123816221Y-62015652D01*
X123784983Y-61990017D01*
X123759348Y-61958779D01*
X123740296Y-61923137D01*
X123728565Y-61884466D01*
X123724000Y-61838112D01*
X123724000Y-60761888D01*
X123728565Y-60715534D01*
X123740296Y-60676863D01*
X123759348Y-60641221D01*
X123784983Y-60609983D01*
X123816221Y-60584348D01*
X123851863Y-60565296D01*
X123890534Y-60553565D01*
X123936888Y-60549000D01*
X124588112Y-60549000D01*
X124634466Y-60553565D01*
X124634466Y-60553565D01*
G37*
G36*
X121054591Y-60778085D02*
X121088569Y-60788393D01*
X121119887Y-60805133D01*
X121147339Y-60827661D01*
X121169867Y-60855113D01*
X121186607Y-60886431D01*
X121196915Y-60920409D01*
X121201000Y-60961890D01*
X121201000Y-61638110D01*
X121196915Y-61679591D01*
X121186607Y-61713569D01*
X121169867Y-61744887D01*
X121147339Y-61772339D01*
X121119887Y-61794867D01*
X121088569Y-61811607D01*
X121054591Y-61821915D01*
X121013110Y-61826000D01*
X120411890Y-61826000D01*
X120370409Y-61821915D01*
X120336431Y-61811607D01*
X120305113Y-61794867D01*
X120277661Y-61772339D01*
X120255133Y-61744887D01*
X120238393Y-61713569D01*
X120228085Y-61679591D01*
X120224000Y-61638110D01*
X120224000Y-60961890D01*
X120228085Y-60920409D01*
X120238393Y-60886431D01*
X120255133Y-60855113D01*
X120277661Y-60827661D01*
X120305113Y-60805133D01*
X120336431Y-60788393D01*
X120370409Y-60778085D01*
X120411890Y-60774000D01*
X121013110Y-60774000D01*
X121054591Y-60778085D01*
X121054591Y-60778085D01*
G37*
G36*
X122629591Y-60778085D02*
X122663569Y-60788393D01*
X122694887Y-60805133D01*
X122722339Y-60827661D01*
X122744867Y-60855113D01*
X122761607Y-60886431D01*
X122771915Y-60920409D01*
X122776000Y-60961890D01*
X122776000Y-61638110D01*
X122771915Y-61679591D01*
X122761607Y-61713569D01*
X122744867Y-61744887D01*
X122722339Y-61772339D01*
X122694887Y-61794867D01*
X122663569Y-61811607D01*
X122629591Y-61821915D01*
X122588110Y-61826000D01*
X121986890Y-61826000D01*
X121945409Y-61821915D01*
X121911431Y-61811607D01*
X121880113Y-61794867D01*
X121852661Y-61772339D01*
X121830133Y-61744887D01*
X121813393Y-61713569D01*
X121803085Y-61679591D01*
X121799000Y-61638110D01*
X121799000Y-60961890D01*
X121803085Y-60920409D01*
X121813393Y-60886431D01*
X121830133Y-60855113D01*
X121852661Y-60827661D01*
X121880113Y-60805133D01*
X121911431Y-60788393D01*
X121945409Y-60778085D01*
X121986890Y-60774000D01*
X122588110Y-60774000D01*
X122629591Y-60778085D01*
X122629591Y-60778085D01*
G37*
G36*
X137025331Y-58018211D02*
X137353092Y-58153974D01*
X137648073Y-58351074D01*
X137898926Y-58601927D01*
X138096026Y-58896908D01*
X138231789Y-59224669D01*
X138301000Y-59572616D01*
X138301000Y-59927384D01*
X138231789Y-60275331D01*
X138096026Y-60603092D01*
X137898926Y-60898073D01*
X137648073Y-61148926D01*
X137353092Y-61346026D01*
X137025331Y-61481789D01*
X136677384Y-61551000D01*
X136322616Y-61551000D01*
X135974669Y-61481789D01*
X135646908Y-61346026D01*
X135351927Y-61148926D01*
X135101074Y-60898073D01*
X134903974Y-60603092D01*
X134768211Y-60275331D01*
X134699000Y-59927384D01*
X134699000Y-59572616D01*
X134768211Y-59224669D01*
X134903974Y-58896908D01*
X135101074Y-58601927D01*
X135351927Y-58351074D01*
X135646908Y-58153974D01*
X135974669Y-58018211D01*
X136322616Y-57949000D01*
X136677384Y-57949000D01*
X137025331Y-58018211D01*
X137025331Y-58018211D01*
G37*
G36*
X132025331Y-58018211D02*
X132353092Y-58153974D01*
X132648073Y-58351074D01*
X132898926Y-58601927D01*
X133096026Y-58896908D01*
X133231789Y-59224669D01*
X133301000Y-59572616D01*
X133301000Y-59927384D01*
X133231789Y-60275331D01*
X133096026Y-60603092D01*
X132898926Y-60898073D01*
X132648073Y-61148926D01*
X132353092Y-61346026D01*
X132025331Y-61481789D01*
X131677384Y-61551000D01*
X131322616Y-61551000D01*
X130974669Y-61481789D01*
X130646908Y-61346026D01*
X130351927Y-61148926D01*
X130101074Y-60898073D01*
X129903974Y-60603092D01*
X129768211Y-60275331D01*
X129699000Y-59927384D01*
X129699000Y-59572616D01*
X129768211Y-59224669D01*
X129903974Y-58896908D01*
X130101074Y-58601927D01*
X130351927Y-58351074D01*
X130646908Y-58153974D01*
X130974669Y-58018211D01*
X131322616Y-57949000D01*
X131677384Y-57949000D01*
X132025331Y-58018211D01*
X132025331Y-58018211D01*
G37*
G36*
X85519987Y-60251524D02*
X85538726Y-60257209D01*
X85556002Y-60266443D01*
X85571137Y-60278863D01*
X85583557Y-60293998D01*
X85592791Y-60311274D01*
X85598476Y-60330013D01*
X85601000Y-60355640D01*
X85601000Y-60794360D01*
X85598476Y-60819987D01*
X85592791Y-60838726D01*
X85583557Y-60856002D01*
X85571137Y-60871137D01*
X85556002Y-60883557D01*
X85538726Y-60892791D01*
X85519987Y-60898476D01*
X85494360Y-60901000D01*
X84005640Y-60901000D01*
X83980013Y-60898476D01*
X83961274Y-60892791D01*
X83943998Y-60883557D01*
X83928863Y-60871137D01*
X83916443Y-60856002D01*
X83907209Y-60838726D01*
X83901524Y-60819987D01*
X83899000Y-60794360D01*
X83899000Y-60355640D01*
X83901524Y-60330013D01*
X83907209Y-60311274D01*
X83916443Y-60293998D01*
X83928863Y-60278863D01*
X83943998Y-60266443D01*
X83961274Y-60257209D01*
X83980013Y-60251524D01*
X84005640Y-60249000D01*
X85494360Y-60249000D01*
X85519987Y-60251524D01*
X85519987Y-60251524D01*
G37*
G36*
X92019987Y-60251524D02*
X92038726Y-60257209D01*
X92056002Y-60266443D01*
X92071137Y-60278863D01*
X92083557Y-60293998D01*
X92092791Y-60311274D01*
X92098476Y-60330013D01*
X92101000Y-60355640D01*
X92101000Y-60794360D01*
X92098476Y-60819987D01*
X92092791Y-60838726D01*
X92083557Y-60856002D01*
X92071137Y-60871137D01*
X92056002Y-60883557D01*
X92038726Y-60892791D01*
X92019987Y-60898476D01*
X91994360Y-60901000D01*
X90505640Y-60901000D01*
X90480013Y-60898476D01*
X90461274Y-60892791D01*
X90443998Y-60883557D01*
X90428863Y-60871137D01*
X90416443Y-60856002D01*
X90407209Y-60838726D01*
X90401524Y-60819987D01*
X90399000Y-60794360D01*
X90399000Y-60355640D01*
X90401524Y-60330013D01*
X90407209Y-60311274D01*
X90416443Y-60293998D01*
X90428863Y-60278863D01*
X90443998Y-60266443D01*
X90461274Y-60257209D01*
X90480013Y-60251524D01*
X90505640Y-60249000D01*
X91994360Y-60249000D01*
X92019987Y-60251524D01*
X92019987Y-60251524D01*
G37*
G36*
X92019987Y-58981524D02*
X92038726Y-58987209D01*
X92056002Y-58996443D01*
X92071137Y-59008863D01*
X92083557Y-59023998D01*
X92092791Y-59041274D01*
X92098476Y-59060013D01*
X92101000Y-59085640D01*
X92101000Y-59524360D01*
X92098476Y-59549987D01*
X92092791Y-59568726D01*
X92083557Y-59586002D01*
X92071137Y-59601137D01*
X92056002Y-59613557D01*
X92038726Y-59622791D01*
X92019987Y-59628476D01*
X91994360Y-59631000D01*
X90505640Y-59631000D01*
X90480013Y-59628476D01*
X90461274Y-59622791D01*
X90443998Y-59613557D01*
X90428863Y-59601137D01*
X90416443Y-59586002D01*
X90407209Y-59568726D01*
X90401524Y-59549987D01*
X90399000Y-59524360D01*
X90399000Y-59085640D01*
X90401524Y-59060013D01*
X90407209Y-59041274D01*
X90416443Y-59023998D01*
X90428863Y-59008863D01*
X90443998Y-58996443D01*
X90461274Y-58987209D01*
X90480013Y-58981524D01*
X90505640Y-58979000D01*
X91994360Y-58979000D01*
X92019987Y-58981524D01*
X92019987Y-58981524D01*
G37*
G36*
X85519987Y-58981524D02*
X85538726Y-58987209D01*
X85556002Y-58996443D01*
X85571137Y-59008863D01*
X85583557Y-59023998D01*
X85592791Y-59041274D01*
X85598476Y-59060013D01*
X85601000Y-59085640D01*
X85601000Y-59524360D01*
X85598476Y-59549987D01*
X85592791Y-59568726D01*
X85583557Y-59586002D01*
X85571137Y-59601137D01*
X85556002Y-59613557D01*
X85538726Y-59622791D01*
X85519987Y-59628476D01*
X85494360Y-59631000D01*
X84005640Y-59631000D01*
X83980013Y-59628476D01*
X83961274Y-59622791D01*
X83943998Y-59613557D01*
X83928863Y-59601137D01*
X83916443Y-59586002D01*
X83907209Y-59568726D01*
X83901524Y-59549987D01*
X83899000Y-59524360D01*
X83899000Y-59085640D01*
X83901524Y-59060013D01*
X83907209Y-59041274D01*
X83916443Y-59023998D01*
X83928863Y-59008863D01*
X83943998Y-58996443D01*
X83961274Y-58987209D01*
X83980013Y-58981524D01*
X84005640Y-58979000D01*
X85494360Y-58979000D01*
X85519987Y-58981524D01*
X85519987Y-58981524D01*
G37*
G36*
X113241000Y-59151000D02*
X111439000Y-59151000D01*
X111439000Y-57349000D01*
X113241000Y-57349000D01*
X113241000Y-59151000D01*
X113241000Y-59151000D01*
G37*
G36*
X109910443Y-57355519D02*
X109976627Y-57362037D01*
X110089853Y-57396384D01*
X110146467Y-57413557D01*
X110285087Y-57487652D01*
X110302991Y-57497222D01*
X110338729Y-57526552D01*
X110440186Y-57609814D01*
X110523448Y-57711271D01*
X110552778Y-57747009D01*
X110552779Y-57747011D01*
X110636443Y-57903533D01*
X110636443Y-57903534D01*
X110687963Y-58073373D01*
X110705359Y-58250000D01*
X110687963Y-58426627D01*
X110656074Y-58531750D01*
X110636443Y-58596467D01*
X110578718Y-58704461D01*
X110552778Y-58752991D01*
X110537746Y-58771307D01*
X110440186Y-58890186D01*
X110348229Y-58965652D01*
X110302991Y-59002778D01*
X110302989Y-59002779D01*
X110146467Y-59086443D01*
X110089853Y-59103616D01*
X109976627Y-59137963D01*
X109910443Y-59144481D01*
X109844260Y-59151000D01*
X109755740Y-59151000D01*
X109689557Y-59144481D01*
X109623373Y-59137963D01*
X109510147Y-59103616D01*
X109453533Y-59086443D01*
X109297011Y-59002779D01*
X109297009Y-59002778D01*
X109251771Y-58965652D01*
X109159814Y-58890186D01*
X109062254Y-58771307D01*
X109047222Y-58752991D01*
X109021282Y-58704461D01*
X108963557Y-58596467D01*
X108943926Y-58531750D01*
X108912037Y-58426627D01*
X108894641Y-58250000D01*
X108912037Y-58073373D01*
X108963557Y-57903534D01*
X108963557Y-57903533D01*
X109047221Y-57747011D01*
X109047222Y-57747009D01*
X109076552Y-57711271D01*
X109159814Y-57609814D01*
X109261271Y-57526552D01*
X109297009Y-57497222D01*
X109314913Y-57487652D01*
X109453533Y-57413557D01*
X109510147Y-57396384D01*
X109623373Y-57362037D01*
X109689557Y-57355519D01*
X109755740Y-57349000D01*
X109844260Y-57349000D01*
X109910443Y-57355519D01*
X109910443Y-57355519D01*
G37*
G36*
X104830443Y-57355519D02*
X104896627Y-57362037D01*
X105009853Y-57396384D01*
X105066467Y-57413557D01*
X105205087Y-57487652D01*
X105222991Y-57497222D01*
X105258729Y-57526552D01*
X105360186Y-57609814D01*
X105443448Y-57711271D01*
X105472778Y-57747009D01*
X105472779Y-57747011D01*
X105556443Y-57903533D01*
X105556443Y-57903534D01*
X105607963Y-58073373D01*
X105625359Y-58250000D01*
X105607963Y-58426627D01*
X105576074Y-58531750D01*
X105556443Y-58596467D01*
X105498718Y-58704461D01*
X105472778Y-58752991D01*
X105457746Y-58771307D01*
X105360186Y-58890186D01*
X105268229Y-58965652D01*
X105222991Y-59002778D01*
X105222989Y-59002779D01*
X105066467Y-59086443D01*
X105009853Y-59103616D01*
X104896627Y-59137963D01*
X104830443Y-59144481D01*
X104764260Y-59151000D01*
X104675740Y-59151000D01*
X104609557Y-59144481D01*
X104543373Y-59137963D01*
X104430147Y-59103616D01*
X104373533Y-59086443D01*
X104217011Y-59002779D01*
X104217009Y-59002778D01*
X104171771Y-58965652D01*
X104079814Y-58890186D01*
X103982254Y-58771307D01*
X103967222Y-58752991D01*
X103941282Y-58704461D01*
X103883557Y-58596467D01*
X103863926Y-58531750D01*
X103832037Y-58426627D01*
X103814641Y-58250000D01*
X103832037Y-58073373D01*
X103883557Y-57903534D01*
X103883557Y-57903533D01*
X103967221Y-57747011D01*
X103967222Y-57747009D01*
X103996552Y-57711271D01*
X104079814Y-57609814D01*
X104181271Y-57526552D01*
X104217009Y-57497222D01*
X104234913Y-57487652D01*
X104373533Y-57413557D01*
X104430147Y-57396384D01*
X104543373Y-57362037D01*
X104609557Y-57355519D01*
X104675740Y-57349000D01*
X104764260Y-57349000D01*
X104830443Y-57355519D01*
X104830443Y-57355519D01*
G37*
G36*
X107370443Y-57355519D02*
X107436627Y-57362037D01*
X107549853Y-57396384D01*
X107606467Y-57413557D01*
X107745087Y-57487652D01*
X107762991Y-57497222D01*
X107798729Y-57526552D01*
X107900186Y-57609814D01*
X107983448Y-57711271D01*
X108012778Y-57747009D01*
X108012779Y-57747011D01*
X108096443Y-57903533D01*
X108096443Y-57903534D01*
X108147963Y-58073373D01*
X108165359Y-58250000D01*
X108147963Y-58426627D01*
X108116074Y-58531750D01*
X108096443Y-58596467D01*
X108038718Y-58704461D01*
X108012778Y-58752991D01*
X107997746Y-58771307D01*
X107900186Y-58890186D01*
X107808229Y-58965652D01*
X107762991Y-59002778D01*
X107762989Y-59002779D01*
X107606467Y-59086443D01*
X107549853Y-59103616D01*
X107436627Y-59137963D01*
X107370443Y-59144481D01*
X107304260Y-59151000D01*
X107215740Y-59151000D01*
X107149557Y-59144481D01*
X107083373Y-59137963D01*
X106970147Y-59103616D01*
X106913533Y-59086443D01*
X106757011Y-59002779D01*
X106757009Y-59002778D01*
X106711771Y-58965652D01*
X106619814Y-58890186D01*
X106522254Y-58771307D01*
X106507222Y-58752991D01*
X106481282Y-58704461D01*
X106423557Y-58596467D01*
X106403926Y-58531750D01*
X106372037Y-58426627D01*
X106354641Y-58250000D01*
X106372037Y-58073373D01*
X106423557Y-57903534D01*
X106423557Y-57903533D01*
X106507221Y-57747011D01*
X106507222Y-57747009D01*
X106536552Y-57711271D01*
X106619814Y-57609814D01*
X106721271Y-57526552D01*
X106757009Y-57497222D01*
X106774913Y-57487652D01*
X106913533Y-57413557D01*
X106970147Y-57396384D01*
X107083373Y-57362037D01*
X107149557Y-57355519D01*
X107215740Y-57349000D01*
X107304260Y-57349000D01*
X107370443Y-57355519D01*
X107370443Y-57355519D01*
G37*
G36*
X126509466Y-57503565D02*
X126548137Y-57515296D01*
X126583779Y-57534348D01*
X126615017Y-57559983D01*
X126640652Y-57591221D01*
X126659704Y-57626863D01*
X126671435Y-57665534D01*
X126676000Y-57711888D01*
X126676000Y-58788112D01*
X126671435Y-58834466D01*
X126659704Y-58873137D01*
X126640652Y-58908779D01*
X126615017Y-58940017D01*
X126583779Y-58965652D01*
X126548137Y-58984704D01*
X126509466Y-58996435D01*
X126463112Y-59001000D01*
X125811888Y-59001000D01*
X125765534Y-58996435D01*
X125726863Y-58984704D01*
X125691221Y-58965652D01*
X125659983Y-58940017D01*
X125634348Y-58908779D01*
X125615296Y-58873137D01*
X125603565Y-58834466D01*
X125599000Y-58788112D01*
X125599000Y-57711888D01*
X125603565Y-57665534D01*
X125615296Y-57626863D01*
X125634348Y-57591221D01*
X125659983Y-57559983D01*
X125691221Y-57534348D01*
X125726863Y-57515296D01*
X125765534Y-57503565D01*
X125811888Y-57499000D01*
X126463112Y-57499000D01*
X126509466Y-57503565D01*
X126509466Y-57503565D01*
G37*
G36*
X124634466Y-57503565D02*
X124673137Y-57515296D01*
X124708779Y-57534348D01*
X124740017Y-57559983D01*
X124765652Y-57591221D01*
X124784704Y-57626863D01*
X124796435Y-57665534D01*
X124801000Y-57711888D01*
X124801000Y-58788112D01*
X124796435Y-58834466D01*
X124784704Y-58873137D01*
X124765652Y-58908779D01*
X124740017Y-58940017D01*
X124708779Y-58965652D01*
X124673137Y-58984704D01*
X124634466Y-58996435D01*
X124588112Y-59001000D01*
X123936888Y-59001000D01*
X123890534Y-58996435D01*
X123851863Y-58984704D01*
X123816221Y-58965652D01*
X123784983Y-58940017D01*
X123759348Y-58908779D01*
X123740296Y-58873137D01*
X123728565Y-58834466D01*
X123724000Y-58788112D01*
X123724000Y-57711888D01*
X123728565Y-57665534D01*
X123740296Y-57626863D01*
X123759348Y-57591221D01*
X123784983Y-57559983D01*
X123816221Y-57534348D01*
X123851863Y-57515296D01*
X123890534Y-57503565D01*
X123936888Y-57499000D01*
X124588112Y-57499000D01*
X124634466Y-57503565D01*
X124634466Y-57503565D01*
G37*
G36*
X77009600Y-58900500D02*
X75790000Y-58900500D01*
X75790000Y-57909500D01*
X77009600Y-57909500D01*
X77009600Y-58900500D01*
X77009600Y-58900500D01*
G37*
G36*
X80210000Y-58900500D02*
X78990400Y-58900500D01*
X78990400Y-57909500D01*
X80210000Y-57909500D01*
X80210000Y-58900500D01*
X80210000Y-58900500D01*
G37*
G36*
X121054591Y-57728085D02*
X121088569Y-57738393D01*
X121119887Y-57755133D01*
X121147339Y-57777661D01*
X121169867Y-57805113D01*
X121186607Y-57836431D01*
X121196915Y-57870409D01*
X121201000Y-57911890D01*
X121201000Y-58588110D01*
X121196915Y-58629591D01*
X121186607Y-58663569D01*
X121169867Y-58694887D01*
X121147339Y-58722339D01*
X121119887Y-58744867D01*
X121088569Y-58761607D01*
X121054591Y-58771915D01*
X121013110Y-58776000D01*
X120411890Y-58776000D01*
X120370409Y-58771915D01*
X120336431Y-58761607D01*
X120305113Y-58744867D01*
X120277661Y-58722339D01*
X120255133Y-58694887D01*
X120238393Y-58663569D01*
X120228085Y-58629591D01*
X120224000Y-58588110D01*
X120224000Y-57911890D01*
X120228085Y-57870409D01*
X120238393Y-57836431D01*
X120255133Y-57805113D01*
X120277661Y-57777661D01*
X120305113Y-57755133D01*
X120336431Y-57738393D01*
X120370409Y-57728085D01*
X120411890Y-57724000D01*
X121013110Y-57724000D01*
X121054591Y-57728085D01*
X121054591Y-57728085D01*
G37*
G36*
X122629591Y-57728085D02*
X122663569Y-57738393D01*
X122694887Y-57755133D01*
X122722339Y-57777661D01*
X122744867Y-57805113D01*
X122761607Y-57836431D01*
X122771915Y-57870409D01*
X122776000Y-57911890D01*
X122776000Y-58588110D01*
X122771915Y-58629591D01*
X122761607Y-58663569D01*
X122744867Y-58694887D01*
X122722339Y-58722339D01*
X122694887Y-58744867D01*
X122663569Y-58761607D01*
X122629591Y-58771915D01*
X122588110Y-58776000D01*
X121986890Y-58776000D01*
X121945409Y-58771915D01*
X121911431Y-58761607D01*
X121880113Y-58744867D01*
X121852661Y-58722339D01*
X121830133Y-58694887D01*
X121813393Y-58663569D01*
X121803085Y-58629591D01*
X121799000Y-58588110D01*
X121799000Y-57911890D01*
X121803085Y-57870409D01*
X121813393Y-57836431D01*
X121830133Y-57805113D01*
X121852661Y-57777661D01*
X121880113Y-57755133D01*
X121911431Y-57738393D01*
X121945409Y-57728085D01*
X121986890Y-57724000D01*
X122588110Y-57724000D01*
X122629591Y-57728085D01*
X122629591Y-57728085D01*
G37*
G36*
X80210000Y-57630500D02*
X78990400Y-57630500D01*
X78990400Y-56639500D01*
X80210000Y-56639500D01*
X80210000Y-57630500D01*
X80210000Y-57630500D01*
G37*
G36*
X77009600Y-57630500D02*
X75790000Y-57630500D01*
X75790000Y-56639500D01*
X77009600Y-56639500D01*
X77009600Y-57630500D01*
X77009600Y-57630500D01*
G37*
G36*
X77009600Y-56360500D02*
X75790000Y-56360500D01*
X75790000Y-55369500D01*
X77009600Y-55369500D01*
X77009600Y-56360500D01*
X77009600Y-56360500D01*
G37*
G36*
X80210000Y-56360500D02*
X78990400Y-56360500D01*
X78990400Y-55369500D01*
X80210000Y-55369500D01*
X80210000Y-56360500D01*
X80210000Y-56360500D01*
G37*
G36*
X122056202Y-49903781D02*
X122331606Y-49958562D01*
X122850455Y-50173476D01*
X123262805Y-50449000D01*
X123317410Y-50485486D01*
X123714514Y-50882590D01*
X123714516Y-50882593D01*
X124026524Y-51349545D01*
X124181905Y-51724669D01*
X124241438Y-51868395D01*
X124351000Y-52419200D01*
X124351000Y-52980800D01*
X124326674Y-53103093D01*
X124241438Y-53531606D01*
X124026524Y-54050455D01*
X123993753Y-54099500D01*
X123714514Y-54517410D01*
X123317410Y-54914514D01*
X123317407Y-54914516D01*
X122850455Y-55226524D01*
X122331606Y-55441438D01*
X121780800Y-55551000D01*
X121219200Y-55551000D01*
X120668394Y-55441438D01*
X120149545Y-55226524D01*
X119682593Y-54914516D01*
X119682590Y-54914514D01*
X119285486Y-54517410D01*
X119006247Y-54099500D01*
X118973476Y-54050455D01*
X118758562Y-53531606D01*
X118673326Y-53103093D01*
X118649000Y-52980800D01*
X118649000Y-52419200D01*
X118758562Y-51868395D01*
X118818095Y-51724669D01*
X118973476Y-51349545D01*
X119285484Y-50882593D01*
X119285486Y-50882590D01*
X119682590Y-50485486D01*
X119737195Y-50449000D01*
X120149545Y-50173476D01*
X120668394Y-49958562D01*
X120943798Y-49903781D01*
X121219200Y-49849000D01*
X121780800Y-49849000D01*
X122056202Y-49903781D01*
X122056202Y-49903781D01*
G37*
G36*
X96156202Y-49903781D02*
X96431606Y-49958562D01*
X96950455Y-50173476D01*
X97362805Y-50449000D01*
X97417410Y-50485486D01*
X97814514Y-50882590D01*
X97814516Y-50882593D01*
X98126524Y-51349545D01*
X98281905Y-51724669D01*
X98341438Y-51868395D01*
X98451000Y-52419200D01*
X98451000Y-52980800D01*
X98426674Y-53103093D01*
X98341438Y-53531606D01*
X98126524Y-54050455D01*
X98093753Y-54099500D01*
X97814514Y-54517410D01*
X97417410Y-54914514D01*
X97417407Y-54914516D01*
X96950455Y-55226524D01*
X96431606Y-55441438D01*
X95880800Y-55551000D01*
X95319200Y-55551000D01*
X94768394Y-55441438D01*
X94249545Y-55226524D01*
X93782593Y-54914516D01*
X93782590Y-54914514D01*
X93385486Y-54517410D01*
X93106247Y-54099500D01*
X93073476Y-54050455D01*
X92858562Y-53531606D01*
X92773326Y-53103093D01*
X92749000Y-52980800D01*
X92749000Y-52419200D01*
X92858562Y-51868395D01*
X92918095Y-51724669D01*
X93073476Y-51349545D01*
X93385484Y-50882593D01*
X93385486Y-50882590D01*
X93782590Y-50485486D01*
X93837195Y-50449000D01*
X94249545Y-50173476D01*
X94768394Y-49958562D01*
X95043798Y-49903781D01*
X95319200Y-49849000D01*
X95880800Y-49849000D01*
X96156202Y-49903781D01*
X96156202Y-49903781D01*
G37*
G36*
X80210000Y-55090500D02*
X78990400Y-55090500D01*
X78990400Y-54099500D01*
X80210000Y-54099500D01*
X80210000Y-55090500D01*
X80210000Y-55090500D01*
G37*
G36*
X77009600Y-55090500D02*
X75790000Y-55090500D01*
X75790000Y-54099500D01*
X77009600Y-54099500D01*
X77009600Y-55090500D01*
X77009600Y-55090500D01*
G37*
G36*
X132025331Y-50518211D02*
X132353092Y-50653974D01*
X132648073Y-50851074D01*
X132898926Y-51101927D01*
X133096026Y-51396908D01*
X133231789Y-51724669D01*
X133301000Y-52072616D01*
X133301000Y-52427384D01*
X133231789Y-52775331D01*
X133096026Y-53103092D01*
X132898926Y-53398073D01*
X132648073Y-53648926D01*
X132353092Y-53846026D01*
X132025331Y-53981789D01*
X131677384Y-54051000D01*
X131322616Y-54051000D01*
X130974669Y-53981789D01*
X130646908Y-53846026D01*
X130351927Y-53648926D01*
X130101074Y-53398073D01*
X129903974Y-53103092D01*
X129768211Y-52775331D01*
X129699000Y-52427384D01*
X129699000Y-52072616D01*
X129768211Y-51724669D01*
X129903974Y-51396908D01*
X130101074Y-51101927D01*
X130351927Y-50851074D01*
X130646908Y-50653974D01*
X130974669Y-50518211D01*
X131322616Y-50449000D01*
X131677384Y-50449000D01*
X132025331Y-50518211D01*
X132025331Y-50518211D01*
G37*
G36*
X137025331Y-50518211D02*
X137353092Y-50653974D01*
X137648073Y-50851074D01*
X137898926Y-51101927D01*
X138096026Y-51396908D01*
X138231789Y-51724669D01*
X138301000Y-52072616D01*
X138301000Y-52427384D01*
X138231789Y-52775331D01*
X138096026Y-53103092D01*
X137898926Y-53398073D01*
X137648073Y-53648926D01*
X137353092Y-53846026D01*
X137025331Y-53981789D01*
X136677384Y-54051000D01*
X136322616Y-54051000D01*
X135974669Y-53981789D01*
X135646908Y-53846026D01*
X135351927Y-53648926D01*
X135101074Y-53398073D01*
X134903974Y-53103092D01*
X134768211Y-52775331D01*
X134699000Y-52427384D01*
X134699000Y-52072616D01*
X134768211Y-51724669D01*
X134903974Y-51396908D01*
X135101074Y-51101927D01*
X135351927Y-50851074D01*
X135646908Y-50653974D01*
X135974669Y-50518211D01*
X136322616Y-50449000D01*
X136677384Y-50449000D01*
X137025331Y-50518211D01*
X137025331Y-50518211D01*
G37*
M02*
