M48
;DRILL file {KiCad (5.0.2)-1} date 3/19/2019 7:21:42 PM
;FORMAT={-:-/ absolute / inch / decimal}
FMAT,2
INCH,TZ
T1C0.0157
T2C0.0362
T3C0.0394
T4C0.0748
T5C0.0917
T6C0.1260
%
G90
G05
T1
X2.9504Y-2.1492
X2.9504Y-2.1992
X2.9504Y-2.2492
X2.9504Y-2.2992
X2.9543Y-3.3203
X2.9543Y-3.3703
X2.9543Y-3.4203
X2.9543Y-3.4703
X3.1929Y-2.2992
X3.2126Y-2.685
X3.2185Y-3.3205
X3.2244Y-2.248
X3.2244Y-2.5866
X3.2472Y-3.3701
X3.2531Y-2.1996
X3.2531Y-2.4843
X3.276Y-3.185
X3.276Y-3.4201
X3.278Y-2.9852
X3.278Y-3.0852
X3.2819Y-2.1496
X3.2819Y-2.3846
X3.6559Y-2.3846
X3.6559Y-2.485
X3.6559Y-2.585
X3.6559Y-2.685
X3.6559Y-2.9756
X3.6559Y-3.0756
X3.6559Y-3.1752
X3.6559Y-3.2752
X3.7933Y-2.5354
X3.7933Y-2.6339
X3.7953Y-2.3346
X3.7953Y-2.435
X3.872Y-2.8701
X3.8878Y-2.5354
X3.8878Y-2.6339
X4.0394Y-2.8465
X4.0559Y-2.565
X4.0945Y-2.7539
X4.1043Y-2.878
X4.1043Y-2.9665
X4.1083Y-2.565
X4.1209Y-2.7957
X4.213Y-3.0146
X4.222Y-3.1673
X4.2996Y-3.0579
X4.3504Y-2.564
X4.4114Y-2.748
X4.4114Y-2.8248
X4.4449Y-2.4685
X4.4764Y-2.6437
X4.5108Y-2.8917
X4.5433Y-3.
X4.5472Y-3.0787
X4.5846Y-3.0965
X4.625Y-2.8858
X4.6988Y-2.8248
X5.0138Y-2.2933
X5.0138Y-2.4134
X5.0276Y-3.0492
X5.0669Y-2.5394
T2
X5.1969Y-2.7559
X5.1969Y-2.8543
X5.2756Y-2.7559
X5.2756Y-2.8543
T3
X4.1726Y-3.3957
X4.2726Y-3.3957
X4.3726Y-3.3957
X4.1228Y-2.2933
X4.2228Y-2.2933
X4.3228Y-2.2933
X4.4228Y-2.2933
X2.9709Y-2.5051
X2.9709Y-2.6051
X2.9709Y-2.7051
X2.9709Y-2.8051
X2.9709Y-2.9051
X2.9709Y-3.0051
X2.9709Y-3.1051
X3.0709Y-2.5051
X3.0709Y-2.6051
X3.0709Y-2.7051
X3.0709Y-2.8051
X3.0709Y-2.9051
X3.0709Y-3.0051
X3.0709Y-3.1051
T4
X5.1772Y-3.2579
X5.1772Y-3.5531
X5.374Y-3.2579
X5.374Y-3.5531
X5.1772Y-2.0571
X5.1772Y-2.3524
X5.374Y-2.0571
X5.374Y-2.3524
T5
X5.3823Y-2.5681
X5.3823Y-3.0421
T6
X4.7835Y-2.0748
X4.7835Y-3.5354
X3.7638Y-3.5354
X3.7638Y-2.0748
T0
M30
